<svg xmlns="http://www.w3.org/2000/svg" xmlns:xlink="http://www.w3.org/1999/xlink" width="113" height="113" viewBox="0 0 113 113">
  <defs>
    <filter id="Trazado_982547" x="0" y="0" width="113" height="113" filterUnits="userSpaceOnUse">
      <feOffset dy="3" input="SourceAlpha"/>
      <feGaussianBlur stdDeviation="3" result="blur"/>
      <feFlood flood-opacity="0.161"/>
      <feComposite operator="in" in2="blur"/>
      <feComposite in="SourceGraphic"/>
    </filter>
    <clipPath id="clip-path">
      <path id="path6696" d="M0-682.665H63.446v63.446H0Z" transform="translate(0 682.665)"/>
    </clipPath>
  </defs>
  <g id="Grupo_1208312" data-name="Grupo 1208312" transform="translate(-1112 -1758.216)">
    <g id="Grupo_1208038" data-name="Grupo 1208038" transform="translate(0 -3869.209)">
      <g id="Grupo_1202104" data-name="Grupo 1202104" transform="translate(0 -1149.226)">
        <g id="Grupo_1201923" data-name="Grupo 1201923" transform="translate(-4174.49 4856.378)">
          <g id="Grupo_1176928" data-name="Grupo 1176928" transform="translate(5295.49 1926.273)">
            <g id="Grupo_1172322" data-name="Grupo 1172322" transform="translate(0 0)">
              <g id="Grupo_1164700" data-name="Grupo 1164700">
                <g id="Grupo_1160931" data-name="Grupo 1160931">
                  <g id="Grupo_1160749" data-name="Grupo 1160749">
                    <g id="Grupo_1158891" data-name="Grupo 1158891">
                      <g id="Grupo_1157406" data-name="Grupo 1157406">
                        <g id="Grupo_1155793" data-name="Grupo 1155793">
                          <g id="Grupo_1154704" data-name="Grupo 1154704">
                            <g id="Grupo_1150790" data-name="Grupo 1150790">
                              <g id="Grupo_1154214" data-name="Grupo 1154214">
                                <g id="Grupo_1152583" data-name="Grupo 1152583">
                                  <g id="Grupo_1146973" data-name="Grupo 1146973">
                                    <g id="Grupo_1146954" data-name="Grupo 1146954">
                                      <g transform="matrix(1, 0, 0, 1, -9, -6)" filter="url(#Trazado_982547)">
                                        <g id="Trazado_982547-2" data-name="Trazado 982547" transform="translate(9 6)" fill="#f6ecfe">
                                          <path d="M 47.5000114440918 93.49987030029297 C 41.28938293457031 93.49987030029297 35.26534652709961 92.28384399414062 29.5951976776123 89.88558959960938 C 24.11773109436035 87.56881713867188 19.19814491271973 84.25183868408203 14.97310447692871 80.02680206298828 C 10.74805164337158 75.80176544189453 7.43107795715332 70.88218688964844 5.114304542541504 65.40472412109375 C 2.716038227081299 59.73458862304688 1.500011444091797 53.71054840087891 1.500011444091797 47.49993515014648 C 1.500011444091797 41.28932189941406 2.716038227081299 35.26528167724609 5.114304542541504 29.59514808654785 C 7.43107795715332 24.1176815032959 10.74805164337158 19.1981086730957 14.97310447692871 14.97306823730469 C 19.19814491271973 10.74802875518799 24.11773109436035 7.431055068969727 29.5951976776123 5.11428165435791 C 35.26534652709961 2.716028451919556 41.28938293457031 1.500001788139343 47.5000114440918 1.500001788139343 C 53.71063995361328 1.500001788139343 59.73467636108398 2.716028451919556 65.40482330322266 5.11428165435791 C 70.88229370117188 7.431055068969727 75.8018798828125 10.74802875518799 80.02691650390625 14.97306823730469 C 84.25196838378906 19.1981086730957 87.56894683837891 24.1176815032959 89.88571929931641 29.59514808654785 C 92.28398132324219 35.26528167724609 93.50001525878906 41.28932189941406 93.50001525878906 47.49993515014648 C 93.50001525878906 53.71054840087891 92.28398132324219 59.73458862304688 89.88571929931641 65.40472412109375 C 87.56894683837891 70.88218688964844 84.25196838378906 75.80176544189453 80.02691650390625 80.02680206298828 C 75.8018798828125 84.25183868408203 70.88229370117188 87.56881713867188 65.40482330322266 89.88558959960938 C 59.73467636108398 92.28384399414062 53.71063995361328 93.49987030029297 47.5000114440918 93.49987030029297 Z" stroke="none"/>
                                          <path d="M 47.5000114440918 3 C 41.49122619628906 3 35.66378021240234 4.1761474609375 30.17951965332031 6.495796203613281 C 24.880859375 8.7369384765625 20.12153625488281 11.94596862792969 16.03376770019531 16.03373718261719 C 11.94598388671875 20.12149047851562 8.736968994140625 24.88081359863281 6.495811462402344 30.17947387695312 C 4.176162719726562 35.66371917724609 3.000007629394531 41.49116516113281 3.000007629394531 47.49993515014648 C 3.000007629394531 53.50870513916016 4.176162719726562 59.33615112304688 6.495811462402344 64.82039642333984 C 8.736968994140625 70.11905670166016 11.94598388671875 74.87837982177734 16.03376770019531 78.96613311767578 C 20.12153625488281 83.05390167236328 24.880859375 86.26293182373047 30.17951965332031 88.50407409667969 C 35.66378021240234 90.82372283935547 41.49122619628906 91.99987030029297 47.5000114440918 91.99987030029297 C 53.50879669189453 91.99987030029297 59.33624267578125 90.82372283935547 64.82050323486328 88.50407409667969 C 70.11916351318359 86.26293182373047 74.87848663330078 83.05390167236328 78.96625518798828 78.96613311767578 C 83.05403900146484 74.87837982177734 86.2630615234375 70.11905670166016 88.50421142578125 64.82039642333984 C 90.82386016845703 59.33615112304688 92.00001525878906 53.50870513916016 92.00001525878906 47.49993515014648 C 92.00001525878906 41.49116516113281 90.82386016845703 35.66371917724609 88.50421142578125 30.17947387695312 C 86.2630615234375 24.88081359863281 83.05403900146484 20.12149047851562 78.96625518798828 16.03373718261719 C 74.87848663330078 11.94596862792969 70.11916351318359 8.7369384765625 64.82050323486328 6.495796203613281 C 59.33624267578125 4.1761474609375 53.50879669189453 3 47.5000114440918 3 M 47.5000114440918 0 C 73.73353576660156 0 95.00001525878906 21.26644134521484 95.00001525878906 47.49993515014648 C 95.00001525878906 73.73342895507812 73.73353576660156 94.99987030029297 47.5000114440918 94.99987030029297 C 21.26648712158203 94.99987030029297 7.62939453125e-06 73.73342895507812 7.62939453125e-06 47.49993515014648 C 7.62939453125e-06 21.26644134521484 21.26648712158203 0 47.5000114440918 0 Z" stroke="none" fill="#aa52f9"/>
                                        </g>
                                      </g>
                                    </g>
                                  </g>
                                </g>
                              </g>
                            </g>
                          </g>
                        </g>
                      </g>
                    </g>
                  </g>
                </g>
              </g>
            </g>
          </g>
        </g>
      </g>
    </g>
    <g id="g6690" transform="translate(1138.777 2461.657)">
      <g id="g6692" transform="translate(0 -682.665)">
        <g id="g6694" transform="translate(0 0)" clip-path="url(#clip-path)">
          <g id="g6700" transform="translate(5.452 8.31)">
            <path id="path6702" d="M0-509.1v-50.119a2.044,2.044,0,0,1,2.044-2.044H43.367a2.044,2.044,0,0,1,2.044,2.044V-509.1a2.044,2.044,0,0,1-2.044,2.044H2.044A2.044,2.044,0,0,1,0-509.1" transform="translate(0 561.261)" fill="#0e80ac"/>
          </g>
          <g id="g6704" transform="translate(44.398 8.31)">
            <path id="path6706" d="M-43.149,0h-2.377V52.163a2.044,2.044,0,0,1-2.044,2.044h4.421a2.044,2.044,0,0,0,2.044-2.044V2.044A2.044,2.044,0,0,0-43.149,0" transform="translate(47.571)" fill="#057195"/>
          </g>
          <g id="g6708" transform="translate(9.877 8.31)">
            <path id="path6710" d="M0,0V47.848A1.348,1.348,0,0,0,1.348,49.2H35.213a1.348,1.348,0,0,0,1.348-1.348V0Z" fill="#f7f0f0"/>
          </g>
          <g id="g6712" transform="translate(17.871 0.929)">
            <path id="path6714" d="M-139.907-28.607h0a2.931,2.931,0,0,0-2.931-2.931h-2.235A2.931,2.931,0,0,0-148-28.607a1.487,1.487,0,0,1-1.487,1.487h-1.789a2.962,2.962,0,0,0-2.962,2.962V-22.6a1.406,1.406,0,0,0,1.406,1.406h17.761a1.406,1.406,0,0,0,1.406-1.406v-1.556a2.962,2.962,0,0,0-2.962-2.962h-1.789a1.487,1.487,0,0,1-1.487-1.487" transform="translate(154.242 31.539)" fill="#fd7e42"/>
          </g>
          <g id="g6716" transform="translate(27.762 0.929)">
            <path id="path6718" d="M-75.339-43.12h-1.789a1.487,1.487,0,0,1-1.487-1.487,2.931,2.931,0,0,0-2.931-2.931h-1.513v4.48a1.487,1.487,0,0,0,1.487,1.487h1.789a2.962,2.962,0,0,1,2.962,2.962V-37.2h3.038A1.406,1.406,0,0,0-72.377-38.6v-1.556a2.962,2.962,0,0,0-2.962-2.962" transform="translate(83.058 47.539)" fill="#fa6931"/>
          </g>
          <g id="g6720" transform="translate(15.772 17.956)">
            <path id="path6722" d="M0-26.2l2.037,1.811A.783.783,0,0,0,3.2-24.527l3.048-4.359" transform="translate(0 28.887)" fill="none" stroke="#000" stroke-linecap="round" stroke-linejoin="round" stroke-miterlimit="10" stroke-width="1"/>
          </g>
          <g id="g6724" transform="translate(15.772 31.533)">
            <path id="path6726" d="M0-26.2l2.037,1.811A.783.783,0,0,0,3.2-24.527l3.048-4.359" transform="translate(0 28.887)" fill="none" stroke="#000" stroke-linecap="round" stroke-linejoin="round" stroke-miterlimit="10" stroke-width="1"/>
          </g>
          <g id="g6728" transform="translate(15.772 44.927)">
            <path id="path6730" d="M0-26.2l2.037,1.811A.783.783,0,0,0,3.2-24.527l3.048-4.359" transform="translate(0 28.887)" fill="none" stroke="#000" stroke-linecap="round" stroke-linejoin="round" stroke-miterlimit="10" stroke-width="1"/>
          </g>
          <g id="g6732" transform="translate(27.409 18.444)">
            <path id="path6734" d="M0,0H13.134" transform="translate(0 0)" fill="none" stroke="#000" stroke-linecap="round" stroke-linejoin="round" stroke-miterlimit="10" stroke-width="1"/>
          </g>
          <g id="g6736" transform="translate(27.409 22.575)">
            <path id="path6738" d="M0,0H13.134" fill="none" stroke="#000" stroke-linecap="round" stroke-linejoin="round" stroke-miterlimit="10" stroke-width="1"/>
          </g>
          <g id="g6740" transform="translate(27.409 31.723)">
            <path id="path6742" d="M0,0H13.134" transform="translate(0 0)" fill="none" stroke="#000" stroke-linecap="round" stroke-linejoin="round" stroke-miterlimit="10" stroke-width="1"/>
          </g>
          <g id="g6744" transform="translate(27.409 35.853)">
            <path id="path6746" d="M0,0H6.567" transform="translate(0 0)" fill="none" stroke="#000" stroke-linecap="round" stroke-linejoin="round" stroke-miterlimit="10" stroke-width="1"/>
          </g>
          <g id="g6748" transform="translate(38.444 8.31)">
            <path id="path6750" d="M-121.2-93.658v-7.552a2.044,2.044,0,0,0-2.044-2.044h-10.375" transform="translate(133.624 103.254)" fill="none" stroke="#000" stroke-linecap="round" stroke-linejoin="round" stroke-miterlimit="10" stroke-width="1"/>
          </g>
          <g id="g6752" transform="translate(5.452 8.31)">
            <path id="path6754" d="M-121.2,0H-131.58a2.044,2.044,0,0,0-2.044,2.044V52.163a2.044,2.044,0,0,0,2.044,2.044h41.323a2.044,2.044,0,0,0,2.044-2.044V28.484" transform="translate(133.624)" fill="none" stroke="#000" stroke-linecap="round" stroke-linejoin="round" stroke-miterlimit="10" stroke-width="1"/>
          </g>
          <g id="g6756" transform="translate(17.871 0.929)">
            <path id="path6758" d="M-139.907-28.607h0a2.931,2.931,0,0,0-2.931-2.931h-2.235A2.931,2.931,0,0,0-148-28.607a1.487,1.487,0,0,1-1.487,1.487h-1.789a2.962,2.962,0,0,0-2.962,2.962V-22.6a1.406,1.406,0,0,0,1.406,1.406h17.761a1.406,1.406,0,0,0,1.406-1.406v-1.556a2.962,2.962,0,0,0-2.962-2.962h-1.789A1.487,1.487,0,0,1-139.907-28.607Z" transform="translate(154.242 31.539)" fill="none" stroke="#000" stroke-linecap="round" stroke-linejoin="round" stroke-miterlimit="10" stroke-width="1"/>
          </g>
          <g id="g6760" transform="translate(9.877 8.31)">
            <path id="path6762" d="M0,0V47.848A1.348,1.348,0,0,0,1.348,49.2H16.74" fill="none" stroke="#000" stroke-linecap="round" stroke-linejoin="round" stroke-miterlimit="10" stroke-width="1"/>
          </g>
          <g id="g6764" transform="translate(46.438 8.31)">
            <path id="path6766" d="M0-147.667V-162.8" transform="translate(0 162.797)" fill="none" stroke="#000" stroke-linecap="round" stroke-linejoin="round" stroke-miterlimit="10" stroke-width="1"/>
          </g>
          <g id="g6768" transform="translate(29.022 42.303)">
            <path id="path6770" d="M-37.655-148.112l-3.858.028h16.068a1.348,1.348,0,0,0,1.348-1.348v-13.856" transform="translate(41.513 163.288)" fill="none" stroke="#000" stroke-linecap="round" stroke-linejoin="round" stroke-miterlimit="10" stroke-width="1"/>
          </g>
          <g id="g6772" transform="translate(24.925 23.818)">
            <path id="path6774" d="M-287.186-28.231l-3.609-2.893-1.243.672L-313.124-4.144l-3.352,6.731a1.3,1.3,0,0,0,.35,1.591,1.3,1.3,0,0,0,1.629,0l5.839-4.737,21.085-26.308Z" transform="translate(316.612 31.124)" fill="#fa6931"/>
          </g>
          <g id="g6776" transform="translate(24.935 50.762)">
            <path id="path6778" d="M-34.231,0-37.6,6.768a1.305,1.305,0,0,0,.352,1.6,1.305,1.305,0,0,0,1.638,0L-29.739,3.6Z" transform="translate(37.738)" fill="#557981"/>
          </g>
          <g id="g6780" transform="translate(49.499 19.176)">
            <path id="path6782" d="M-72.447-6.139h0a2.862,2.862,0,0,0-4.024.443l-3.4,4.242,4.467,3.58L-72-2.116a2.862,2.862,0,0,0-.443-4.024" transform="translate(79.87 6.768)" fill="#ffc3ab"/>
          </g>
          <g id="g6784" transform="translate(24.925 24.49)">
            <path id="path6786" d="M-239.83,0l-21.085,26.308-3.352,6.731a1.3,1.3,0,0,0,.35,1.591,1.3,1.3,0,0,0,1.629,0l5.839-4.737L-235.363,3.58" transform="translate(264.403)" fill="none" stroke="#000" stroke-linecap="round" stroke-linejoin="round" stroke-miterlimit="10" stroke-width="1"/>
          </g>
          <g id="g6788" transform="translate(28.442 50.762)">
            <path id="path6790" d="M-43.838-35.136l-4.492-3.6" transform="translate(48.329 38.736)" fill="none" stroke="#000" stroke-linecap="round" stroke-linejoin="round" stroke-miterlimit="10" stroke-width="1"/>
          </g>
          <g id="g6792" transform="translate(49.499 19.176)">
            <path id="path6794" d="M-72.447-6.139h0a2.862,2.862,0,0,0-4.024.443l-3.4,4.242,4.467,3.58L-72-2.116A2.862,2.862,0,0,0-72.447-6.139Z" transform="translate(79.87 6.768)" fill="none" stroke="#000" stroke-linecap="round" stroke-linejoin="round" stroke-miterlimit="10" stroke-width="1"/>
          </g>
        </g>
      </g>
    </g>
  </g>
</svg>
