<svg xmlns="http://www.w3.org/2000/svg" xmlns:xlink="http://www.w3.org/1999/xlink" width="113" height="113" viewBox="0 0 113 113">
  <defs>
    <filter id="Trazado_982547" x="0" y="0" width="113" height="113" filterUnits="userSpaceOnUse">
      <feOffset dy="3" input="SourceAlpha"/>
      <feGaussianBlur stdDeviation="3" result="blur"/>
      <feFlood flood-opacity="0.161"/>
      <feComposite operator="in" in2="blur"/>
      <feComposite in="SourceGraphic"/>
    </filter>
  </defs>
  <g id="Grupo_1208316" data-name="Grupo 1208316" transform="translate(-1862.49 -1772.771)">
    <g id="Grupo_1208042" data-name="Grupo 1208042" transform="translate(1069 -3854.654)">
      <g id="Grupo_1177675" data-name="Grupo 1177675" transform="translate(-4493 3707.152)">
        <g id="Grupo_1176928" data-name="Grupo 1176928" transform="translate(5295.49 1926.273)">
          <g id="Grupo_1172322" data-name="Grupo 1172322" transform="translate(0 0)">
            <g id="Grupo_1164700" data-name="Grupo 1164700">
              <g id="Grupo_1160931" data-name="Grupo 1160931">
                <g id="Grupo_1160749" data-name="Grupo 1160749">
                  <g id="Grupo_1158891" data-name="Grupo 1158891">
                    <g id="Grupo_1157406" data-name="Grupo 1157406">
                      <g id="Grupo_1155793" data-name="Grupo 1155793">
                        <g id="Grupo_1154704" data-name="Grupo 1154704">
                          <g id="Grupo_1150790" data-name="Grupo 1150790">
                            <g id="Grupo_1154214" data-name="Grupo 1154214">
                              <g id="Grupo_1152583" data-name="Grupo 1152583">
                                <g id="Grupo_1146973" data-name="Grupo 1146973">
                                  <g id="Grupo_1146954" data-name="Grupo 1146954">
                                    <g transform="matrix(1, 0, 0, 1, -9, -6)" filter="url(#Trazado_982547)">
                                      <g id="Trazado_982547-2" data-name="Trazado 982547" transform="translate(9 6)" fill="#f6ecfe">
                                        <path d="M 47.5000114440918 93.49987030029297 C 41.28938293457031 93.49987030029297 35.26534652709961 92.28384399414062 29.5951976776123 89.88558959960938 C 24.11773109436035 87.56881713867188 19.19814491271973 84.25183868408203 14.97310447692871 80.02680206298828 C 10.74805164337158 75.80176544189453 7.43107795715332 70.88218688964844 5.114304542541504 65.40472412109375 C 2.716038227081299 59.73458862304688 1.500011444091797 53.71054840087891 1.500011444091797 47.49993515014648 C 1.500011444091797 41.28932189941406 2.716038227081299 35.26528167724609 5.114304542541504 29.59514808654785 C 7.43107795715332 24.1176815032959 10.74805164337158 19.1981086730957 14.97310447692871 14.97306823730469 C 19.19814491271973 10.74802875518799 24.11773109436035 7.431055068969727 29.5951976776123 5.11428165435791 C 35.26534652709961 2.716028451919556 41.28938293457031 1.500001788139343 47.5000114440918 1.500001788139343 C 53.71063995361328 1.500001788139343 59.73467636108398 2.716028451919556 65.40482330322266 5.11428165435791 C 70.88229370117188 7.431055068969727 75.8018798828125 10.74802875518799 80.02691650390625 14.97306823730469 C 84.25196838378906 19.1981086730957 87.56894683837891 24.1176815032959 89.88571929931641 29.59514808654785 C 92.28398132324219 35.26528167724609 93.50001525878906 41.28932189941406 93.50001525878906 47.49993515014648 C 93.50001525878906 53.71054840087891 92.28398132324219 59.73458862304688 89.88571929931641 65.40472412109375 C 87.56894683837891 70.88218688964844 84.25196838378906 75.80176544189453 80.02691650390625 80.02680206298828 C 75.8018798828125 84.25183868408203 70.88229370117188 87.56881713867188 65.40482330322266 89.88558959960938 C 59.73467636108398 92.28384399414062 53.71063995361328 93.49987030029297 47.5000114440918 93.49987030029297 Z" stroke="none"/>
                                        <path d="M 47.5000114440918 3 C 41.49122619628906 3 35.66378021240234 4.1761474609375 30.17951965332031 6.495796203613281 C 24.880859375 8.7369384765625 20.12153625488281 11.94596862792969 16.03376770019531 16.03373718261719 C 11.94598388671875 20.12149047851562 8.736968994140625 24.88081359863281 6.495811462402344 30.17947387695312 C 4.176162719726562 35.66371917724609 3.000007629394531 41.49116516113281 3.000007629394531 47.49993515014648 C 3.000007629394531 53.50870513916016 4.176162719726562 59.33615112304688 6.495811462402344 64.82039642333984 C 8.736968994140625 70.11905670166016 11.94598388671875 74.87837982177734 16.03376770019531 78.96613311767578 C 20.12153625488281 83.05390167236328 24.880859375 86.26293182373047 30.17951965332031 88.50407409667969 C 35.66378021240234 90.82372283935547 41.49122619628906 91.99987030029297 47.5000114440918 91.99987030029297 C 53.50879669189453 91.99987030029297 59.33624267578125 90.82372283935547 64.82050323486328 88.50407409667969 C 70.11916351318359 86.26293182373047 74.87848663330078 83.05390167236328 78.96625518798828 78.96613311767578 C 83.05403900146484 74.87837982177734 86.2630615234375 70.11905670166016 88.50421142578125 64.82039642333984 C 90.82386016845703 59.33615112304688 92.00001525878906 53.50870513916016 92.00001525878906 47.49993515014648 C 92.00001525878906 41.49116516113281 90.82386016845703 35.66371917724609 88.50421142578125 30.17947387695312 C 86.2630615234375 24.88081359863281 83.05403900146484 20.12149047851562 78.96625518798828 16.03373718261719 C 74.87848663330078 11.94596862792969 70.11916351318359 8.7369384765625 64.82050323486328 6.495796203613281 C 59.33624267578125 4.1761474609375 53.50879669189453 3 47.5000114440918 3 M 47.5000114440918 0 C 73.73353576660156 0 95.00001525878906 21.26644134521484 95.00001525878906 47.49993515014648 C 95.00001525878906 73.73342895507812 73.73353576660156 94.99987030029297 47.5000114440918 94.99987030029297 C 21.26648712158203 94.99987030029297 7.62939453125e-06 73.73342895507812 7.62939453125e-06 47.49993515014648 C 7.62939453125e-06 21.26644134521484 21.26648712158203 0 47.5000114440918 0 Z" stroke="none" fill="#aa52f9"/>
                                      </g>
                                    </g>
                                  </g>
                                </g>
                              </g>
                            </g>
                          </g>
                        </g>
                      </g>
                    </g>
                  </g>
                </g>
              </g>
            </g>
          </g>
        </g>
      </g>
    </g>
    <g id="planning_8189428" transform="translate(1826.671 1786.597)">
      <path id="Trazado_1047993" data-name="Trazado 1047993" d="M113.769,95.652h-44.9a2.043,2.043,0,0,1-2.043-2.043V36.887a2.043,2.043,0,0,1,2.043-2.043h44.9a2.043,2.043,0,0,1,2.043,2.043V93.609A2.043,2.043,0,0,1,113.769,95.652Z" transform="translate(0 -23.804)" fill="#faf7f8"/>
      <path id="Trazado_1047994" data-name="Trazado 1047994" d="M377.286,95.652h6.747a2.043,2.043,0,0,0,2.043-2.043V36.887a2.043,2.043,0,0,0-2.043-2.043h-1.539C382.738,45.142,382.912,75.627,377.286,95.652Z" transform="translate(-270.264 -23.804)" fill="#f0eef0"/>
      <path id="Trazado_1047995" data-name="Trazado 1047995" d="M104.627,95.652h9.142a2.043,2.043,0,0,0,2.043-2.043V36.887a2.043,2.043,0,0,0-2.043-2.043h-44.9a2.043,2.043,0,0,0-2.043,2.043V93.609a2.043,2.043,0,0,0,2.043,2.043h32" transform="translate(0 -23.804)" fill="none" stroke="#000" stroke-linecap="round" stroke-linejoin="round" stroke-miterlimit="10" stroke-width="1"/>
      <g id="Grupo_1208313" data-name="Grupo 1208313" transform="translate(71.41 18.495)">
        <path id="Trazado_1047996" data-name="Trazado 1047996" d="M122.764,154.4H108.015a1.434,1.434,0,0,1-1.434-1.434v-6.922H124.2v6.922A1.434,1.434,0,0,1,122.764,154.4Z" transform="translate(-106.018 -139.1)" fill="#ff7e3d"/>
        <path id="Trazado_1047997" data-name="Trazado 1047997" d="M124.2,149.393v-3.349H106.582v3.349c.013.005.025.012.039.017L115.1,152.3a.889.889,0,0,0,.574,0l8.483-2.894C124.173,149.406,124.185,149.4,124.2,149.393Z" transform="translate(-106.019 -139.101)" fill="#ff6927"/>
        <path id="Trazado_1047998" data-name="Trazado 1047998" d="M121.377,154.4h1.388a1.434,1.434,0,0,0,1.434-1.434v-6.922H106.583v6.922a1.434,1.434,0,0,0,1.434,1.434h9.605" transform="translate(-106.02 -139.1)" fill="none" stroke="#000" stroke-linecap="round" stroke-linejoin="round" stroke-miterlimit="10" stroke-width="1"/>
        <path id="Trazado_1047999" data-name="Trazado 1047999" d="M120.374,121.751l-8.483,2.894a.889.889,0,0,1-.574,0l-8.483-2.894a.889.889,0,0,1-.6-.841V117.4a.889.889,0,0,1,.889-.889h16.965a.889.889,0,0,1,.889.889v3.509A.888.888,0,0,1,120.374,121.751Z" transform="translate(-102.233 -113.393)" fill="#ffab56"/>
        <path id="Trazado_1048000" data-name="Trazado 1048000" d="M201.869,120.91V117.4a.889.889,0,0,0-.889-.889h-.511c-.631,3.061-1.583,4.715-5.312,7.323l6.109-2.084A.889.889,0,0,0,201.869,120.91Z" transform="translate(-183.127 -113.393)" fill="#ff982a"/>
        <path id="Trazado_1048001" data-name="Trazado 1048001" d="M120.374,121.751l-8.483,2.894a.889.889,0,0,1-.574,0l-8.483-2.894a.889.889,0,0,1-.6-.841V117.4a.889.889,0,0,1,.889-.889h16.965a.889.889,0,0,1,.889.889v3.509A.888.888,0,0,1,120.374,121.751Z" transform="translate(-102.233 -113.393)" fill="none" stroke="#000" stroke-linecap="round" stroke-linejoin="round" stroke-miterlimit="10" stroke-width="1"/>
        <path id="Trazado_1048002" data-name="Trazado 1048002" d="M152.9,95.538H145.31V93.371a.952.952,0,0,1,.952-.952h5.683a.952.952,0,0,1,.952.952Z" transform="translate(-139.733 -92.419)" fill="none" stroke="#000" stroke-linecap="round" stroke-linejoin="round" stroke-miterlimit="10" stroke-width="1"/>
        <line id="Línea_919" data-name="Línea 919" y2="2.541" transform="translate(9.371 9.863)" fill="none" stroke="#000" stroke-linecap="round" stroke-linejoin="round" stroke-miterlimit="10" stroke-width="1"/>
      </g>
      <g id="Grupo_1208314" data-name="Grupo 1208314" transform="translate(85.803 38.561)">
        <circle id="Elipse_12544" data-name="Elipse 12544" cx="5.516" cy="5.516" r="5.516" transform="translate(0)" fill="#6ce79a"/>
        <path id="Trazado_1048003" data-name="Trazado 1048003" d="M221.978,254.377a4.967,4.967,0,0,1-8.534,4.861,5.516,5.516,0,1,0,8.534-4.861Z" transform="translate(-213.438 -253.474)" fill="#00d8a2"/>
        <circle id="Elipse_12545" data-name="Elipse 12545" cx="5.516" cy="5.516" r="5.516" transform="translate(0)" fill="none" stroke="#000" stroke-linecap="round" stroke-linejoin="round" stroke-miterlimit="10" stroke-width="1"/>
        <path id="Trazado_1048004" data-name="Trazado 1048004" d="M220.518,378.509l-4.168,7.22a.981.981,0,0,0,.85,1.472h8.337a.981.981,0,0,0,.85-1.472l-4.168-7.22A.981.981,0,0,0,220.518,378.509Z" transform="translate(-215.851 -361.106)" fill="#ff7383"/>
        <path id="Trazado_1048005" data-name="Trazado 1048005" d="M245.846,387.2h3.162a.981.981,0,0,0,.85-1.472l-4.168-7.22a.981.981,0,0,0-1.7,0l-.81,1.4A22.5,22.5,0,0,1,245.846,387.2Z" transform="translate(-239.323 -361.107)" fill="#ff546a"/>
        <path id="Trazado_1048006" data-name="Trazado 1048006" d="M220.518,378.509l-4.168,7.22a.981.981,0,0,0,.85,1.472h8.337a.981.981,0,0,0,.85-1.472l-4.168-7.22A.981.981,0,0,0,220.518,378.509Z" transform="translate(-215.851 -361.106)" fill="none" stroke="#000" stroke-linecap="round" stroke-linejoin="round" stroke-miterlimit="10" stroke-width="1"/>
      </g>
      <path id="Trazado_1048007" data-name="Trazado 1048007" d="M294.768,162.991H307.59v16.445h-8.648" transform="translate(-198.43 -135.359)" fill="none" stroke="#000" stroke-linecap="round" stroke-linejoin="round" stroke-miterlimit="10" stroke-width="1"/>
      <path id="Trazado_1048008" data-name="Trazado 1048008" d="M288.623,141.013l-2.464,2.846,2.464,2.845" transform="translate(-190.935 -116.227)" fill="none" stroke="#000" stroke-linecap="round" stroke-linejoin="round" stroke-miterlimit="10" stroke-width="1"/>
      <g id="Grupo_1208315" data-name="Grupo 1208315" transform="translate(73.52 44.913)">
        <path id="Trazado_1048009" data-name="Trazado 1048009" d="M126.171,312.908h-7.643V296.463h8.106" transform="translate(-118.528 -296.463)" fill="none" stroke="#000" stroke-linecap="round" stroke-linejoin="round" stroke-miterlimit="10" stroke-width="1"/>
        <path id="Trazado_1048010" data-name="Trazado 1048010" d="M167.134,407.191l2.464-2.846-2.464-2.845" transform="translate(-160.841 -387.9)" fill="none" stroke="#000" stroke-linecap="round" stroke-linejoin="round" stroke-miterlimit="10" stroke-width="1"/>
      </g>
      <path id="Trazado_1048011" data-name="Trazado 1048011" d="M201.433,7.5h-15.41a1.557,1.557,0,0,0-1.557,1.557v3.505a1.557,1.557,0,0,0,1.557,1.557H187.8a1.625,1.625,0,0,1,1.625,1.625h0a1.625,1.625,0,0,0,1.625,1.625h5.359a1.625,1.625,0,0,0,1.625-1.625h0a1.625,1.625,0,0,1,1.625-1.625h1.775a1.557,1.557,0,0,0,1.557-1.557V9.057A1.557,1.557,0,0,0,201.433,7.5Z" transform="translate(-102.409 0)" fill="#6c5e69"/>
      <path id="Trazado_1048012" data-name="Trazado 1048012" d="M258.558,7.5H254.73a11.163,11.163,0,0,1-4.642,9.869h3.445a1.625,1.625,0,0,0,1.625-1.625,1.625,1.625,0,0,1,1.625-1.625h1.775a1.557,1.557,0,0,0,1.557-1.557V9.057A1.557,1.557,0,0,0,258.558,7.5Z" transform="translate(-159.534 0)" fill="#574d56"/>
      <path id="Trazado_1048013" data-name="Trazado 1048013" d="M192.286,7.5h-6.263a1.557,1.557,0,0,0-1.557,1.557v3.505a1.557,1.557,0,0,0,1.557,1.557H187.8a1.625,1.625,0,0,1,1.625,1.625,1.625,1.625,0,0,0,1.625,1.625h5.359a1.625,1.625,0,0,0,1.625-1.625,1.625,1.625,0,0,1,1.625-1.625h1.775a1.557,1.557,0,0,0,1.557-1.557V9.057A1.557,1.557,0,0,0,201.433,7.5h-5.392" transform="translate(-102.409 0)" fill="none" stroke="#000" stroke-linecap="round" stroke-linejoin="round" stroke-miterlimit="10" stroke-width="1"/>
    </g>
  </g>
</svg>
