<svg xmlns="http://www.w3.org/2000/svg" xmlns:xlink="http://www.w3.org/1999/xlink" width="113" height="113" viewBox="0 0 113 113">
  <defs>
    <filter id="Trazado_982547" x="0" y="0" width="113" height="113" filterUnits="userSpaceOnUse">
      <feOffset dy="3" input="SourceAlpha"/>
      <feGaussianBlur stdDeviation="3" result="blur"/>
      <feFlood flood-opacity="0.161"/>
      <feComposite operator="in" in2="blur"/>
      <feComposite in="SourceGraphic"/>
    </filter>
  </defs>
  <g id="Grupo_1208336" data-name="Grupo 1208336" transform="translate(-2181 -1772.771)">
    <g id="Grupo_1208043" data-name="Grupo 1208043" transform="translate(1387.51 -3854.654)">
      <g id="Grupo_1177675" data-name="Grupo 1177675" transform="translate(-4493 3707.152)">
        <g id="Grupo_1176928" data-name="Grupo 1176928" transform="translate(5295.49 1926.273)">
          <g id="Grupo_1172322" data-name="Grupo 1172322" transform="translate(0 0)">
            <g id="Grupo_1164700" data-name="Grupo 1164700">
              <g id="Grupo_1160931" data-name="Grupo 1160931">
                <g id="Grupo_1160749" data-name="Grupo 1160749">
                  <g id="Grupo_1158891" data-name="Grupo 1158891">
                    <g id="Grupo_1157406" data-name="Grupo 1157406">
                      <g id="Grupo_1155793" data-name="Grupo 1155793">
                        <g id="Grupo_1154704" data-name="Grupo 1154704">
                          <g id="Grupo_1150790" data-name="Grupo 1150790">
                            <g id="Grupo_1154214" data-name="Grupo 1154214">
                              <g id="Grupo_1152583" data-name="Grupo 1152583">
                                <g id="Grupo_1146973" data-name="Grupo 1146973">
                                  <g id="Grupo_1146954" data-name="Grupo 1146954">
                                    <g transform="matrix(1, 0, 0, 1, -9, -6)" filter="url(#Trazado_982547)">
                                      <g id="Trazado_982547-2" data-name="Trazado 982547" transform="translate(9 6)" fill="#f6ecfe">
                                        <path d="M 47.5000114440918 93.49987030029297 C 41.28938293457031 93.49987030029297 35.26534652709961 92.28384399414062 29.5951976776123 89.88558959960938 C 24.11773109436035 87.56881713867188 19.19814491271973 84.25183868408203 14.97310447692871 80.02680206298828 C 10.74805164337158 75.80176544189453 7.43107795715332 70.88218688964844 5.114304542541504 65.40472412109375 C 2.716038227081299 59.73458862304688 1.500011444091797 53.71054840087891 1.500011444091797 47.49993515014648 C 1.500011444091797 41.28932189941406 2.716038227081299 35.26528167724609 5.114304542541504 29.59514808654785 C 7.43107795715332 24.1176815032959 10.74805164337158 19.1981086730957 14.97310447692871 14.97306823730469 C 19.19814491271973 10.74802875518799 24.11773109436035 7.431055068969727 29.5951976776123 5.11428165435791 C 35.26534652709961 2.716028451919556 41.28938293457031 1.500001788139343 47.5000114440918 1.500001788139343 C 53.71063995361328 1.500001788139343 59.73467636108398 2.716028451919556 65.40482330322266 5.11428165435791 C 70.88229370117188 7.431055068969727 75.8018798828125 10.74802875518799 80.02691650390625 14.97306823730469 C 84.25196838378906 19.1981086730957 87.56894683837891 24.1176815032959 89.88571929931641 29.59514808654785 C 92.28398132324219 35.26528167724609 93.50001525878906 41.28932189941406 93.50001525878906 47.49993515014648 C 93.50001525878906 53.71054840087891 92.28398132324219 59.73458862304688 89.88571929931641 65.40472412109375 C 87.56894683837891 70.88218688964844 84.25196838378906 75.80176544189453 80.02691650390625 80.02680206298828 C 75.8018798828125 84.25183868408203 70.88229370117188 87.56881713867188 65.40482330322266 89.88558959960938 C 59.73467636108398 92.28384399414062 53.71063995361328 93.49987030029297 47.5000114440918 93.49987030029297 Z" stroke="none"/>
                                        <path d="M 47.5000114440918 3 C 41.49122619628906 3 35.66378021240234 4.1761474609375 30.17951965332031 6.495796203613281 C 24.880859375 8.7369384765625 20.12153625488281 11.94596862792969 16.03376770019531 16.03373718261719 C 11.94598388671875 20.12149047851562 8.736968994140625 24.88081359863281 6.495811462402344 30.17947387695312 C 4.176162719726562 35.66371917724609 3.000007629394531 41.49116516113281 3.000007629394531 47.49993515014648 C 3.000007629394531 53.50870513916016 4.176162719726562 59.33615112304688 6.495811462402344 64.82039642333984 C 8.736968994140625 70.11905670166016 11.94598388671875 74.87837982177734 16.03376770019531 78.96613311767578 C 20.12153625488281 83.05390167236328 24.880859375 86.26293182373047 30.17951965332031 88.50407409667969 C 35.66378021240234 90.82372283935547 41.49122619628906 91.99987030029297 47.5000114440918 91.99987030029297 C 53.50879669189453 91.99987030029297 59.33624267578125 90.82372283935547 64.82050323486328 88.50407409667969 C 70.11916351318359 86.26293182373047 74.87848663330078 83.05390167236328 78.96625518798828 78.96613311767578 C 83.05403900146484 74.87837982177734 86.2630615234375 70.11905670166016 88.50421142578125 64.82039642333984 C 90.82386016845703 59.33615112304688 92.00001525878906 53.50870513916016 92.00001525878906 47.49993515014648 C 92.00001525878906 41.49116516113281 90.82386016845703 35.66371917724609 88.50421142578125 30.17947387695312 C 86.2630615234375 24.88081359863281 83.05403900146484 20.12149047851562 78.96625518798828 16.03373718261719 C 74.87848663330078 11.94596862792969 70.11916351318359 8.7369384765625 64.82050323486328 6.495796203613281 C 59.33624267578125 4.1761474609375 53.50879669189453 3 47.5000114440918 3 M 47.5000114440918 0 C 73.73353576660156 0 95.00001525878906 21.26644134521484 95.00001525878906 47.49993515014648 C 95.00001525878906 73.73342895507812 73.73353576660156 94.99987030029297 47.5000114440918 94.99987030029297 C 21.26648712158203 94.99987030029297 7.62939453125e-06 73.73342895507812 7.62939453125e-06 47.49993515014648 C 7.62939453125e-06 21.26644134521484 21.26648712158203 0 47.5000114440918 0 Z" stroke="none" fill="#aa52f9"/>
                                      </g>
                                    </g>
                                  </g>
                                </g>
                              </g>
                            </g>
                          </g>
                        </g>
                      </g>
                    </g>
                  </g>
                </g>
              </g>
            </g>
          </g>
        </g>
      </g>
    </g>
    <g id="user-interface_2857591" transform="translate(2206 1794)">
      <g id="Grupo_1208334" data-name="Grupo 1208334">
        <g id="Grupo_1208317" data-name="Grupo 1208317">
          <path id="Trazado_1048014" data-name="Trazado 1048014" d="M40,50H57V62H40Z" fill="#ff826e"/>
        </g>
        <g id="Grupo_1208318" data-name="Grupo 1208318">
          <path id="Trazado_1048015" data-name="Trazado 1048015" d="M44,32v5a2.006,2.006,0,0,1-2,2,2.015,2.015,0,0,1-2-2V32Z" fill="#e6e9ed"/>
        </g>
        <g id="Grupo_1208319" data-name="Grupo 1208319">
          <path id="Trazado_1048016" data-name="Trazado 1048016" d="M40,50V62H4a2.006,2.006,0,0,1-2-2V22H30v4H6V38H36v.6a18.306,18.306,0,0,0,.32,3.4H24v4H37.57A18.046,18.046,0,0,0,40,50Z" fill="#e6e9ed"/>
        </g>
        <g id="Grupo_1208320" data-name="Grupo 1208320">
          <path id="Trazado_1048017" data-name="Trazado 1048017" d="M37.57,46H24V42H36.32A18.034,18.034,0,0,0,37.57,46Z" fill="#fcd770"/>
        </g>
        <g id="Grupo_1208321" data-name="Grupo 1208321">
          <path id="Trazado_1048018" data-name="Trazado 1048018" d="M12,50h6a6,6,0,0,1-6,6,5.944,5.944,0,0,1-4.24-1.76Z" fill="#fcd770"/>
        </g>
        <g id="Grupo_1208322" data-name="Grupo 1208322">
          <path id="Trazado_1048019" data-name="Trazado 1048019" d="M12,44v6L7.76,54.24A5.944,5.944,0,0,1,6,50,6,6,0,0,1,12,44Z" fill="#4fc1e9"/>
        </g>
        <g id="Grupo_1208323" data-name="Grupo 1208323">
          <path id="Trazado_1048020" data-name="Trazado 1048020" d="M18,50H12V44A6,6,0,0,1,18,50Z" fill="#ff826e"/>
        </g>
        <g id="Grupo_1208324" data-name="Grupo 1208324">
          <path id="Trazado_1048021" data-name="Trazado 1048021" d="M36,32v6H6V26H30v4a2.006,2.006,0,0,0,2,2Z" fill="#ff826e"/>
        </g>
        <g id="Grupo_1208325" data-name="Grupo 1208325">
          <path id="Trazado_1048022" data-name="Trazado 1048022" d="M30,10V22H2V12a2.006,2.006,0,0,1,2-2Z" fill="#5cd6b3"/>
        </g>
        <g id="Grupo_1208326" data-name="Grupo 1208326">
          <path id="Trazado_1048023" data-name="Trazado 1048023" d="M22,14h4v4H22Z" fill="#e6e9ed"/>
        </g>
        <g id="Grupo_1208327" data-name="Grupo 1208327">
          <path id="Trazado_1048024" data-name="Trazado 1048024" d="M46,20a2.015,2.015,0,0,0-2,2V32H40V31a3,3,0,0,0-3-3,1,1,0,0,0-1,1v3H32a2.006,2.006,0,0,1-2-2V4a2.006,2.006,0,0,1,2-2H60a2.006,2.006,0,0,1,2,2V30a2.006,2.006,0,0,1-2,2,2.015,2.015,0,0,0-2-2,2.006,2.006,0,0,0-2,2V30a2.006,2.006,0,0,0-2-2,2.015,2.015,0,0,0-2,2V28a2.006,2.006,0,0,0-2-2,2.015,2.015,0,0,0-2,2V22A2.006,2.006,0,0,0,46,20Z" fill="#ffeaa7"/>
        </g>
        <g id="Grupo_1208328" data-name="Grupo 1208328">
          <path id="Trazado_1048025" data-name="Trazado 1048025" d="M56,32a2.006,2.006,0,0,1,2-2,2.015,2.015,0,0,1,2,2v7.17A21.087,21.087,0,0,1,57,50H40a18.3,18.3,0,0,1-3.68-8A18.306,18.306,0,0,1,36,38.6V29a1,1,0,0,1,1-1,3,3,0,0,1,3,3v6a2.015,2.015,0,0,0,2,2,2.006,2.006,0,0,0,2-2V22a2.015,2.015,0,0,1,2-2,2.006,2.006,0,0,1,2,2v6a2.015,2.015,0,0,1,2-2,2.006,2.006,0,0,1,2,2v2a2.015,2.015,0,0,1,2-2,2.006,2.006,0,0,1,2,2Z" fill="#f0d0b4"/>
        </g>
        <g id="Grupo_1208329" data-name="Grupo 1208329">
          <circle id="Elipse_12546" data-name="Elipse 12546" cx="2" cy="2" r="2" transform="translate(54 10)" fill="#ff826e"/>
        </g>
        <g id="Grupo_1208330" data-name="Grupo 1208330">
          <circle id="Elipse_12547" data-name="Elipse 12547" cx="2" cy="2" r="2" transform="translate(44 8)" fill="#ff826e"/>
        </g>
        <g id="Grupo_1208331" data-name="Grupo 1208331">
          <circle id="Elipse_12548" data-name="Elipse 12548" cx="2" cy="2" r="2" transform="translate(34 14)" fill="#ff826e"/>
        </g>
        <g id="Grupo_1208332" data-name="Grupo 1208332">
          <path id="Trazado_1048026" data-name="Trazado 1048026" d="M14,14h4v4H14Z" fill="#e6e9ed"/>
        </g>
        <g id="Grupo_1208333" data-name="Grupo 1208333">
          <path id="Trazado_1048027" data-name="Trazado 1048027" d="M6,14h4v4H6Z" fill="#e6e9ed"/>
        </g>
      </g>
      <g id="Grupo_1208335" data-name="Grupo 1208335">
        <path id="Trazado_1048028" data-name="Trazado 1048028" d="M37,13.184V7H35v6.184a2.982,2.982,0,0,0,0,5.632V25h2V18.816a2.982,2.982,0,0,0,0-5.632ZM36,17a1,1,0,1,1,1-1A1,1,0,0,1,36,17Z"/>
        <path id="Trazado_1048029" data-name="Trazado 1048029" d="M57,9.184V7H55V9.184a2.982,2.982,0,0,0,0,5.632V25h2V14.816a2.982,2.982,0,0,0,0-5.632ZM56,13a1,1,0,1,1,1-1A1,1,0,0,1,56,13Z"/>
        <path id="Trazado_1048030" data-name="Trazado 1048030" d="M60,1H32a3,3,0,0,0-3,3V9H4a3,3,0,0,0-3,3V60a3,3,0,0,0,3,3H58V50.273a22.052,22.052,0,0,0,3-11.1V32.816A3,3,0,0,0,63,30V4a3,3,0,0,0-3-3ZM32,33h3v4H7V27H29v3A3,3,0,0,0,32,33ZM3,12a1,1,0,0,1,1-1H29V21H3ZM39,61H4a1,1,0,0,1-1-1V23H29v2H5V39H35.017a19.061,19.061,0,0,0,.152,2H23v6H36.952A19.241,19.241,0,0,0,39,50.346ZM35.524,43a19.484,19.484,0,0,0,.584,2H25V43ZM56,61H41V51H56Zm3-21.831A20.05,20.05,0,0,1,56.412,49h-15.9A17.3,17.3,0,0,1,37,38.6V29a2,2,0,0,1,2,2v6a3,3,0,0,0,6,0V22a1,1,0,0,1,2,0V38h2V28a1,1,0,0,1,2,0V38h2V30a1,1,0,0,1,2,0v8h2V32a1,1,0,0,1,2,0ZM41,37V33h2v4a1,1,0,0,1-2,0Zm4-27a1,1,0,1,1,1,1A1,1,0,0,1,45,10ZM61,30a.993.993,0,0,1-.3.713,2.972,2.972,0,0,0-3.814-1.493,2.975,2.975,0,0,0-4-2A2.95,2.95,0,0,0,49,25.184V22a3,3,0,0,0-2-2.816V12.815a3,3,0,1,0-2,0v6.369A3,3,0,0,0,43,22v9H41a4,4,0,0,0-4-4,2,2,0,0,0-2,2v2H32a1,1,0,0,1-1-1V4a1,1,0,0,1,1-1H60a1,1,0,0,1,1,1Z"/>
        <path id="Trazado_1048031" data-name="Trazado 1048031" d="M12,43a7,7,0,1,0,7,7A7.009,7.009,0,0,0,12,43ZM7,50a5.009,5.009,0,0,1,4-4.9v4.485L7.833,52.753A4.969,4.969,0,0,1,7,50Zm5,5a4.969,4.969,0,0,1-2.753-.833L12.414,51H16.9A5.009,5.009,0,0,1,12,55Zm1-6V45.1A5.016,5.016,0,0,1,16.9,49Z"/>
        <path id="Trazado_1048032" data-name="Trazado 1048032" d="M23,49h4v2H23Z"/>
        <path id="Trazado_1048033" data-name="Trazado 1048033" d="M29,49h8v2H29Z"/>
        <path id="Trazado_1048034" data-name="Trazado 1048034" d="M23,57h4v2H23Z"/>
        <path id="Trazado_1048035" data-name="Trazado 1048035" d="M29,57h8v2H29Z"/>
        <path id="Trazado_1048036" data-name="Trazado 1048036" d="M23,53H37v2H23Z"/>
        <path id="Trazado_1048037" data-name="Trazado 1048037" d="M5,19h6V13H5Zm2-4H9v2H7Z"/>
        <path id="Trazado_1048038" data-name="Trazado 1048038" d="M13,19h6V13H13Zm2-4h2v2H15Z"/>
        <path id="Trazado_1048039" data-name="Trazado 1048039" d="M21,19h6V13H21Zm2-4h2v2H23Z"/>
      </g>
    </g>
  </g>
</svg>
