<svg xmlns="http://www.w3.org/2000/svg" xmlns:xlink="http://www.w3.org/1999/xlink" width="113" height="113" viewBox="0 0 113 113">
  <defs>
    <filter id="Trazado_982547" x="0" y="0" width="113" height="113" filterUnits="userSpaceOnUse">
      <feOffset dy="3" input="SourceAlpha"/>
      <feGaussianBlur stdDeviation="3" result="blur"/>
      <feFlood flood-opacity="0.161"/>
      <feComposite operator="in" in2="blur"/>
      <feComposite in="SourceGraphic"/>
    </filter>
  </defs>
  <g id="Grupo_1208363" data-name="Grupo 1208363" transform="translate(-1862.49 -2181.771)">
    <g id="Grupo_1208044" data-name="Grupo 1208044" transform="translate(1069 -3445.654)">
      <g id="Grupo_1177675" data-name="Grupo 1177675" transform="translate(-4493 3707.152)">
        <g id="Grupo_1176928" data-name="Grupo 1176928" transform="translate(5295.49 1926.273)">
          <g id="Grupo_1172322" data-name="Grupo 1172322" transform="translate(0 0)">
            <g id="Grupo_1164700" data-name="Grupo 1164700">
              <g id="Grupo_1160931" data-name="Grupo 1160931">
                <g id="Grupo_1160749" data-name="Grupo 1160749">
                  <g id="Grupo_1158891" data-name="Grupo 1158891">
                    <g id="Grupo_1157406" data-name="Grupo 1157406">
                      <g id="Grupo_1155793" data-name="Grupo 1155793">
                        <g id="Grupo_1154704" data-name="Grupo 1154704">
                          <g id="Grupo_1150790" data-name="Grupo 1150790">
                            <g id="Grupo_1154214" data-name="Grupo 1154214">
                              <g id="Grupo_1152583" data-name="Grupo 1152583">
                                <g id="Grupo_1146973" data-name="Grupo 1146973">
                                  <g id="Grupo_1146954" data-name="Grupo 1146954">
                                    <g transform="matrix(1, 0, 0, 1, -9, -6)" filter="url(#Trazado_982547)">
                                      <g id="Trazado_982547-2" data-name="Trazado 982547" transform="translate(9 6)" fill="#f6ecfe">
                                        <path d="M 47.5000114440918 93.49987030029297 C 41.28938293457031 93.49987030029297 35.26534652709961 92.28384399414062 29.5951976776123 89.88558959960938 C 24.11773109436035 87.56881713867188 19.19814491271973 84.25183868408203 14.97310447692871 80.02680206298828 C 10.74805164337158 75.80176544189453 7.43107795715332 70.88218688964844 5.114304542541504 65.40472412109375 C 2.716038227081299 59.73458862304688 1.500011444091797 53.71054840087891 1.500011444091797 47.49993515014648 C 1.500011444091797 41.28932189941406 2.716038227081299 35.26528167724609 5.114304542541504 29.59514808654785 C 7.43107795715332 24.1176815032959 10.74805164337158 19.1981086730957 14.97310447692871 14.97306823730469 C 19.19814491271973 10.74802875518799 24.11773109436035 7.431055068969727 29.5951976776123 5.11428165435791 C 35.26534652709961 2.716028451919556 41.28938293457031 1.500001788139343 47.5000114440918 1.500001788139343 C 53.71063995361328 1.500001788139343 59.73467636108398 2.716028451919556 65.40482330322266 5.11428165435791 C 70.88229370117188 7.431055068969727 75.8018798828125 10.74802875518799 80.02691650390625 14.97306823730469 C 84.25196838378906 19.1981086730957 87.56894683837891 24.1176815032959 89.88571929931641 29.59514808654785 C 92.28398132324219 35.26528167724609 93.50001525878906 41.28932189941406 93.50001525878906 47.49993515014648 C 93.50001525878906 53.71054840087891 92.28398132324219 59.73458862304688 89.88571929931641 65.40472412109375 C 87.56894683837891 70.88218688964844 84.25196838378906 75.80176544189453 80.02691650390625 80.02680206298828 C 75.8018798828125 84.25183868408203 70.88229370117188 87.56881713867188 65.40482330322266 89.88558959960938 C 59.73467636108398 92.28384399414062 53.71063995361328 93.49987030029297 47.5000114440918 93.49987030029297 Z" stroke="none"/>
                                        <path d="M 47.5000114440918 3 C 41.49122619628906 3 35.66378021240234 4.1761474609375 30.17951965332031 6.495796203613281 C 24.880859375 8.7369384765625 20.12153625488281 11.94596862792969 16.03376770019531 16.03373718261719 C 11.94598388671875 20.12149047851562 8.736968994140625 24.88081359863281 6.495811462402344 30.17947387695312 C 4.176162719726562 35.66371917724609 3.000007629394531 41.49116516113281 3.000007629394531 47.49993515014648 C 3.000007629394531 53.50870513916016 4.176162719726562 59.33615112304688 6.495811462402344 64.82039642333984 C 8.736968994140625 70.11905670166016 11.94598388671875 74.87837982177734 16.03376770019531 78.96613311767578 C 20.12153625488281 83.05390167236328 24.880859375 86.26293182373047 30.17951965332031 88.50407409667969 C 35.66378021240234 90.82372283935547 41.49122619628906 91.99987030029297 47.5000114440918 91.99987030029297 C 53.50879669189453 91.99987030029297 59.33624267578125 90.82372283935547 64.82050323486328 88.50407409667969 C 70.11916351318359 86.26293182373047 74.87848663330078 83.05390167236328 78.96625518798828 78.96613311767578 C 83.05403900146484 74.87837982177734 86.2630615234375 70.11905670166016 88.50421142578125 64.82039642333984 C 90.82386016845703 59.33615112304688 92.00001525878906 53.50870513916016 92.00001525878906 47.49993515014648 C 92.00001525878906 41.49116516113281 90.82386016845703 35.66371917724609 88.50421142578125 30.17947387695312 C 86.2630615234375 24.88081359863281 83.05403900146484 20.12149047851562 78.96625518798828 16.03373718261719 C 74.87848663330078 11.94596862792969 70.11916351318359 8.7369384765625 64.82050323486328 6.495796203613281 C 59.33624267578125 4.1761474609375 53.50879669189453 3 47.5000114440918 3 M 47.5000114440918 0 C 73.73353576660156 0 95.00001525878906 21.26644134521484 95.00001525878906 47.49993515014648 C 95.00001525878906 73.73342895507812 73.73353576660156 94.99987030029297 47.5000114440918 94.99987030029297 C 21.26648712158203 94.99987030029297 7.62939453125e-06 73.73342895507812 7.62939453125e-06 47.49993515014648 C 7.62939453125e-06 21.26644134521484 21.26648712158203 0 47.5000114440918 0 Z" stroke="none" fill="#aa52f9"/>
                                      </g>
                                    </g>
                                  </g>
                                </g>
                              </g>
                            </g>
                          </g>
                        </g>
                      </g>
                    </g>
                  </g>
                </g>
              </g>
            </g>
          </g>
        </g>
      </g>
    </g>
    <g id="checklist_4089401_1_" data-name="checklist_4089401 (1)" transform="translate(1889.303 2208.303)">
      <g id="Grupo_1208361" data-name="Grupo 1208361" transform="translate(0.958 0.958)">
        <g id="Grupo_1208337" data-name="Grupo 1208337" transform="translate(9.58 44.066)">
          <path id="Trazado_1048040" data-name="Trazado 1048040" d="M15.79,47l2.874,9.58H11L13.874,47Z" transform="translate(-11 -47)" fill="#ff826e"/>
        </g>
        <g id="Grupo_1208338" data-name="Grupo 1208338" transform="translate(11.122 40.234)">
          <path id="Trazado_1048041" data-name="Trazado 1048041" d="M17.189,44.83l-1.332,2H13.942l-1.332-2L14.9,43Z" transform="translate(-12.61 -43)" fill="#fc6e51"/>
        </g>
        <g id="Grupo_1208339" data-name="Grupo 1208339" transform="translate(14.369 39.525)">
          <path id="Trazado_1048042" data-name="Trazado 1048042" d="M22.706,56.38H18.874L16,46.8l1.332-2,2.5,2,.757-4.541a13.388,13.388,0,0,1,7.865,12.2V56.38Z" transform="translate(-16 -42.26)" fill="#e6e9ed"/>
        </g>
        <g id="Grupo_1208340" data-name="Grupo 1208340" transform="translate(0 39.525)">
          <path id="Trazado_1048043" data-name="Trazado 1048043" d="M13.453,46.8,10.58,56.38H1V54.464a13.388,13.388,0,0,1,7.865-12.2L9.622,46.8l2.5-2Z" transform="translate(-1 -42.26)" fill="#e6e9ed"/>
        </g>
        <g id="Grupo_1208341" data-name="Grupo 1208341" transform="translate(13.411 39.296)">
          <path id="Trazado_1048044" data-name="Trazado 1048044" d="M16.916,42.959a7.515,7.515,0,0,0,3.669-.939l-.038.23-.757,4.541-2.5-2L15,42.959Z" transform="translate(-15 -42.02)" fill="#ccd1d9"/>
        </g>
        <g id="Grupo_1208342" data-name="Grupo 1208342" transform="translate(7.827 39.296)">
          <path id="Trazado_1048045" data-name="Trazado 1048045" d="M12.465,44.789l-2.5,2L9.208,42.25l-.038-.23a7.515,7.515,0,0,0,3.669.939h1.916Z" transform="translate(-9.17 -42.02)" fill="#ccd1d9"/>
        </g>
        <g id="Grupo_1208343" data-name="Grupo 1208343" transform="translate(15.327 3.832)">
          <path id="Trazado_1048046" data-name="Trazado 1048046" d="M17,5h3.832V8.832H17Z" transform="translate(-17 -5)" fill="#ff826e"/>
        </g>
        <g id="Grupo_1208344" data-name="Grupo 1208344" transform="translate(7.664 3.832)">
          <path id="Trazado_1048047" data-name="Trazado 1048047" d="M9,5h3.832V8.832H9Z" transform="translate(-9 -5)" fill="#ff826e"/>
        </g>
        <g id="Grupo_1208345" data-name="Grupo 1208345" transform="translate(0 3.832)">
          <path id="Trazado_1048048" data-name="Trazado 1048048" d="M1,5H4.832V8.832H1Z" transform="translate(-1 -5)" fill="#ff826e"/>
        </g>
        <g id="Grupo_1208346" data-name="Grupo 1208346" transform="translate(47.898 1.916)">
          <path id="Trazado_1048049" data-name="Trazado 1048049" d="M59.622,45.15H52.964a2.139,2.139,0,0,1,.422-1.59l-2.242-2.242h5.6V6.832H51V3h8.622a.961.961,0,0,1,.958.958V44.192a.961.961,0,0,1-.958.958Z" transform="translate(-51 -3)" fill="#cf9e76"/>
        </g>
        <g id="Grupo_1208347" data-name="Grupo 1208347" transform="translate(26.823 1.916)">
          <path id="Trazado_1048050" data-name="Trazado 1048050" d="M38.58,3V6.832H32.832V41.318h5.6L36.194,43.56a2.171,2.171,0,0,1,.441,1.322,2.524,2.524,0,0,1-.019.268H29.958A.961.961,0,0,1,29,44.192V3.958A.961.961,0,0,1,29.958,3Z" transform="translate(-29 -3)" fill="#cf9e76"/>
        </g>
        <g id="Grupo_1208348" data-name="Grupo 1208348" transform="translate(0 13.411)">
          <path id="Trazado_1048051" data-name="Trazado 1048051" d="M9.535,21.265l-1.523.766a5.75,5.75,0,0,0-3.18,5.144v1.236H3.874a2.8,2.8,0,0,0-2.06.881l-.01-.01-.728-5.1A8.993,8.993,0,0,1,1,23.047,8.046,8.046,0,0,1,9.047,15H19.776a8.046,8.046,0,0,1,8.047,8.047,8.993,8.993,0,0,1-.077,1.14l-.728,5.1-.01.01a2.8,2.8,0,0,0-2.06-.881h-.958a5.752,5.752,0,0,0-5.748-5.748H12.5a3.845,3.845,0,0,1-2.96-1.4Z" transform="translate(-1 -15)" fill="#656d78"/>
        </g>
        <g id="Grupo_1208349" data-name="Grupo 1208349" transform="translate(36.402)">
          <path id="Trazado_1048052" data-name="Trazado 1048052" d="M50.5,2.916V6.748H39V1.958A.961.961,0,0,1,39.958,1h9.58a.961.961,0,0,1,.958.958Z" transform="translate(-39 -1)" fill="#b4dd7f"/>
        </g>
        <g id="Grupo_1208350" data-name="Grupo 1208350" transform="translate(30.655 5.748)">
          <path id="Trazado_1048053" data-name="Trazado 1048053" d="M50.243,7H33V41.487H55.991V7Z" transform="translate(-33 -7)" fill="#e6e9ed"/>
        </g>
        <g id="Grupo_1208351" data-name="Grupo 1208351" transform="translate(34.487 9.58)">
          <path id="Trazado_1048054" data-name="Trazado 1048054" d="M37,11H52.327V24.411H37Z" transform="translate(-37 -11)" fill="#ff826e"/>
        </g>
        <g id="Grupo_1208352" data-name="Grupo 1208352" transform="translate(32.571 38.318)">
          <path id="Trazado_1048055" data-name="Trazado 1048055" d="M38.832,50.58a5.748,5.748,0,1,0,5.748-5.748A5.752,5.752,0,0,0,38.832,50.58Zm1.916-7.712A2.193,2.193,0,0,0,42.664,41H46.5a2.193,2.193,0,0,0,1.916,1.868,2.526,2.526,0,0,0,.268.019A2.171,2.171,0,0,0,50,42.447l.46.469h.01l2.242,2.242a2.139,2.139,0,0,0-.422,1.59,2.183,2.183,0,0,0,1.868,1.916V52.5A2.206,2.206,0,0,0,52.713,56L50,58.713A2.206,2.206,0,0,0,46.5,60.159H42.664a2.206,2.206,0,0,0-3.506-1.447L36.447,56A2.206,2.206,0,0,0,35,52.5V48.664a2.183,2.183,0,0,0,1.868-1.916,2.525,2.525,0,0,0,.019-.268,2.171,2.171,0,0,0-.441-1.322l2.242-2.242h.01l.46-.469a2.171,2.171,0,0,0,1.322.441,2.525,2.525,0,0,0,.268-.019Z" transform="translate(-35 -41)" fill="#ffc729"/>
        </g>
        <g id="Grupo_1208353" data-name="Grupo 1208353" transform="translate(36.402 42.15)">
          <path id="Trazado_1048056" data-name="Trazado 1048056" d="M44.748,45A5.748,5.748,0,1,1,39,50.748,5.752,5.752,0,0,1,44.748,45Zm1.916,5.748a1.916,1.916,0,1,0-1.916,1.916A1.922,1.922,0,0,0,46.664,50.748Z" transform="translate(-39 -45)" fill="#fcd770"/>
        </g>
        <g id="Grupo_1208354" data-name="Grupo 1208354" transform="translate(22.991 26.823)">
          <path id="Trazado_1048057" data-name="Trazado 1048057" d="M25.958,29a2.894,2.894,0,0,1,2.874,2.874,2.878,2.878,0,0,1-2.874,2.874H25V29Z" transform="translate(-25 -29)" fill="#f0d0b4"/>
        </g>
        <g id="Grupo_1208355" data-name="Grupo 1208355" transform="translate(3.832 19.677)">
          <path id="Trazado_1048058" data-name="Trazado 1048058" d="M20.165,41.159A7.515,7.515,0,0,1,16.5,42.1H12.664a7.515,7.515,0,0,1-3.669-.939A7.636,7.636,0,0,1,5,34.434V27.451a5.75,5.75,0,0,1,3.18-5.144L9.7,21.54a3.845,3.845,0,0,0,2.96,1.4h5.748a5.752,5.752,0,0,1,5.748,5.748v5.748A7.636,7.636,0,0,1,20.165,41.159Z" transform="translate(-5 -21.54)" fill="#f0d0b4"/>
        </g>
        <g id="Grupo_1208356" data-name="Grupo 1208356" transform="translate(0 26.823)">
          <path id="Trazado_1048059" data-name="Trazado 1048059" d="M4.832,29v5.748H3.874A2.878,2.878,0,0,1,1,31.874,2.894,2.894,0,0,1,3.874,29Z" transform="translate(-1 -29)" fill="#f0d0b4"/>
        </g>
        <g id="Grupo_1208357" data-name="Grupo 1208357" transform="translate(38.318 21.075)">
          <path id="Trazado_1048060" data-name="Trazado 1048060" d="M46.508,24.916l2.155,5.748H41l2.155-5.748.383-1.015a1.379,1.379,0,0,1,2.586,0Z" transform="translate(-41 -23)" fill="#ccd1d9"/>
        </g>
        <g id="Grupo_1208358" data-name="Grupo 1208358" transform="translate(38.318 28.739)">
          <path id="Trazado_1048061" data-name="Trazado 1048061" d="M44.832,31v9.58H42.916A2.193,2.193,0,0,1,41,42.448V31Z" transform="translate(-41 -31)" fill="#b4dd7f"/>
        </g>
        <g id="Grupo_1208359" data-name="Grupo 1208359" transform="translate(42.15 28.739)">
          <path id="Trazado_1048062" data-name="Trazado 1048062" d="M48.832,31V42.448a2.193,2.193,0,0,1-1.916-1.868H45V31Z" transform="translate(-45 -31)" fill="#ff826e"/>
        </g>
        <g id="Grupo_1208360" data-name="Grupo 1208360" transform="translate(9.58 32.571)">
          <path id="Trazado_1048063" data-name="Trazado 1048063" d="M11,35h7.664A3.832,3.832,0,0,1,11,35Z" transform="translate(-11 -35)" fill="#ff826e"/>
        </g>
      </g>
      <g id="Grupo_1208362" data-name="Grupo 1208362" transform="translate(0)">
        <path id="Trazado_1048064" data-name="Trazado 1048064" d="M9.916,28.874a.958.958,0,0,1,1.916,0v.958h1.916v-.958a2.874,2.874,0,1,0-5.748,0v.958H9.916Z" transform="translate(-0.336 -1.093)"/>
        <path id="Trazado_1048065" data-name="Trazado 1048065" d="M18.874,26A2.877,2.877,0,0,0,16,28.874v.958h1.916v-.958a.958.958,0,0,1,1.916,0v.958h1.916v-.958A2.877,2.877,0,0,0,18.874,26Z" transform="translate(-0.673 -1.093)"/>
        <path id="Trazado_1048066" data-name="Trazado 1048066" d="M10,34.958a4.79,4.79,0,1,0,9.58,0V34H10Zm7.5.958a2.875,2.875,0,0,1-5.42,0Z" transform="translate(-0.42 -1.429)"/>
        <path id="Trazado_1048067" data-name="Trazado 1048067" d="M5.748,4H0V9.748H5.748ZM3.832,7.832H1.916V5.916H3.832Z" transform="translate(0 -0.168)"/>
        <path id="Trazado_1048068" data-name="Trazado 1048068" d="M13.748,4H8V9.748h5.748ZM11.832,7.832H9.916V5.916h1.916Z" transform="translate(-0.336 -0.168)"/>
        <path id="Trazado_1048069" data-name="Trazado 1048069" d="M21.748,4H16V9.748h5.748ZM19.832,7.832H17.916V5.916h1.916Z" transform="translate(-0.673 -0.168)"/>
        <path id="Trazado_1048070" data-name="Trazado 1048070" d="M44.706,44a6.706,6.706,0,1,0,6.706,6.706A6.714,6.714,0,0,0,44.706,44Zm0,11.5a4.79,4.79,0,1,1,4.79-4.79A4.8,4.8,0,0,1,44.706,55.5Z" transform="translate(-1.598 -1.85)"/>
        <path id="Trazado_1048071" data-name="Trazado 1048071" d="M44.874,48a2.874,2.874,0,1,0,2.874,2.874A2.877,2.877,0,0,0,44.874,48Zm0,3.832a.958.958,0,1,1,.958-.958A.959.959,0,0,1,44.874,51.832Z" transform="translate(-1.766 -2.018)"/>
        <path id="Trazado_1048072" data-name="Trazado 1048072" d="M57.478,1.916H49.814A1.918,1.918,0,0,0,47.9,0h-9.58A1.918,1.918,0,0,0,36.4,1.916H28.739a1.918,1.918,0,0,0-1.916,1.916V16.884a8.989,8.989,0,0,0-7.092-3.473H9.008A9,9,0,0,0,.091,23.692l.671,4.693A3.8,3.8,0,0,0,0,30.655a3.836,3.836,0,0,0,3.832,3.832h.057a8.611,8.611,0,0,0,3.232,5.8A14.4,14.4,0,0,0,0,52.688v2.874H28.739V52.688a14.4,14.4,0,0,0-7.12-12.4,8.615,8.615,0,0,0,3.232-5.8h.056a3.792,3.792,0,0,0,1.916-.533V44.066a1.918,1.918,0,0,0,1.916,1.916h4.689c-.011,0-.022.008-.034.01l-.823.118V51.6l.823.118a1.245,1.245,0,0,1,.82,1.98l-.5.664L37.6,58.249l.665-.5a1.246,1.246,0,0,1,1.98.821l.118.823h5.493l.118-.822a1.246,1.246,0,0,1,1.98-.821l.665.5L52.5,54.365,52,53.7a1.245,1.245,0,0,1,.82-1.98l.823-.119V46.11l-.823-.118c-.012,0-.022-.008-.034-.01h4.689a1.918,1.918,0,0,0,1.916-1.916V3.832a1.918,1.918,0,0,0-1.916-1.916ZM48.616,39.462l-.665.5c-.017.012-.036.019-.055.031V29.522l-1.73-4.615H51.73V9.58H34.487V24.907h5.563l-1.731,4.615v10.47c-.017-.011-.037-.018-.055-.031l-.665-.5-.771.772H32.571V7.664H53.646V40.234H49.389ZM42.15,20.514l7.664-7.664V22.991H45.449l-.148-.4a2.341,2.341,0,0,0-4.384,0l-.148.4H36.4V11.5H48.459L42.15,17.8l-2.2-2.2L38.6,16.963Zm1.971,4.393H42.1l.615-1.641a.442.442,0,0,1,.794,0Zm-2.744,1.916h3.462l.718,1.916h-4.9Zm-1.143,3.832H42.15v7.664H40.362l-.118.822c0,.012-.008.023-.01.035Zm3.832,0h1.916v8.522c0-.012-.008-.023-.01-.035l-.118-.823H44.066ZM47.9,1.916V5.748h-9.58V1.916ZM9.008,15.327H19.731a7.1,7.1,0,0,1,7.092,7.091,7.175,7.175,0,0,1-.071,1l-.521,3.651a3.806,3.806,0,0,0-1.324-.249H24.83A6.711,6.711,0,0,0,18.2,21.075H12.453A2.877,2.877,0,0,1,9.58,18.2v-.958H7.664V18.2a4.766,4.766,0,0,0,.462,2.052l-.586.292a6.672,6.672,0,0,0-3.707,6v.28a3.775,3.775,0,0,0-1.323.25l-.521-3.651a7.088,7.088,0,0,1,7.02-8.095ZM1.916,30.655a1.918,1.918,0,0,1,1.916-1.916v3.832A1.918,1.918,0,0,1,1.916,30.655ZM14.124,45.982h.49l2.3,7.664H11.825Zm.691-1.916h-.891l-.561-.842,1.007-.8,1.007.806Zm2.237-1.955A8.631,8.631,0,0,0,18.7,41.8l-.232,1.449Zm-6.785,1.137L10.035,41.8a8.486,8.486,0,0,0,1.652.312Zm-8.351,9.44a12.482,12.482,0,0,1,6.2-10.763L8.893,46.8l2.969-2.375.5.755-2.54,8.465H7.664V47.9H5.748v5.748H1.916Zm24.907,0v.958H22.991V47.9H21.075v5.748H18.914l-2.54-8.465.5-.755L19.846,46.8l.778-4.875a12.482,12.482,0,0,1,6.2,10.763ZM22.991,33.529a6.714,6.714,0,0,1-6.706,6.706H12.453a6.714,6.714,0,0,1-6.706-6.706V26.543A4.765,4.765,0,0,1,8.4,22.259l.907-.454a4.766,4.766,0,0,0,3.151,1.186H18.2a4.8,4.8,0,0,1,4.79,4.79Zm1.916-.958V28.739a1.916,1.916,0,1,1,0,3.832ZM28.739,3.832H36.4V5.748H30.655v36.4h4.256l-1.2,1.2.5.664c.013.017.019.037.032.056H28.739ZM51.73,50.055a3.172,3.172,0,0,0-1.677,4.05l-1.7,1.7a3.169,3.169,0,0,0-4.049,1.677h-2.4A3.169,3.169,0,0,0,37.859,55.8l-1.7-1.7a3.172,3.172,0,0,0-1.677-4.05v-2.4a3.172,3.172,0,0,0,1.677-4.05l1.7-1.7a3.169,3.169,0,0,0,4.049-1.677h2.4a3.169,3.169,0,0,0,4.049,1.677l1.7,1.7a3.172,3.172,0,0,0,1.677,4.05Zm5.748-5.989H51.971c.012-.018.018-.037.032-.056l.5-.664-1.2-1.2h4.256V5.748H49.814V3.832h7.664Z" transform="translate(0)"/>
      </g>
    </g>
  </g>
</svg>
