<svg xmlns="http://www.w3.org/2000/svg" xmlns:xlink="http://www.w3.org/1999/xlink" width="113" height="113" viewBox="0 0 113 113">
  <defs>
    <filter id="Trazado_982547" x="0" y="0" width="113" height="113" filterUnits="userSpaceOnUse">
      <feOffset dy="3" input="SourceAlpha"/>
      <feGaussianBlur stdDeviation="3" result="blur"/>
      <feFlood flood-opacity="0.161"/>
      <feComposite operator="in" in2="blur"/>
      <feComposite in="SourceGraphic"/>
    </filter>
  </defs>
  <g id="Grupo_1208377" data-name="Grupo 1208377" transform="translate(-586 -3978.91)">
    <g id="Grupo_1208122" data-name="Grupo 1208122" transform="translate(0 -1922.377)">
      <g id="Grupo_1202433" data-name="Grupo 1202433" transform="translate(-0.56 1255.773)">
        <g id="Grupo_1202054" data-name="Grupo 1202054" transform="translate(0 3240.511)">
          <g id="Grupo_1177897" data-name="Grupo 1177897" transform="translate(595.561 1411.003)">
            <g id="Grupo_1172010" data-name="Grupo 1172010" transform="translate(0)">
              <g id="Grupo_1171046" data-name="Grupo 1171046">
                <g id="Grupo_1148525" data-name="Grupo 1148525">
                  <g transform="matrix(1, 0, 0, 1, -9, -6)" filter="url(#Trazado_982547)">
                    <g id="Trazado_982547-2" data-name="Trazado 982547" transform="translate(9 6)" fill="#e5fdfa">
                      <path d="M 47.5 93.5 C 41.28937149047852 93.5 35.26533508300781 92.28397369384766 29.59518623352051 89.88570404052734 C 24.11771965026855 87.56893157958984 19.19813346862793 84.25196075439453 14.97309303283691 80.02691650390625 C 10.74804019927979 75.80186462402344 7.431066513061523 70.88229370117188 5.114293098449707 65.40481567382812 C 2.716026782989502 59.73468017578125 1.5 53.71062850952148 1.5 47.5 C 1.5 41.28937149047852 2.716026782989502 35.26533508300781 5.114293098449707 29.59518623352051 C 7.431066513061523 24.11771965026855 10.74804019927979 19.19813346862793 14.97309303283691 14.97309303283691 C 19.19813346862793 10.74804019927979 24.11771965026855 7.431066513061523 29.59518623352051 5.114293098449707 C 35.26533508300781 2.716026782989502 41.28937149047852 1.5 47.5 1.5 C 53.71062850952148 1.5 59.73468017578125 2.716026782989502 65.40481567382812 5.114293098449707 C 70.88229370117188 7.431066513061523 75.80186462402344 10.74804019927979 80.02691650390625 14.97309303283691 C 84.25196075439453 19.19813346862793 87.56893157958984 24.11771965026855 89.88570404052734 29.59518623352051 C 92.28397369384766 35.26533508300781 93.5 41.28937149047852 93.5 47.5 C 93.5 53.71062850952148 92.28397369384766 59.73468017578125 89.88570404052734 65.40481567382812 C 87.56893157958984 70.88229370117188 84.25196075439453 75.80186462402344 80.02691650390625 80.02691650390625 C 75.80186462402344 84.25196075439453 70.88229370117188 87.56893157958984 65.40481567382812 89.88570404052734 C 59.73468017578125 92.28397369384766 53.71062850952148 93.5 47.5 93.5 Z" stroke="none"/>
                      <path d="M 47.5 3 C 41.49121475219727 3 35.66376876831055 4.176155090332031 30.17950439453125 6.495796203613281 C 24.88084411621094 8.736953735351562 20.12152099609375 11.94598388671875 16.03375244140625 16.03375244140625 C 11.94598388671875 20.12152099609375 8.736953735351562 24.88084411621094 6.495796203613281 30.17950439453125 C 4.176155090332031 35.66376876831055 3 41.49121475219727 3 47.5 C 3 53.50878524780273 4.176155090332031 59.33623123168945 6.495796203613281 64.82049560546875 C 8.736953735351562 70.11915588378906 11.94598388671875 74.87847900390625 16.03375244140625 78.96624755859375 C 20.12152099609375 83.05401611328125 24.88084411621094 86.26304626464844 30.17950439453125 88.50419616699219 C 35.66376876831055 90.82384490966797 41.49121475219727 92 47.5 92 C 53.50878524780273 92 59.33623123168945 90.82384490966797 64.82049560546875 88.50419616699219 C 70.11915588378906 86.26304626464844 74.87847900390625 83.05401611328125 78.96624755859375 78.96624755859375 C 83.05401611328125 74.87847900390625 86.26304626464844 70.11915588378906 88.50419616699219 64.82049560546875 C 90.82384490966797 59.33623123168945 92 53.50878524780273 92 47.5 C 92 41.49121475219727 90.82384490966797 35.66376876831055 88.50419616699219 30.17950439453125 C 86.26304626464844 24.88084411621094 83.05401611328125 20.12152099609375 78.96624755859375 16.03375244140625 C 74.87847900390625 11.94598388671875 70.11915588378906 8.736953735351562 64.82049560546875 6.495796203613281 C 59.33623123168945 4.176155090332031 53.50878524780273 3 47.5 3 M 47.5 0 C 73.7335205078125 0 95 21.2664794921875 95 47.5 C 95 73.7335205078125 73.7335205078125 95 47.5 95 C 21.2664794921875 95 0 73.7335205078125 0 47.5 C 0 21.2664794921875 21.2664794921875 0 47.5 0 Z" stroke="none" fill="#098576"/>
                    </g>
                  </g>
                </g>
              </g>
            </g>
          </g>
        </g>
      </g>
    </g>
    <g id="preparation_2974264" transform="translate(608 3997)">
      <g id="Grupo_1208375" data-name="Grupo 1208375" transform="translate(2.097 10.871)">
        <g id="Grupo_1208367" data-name="Grupo 1208367" transform="translate(18.645)">
          <path id="Trazado_1048105" data-name="Trazado 1048105" d="M32.161,18.774H23.376A4.387,4.387,0,0,1,23.387,10h9.871A10.972,10.972,0,0,1,44.226,20.968v9.674a11.3,11.3,0,0,0,3.093,8.05,4.4,4.4,0,0,1,1.174,4.146,4.323,4.323,0,0,1-.8,1.678,15.292,15.292,0,0,0-10.123-4.76l-2.117-.143V30.839l.23-.121a3.54,3.54,0,0,0,0-6.339l-.23-.121V22.065a3.286,3.286,0,0,0-3.29-3.29Z" transform="translate(-19 -10)" fill="#656d78"/>
        </g>
        <g id="Grupo_1208368" data-name="Grupo 1208368" transform="translate(48.258 8.774)">
          <ellipse id="Elipse_12549" data-name="Elipse 12549" cx="9" cy="8.5" rx="9" ry="8.5" transform="translate(-0.355 0.355)" fill="#e6e9ed"/>
        </g>
        <g id="Grupo_1208369" data-name="Grupo 1208369" transform="translate(0 13.161)">
          <path id="Trazado_1048106" data-name="Trazado 1048106" d="M19.548,28.581v4.387l-1.623.592c-.044.1-.077.208-.121.307l.724,1.557-3.1,3.1L13.867,37.8c-.1.044-.208.077-.307.121l-.592,1.623H8.581l-.592-1.623c-.1-.044-.208-.077-.307-.121l-1.557.724-3.1-3.1.724-1.557c-.044-.1-.077-.208-.121-.307L2,32.968V28.581l1.623-.592c.044-.1.077-.208.121-.307L3.02,26.124l3.1-3.1,1.557.724c.1-.044.208-.077.307-.121L8.581,22h4.387l.592,1.623c.1.044.208.077.307.121l1.557-.724,3.1,3.1L17.8,27.681c.044.1.077.208.121.307Zm-4.387,2.194a4.387,4.387,0,1,0-4.387,4.387A4.386,4.386,0,0,0,15.161,30.774Z" transform="translate(-2 -22)" fill="#fcd770"/>
        </g>
        <g id="Grupo_1208370" data-name="Grupo 1208370" transform="translate(12.065 29.613)">
          <path id="Trazado_1048107" data-name="Trazado 1048107" d="M41.516,55.645V44.677H23.968V60.032h-3.4A7.569,7.569,0,0,1,13,52.465,15.373,15.373,0,0,1,27.335,37.143L29.452,37a3.29,3.29,0,0,0,6.581,0l2.117.143A15.356,15.356,0,0,1,52.484,52.465a7.564,7.564,0,0,1-7.568,7.568h-3.4Z" transform="translate(-13 -37)" fill="#ff826e"/>
        </g>
        <g id="Grupo_1208371" data-name="Grupo 1208371" transform="translate(23.032 37.29)">
          <path id="Trazado_1048108" data-name="Trazado 1048108" d="M40.548,44V54.968l-1.283-1.283a3.1,3.1,0,0,0-5.3,2.194v.373a3.108,3.108,0,0,0,3.1,3.1h3.477v4.387H23V59.355h3.477a3.108,3.108,0,0,0,3.1-3.1v-.373a3.1,3.1,0,0,0-5.3-2.194L23,54.968V44Z" transform="translate(-23 -44)" fill="#e6e9ed"/>
        </g>
        <g id="Grupo_1208372" data-name="Grupo 1208372" transform="translate(34 46.065)">
          <path id="Trazado_1048109" data-name="Trazado 1048109" d="M39.581,54.194v4.387H36.1a3.108,3.108,0,0,1-3.1-3.1V55.1a3.1,3.1,0,0,1,5.3-2.194Z" transform="translate(-33 -52)" fill="#f0d0b4"/>
        </g>
        <g id="Grupo_1208373" data-name="Grupo 1208373" transform="translate(23.032 46.065)">
          <path id="Trazado_1048110" data-name="Trazado 1048110" d="M29.581,55.1v.373a3.108,3.108,0,0,1-3.1,3.1H23V54.194l1.283-1.283a3.1,3.1,0,0,1,5.3,2.194Z" transform="translate(-23 -52)" fill="#f0d0b4"/>
        </g>
        <g id="Grupo_1208374" data-name="Grupo 1208374" transform="translate(20.839 8.774)">
          <path id="Trazado_1048111" data-name="Trazado 1048111" d="M35.258,30.065v8.774a3.29,3.29,0,0,1-6.581,0V34.452H28.03a3.745,3.745,0,0,1-3.74-3.74V27.871l-1.546-.515A2.546,2.546,0,0,1,21,24.943a2.467,2.467,0,0,1,.1-.7l1.327-4.661A5.388,5.388,0,0,1,23.183,18h8.785a3.286,3.286,0,0,1,3.29,3.29v2.194l.23.121a3.54,3.54,0,0,1,0,6.339Z" transform="translate(-21 -18)" fill="#f0d0b4"/>
        </g>
      </g>
      <g id="Grupo_1208376" data-name="Grupo 1208376" transform="translate(1 1)">
        <path id="Trazado_1048112" data-name="Trazado 1048112" d="M15.968,30.484a5.484,5.484,0,1,0-5.484,5.484A5.49,5.49,0,0,0,15.968,30.484Zm-5.484,3.29a3.29,3.29,0,1,1,3.29-3.29A3.294,3.294,0,0,1,10.484,33.774Z" transform="translate(-0.613 1.323)"/>
        <path id="Trazado_1048113" data-name="Trazado 1048113" d="M54.871,17a9.871,9.871,0,1,0,9.871,9.871A9.882,9.882,0,0,0,54.871,17Zm0,17.548a7.677,7.677,0,1,1,7.677-7.677A7.687,7.687,0,0,1,54.871,34.548Z" transform="translate(3.258 0.548)"/>
        <path id="Trazado_1048114" data-name="Trazado 1048114" d="M26,47H36.968v2.194H26Z" transform="translate(1.419 3.452)"/>
        <path id="Trazado_1048115" data-name="Trazado 1048115" d="M52.262,29.1,50.844,27.68l-1.551,1.551L52.262,32.2l7.356-7.356-1.551-1.551Z" transform="translate(3.674 1.157)"/>
        <path id="Trazado_1048116" data-name="Trazado 1048116" d="M17.952,19.63l-.36-2.164-4.623.771c4.182-9.2,12.347-15.043,21.254-15.043,8.45,0,16.14,5.089,20.574,13.614L56.743,15.8C51.926,6.531,43.507,1,34.224,1,24.867,1,16.295,6.819,11.6,16.069l-.424-2.123-2.151.431,1.3,6.525Z" transform="translate(-0.224 -1)"/>
        <path id="Trazado_1048117" data-name="Trazado 1048117" d="M53.238,41.981l.814,2.037,3.233-1.293a29.522,29.522,0,0,1-3.637,6.592,16.524,16.524,0,0,0-2.859-4.793,5.321,5.321,0,0,0,.518-1.344,5.5,5.5,0,0,0-1.471-5.165,10.252,10.252,0,0,1-2.772-7.277V21.065A12.079,12.079,0,0,0,35,9H25.129a5.468,5.468,0,0,0-1.644,10.688c-.058.156-.131.3-.177.466L21.98,24.807a3.594,3.594,0,0,0-.141,1,3.64,3.64,0,0,0,2.492,3.458l.8.265v2.045a4.8,4.8,0,0,0,4.387,4.8v2.308l-1.095.073a16.469,16.469,0,0,0-13.248,8.41A30.359,30.359,0,0,1,12.742,41.9h1.091l.525-1.449,1.4.653,4.19-4.19-.654-1.4,1.451-.526V29.071l-1.449-.526.654-1.4-4.19-4.19-1.4.653-.528-1.45H7.909L7.383,23.61l-1.4-.653L1.8,27.147l.654,1.4L1,29.07v5.924l1.449.526-.654,1.4,4.19,4.19,1.4-.653.528,1.45h2.518a32.325,32.325,0,0,0,3.651,7.643,16.3,16.3,0,0,0-1.013,5.625,8.677,8.677,0,0,0,8.667,8.667h2.3v4.387H43.774V63.839h2.3a8.677,8.677,0,0,0,8.667-8.667,16.357,16.357,0,0,0-.332-3.263,31.416,31.416,0,0,0,4.772-8.016L60.3,46.7l2.037-.815-2.6-6.5ZM9.117,38.807l-.233-.49-1.118-.464-1.316.616L4.435,36.454l.614-1.314-.488-1.186-1.368-.5V30.606l.9-.328.486-.224.466-1.131L4.434,27.61,6.45,25.6l1.317.616,1.181-.49.5-1.367H12.3l.329.9.233.49,1.118.464,1.317-.616,2.016,2.015-.614,1.314.488,1.186,1.367.5v2.851l-.9.328-.486.224-.466,1.131.614,1.314-2.016,2.015-1.317-.616-1.181.49-.5,1.367H9.446ZM21.839,14.484a3.294,3.294,0,0,1,3.29-3.29H35a9.882,9.882,0,0,1,9.871,9.871v9.674a12.287,12.287,0,0,0,3.418,8.832,3.288,3.288,0,0,1,.88,3.121c-.01.043-.032.082-.044.124a16.376,16.376,0,0,0-9.739-4.06l-1.095-.072V31.591a4.646,4.646,0,0,0,0-7.892V22.161A4.392,4.392,0,0,0,33.9,17.774h-.2a3.253,3.253,0,0,0,.2-1.1,3.294,3.294,0,0,0-3.29-3.29H28.419v2.194h2.194a1.1,1.1,0,0,1,0,2.194H25.129a3.294,3.294,0,0,1-3.29-3.29Zm5.484,17.094V27.952l-2.3-.766a1.448,1.448,0,0,1-.936-1.777l1.328-4.653a4.214,4.214,0,0,1,.326-.79H33.9A2.2,2.2,0,0,1,36.1,22.161v2.871l.838.419a2.453,2.453,0,0,1,0,4.387l-.838.419V39.71a2.194,2.194,0,0,1-4.387,0v-3.29H33.9V34.226H29.969a2.649,2.649,0,0,1-2.647-2.648Zm-1.1,27.231.964-.964a2.006,2.006,0,0,1,3.423,1.419v.376a2.007,2.007,0,0,1-2,2H26.226Zm15.355,7.223H26.226V63.839h2.382a4.2,4.2,0,0,0,4.2-4.2v-.376a4.192,4.192,0,0,0-6.581-3.452V48.484H41.581v7.329a4.16,4.16,0,0,0-2.382-.748,4.2,4.2,0,0,0-4.2,4.2v.376a4.2,4.2,0,0,0,4.2,4.2h2.382ZM39.2,61.645a2.007,2.007,0,0,1-2-2.006v-.376a2,2,0,0,1,3.423-1.417l.964.963v2.836Zm6.877,0h-2.3V59.033l3.29-1.645,1.7.851.982-1.962-1.588-.793V50.677H45.968v4.806l-2.194,1.1V46.29H24.032V56.58l-2.194-1.1V50.677H19.645v4.806l-1.587.794.982,1.962,1.7-.852,3.29,1.645v2.613h-2.3a6.48,6.48,0,0,1-6.473-6.473A14.3,14.3,0,0,1,28.567,40.946l1.124-.075a4.362,4.362,0,0,0,8.423,0l1.124.075A14.3,14.3,0,0,1,52.548,55.172a6.48,6.48,0,0,1-6.473,6.473Z" transform="translate(-1 -0.226)"/>
      </g>
    </g>
  </g>
</svg>
