<svg xmlns="http://www.w3.org/2000/svg" xmlns:xlink="http://www.w3.org/1999/xlink" width="113" height="113" viewBox="0 0 113 113">
  <defs>
    <filter id="Trazado_982547" x="0" y="0" width="113" height="113" filterUnits="userSpaceOnUse">
      <feOffset dy="3" input="SourceAlpha"/>
      <feGaussianBlur stdDeviation="3" result="blur"/>
      <feFlood flood-opacity="0.161"/>
      <feComposite operator="in" in2="blur"/>
      <feComposite in="SourceGraphic"/>
    </filter>
  </defs>
  <g id="Grupo_1208392" data-name="Grupo 1208392" transform="translate(-901 -3978.91)">
    <g id="Grupo_1208123" data-name="Grupo 1208123" transform="translate(0 -1922.377)">
      <g id="Grupo_1202434" data-name="Grupo 1202434" transform="translate(-0.56 1255.773)">
        <g id="Grupo_1202053" data-name="Grupo 1202053" transform="translate(0 3240.511)">
          <g id="Grupo_1177898" data-name="Grupo 1177898" transform="translate(910.561 1411.003)">
            <g id="Grupo_1172010" data-name="Grupo 1172010" transform="translate(0)">
              <g id="Grupo_1171046" data-name="Grupo 1171046">
                <g id="Grupo_1148525" data-name="Grupo 1148525">
                  <g transform="matrix(1, 0, 0, 1, -9, -6)" filter="url(#Trazado_982547)">
                    <g id="Trazado_982547-2" data-name="Trazado 982547" transform="translate(9 6)" fill="#e5fdfa">
                      <path d="M 47.5 93.5 C 41.28937149047852 93.5 35.26533508300781 92.28397369384766 29.59518623352051 89.88570404052734 C 24.11771965026855 87.56893157958984 19.19813346862793 84.25196075439453 14.97309303283691 80.02691650390625 C 10.74804019927979 75.80186462402344 7.431066513061523 70.88229370117188 5.114293098449707 65.40481567382812 C 2.716026782989502 59.73468017578125 1.5 53.71062850952148 1.5 47.5 C 1.5 41.28937149047852 2.716026782989502 35.26533508300781 5.114293098449707 29.59518623352051 C 7.431066513061523 24.11771965026855 10.74804019927979 19.19813346862793 14.97309303283691 14.97309303283691 C 19.19813346862793 10.74804019927979 24.11771965026855 7.431066513061523 29.59518623352051 5.114293098449707 C 35.26533508300781 2.716026782989502 41.28937149047852 1.5 47.5 1.5 C 53.71062850952148 1.5 59.73468017578125 2.716026782989502 65.40481567382812 5.114293098449707 C 70.88229370117188 7.431066513061523 75.80186462402344 10.74804019927979 80.02691650390625 14.97309303283691 C 84.25196075439453 19.19813346862793 87.56893157958984 24.11771965026855 89.88570404052734 29.59518623352051 C 92.28397369384766 35.26533508300781 93.5 41.28937149047852 93.5 47.5 C 93.5 53.71062850952148 92.28397369384766 59.73468017578125 89.88570404052734 65.40481567382812 C 87.56893157958984 70.88229370117188 84.25196075439453 75.80186462402344 80.02691650390625 80.02691650390625 C 75.80186462402344 84.25196075439453 70.88229370117188 87.56893157958984 65.40481567382812 89.88570404052734 C 59.73468017578125 92.28397369384766 53.71062850952148 93.5 47.5 93.5 Z" stroke="none"/>
                      <path d="M 47.5 3 C 41.49121475219727 3 35.66376876831055 4.176155090332031 30.17950439453125 6.495796203613281 C 24.88084411621094 8.736953735351562 20.12152099609375 11.94598388671875 16.03375244140625 16.03375244140625 C 11.94598388671875 20.12152099609375 8.736953735351562 24.88084411621094 6.495796203613281 30.17950439453125 C 4.176155090332031 35.66376876831055 3 41.49121475219727 3 47.5 C 3 53.50878524780273 4.176155090332031 59.33623123168945 6.495796203613281 64.82049560546875 C 8.736953735351562 70.11915588378906 11.94598388671875 74.87847900390625 16.03375244140625 78.96624755859375 C 20.12152099609375 83.05401611328125 24.88084411621094 86.26304626464844 30.17950439453125 88.50419616699219 C 35.66376876831055 90.82384490966797 41.49121475219727 92 47.5 92 C 53.50878524780273 92 59.33623123168945 90.82384490966797 64.82049560546875 88.50419616699219 C 70.11915588378906 86.26304626464844 74.87847900390625 83.05401611328125 78.96624755859375 78.96624755859375 C 83.05401611328125 74.87847900390625 86.26304626464844 70.11915588378906 88.50419616699219 64.82049560546875 C 90.82384490966797 59.33623123168945 92 53.50878524780273 92 47.5 C 92 41.49121475219727 90.82384490966797 35.66376876831055 88.50419616699219 30.17950439453125 C 86.26304626464844 24.88084411621094 83.05401611328125 20.12152099609375 78.96624755859375 16.03375244140625 C 74.87847900390625 11.94598388671875 70.11915588378906 8.736953735351562 64.82049560546875 6.495796203613281 C 59.33623123168945 4.176155090332031 53.50878524780273 3 47.5 3 M 47.5 0 C 73.7335205078125 0 95 21.2664794921875 95 47.5 C 95 73.7335205078125 73.7335205078125 95 47.5 95 C 21.2664794921875 95 0 73.7335205078125 0 47.5 C 0 21.2664794921875 21.2664794921875 0 47.5 0 Z" stroke="none" fill="#098576"/>
                    </g>
                  </g>
                </g>
              </g>
            </g>
          </g>
        </g>
      </g>
    </g>
    <g id="time-management_2830931" transform="translate(886.608 3999.615)">
      <g id="Grupo_1208378" data-name="Grupo 1208378" transform="translate(51.248 3.439)">
        <path id="Trazado_1048118" data-name="Trazado 1048118" d="M166.524,88.036h-39.36A2.033,2.033,0,0,1,125.131,86V28.877a2.033,2.033,0,0,1,2.033-2.033h39.36a2.033,2.033,0,0,1,2.033,2.033V86A2.033,2.033,0,0,1,166.524,88.036Z" transform="translate(-125.131 -26.844)" fill="#407093"/>
      </g>
      <g id="Grupo_1208379" data-name="Grupo 1208379" transform="translate(51.248 3.439)">
        <path id="Trazado_1048119" data-name="Trazado 1048119" d="M166.529,26.844h-.616V83.362a2.029,2.029,0,0,1-2.029,2.029H125.131v.616a2.029,2.029,0,0,0,2.029,2.029h39.369a2.029,2.029,0,0,0,2.029-2.029V28.873a2.029,2.029,0,0,0-2.029-2.029Z" transform="translate(-125.131 -26.844)" fill="#365e7d"/>
      </g>
      <g id="Grupo_1208380" data-name="Grupo 1208380" transform="translate(56.314 10.578)">
        <path id="Trazado_1048120" data-name="Trazado 1048120" d="M197.332,125.924H165.319a.641.641,0,0,1-.641-.641V83.211a.641.641,0,0,1,.641-.641h32.013a.641.641,0,0,1,.641.641v42.073A.64.64,0,0,1,197.332,125.924Z" transform="translate(-164.678 -82.57)" fill="#f5f5f5"/>
      </g>
      <g id="Grupo_1208381" data-name="Grupo 1208381" transform="translate(56.314 10.578)">
        <path id="Trazado_1048121" data-name="Trazado 1048121" d="M197.333,82.57H195.59V122.9a.639.639,0,0,1-.639.639H164.678v1.743a.639.639,0,0,0,.639.639h32.016a.639.639,0,0,0,.639-.639V83.209A.639.639,0,0,0,197.333,82.57Z" transform="translate(-164.678 -82.57)" fill="#f1f4f6"/>
      </g>
      <g id="Grupo_1208382" data-name="Grupo 1208382" transform="translate(66.937 0.959)">
        <path id="Trazado_1048122" data-name="Trazado 1048122" d="M259.652,13.655a6.024,6.024,0,1,1-12.047,0,6.025,6.025,0,1,1,12.047,0Z" transform="translate(-247.605 -7.485)" fill="#ffe07d"/>
      </g>
      <g id="Grupo_1208383" data-name="Grupo 1208383" transform="translate(71.523 0.959)">
        <path id="Trazado_1048123" data-name="Trazado 1048123" d="M284.839,7.484a5.767,5.767,0,0,0-1.438.183,6.213,6.213,0,0,1,4.586,5.987A6.025,6.025,0,0,1,283.4,19.5a6.024,6.024,0,0,0,7.462-5.85A6.15,6.15,0,0,0,284.839,7.484Z" transform="translate(-283.401 -7.484)" fill="#ffd064"/>
      </g>
      <g id="Grupo_1208384" data-name="Grupo 1208384" transform="translate(61.699 8.441)">
        <path id="Trazado_1048124" data-name="Trazado 1048124" d="M207.058,72.047l.911.706a.585.585,0,0,0,.716,0l.893-.692a.585.585,0,0,1,.716,0l.893.692a.585.585,0,0,0,.716,0l.893-.692a.585.585,0,0,1,.716,0l.893.692a.584.584,0,0,0,.716,0l.893-.692a.584.584,0,0,1,.716,0l.893.692a.584.584,0,0,0,.716,0l.893-.692a.584.584,0,0,1,.716,0l.893.692a.585.585,0,0,0,.716,0l.893-.692a.584.584,0,0,1,.716,0l.893.692a.584.584,0,0,0,.716,0l.894-.692a.584.584,0,0,1,.716,0l.893.692a.584.584,0,0,0,.716,0l.912-.706a.877.877,0,0,0,.34-.693V67.028a1.137,1.137,0,0,0-1.137-1.137H207.855a1.137,1.137,0,0,0-1.137,1.137v4.325a.876.876,0,0,0,.34.693Z" transform="translate(-206.718 -65.891)" fill="#ffd064"/>
      </g>
      <g id="Grupo_1208385" data-name="Grupo 1208385" transform="translate(79.322 8.441)">
        <path id="Trazado_1048125" data-name="Trazado 1048125" d="M348.043,65.891H344.28a1.449,1.449,0,0,1,1.449,1.449v4.648a.583.583,0,0,1,.591.072l.893.692a.584.584,0,0,0,.716,0l.912-.706a.877.877,0,0,0,.34-.693V67.028A1.138,1.138,0,0,0,348.043,65.891Z" transform="translate(-344.28 -65.891)" fill="#ecbe6b"/>
      </g>
      <g id="Grupo_1208386" data-name="Grupo 1208386" transform="translate(41.351 22.303)">
        <circle id="Elipse_12550" data-name="Elipse 12550" cx="16.951" cy="16.951" r="16.951" fill="#f1f4f6"/>
      </g>
      <g id="Grupo_1208387" data-name="Grupo 1208387" transform="translate(44.051 25.002)">
        <path id="Trazado_1048126" data-name="Trazado 1048126" d="M92.386,195.172A16.953,16.953,0,0,1,68.953,218.6a16.953,16.953,0,1,0,23.433-23.433Z" transform="translate(-68.953 -195.172)" fill="#dfeaef"/>
      </g>
      <g id="Grupo_1208390" data-name="Grupo 1208390" transform="translate(55.707 36.658)">
        <g id="Grupo_1208388" data-name="Grupo 1208388">
          <circle id="Elipse_12551" data-name="Elipse 12551" cx="2.596" cy="2.596" r="2.596" fill="#407093"/>
        </g>
        <g id="Grupo_1208389" data-name="Grupo 1208389" transform="translate(0.209 0.209)">
          <path id="Trazado_1048127" data-name="Trazado 1048127" d="M164.976,287.788a2.6,2.6,0,0,1-3.407,3.407,2.6,2.6,0,1,0,3.407-3.407Z" transform="translate(-161.569 -287.788)" fill="#365e7d"/>
        </g>
      </g>
      <g id="Grupo_1208391" data-name="Grupo 1208391" transform="translate(40.392 0)">
        <path id="Trazado_1048128" data-name="Trazado 1048128" d="M94.674,45.12a.959.959,0,0,0,.959-.959V5.468A2.991,2.991,0,0,0,92.645,2.48H78.225c-.1-.119-.206-.237-.316-.35a6.814,6.814,0,0,0-9.9,0c-.11.114-.214.231-.316.35H53.276a2.991,2.991,0,0,0-2.988,2.988V23.227a17.944,17.944,0,0,0-4.651,3.363.959.959,0,0,0,1.356,1.356,15.953,15.953,0,1,1-2.594,3.4.959.959,0,0,0-1.666-.95,17.913,17.913,0,0,0,7.554,24.875V62.6a2.991,2.991,0,0,0,2.988,2.988H92.645A2.991,2.991,0,0,0,95.633,62.6V48.664a.959.959,0,0,0-1.917,0V62.6a1.071,1.071,0,0,1-1.07,1.07H53.276a1.071,1.071,0,0,1-1.07-1.07V56.1a17.892,17.892,0,0,0,14.82-1.2h6.368a.959.959,0,0,0,0-1.917H69.8A17.9,17.9,0,0,0,58.3,21.344c-.345,0-.688.011-1.03.03V11.536H60.74V13.9a1.848,1.848,0,0,0,.711,1.451l.911.706a1.542,1.542,0,0,0,1.89,0l.664-.514.663.514a1.543,1.543,0,0,0,1.89,0l.663-.514.664.514a1.543,1.543,0,0,0,1.89,0l.664-.514.664.514a1.543,1.543,0,0,0,1.89,0l.664-.514.664.514a1.542,1.542,0,0,0,1.89,0l.663-.514.664.514a1.543,1.543,0,0,0,1.89,0L81,15.546l.664.514a1.544,1.544,0,0,0,1.89,0c.692-.52,1.692-1.163,1.624-2.157V11.536h3.468V52.973H78.237a.959.959,0,0,0,0,1.917H88.969a1.6,1.6,0,0,0,1.6-1.6V11.217a1.6,1.6,0,0,0-1.6-1.6H85.181V9.578a2.1,2.1,0,0,0-2.1-2.1H79.935q.009-.177.009-.354A7.129,7.129,0,0,0,79.4,4.4H92.645a1.071,1.071,0,0,1,1.07,1.07V44.161a.959.959,0,0,0,.959.959ZM56.953,9.619a1.6,1.6,0,0,0-1.6,1.6V21.585a17.766,17.766,0,0,0-3.149.819V5.468a1.071,1.071,0,0,1,1.07-1.07H66.52a7.13,7.13,0,0,0-.542,2.731c0,.118,0,.236.01.354H62.836a2.1,2.1,0,0,0-2.1,2.1v.041H56.953Zm26.311-.041v4.285l-.651.5-.664-.514a1.543,1.543,0,0,0-1.89,0l-.664.514-.664-.514a1.543,1.543,0,0,0-1.89,0l-.663.514-.664-.514a1.544,1.544,0,0,0-1.89,0l-.664.514-.664-.514a1.543,1.543,0,0,0-1.89,0l-.664.514-.664-.514a1.543,1.543,0,0,0-1.89,0l-.663.514-.663-.514a1.543,1.543,0,0,0-1.89,0l-.664.514-.65-.5V9.578a.179.179,0,0,1,.179-.179H83.085a.179.179,0,0,1,.179.179Zm-15.354-2.1c-.008-.118-.014-.235-.014-.354a5.067,5.067,0,1,1,10.13,0c0,.118-.006.236-.014.354Z" transform="translate(-40.392 0)"/>
        <path id="Trazado_1048129" data-name="Trazado 1048129" d="M114.949,252.531a.959.959,0,0,0,1.356.026l4.97-4.786a3.553,3.553,0,1,0,2.758-6.485V236.6a.959.959,0,0,0-1.917,0v4.687a3.552,3.552,0,0,0-2.171,5.1l-4.97,4.785A.958.958,0,0,0,114.949,252.531Zm8.125-9.461a1.637,1.637,0,1,1-1.637,1.637,1.639,1.639,0,0,1,1.637-1.637Z" transform="translate(-105.164 -205.453)"/>
        <circle id="Elipse_12552" data-name="Elipse 12552" cx="1.013" cy="1.013" r="1.013" transform="translate(16.874 50.792)"/>
        <circle id="Elipse_12553" data-name="Elipse 12553" cx="1.013" cy="1.013" r="1.013" transform="translate(16.874 25.562)"/>
        <circle id="Elipse_12554" data-name="Elipse 12554" cx="1.013" cy="1.013" r="1.013" transform="translate(4.258 38.177)"/>
        <circle id="Elipse_12555" data-name="Elipse 12555" cx="1.013" cy="1.013" r="1.013" transform="translate(29.489 38.177)"/>
        <path id="Trazado_1048130" data-name="Trazado 1048130" d="M121.786,383.066a1.013,1.013,0,1,0,1.389-.351A1.013,1.013,0,0,0,121.786,383.066Z" transform="translate(-111.234 -333.563)"/>
        <path id="Trazado_1048131" data-name="Trazado 1048131" d="M223.067,215.33a1.013,1.013,0,1,0-.351-1.389A1.013,1.013,0,0,0,223.067,215.33Z" transform="translate(-199.234 -186.103)"/>
        <path id="Trazado_1048132" data-name="Trazado 1048132" d="M89.078,247.688a1.013,1.013,0,1,0,.351,1.389A1.013,1.013,0,0,0,89.078,247.688Z" transform="translate(-81.505 -215.833)"/>
        <path id="Trazado_1048133" data-name="Trazado 1048133" d="M257.164,350.359a1.013,1.013,0,1,0-.351-1.389A1.013,1.013,0,0,0,257.164,350.359Z" transform="translate(-228.963 -303.834)"/>
        <path id="Trazado_1048134" data-name="Trazado 1048134" d="M221.212,384.964a1.013,1.013,0,1,0,.375-1.383A1.013,1.013,0,0,0,221.212,384.964Z" transform="translate(-197.931 -334.325)"/>
        <path id="Trazado_1048135" data-name="Trazado 1048135" d="M124.655,214.466a1.013,1.013,0,1,0-1.383-.375A1.013,1.013,0,0,0,124.655,214.466Z" transform="translate(-112.537 -185.342)"/>
        <path id="Trazado_1048136" data-name="Trazado 1048136" d="M258.054,249.174a1.013,1.013,0,1,0,1.383.375A1.013,1.013,0,0,0,258.054,249.174Z" transform="translate(-229.726 -217.136)"/>
        <path id="Trazado_1048137" data-name="Trazado 1048137" d="M87.18,347.115a1.013,1.013,0,1,0,1.383.375A1.013,1.013,0,0,0,87.18,347.115Z" transform="translate(-80.742 -302.531)"/>
        <path id="Trazado_1048138" data-name="Trazado 1048138" d="M325.293,199.4H331.5a.959.959,0,0,0,0-1.917h-6.211a.959.959,0,0,0,0,1.917Z" transform="translate(-287.96 -172.185)"/>
        <path id="Trazado_1048139" data-name="Trazado 1048139" d="M307.336,168.509a.959.959,0,0,0-.959-.959h-9.9a.959.959,0,1,0,0,1.917h9.9A.959.959,0,0,0,307.336,168.509Z" transform="translate(-262.833 -146.086)"/>
      </g>
    </g>
  </g>
</svg>
