<svg xmlns="http://www.w3.org/2000/svg" xmlns:xlink="http://www.w3.org/1999/xlink" width="113" height="113" viewBox="0 0 113 113">
  <defs>
    <filter id="Trazado_982547" x="0" y="0" width="113" height="113" filterUnits="userSpaceOnUse">
      <feOffset dy="3" input="SourceAlpha"/>
      <feGaussianBlur stdDeviation="3" result="blur"/>
      <feFlood flood-opacity="0.161"/>
      <feComposite operator="in" in2="blur"/>
      <feComposite in="SourceGraphic"/>
    </filter>
  </defs>
  <g id="Grupo_1208393" data-name="Grupo 1208393" transform="translate(-1216 -3978.623)">
    <g id="Grupo_1208124" data-name="Grupo 1208124" transform="translate(0 -1922.377)">
      <g id="Grupo_1202435" data-name="Grupo 1202435" transform="translate(-0.56 1255.486)">
        <g id="Grupo_1202052" data-name="Grupo 1202052" transform="translate(1225.561 4651.514)">
          <g id="Grupo_1172010" data-name="Grupo 1172010" transform="translate(0)">
            <g id="Grupo_1171046" data-name="Grupo 1171046">
              <g id="Grupo_1148525" data-name="Grupo 1148525">
                <g transform="matrix(1, 0, 0, 1, -9, -6)" filter="url(#Trazado_982547)">
                  <g id="Trazado_982547-2" data-name="Trazado 982547" transform="translate(9 6)" fill="#e5fdfa">
                    <path d="M 47.5 93.5 C 41.28937149047852 93.5 35.26533508300781 92.28397369384766 29.59518623352051 89.88570404052734 C 24.11771965026855 87.56893157958984 19.19813346862793 84.25196075439453 14.97309303283691 80.02691650390625 C 10.74804019927979 75.80186462402344 7.431066513061523 70.88229370117188 5.114293098449707 65.40481567382812 C 2.716026782989502 59.73468017578125 1.5 53.71062850952148 1.5 47.5 C 1.5 41.28937149047852 2.716026782989502 35.26533508300781 5.114293098449707 29.59518623352051 C 7.431066513061523 24.11771965026855 10.74804019927979 19.19813346862793 14.97309303283691 14.97309303283691 C 19.19813346862793 10.74804019927979 24.11771965026855 7.431066513061523 29.59518623352051 5.114293098449707 C 35.26533508300781 2.716026782989502 41.28937149047852 1.5 47.5 1.5 C 53.71062850952148 1.5 59.73468017578125 2.716026782989502 65.40481567382812 5.114293098449707 C 70.88229370117188 7.431066513061523 75.80186462402344 10.74804019927979 80.02691650390625 14.97309303283691 C 84.25196075439453 19.19813346862793 87.56893157958984 24.11771965026855 89.88570404052734 29.59518623352051 C 92.28397369384766 35.26533508300781 93.5 41.28937149047852 93.5 47.5 C 93.5 53.71062850952148 92.28397369384766 59.73468017578125 89.88570404052734 65.40481567382812 C 87.56893157958984 70.88229370117188 84.25196075439453 75.80186462402344 80.02691650390625 80.02691650390625 C 75.80186462402344 84.25196075439453 70.88229370117188 87.56893157958984 65.40481567382812 89.88570404052734 C 59.73468017578125 92.28397369384766 53.71062850952148 93.5 47.5 93.5 Z" stroke="none"/>
                    <path d="M 47.5 3 C 41.49121475219727 3 35.66376876831055 4.176155090332031 30.17950439453125 6.495796203613281 C 24.88084411621094 8.736953735351562 20.12152099609375 11.94598388671875 16.03375244140625 16.03375244140625 C 11.94598388671875 20.12152099609375 8.736953735351562 24.88084411621094 6.495796203613281 30.17950439453125 C 4.176155090332031 35.66376876831055 3 41.49121475219727 3 47.5 C 3 53.50878524780273 4.176155090332031 59.33623123168945 6.495796203613281 64.82049560546875 C 8.736953735351562 70.11915588378906 11.94598388671875 74.87847900390625 16.03375244140625 78.96624755859375 C 20.12152099609375 83.05401611328125 24.88084411621094 86.26304626464844 30.17950439453125 88.50419616699219 C 35.66376876831055 90.82384490966797 41.49121475219727 92 47.5 92 C 53.50878524780273 92 59.33623123168945 90.82384490966797 64.82049560546875 88.50419616699219 C 70.11915588378906 86.26304626464844 74.87847900390625 83.05401611328125 78.96624755859375 78.96624755859375 C 83.05401611328125 74.87847900390625 86.26304626464844 70.11915588378906 88.50419616699219 64.82049560546875 C 90.82384490966797 59.33623123168945 92 53.50878524780273 92 47.5 C 92 41.49121475219727 90.82384490966797 35.66376876831055 88.50419616699219 30.17950439453125 C 86.26304626464844 24.88084411621094 83.05401611328125 20.12152099609375 78.96624755859375 16.03375244140625 C 74.87847900390625 11.94598388671875 70.11915588378906 8.736953735351562 64.82049560546875 6.495796203613281 C 59.33623123168945 4.176155090332031 53.50878524780273 3 47.5 3 M 47.5 0 C 73.7335205078125 0 95 21.2664794921875 95 47.5 C 95 73.7335205078125 73.7335205078125 95 47.5 95 C 21.2664794921875 95 0 73.7335205078125 0 47.5 C 0 21.2664794921875 21.2664794921875 0 47.5 0 Z" stroke="none" fill="#098576"/>
                  </g>
                </g>
              </g>
            </g>
          </g>
        </g>
      </g>
    </g>
    <g id="meeting-chat-time-time-management-team" transform="translate(1242 4000)">
      <path id="Trazado_1048140" data-name="Trazado 1048140" d="M61,54.44V61H50V55l2-4V50l7.63,2.54A2.009,2.009,0,0,1,61,54.44Z" fill="#ea348b"/>
      <path id="Trazado_1048141" data-name="Trazado 1048141" d="M61,54.44V61H57V54.44a2.009,2.009,0,0,0-1.37-1.9l-3.77-1.26L52,51V50l7.63,2.54A2.009,2.009,0,0,1,61,54.44Z" fill="#c61469"/>
      <path id="Trazado_1048142" data-name="Trazado 1048142" d="M60,44a3,3,0,0,1-5.74,1.22A5.877,5.877,0,0,0,55.91,42H57a1.955,1.955,0,0,0,1.41-.59l.04-.04A2.992,2.992,0,0,1,60,44Z" fill="#ffcd00"/>
      <path id="Trazado_1048143" data-name="Trazado 1048143" d="M60,44a3,3,0,0,1-3,3,2.772,2.772,0,0,1-1-.18,2.985,2.985,0,0,0,1.22-4.83,1.952,1.952,0,0,0,1.19-.58l.04-.04A2.992,2.992,0,0,1,60,44Z" fill="#ddb200"/>
      <path id="Trazado_1048144" data-name="Trazado 1048144" d="M57,38a2.006,2.006,0,0,1,2,2,1.944,1.944,0,0,1-.55,1.37l-.04.04A1.955,1.955,0,0,1,57,42H55.91A5.47,5.47,0,0,0,56,41V38Z" fill="#ffc477"/>
      <circle id="Elipse_12556" data-name="Elipse 12556" cx="11" cy="11" r="11" transform="translate(39 3)" fill="#bdfdff"/>
      <path id="Trazado_1048145" data-name="Trazado 1048145" d="M61,14A11.017,11.017,0,0,1,48,24.82,11,11,0,0,0,48,3.18,11.017,11.017,0,0,1,61,14Z" fill="#46f8ff"/>
      <path id="Trazado_1048146" data-name="Trazado 1048146" d="M56,38v3a5.47,5.47,0,0,1-.09,1A5.977,5.977,0,0,1,52,46.65a5.889,5.889,0,0,1-4,0A5.981,5.981,0,0,1,44.09,42,5.47,5.47,0,0,1,44,41V37l4-2,8,2Z" fill="#ffc477"/>
      <path id="Trazado_1048147" data-name="Trazado 1048147" d="M56,35v2l-8-2-4,2V35a6,6,0,0,1,12,0Z" fill="#ffcd00"/>
      <path id="Trazado_1048148" data-name="Trazado 1048148" d="M52,50v1l-2,4-2-4V46.65a5.889,5.889,0,0,0,4,0Z" fill="#ffc477"/>
      <circle id="Elipse_12557" data-name="Elipse 12557" cx="2" cy="2" r="2" transform="translate(48 12)" fill="#ff3051"/>
      <path id="Trazado_1048149" data-name="Trazado 1048149" d="M50,55v6H39V54.44a2.009,2.009,0,0,1,1.37-1.9L48,50v1Z" fill="#ea348b"/>
      <path id="Trazado_1048150" data-name="Trazado 1048150" d="M44.09,42H43a2,2,0,1,1,0-4h1v3A5.47,5.47,0,0,0,44.09,42Z" fill="#ffc477"/>
      <path id="Trazado_1048151" data-name="Trazado 1048151" d="M39,28v8a2.006,2.006,0,0,1-2,2H36v4l-4-4H27a2.006,2.006,0,0,1-2-2V28a2.006,2.006,0,0,1,2-2H37a2.006,2.006,0,0,1,2,2Z" fill="#ebe5dd"/>
      <path id="Trazado_1048152" data-name="Trazado 1048152" d="M29,5V17a2.006,2.006,0,0,1-2,2H26l-6,8V19H5a2.006,2.006,0,0,1-2-2V5A2.006,2.006,0,0,1,5,3H27a2.006,2.006,0,0,1,2,2Z" fill="#fee9ab"/>
      <path id="Trazado_1048153" data-name="Trazado 1048153" d="M39,28v8a2.006,2.006,0,0,1-2,2H36v4l-4-4a2.006,2.006,0,0,0,2-2V28a2.006,2.006,0,0,0-2-2h5a2.006,2.006,0,0,1,2,2Z" fill="#c0ab91"/>
      <path id="Trazado_1048154" data-name="Trazado 1048154" d="M29,5V17a2.006,2.006,0,0,1-2,2H26l-6,8V20.33L21,19h1a2.006,2.006,0,0,0,2-2V5a2.006,2.006,0,0,0-2-2h5a2.006,2.006,0,0,1,2,2Z" fill="#ffde55"/>
      <path id="Trazado_1048155" data-name="Trazado 1048155" d="M25,54.44V61H18V50.67l5.63,1.87A2.009,2.009,0,0,1,25,54.44Z" fill="#b2fa09"/>
      <path id="Trazado_1048156" data-name="Trazado 1048156" d="M25,54.44V61H21V54.44a2.009,2.009,0,0,0-1.37-1.9L18,52V50.67l5.63,1.87A2.009,2.009,0,0,1,25,54.44Z" fill="#9cdd05"/>
      <path id="Trazado_1048157" data-name="Trazado 1048157" d="M21,38a2,2,0,0,1,0,4H19.91A5.47,5.47,0,0,0,20,41V38Z" fill="#ffc477"/>
      <path id="Trazado_1048158" data-name="Trazado 1048158" d="M20,37v4a5.47,5.47,0,0,1-.09,1A5.981,5.981,0,0,1,16,46.65a5.889,5.889,0,0,1-4,0A5.981,5.981,0,0,1,8.09,42,5.47,5.47,0,0,1,8,41V37l4-2Z" fill="#ffc477"/>
      <path id="Trazado_1048159" data-name="Trazado 1048159" d="M20,35v2l-8-2L8,37V35a6,6,0,0,1,12,0Z" fill="#ffcd00"/>
      <path id="Trazado_1048160" data-name="Trazado 1048160" d="M20,37v4a5.47,5.47,0,0,1-.09,1A5.981,5.981,0,0,1,16,46.65,5.8,5.8,0,0,1,14,47a5.718,5.718,0,0,1-1.5-.2,4.127,4.127,0,0,0,.5-.15A5.981,5.981,0,0,0,16.91,42,5.47,5.47,0,0,0,17,41V37l-6-1.5,1-.5Z" fill="#ffb655"/>
      <path id="Trazado_1048161" data-name="Trazado 1048161" d="M20,35v2l-3-.75V35a5.944,5.944,0,0,0-1.76-4.24A5.782,5.782,0,0,0,12.5,29.2,5.715,5.715,0,0,1,14,29,6.009,6.009,0,0,1,20,35Z" fill="#ddb200"/>
      <path id="Trazado_1048162" data-name="Trazado 1048162" d="M56,37v4a5.47,5.47,0,0,1-.09,1A5.981,5.981,0,0,1,52,46.65,5.8,5.8,0,0,1,50,47a5.717,5.717,0,0,1-1.5-.2,4.127,4.127,0,0,0,.5-.15A5.981,5.981,0,0,0,52.91,42,5.471,5.471,0,0,0,53,41V37l-6-1.5,1-.5Z" fill="#ffb655"/>
      <path id="Trazado_1048163" data-name="Trazado 1048163" d="M56,35v2l-3-.75V35a5.944,5.944,0,0,0-1.76-4.24A5.782,5.782,0,0,0,48.5,29.2,5.715,5.715,0,0,1,50,29a6.009,6.009,0,0,1,6,6Z" fill="#ddb200"/>
      <path id="Trazado_1048164" data-name="Trazado 1048164" d="M18,50.67V61H14V55l2-4V50Z" fill="#c0ab91"/>
      <path id="Trazado_1048165" data-name="Trazado 1048165" d="M16,50v1l-2,4-2-4V46.65a5.889,5.889,0,0,0,4,0Z" fill="#ffc477"/>
      <path id="Trazado_1048166" data-name="Trazado 1048166" d="M14,55v6H10V50.67L12,50v1Z" fill="#c0ab91"/>
      <path id="Trazado_1048167" data-name="Trazado 1048167" d="M10,50.67V61H3V54.44a2.009,2.009,0,0,1,1.37-1.9Z" fill="#b2fa09"/>
      <path id="Trazado_1048168" data-name="Trazado 1048168" d="M8.09,42H7a2,2,0,1,1,0-4H8v3a5.47,5.47,0,0,0,.09,1Z" fill="#ffc477"/>
      <path id="Trazado_1048169" data-name="Trazado 1048169" d="M52,14a2,2,0,0,1-3,1.73,2,2,0,0,0,0-3.46A2,2,0,0,1,52,14Z" fill="#cd2a00"/>
      <path id="Trazado_1048170" data-name="Trazado 1048170" d="M27,2H5A3.009,3.009,0,0,0,2,5V17a3.009,3.009,0,0,0,3,3H19v7a1.014,1.014,0,0,0,.68.95A1.185,1.185,0,0,0,20,28a.985.985,0,0,0,.8-.4L26.5,20H27a3.009,3.009,0,0,0,3-3V5a3.009,3.009,0,0,0-3-3Zm1,15a1,1,0,0,1-1,1H26a1.014,1.014,0,0,0-.8.4L21,24V19a1,1,0,0,0-1-1H5a1,1,0,0,1-1-1V5A1,1,0,0,1,5,4H27a1,1,0,0,1,1,1Z"/>
      <path id="Trazado_1048171" data-name="Trazado 1048171" d="M6,6H8V8H6Z"/>
      <path id="Trazado_1048172" data-name="Trazado 1048172" d="M10,6H26V8H10Z"/>
      <path id="Trazado_1048173" data-name="Trazado 1048173" d="M6,10H26v2H6Z"/>
      <path id="Trazado_1048174" data-name="Trazado 1048174" d="M6,14H22v2H6Z"/>
      <path id="Trazado_1048175" data-name="Trazado 1048175" d="M24,14h2v2H24Z"/>
      <path id="Trazado_1048176" data-name="Trazado 1048176" d="M47,39h2v2H47Z"/>
      <path id="Trazado_1048177" data-name="Trazado 1048177" d="M51,39h2v2H51Z"/>
      <path id="Trazado_1048178" data-name="Trazado 1048178" d="M59.95,51.6,53,49.28V47.31a6.843,6.843,0,0,0,1.05-.61,4,4,0,1,0,5.731-5.581A2.994,2.994,0,0,0,57,37V35a7,7,0,1,0-14,0v2a3,3,0,0,0,0,6h.29A7.007,7.007,0,0,0,47,47.31v1.97L40.05,51.6A2.978,2.978,0,0,0,38,54.44V61a1,1,0,0,0,1,1H61a1,1,0,0,0,1-1V54.44a2.978,2.978,0,0,0-2.05-2.84ZM43,41a1,1,0,0,1-1-1,.949.949,0,0,1,.31-.71A.928.928,0,0,1,43,39Zm14-2a1,1,0,0,1,1,1,.949.949,0,0,1-.31.71A.928.928,0,0,1,57,41Zm-.29,4H57a2.946,2.946,0,0,0,1.44-.38A1.977,1.977,0,0,1,59,44a2,2,0,0,1-3.5,1.32A7.043,7.043,0,0,0,56.71,43ZM45,35a5,5,0,0,1,10,0v.72l-6.76-1.69a.978.978,0,0,0-.69.08L45,35.38Zm0,6V37.62l3.12-1.56L55,37.78V41a5,5,0,0,1-10,0Zm4,19H46a2,2,0,0,1,0-4V54a4,4,0,0,0-4,4,3.906,3.906,0,0,0,.56,2H40V54.44a1,1,0,0,1,.68-.95l6.4-2.13c.02.03.01.06.03.09L49,55.24Zm0-9.24V47.92a6.29,6.29,0,0,0,2,0v2.84l-1,2ZM60,60H57.44A3.906,3.906,0,0,0,58,58a4,4,0,0,0-4-4v2a2,2,0,0,1,0,4H51V55.24l1.89-3.79c.02-.03.01-.06.03-.09l6.4,2.13a1,1,0,0,1,.68.95Z"/>
      <path id="Trazado_1048179" data-name="Trazado 1048179" d="M11,39h2v2H11Z"/>
      <path id="Trazado_1048180" data-name="Trazado 1048180" d="M15,39h2v2H15Z"/>
      <path id="Trazado_1048181" data-name="Trazado 1048181" d="M23.95,51.6,17,49.28V47.31A7.007,7.007,0,0,0,20.71,43H21a3,3,0,0,0,0-6V35A7,7,0,0,0,7,35v2a3,3,0,0,0,0,6h.29A7.007,7.007,0,0,0,11,47.31v1.97L4.05,51.6A2.978,2.978,0,0,0,2,54.44V61a1,1,0,0,0,1,1H25a1,1,0,0,0,1-1V54.44a2.978,2.978,0,0,0-2.05-2.84ZM21,39a1,1,0,0,1,1,1,.949.949,0,0,1-.31.71A.928.928,0,0,1,21,41ZM7,41a1,1,0,0,1-1-1,.949.949,0,0,1,.31-.71A.928.928,0,0,1,7,39Zm2-6a5,5,0,0,1,10,0v.72l-6.76-1.69a.978.978,0,0,0-.69.08L9,35.38Zm0,6V37.62l3.12-1.56L19,37.78V41A5,5,0,0,1,9,41ZM9,60H4V54.44a1,1,0,0,1,.68-.95L9,52.05Zm4,0H11V51.39l.08-.03c.02.03.01.06.03.09L13,55.24Zm0-9.24V47.92a6.29,6.29,0,0,0,2,0v2.84l-1,2ZM17,60H15V55.24l1.89-3.79c.02-.03.01-.06.03-.09l.08.03Zm7,0H19V52.05l4.32,1.44a1,1,0,0,1,.68.95Z"/>
      <path id="Trazado_1048182" data-name="Trazado 1048182" d="M50,26A12,12,0,1,0,38,14,12,12,0,0,0,50,26ZM50,4A10,10,0,1,1,40,14,10,10,0,0,1,50,4Z"/>
      <path id="Trazado_1048183" data-name="Trazado 1048183" d="M50,17a3,3,0,0,0,2.816-2H56V13H52.816A3,3,0,0,0,51,11.184V6H49v5.184A2.993,2.993,0,0,0,50,17Zm0-4a1,1,0,1,1-1,1A1,1,0,0,1,50,13Z"/>
      <path id="Trazado_1048184" data-name="Trazado 1048184" d="M37,25H27a3.009,3.009,0,0,0-3,3v8a3.009,3.009,0,0,0,3,3h4.59l3.7,3.71A1.007,1.007,0,0,0,36,43a.838.838,0,0,0,.38-.08A.987.987,0,0,0,37,42V39a3.009,3.009,0,0,0,3-3V28a3.009,3.009,0,0,0-3-3Zm1,11a1,1,0,0,1-1,1H36a1,1,0,0,0-1,1v1.59l-2.29-2.3A1.033,1.033,0,0,0,32,37H27a1,1,0,0,1-1-1V28a1,1,0,0,1,1-1H37a1,1,0,0,1,1,1Z"/>
      <path id="Trazado_1048185" data-name="Trazado 1048185" d="M28,29h2v2H28Z"/>
      <path id="Trazado_1048186" data-name="Trazado 1048186" d="M32,29h4v2H32Z"/>
      <path id="Trazado_1048187" data-name="Trazado 1048187" d="M28,33h2v2H28Z"/>
      <path id="Trazado_1048188" data-name="Trazado 1048188" d="M32,33h4v2H32Z"/>
      <path id="Trazado_1048189" data-name="Trazado 1048189" d="M13,43h2v2H13Z"/>
      <path id="Trazado_1048190" data-name="Trazado 1048190" d="M49,43h2v2H49Z"/>
    </g>
  </g>
</svg>
