<svg xmlns="http://www.w3.org/2000/svg" xmlns:xlink="http://www.w3.org/1999/xlink" width="113" height="113" viewBox="0 0 113 113">
  <defs>
    <filter id="Trazado_982547" x="0" y="0" width="113" height="113" filterUnits="userSpaceOnUse">
      <feOffset dy="3" input="SourceAlpha"/>
      <feGaussianBlur stdDeviation="3" result="blur"/>
      <feFlood flood-opacity="0.161"/>
      <feComposite operator="in" in2="blur"/>
      <feComposite in="SourceGraphic"/>
    </filter>
    <clipPath id="clip-path">
      <path id="path4392" d="M0-682.665H66.8v66.8H0Z" transform="translate(0 682.665)"/>
    </clipPath>
  </defs>
  <g id="Grupo_1208437" data-name="Grupo 1208437" transform="translate(-1111 -929.816)">
    <g id="Grupo_1208138" data-name="Grupo 1208138" transform="translate(-1 -4697.609)">
      <g id="Grupo_1202104" data-name="Grupo 1202104" transform="translate(0 -1149.226)">
        <g id="Grupo_1201923" data-name="Grupo 1201923" transform="translate(-4174.49 4856.378)">
          <g id="Grupo_1176928" data-name="Grupo 1176928" transform="translate(5295.49 1926.273)">
            <g id="Grupo_1172322" data-name="Grupo 1172322" transform="translate(0 0)">
              <g id="Grupo_1164700" data-name="Grupo 1164700">
                <g id="Grupo_1160931" data-name="Grupo 1160931">
                  <g id="Grupo_1160749" data-name="Grupo 1160749">
                    <g id="Grupo_1158891" data-name="Grupo 1158891">
                      <g id="Grupo_1157406" data-name="Grupo 1157406">
                        <g id="Grupo_1155793" data-name="Grupo 1155793">
                          <g id="Grupo_1154704" data-name="Grupo 1154704">
                            <g id="Grupo_1150790" data-name="Grupo 1150790">
                              <g id="Grupo_1154214" data-name="Grupo 1154214">
                                <g id="Grupo_1152583" data-name="Grupo 1152583">
                                  <g id="Grupo_1146973" data-name="Grupo 1146973">
                                    <g id="Grupo_1146954" data-name="Grupo 1146954">
                                      <g transform="matrix(1, 0, 0, 1, -9, -6)" filter="url(#Trazado_982547)">
                                        <g id="Trazado_982547-2" data-name="Trazado 982547" transform="translate(9 6)" fill="#f6ecfe">
                                          <path d="M 47.5000114440918 93.49987030029297 C 41.28938293457031 93.49987030029297 35.26534652709961 92.28384399414062 29.5951976776123 89.88558959960938 C 24.11773109436035 87.56881713867188 19.19814491271973 84.25183868408203 14.97310447692871 80.02680206298828 C 10.74805164337158 75.80176544189453 7.43107795715332 70.88218688964844 5.114304542541504 65.40472412109375 C 2.716038227081299 59.73458862304688 1.500011444091797 53.71054840087891 1.500011444091797 47.49993515014648 C 1.500011444091797 41.28932189941406 2.716038227081299 35.26528167724609 5.114304542541504 29.59514808654785 C 7.43107795715332 24.1176815032959 10.74805164337158 19.1981086730957 14.97310447692871 14.97306823730469 C 19.19814491271973 10.74802875518799 24.11773109436035 7.431055068969727 29.5951976776123 5.11428165435791 C 35.26534652709961 2.716028451919556 41.28938293457031 1.500001788139343 47.5000114440918 1.500001788139343 C 53.71063995361328 1.500001788139343 59.73467636108398 2.716028451919556 65.40482330322266 5.11428165435791 C 70.88229370117188 7.431055068969727 75.8018798828125 10.74802875518799 80.02691650390625 14.97306823730469 C 84.25196838378906 19.1981086730957 87.56894683837891 24.1176815032959 89.88571929931641 29.59514808654785 C 92.28398132324219 35.26528167724609 93.50001525878906 41.28932189941406 93.50001525878906 47.49993515014648 C 93.50001525878906 53.71054840087891 92.28398132324219 59.73458862304688 89.88571929931641 65.40472412109375 C 87.56894683837891 70.88218688964844 84.25196838378906 75.80176544189453 80.02691650390625 80.02680206298828 C 75.8018798828125 84.25183868408203 70.88229370117188 87.56881713867188 65.40482330322266 89.88558959960938 C 59.73467636108398 92.28384399414062 53.71063995361328 93.49987030029297 47.5000114440918 93.49987030029297 Z" stroke="none"/>
                                          <path d="M 47.5000114440918 3 C 41.49122619628906 3 35.66378021240234 4.1761474609375 30.17951965332031 6.495796203613281 C 24.880859375 8.7369384765625 20.12153625488281 11.94596862792969 16.03376770019531 16.03373718261719 C 11.94598388671875 20.12149047851562 8.736968994140625 24.88081359863281 6.495811462402344 30.17947387695312 C 4.176162719726562 35.66371917724609 3.000007629394531 41.49116516113281 3.000007629394531 47.49993515014648 C 3.000007629394531 53.50870513916016 4.176162719726562 59.33615112304688 6.495811462402344 64.82039642333984 C 8.736968994140625 70.11905670166016 11.94598388671875 74.87837982177734 16.03376770019531 78.96613311767578 C 20.12153625488281 83.05390167236328 24.880859375 86.26293182373047 30.17951965332031 88.50407409667969 C 35.66378021240234 90.82372283935547 41.49122619628906 91.99987030029297 47.5000114440918 91.99987030029297 C 53.50879669189453 91.99987030029297 59.33624267578125 90.82372283935547 64.82050323486328 88.50407409667969 C 70.11916351318359 86.26293182373047 74.87848663330078 83.05390167236328 78.96625518798828 78.96613311767578 C 83.05403900146484 74.87837982177734 86.2630615234375 70.11905670166016 88.50421142578125 64.82039642333984 C 90.82386016845703 59.33615112304688 92.00001525878906 53.50870513916016 92.00001525878906 47.49993515014648 C 92.00001525878906 41.49116516113281 90.82386016845703 35.66371917724609 88.50421142578125 30.17947387695312 C 86.2630615234375 24.88081359863281 83.05403900146484 20.12149047851562 78.96625518798828 16.03373718261719 C 74.87848663330078 11.94596862792969 70.11916351318359 8.7369384765625 64.82050323486328 6.495796203613281 C 59.33624267578125 4.1761474609375 53.50879669189453 3 47.5000114440918 3 M 47.5000114440918 0 C 73.73353576660156 0 95.00001525878906 21.26644134521484 95.00001525878906 47.49993515014648 C 95.00001525878906 73.73342895507812 73.73353576660156 94.99987030029297 47.5000114440918 94.99987030029297 C 21.26648712158203 94.99987030029297 7.62939453125e-06 73.73342895507812 7.62939453125e-06 47.49993515014648 C 7.62939453125e-06 21.26644134521484 21.26648712158203 0 47.5000114440918 0 Z" stroke="none" fill="#aa52f9"/>
                                        </g>
                                      </g>
                                    </g>
                                  </g>
                                </g>
                              </g>
                            </g>
                          </g>
                        </g>
                      </g>
                    </g>
                  </g>
                </g>
              </g>
            </g>
          </g>
        </g>
      </g>
    </g>
    <g id="g4386" transform="translate(1134.099 1632.58)">
      <g id="g4388" transform="translate(0 -682.665)">
        <g id="g4390" transform="translate(0 0)" clip-path="url(#clip-path)">
          <g id="g4396" transform="translate(0.992 49.022)">
            <path id="path4398" d="M-530.073-82.628h-50.176a7.321,7.321,0,0,1-7.321-7.321,1.642,1.642,0,0,1,1.642-1.642h61.535a1.642,1.642,0,0,1,1.642,1.642,7.321,7.321,0,0,1-7.321,7.321" transform="translate(587.571 91.59)" fill="#c5d3dd"/>
          </g>
          <g id="g4400" transform="translate(55.391 49.022)">
            <path id="path4402" d="M-96.06-15.132a7.3,7.3,0,0,1-2.145,5.177,7.3,7.3,0,0,1-5.177,2.144h-3.1A7.3,7.3,0,0,0-101.3-9.955a7.3,7.3,0,0,0,2.144-5.177,1.641,1.641,0,0,0-1.641-1.641h3.1a1.642,1.642,0,0,1,1.643,1.641" transform="translate(106.48 16.773)" fill="#b6c4cf"/>
          </g>
          <g id="g4404" transform="translate(4.718 8.819)">
            <path id="path4406" d="M-501.946-370.633h-51.527a2.92,2.92,0,0,1-2.92-2.92v-34.363a2.92,2.92,0,0,1,2.92-2.92h51.527a2.92,2.92,0,0,1,2.92,2.92v34.363a2.92,2.92,0,0,1-2.92,2.92" transform="translate(556.392 410.836)" fill="#d9e7ec"/>
          </g>
          <g id="g4408" transform="translate(56.555 8.819)">
            <path id="path4410" d="M-50.978-26.92V7.443a2.92,2.92,0,0,1-2.92,2.92h-2.609a2.92,2.92,0,0,0,2.92-2.92V-26.92a2.92,2.92,0,0,0-2.92-2.92H-53.9a2.92,2.92,0,0,1,2.92,2.92" transform="translate(56.508 29.84)" fill="#c5d3dd"/>
          </g>
          <g id="g4412" transform="translate(4.718 8.819)">
            <path id="path4414" d="M-501.946-370.633h-51.527a2.92,2.92,0,0,1-2.92-2.92v-34.363a2.92,2.92,0,0,1,2.92-2.92h51.527a2.92,2.92,0,0,1,2.92,2.92v34.363A2.92,2.92,0,0,1-501.946-370.633Z" transform="translate(556.392 410.836)" fill="none" stroke="#000" stroke-linecap="round" stroke-linejoin="round" stroke-miterlimit="10" stroke-width="1"/>
          </g>
          <g id="g4416" transform="translate(8.919 12.379)">
            <path id="path4418" d="M-441.3-304.991h-46.772a1.1,1.1,0,0,1-1.1-1.1v-30.89a1.1,1.1,0,0,1,1.1-1.1H-441.3a1.1,1.1,0,0,1,1.1,1.1v30.89a1.1,1.1,0,0,1-1.1,1.1" transform="translate(489.167 338.074)" fill="#fdb541"/>
          </g>
          <g id="g4420" transform="translate(54.154 12.379)">
            <path id="path4422" d="M-34.378-10.1v30.89a1.1,1.1,0,0,1-1.1,1.1h-2.633a1.1,1.1,0,0,0,1.1-1.1V-10.1a1.1,1.1,0,0,0-1.1-1.1h2.633a1.1,1.1,0,0,1,1.1,1.1" transform="translate(38.107 11.2)" fill="#fea713"/>
          </g>
          <g id="g4424" transform="translate(8.919 12.379)">
            <path id="path4426" d="M-441.3-304.991h-46.772a1.1,1.1,0,0,1-1.1-1.1v-30.89a1.1,1.1,0,0,1,1.1-1.1H-441.3a1.1,1.1,0,0,1,1.1,1.1v30.89A1.1,1.1,0,0,1-441.3-304.991Z" transform="translate(489.167 338.074)" fill="none" stroke="#000" stroke-linecap="round" stroke-linejoin="round" stroke-miterlimit="10" stroke-width="1"/>
          </g>
          <g id="g4428" transform="translate(0.992 49.022)">
            <path id="path4430" d="M-91.4-82.628H-94a7.321,7.321,0,0,1-7.321-7.321,1.642,1.642,0,0,1,1.642-1.642h61.535A1.642,1.642,0,0,1-36.5-89.949a7.321,7.321,0,0,1-7.321,7.321H-86.853" transform="translate(101.32 91.59)" fill="none" stroke="#000" stroke-linecap="round" stroke-linejoin="round" stroke-miterlimit="10" stroke-width="1"/>
          </g>
          <g id="g4432" transform="translate(8.919 12.379)">
            <path id="path4434" d="M-451.408-10.1v6.435h-48.964V-10.1a1.1,1.1,0,0,1,1.1-1.1H-452.5a1.1,1.1,0,0,1,1.1,1.1" transform="translate(500.372 11.2)" fill="#596c76"/>
          </g>
          <g id="g4436" transform="translate(54.154 12.379)">
            <path id="path4438" d="M-34.378-10.1v6.435h-2.633V-10.1a1.1,1.1,0,0,0-1.1-1.1h2.633a1.1,1.1,0,0,1,1.1,1.1" transform="translate(38.107 11.2)" fill="#465a61"/>
          </g>
          <g id="g4440" transform="translate(8.919 12.379)">
            <path id="path4442" d="M-313.328-69.429h-33.987v-6.435a1.1,1.1,0,0,1,1.1-1.1h46.772a1.1,1.1,0,0,1,1.1,1.1v6.435h-10.4" transform="translate(347.315 76.96)" fill="none" stroke="#000" stroke-linecap="round" stroke-linejoin="round" stroke-miterlimit="10" stroke-width="1"/>
          </g>
          <g id="g4444" transform="translate(27.401 49.022)">
            <path id="path4446" d="M-92.756-35.682h-8.122a1.939,1.939,0,0,1-1.939-1.939v-1.931h12v1.931a1.939,1.939,0,0,1-1.939,1.939" transform="translate(102.817 39.552)" fill="#8d9ca8"/>
          </g>
          <g id="g4448" transform="translate(34.853 49.022)">
            <path id="path4450" d="M-41.93,0V1.931A1.939,1.939,0,0,1-43.869,3.87h-2.609A1.939,1.939,0,0,0-44.54,1.931V0Z" transform="translate(46.479)" fill="#7a8d98"/>
          </g>
          <g id="g4452" transform="translate(27.401 49.022)">
            <path id="path4454" d="M-92.756-35.682h-8.122a1.939,1.939,0,0,1-1.939-1.939v-1.931h12v1.931A1.939,1.939,0,0,1-92.756-35.682Z" transform="translate(102.817 39.552)" fill="none" stroke="#000" stroke-linecap="round" stroke-linejoin="round" stroke-miterlimit="10" stroke-width="1"/>
          </g>
          <g id="g4456" transform="translate(13.459 15.166)">
            <path id="path4458" d="M-18.043-9.021a.978.978,0,0,1-.979.979A.978.978,0,0,1-20-9.021.979.979,0,0,1-19.021-10a.979.979,0,0,1,.979.979" transform="translate(20 10)"/>
          </g>
          <g id="g4460" transform="translate(17.337 15.166)">
            <path id="path4462" d="M-18.043-9.021a.978.978,0,0,1-.979.979A.978.978,0,0,1-20-9.021.979.979,0,0,1-19.021-10a.979.979,0,0,1,.979.979" transform="translate(20 10)"/>
          </g>
          <g id="g4464" transform="translate(21.215 15.166)">
            <path id="path4466" d="M-18.043-9.021a.978.978,0,0,1-.979.979A.978.978,0,0,1-20-9.021.979.979,0,0,1-19.021-10a.978.978,0,0,1,.979.979" transform="translate(20 10)"/>
          </g>
          <g id="g4468" transform="translate(18.878 26.233)">
            <path id="path4470" d="M-14.759,0l-1.6,4.025" transform="translate(16.36)" fill="none" stroke="#000" stroke-linecap="round" stroke-linejoin="round" stroke-miterlimit="10" stroke-width="1"/>
          </g>
          <g id="g4472" transform="translate(24.255 26.426)">
            <path id="path4474" d="M0,0,1.075,1.783,0,3.639" fill="none" stroke="#000" stroke-linecap="round" stroke-linejoin="round" stroke-miterlimit="10" stroke-width="1"/>
          </g>
          <g id="g4476" transform="translate(13.97 26.426)">
            <path id="path4478" d="M-9.912,0l-1.075,1.783,1.075,1.856" transform="translate(10.987)" fill="none" stroke="#000" stroke-linecap="round" stroke-linejoin="round" stroke-miterlimit="10" stroke-width="1"/>
          </g>
          <g id="g4480" transform="translate(37.268 30.065)">
            <path id="path4482" d="M0,0H15.565" fill="none" stroke="#000" stroke-linecap="round" stroke-linejoin="round" stroke-miterlimit="10" stroke-width="1"/>
          </g>
          <g id="g4484" transform="translate(28.505 30.065)">
            <path id="path4486" d="M0,0H4.332" fill="none" stroke="#000" stroke-linecap="round" stroke-linejoin="round" stroke-miterlimit="10" stroke-width="1"/>
          </g>
          <g id="g4488" transform="translate(23.161 34.602)">
            <path id="path4490" d="M0,0H29.671" fill="none" stroke="#000" stroke-linecap="round" stroke-linejoin="round" stroke-miterlimit="10" stroke-width="1"/>
          </g>
          <g id="g4492" transform="translate(13.97 34.602)">
            <path id="path4494" d="M0,0H4.908" fill="none" stroke="#000" stroke-linecap="round" stroke-linejoin="round" stroke-miterlimit="10" stroke-width="1"/>
          </g>
          <g id="g4496" transform="translate(13.97 39.139)">
            <path id="path4498" d="M0,0H38.863" transform="translate(0 0)" fill="none" stroke="#000" stroke-linecap="round" stroke-linejoin="round" stroke-miterlimit="10" stroke-width="1"/>
          </g>
        </g>
      </g>
    </g>
  </g>
</svg>
