<svg xmlns="http://www.w3.org/2000/svg" xmlns:xlink="http://www.w3.org/1999/xlink" width="113" height="113" viewBox="0 0 113 113">
  <defs>
    <filter id="Trazado_982547" x="0" y="0" width="113" height="113" filterUnits="userSpaceOnUse">
      <feOffset dy="3" input="SourceAlpha"/>
      <feGaussianBlur stdDeviation="3" result="blur"/>
      <feFlood flood-opacity="0.161"/>
      <feComposite operator="in" in2="blur"/>
      <feComposite in="SourceGraphic"/>
    </filter>
  </defs>
  <g id="Grupo_1208440" data-name="Grupo 1208440" transform="translate(-4814 -929.816)">
    <g id="Grupo_1208140" data-name="Grupo 1208140" transform="translate(3702 -4697.609)">
      <g id="Grupo_1202104" data-name="Grupo 1202104" transform="translate(0 -1149.226)">
        <g id="Grupo_1201923" data-name="Grupo 1201923" transform="translate(-4174.49 4856.378)">
          <g id="Grupo_1176928" data-name="Grupo 1176928" transform="translate(5295.49 1926.273)">
            <g id="Grupo_1172322" data-name="Grupo 1172322" transform="translate(0 0)">
              <g id="Grupo_1164700" data-name="Grupo 1164700">
                <g id="Grupo_1160931" data-name="Grupo 1160931">
                  <g id="Grupo_1160749" data-name="Grupo 1160749">
                    <g id="Grupo_1158891" data-name="Grupo 1158891">
                      <g id="Grupo_1157406" data-name="Grupo 1157406">
                        <g id="Grupo_1155793" data-name="Grupo 1155793">
                          <g id="Grupo_1154704" data-name="Grupo 1154704">
                            <g id="Grupo_1150790" data-name="Grupo 1150790">
                              <g id="Grupo_1154214" data-name="Grupo 1154214">
                                <g id="Grupo_1152583" data-name="Grupo 1152583">
                                  <g id="Grupo_1146973" data-name="Grupo 1146973">
                                    <g id="Grupo_1146954" data-name="Grupo 1146954">
                                      <g transform="matrix(1, 0, 0, 1, -9, -6)" filter="url(#Trazado_982547)">
                                        <g id="Trazado_982547-2" data-name="Trazado 982547" transform="translate(9 6)" fill="#f6ecfe">
                                          <path d="M 47.5000114440918 93.49987030029297 C 41.28938293457031 93.49987030029297 35.26534652709961 92.28384399414062 29.5951976776123 89.88558959960938 C 24.11773109436035 87.56881713867188 19.19814491271973 84.25183868408203 14.97310447692871 80.02680206298828 C 10.74805164337158 75.80176544189453 7.43107795715332 70.88218688964844 5.114304542541504 65.40472412109375 C 2.716038227081299 59.73458862304688 1.500011444091797 53.71054840087891 1.500011444091797 47.49993515014648 C 1.500011444091797 41.28932189941406 2.716038227081299 35.26528167724609 5.114304542541504 29.59514808654785 C 7.43107795715332 24.1176815032959 10.74805164337158 19.1981086730957 14.97310447692871 14.97306823730469 C 19.19814491271973 10.74802875518799 24.11773109436035 7.431055068969727 29.5951976776123 5.11428165435791 C 35.26534652709961 2.716028451919556 41.28938293457031 1.500001788139343 47.5000114440918 1.500001788139343 C 53.71063995361328 1.500001788139343 59.73467636108398 2.716028451919556 65.40482330322266 5.11428165435791 C 70.88229370117188 7.431055068969727 75.8018798828125 10.74802875518799 80.02691650390625 14.97306823730469 C 84.25196838378906 19.1981086730957 87.56894683837891 24.1176815032959 89.88571929931641 29.59514808654785 C 92.28398132324219 35.26528167724609 93.50001525878906 41.28932189941406 93.50001525878906 47.49993515014648 C 93.50001525878906 53.71054840087891 92.28398132324219 59.73458862304688 89.88571929931641 65.40472412109375 C 87.56894683837891 70.88218688964844 84.25196838378906 75.80176544189453 80.02691650390625 80.02680206298828 C 75.8018798828125 84.25183868408203 70.88229370117188 87.56881713867188 65.40482330322266 89.88558959960938 C 59.73467636108398 92.28384399414062 53.71063995361328 93.49987030029297 47.5000114440918 93.49987030029297 Z" stroke="none"/>
                                          <path d="M 47.5000114440918 3 C 41.49122619628906 3 35.66378021240234 4.1761474609375 30.17951965332031 6.495796203613281 C 24.880859375 8.7369384765625 20.12153625488281 11.94596862792969 16.03376770019531 16.03373718261719 C 11.94598388671875 20.12149047851562 8.736968994140625 24.88081359863281 6.495811462402344 30.17947387695312 C 4.176162719726562 35.66371917724609 3.000007629394531 41.49116516113281 3.000007629394531 47.49993515014648 C 3.000007629394531 53.50870513916016 4.176162719726562 59.33615112304688 6.495811462402344 64.82039642333984 C 8.736968994140625 70.11905670166016 11.94598388671875 74.87837982177734 16.03376770019531 78.96613311767578 C 20.12153625488281 83.05390167236328 24.880859375 86.26293182373047 30.17951965332031 88.50407409667969 C 35.66378021240234 90.82372283935547 41.49122619628906 91.99987030029297 47.5000114440918 91.99987030029297 C 53.50879669189453 91.99987030029297 59.33624267578125 90.82372283935547 64.82050323486328 88.50407409667969 C 70.11916351318359 86.26293182373047 74.87848663330078 83.05390167236328 78.96625518798828 78.96613311767578 C 83.05403900146484 74.87837982177734 86.2630615234375 70.11905670166016 88.50421142578125 64.82039642333984 C 90.82386016845703 59.33615112304688 92.00001525878906 53.50870513916016 92.00001525878906 47.49993515014648 C 92.00001525878906 41.49116516113281 90.82386016845703 35.66371917724609 88.50421142578125 30.17947387695312 C 86.2630615234375 24.88081359863281 83.05403900146484 20.12149047851562 78.96625518798828 16.03373718261719 C 74.87848663330078 11.94596862792969 70.11916351318359 8.7369384765625 64.82050323486328 6.495796203613281 C 59.33624267578125 4.1761474609375 53.50879669189453 3 47.5000114440918 3 M 47.5000114440918 0 C 73.73353576660156 0 95.00001525878906 21.26644134521484 95.00001525878906 47.49993515014648 C 95.00001525878906 73.73342895507812 73.73353576660156 94.99987030029297 47.5000114440918 94.99987030029297 C 21.26648712158203 94.99987030029297 7.62939453125e-06 73.73342895507812 7.62939453125e-06 47.49993515014648 C 7.62939453125e-06 21.26644134521484 21.26648712158203 0 47.5000114440918 0 Z" stroke="none" fill="#aa52f9"/>
                                        </g>
                                      </g>
                                    </g>
                                  </g>
                                </g>
                              </g>
                            </g>
                          </g>
                        </g>
                      </g>
                    </g>
                  </g>
                </g>
              </g>
            </g>
          </g>
        </g>
      </g>
    </g>
    <g id="leadership_16648123" transform="translate(4835.398 946.438)">
      <g id="Grupo_1208439" data-name="Grupo 1208439" transform="translate(1.115 2.593)">
        <path id="Trazado_1048366" data-name="Trazado 1048366" d="M352.08,162.475h17.632c0-3.961.676-6.9-4.033-7.275a.614.614,0,0,1-.512-.328.531.531,0,0,1,.057-.573l.783-1.028a.526.526,0,0,0,.046-.592.616.616,0,0,0-.549-.309h-5.674c-4.007,0-7.749,2.367-7.749,6.352Z" transform="translate(-304.229 -132.497)" fill="#231915" fill-rule="evenodd"/>
        <path id="Trazado_1048367" data-name="Trazado 1048367" d="M353.513,214.76h14.768a1.432,1.432,0,0,1,1.432,1.428v1.826a1.435,1.435,0,0,1-1.432,1.432H353.513a1.436,1.436,0,0,1-1.432-1.432v-1.826A1.431,1.431,0,0,1,353.513,214.76Z" transform="translate(-304.229 -186.21)" fill="#e2aa73" fill-rule="evenodd"/>
        <path id="Trazado_1048368" data-name="Trazado 1048368" d="M336.3,265.31h6.455v2.513a3.043,3.043,0,0,0,1.791,2.815c3.025,1.409,7.271,1.741,7.271,5.656v9.2a1.348,1.348,0,0,1-1.348,1.348H328.578a1.35,1.35,0,0,1-1.348-1.348v-9.2c0-3.915,4.25-4.246,7.275-5.656a3.043,3.043,0,0,0,1.791-2.815Z" transform="translate(-282.836 -229.73)" fill="#aae6fa" fill-rule="evenodd"/>
        <path id="Trazado_1048369" data-name="Trazado 1048369" d="M333.379,341.733h-4.8a1.35,1.35,0,0,1-1.348-1.348v-9.2a3.856,3.856,0,0,1,.562-2.115,16.387,16.387,0,0,1,1.761.772,6.3,6.3,0,0,1,3.826,5.888Z" transform="translate(-282.836 -284.623)" fill="#99cfe1" fill-rule="evenodd"/>
        <path id="Trazado_1048370" data-name="Trazado 1048370" d="M390.672,265.31h6.455v2.513a3.166,3.166,0,0,0,.263,1.28v4.412h-7v-4.373a3.143,3.143,0,0,0,.282-1.317Z" transform="translate(-337.211 -229.73)" fill="#fbbd80" fill-rule="evenodd"/>
        <path id="Trazado_1048371" data-name="Trazado 1048371" d="M391.361,265.31h6.455v2.513a3.236,3.236,0,0,0,.164,1.028,7.2,7.2,0,0,1-3.272.783h-.275a7.192,7.192,0,0,1-3.242-.768,3.211,3.211,0,0,0,.172-1.043V265.31Z" transform="translate(-337.9 -229.73)" fill="#e2aa73" fill-rule="evenodd"/>
        <path id="Trazado_1048372" data-name="Trazado 1048372" d="M381.262,194.308l.79.527a2.343,2.343,0,0,0,1.36.416h.466a1.771,1.771,0,0,1,1.768,1.768v3.841a5.626,5.626,0,0,1-5.61,5.61h-.275a5.626,5.626,0,0,1-5.61-5.61v-3.841a1.771,1.771,0,0,1,1.768-1.768h.466a2.349,2.349,0,0,0,1.36-.416l.794-.527a2.4,2.4,0,0,1,2.724,0Z" transform="translate(-323.23 -168.239)" fill="#fbbd80" fill-rule="evenodd"/>
        <path id="Trazado_1048373" data-name="Trazado 1048373" d="M396.146,334.29l-1.466,1.985L393,346.227h6.293l-1.684-9.952Z" transform="translate(-339.458 -289.117)" fill="#2f5274" fill-rule="evenodd"/>
        <path id="Trazado_1048374" data-name="Trazado 1048374" d="M398.124,314.54l-1.91,4.731h-2.929l-1.905-4.731h6.744Z" transform="translate(-338.064 -272.113)" fill="#223c55" fill-rule="evenodd"/>
        <path id="Trazado_1048375" data-name="Trazado 1048375" d="M380.39,293.855a3.02,3.02,0,0,0,1.42-1.5l2.99,3.086-3.777,3.544Z" transform="translate(-328.602 -253.01)" fill="#2f5274" fill-rule="evenodd"/>
        <path id="Trazado_1048376" data-name="Trazado 1048376" d="M423.546,293.855a3.032,3.032,0,0,1-1.42-1.5l-2.986,3.086,3.773,3.544Z" transform="translate(-361.963 -253.01)" fill="#2f5274" fill-rule="evenodd"/>
        <path id="Trazado_1048377" data-name="Trazado 1048377" d="M32.86,162.475H50.492c0-3.961.676-6.9-4.033-7.275a.6.6,0,0,1-.508-.328A.525.525,0,0,1,46,154.3l.783-1.028a.526.526,0,0,0,.046-.592.616.616,0,0,0-.549-.309H40.609c-4.007,0-7.749,2.367-7.749,6.352Z" transform="translate(-29.405 -132.497)" fill="#231915" fill-rule="evenodd"/>
        <path id="Trazado_1048378" data-name="Trazado 1048378" d="M34.292,214.76H49.064a1.43,1.43,0,0,1,1.428,1.428v1.826a1.434,1.434,0,0,1-1.428,1.432H34.292a1.438,1.438,0,0,1-1.432-1.432v-1.826A1.435,1.435,0,0,1,34.292,214.76Z" transform="translate(-29.405 -186.21)" fill="#e2aa73" fill-rule="evenodd"/>
        <path id="Trazado_1048379" data-name="Trazado 1048379" d="M17.085,265.31H23.54v2.513a3.043,3.043,0,0,0,1.791,2.815c3.025,1.409,7.271,1.741,7.271,5.656v9.2a1.348,1.348,0,0,1-1.348,1.348H9.368a1.35,1.35,0,0,1-1.348-1.348v-9.2c0-3.915,4.25-4.246,7.275-5.656a3.043,3.043,0,0,0,1.791-2.815V265.31Z" transform="translate(-8.02 -229.73)" fill="#aae6fa" fill-rule="evenodd"/>
        <path id="Trazado_1048380" data-name="Trazado 1048380" d="M146.177,329.07a3.9,3.9,0,0,1,.558,2.115v9.2a1.348,1.348,0,0,1-1.348,1.348h-4.8v-6a6.294,6.294,0,0,1,3.826-5.888A16.023,16.023,0,0,1,146.177,329.07Z" transform="translate(-122.153 -284.623)" fill="#99cfe1" fill-rule="evenodd"/>
        <path id="Trazado_1048381" data-name="Trazado 1048381" d="M71.452,265.31h6.455v2.513a3.165,3.165,0,0,0,.263,1.28v4.412h-7v-4.373a3.142,3.142,0,0,0,.282-1.317Z" transform="translate(-62.387 -229.73)" fill="#fbbd80" fill-rule="evenodd"/>
        <path id="Trazado_1048382" data-name="Trazado 1048382" d="M72.141,265.31H78.6v2.513a3.235,3.235,0,0,0,.164,1.028,7.2,7.2,0,0,1-3.272.783h-.271a7.2,7.2,0,0,1-3.246-.768,3.138,3.138,0,0,0,.172-1.043V265.31Z" transform="translate(-63.076 -229.73)" fill="#e2aa73" fill-rule="evenodd"/>
        <path id="Trazado_1048383" data-name="Trazado 1048383" d="M62.034,194.308l.79.527a2.345,2.345,0,0,0,1.363.416h.462a1.771,1.771,0,0,1,1.768,1.768v3.841a5.626,5.626,0,0,1-5.61,5.61h-.271a5.628,5.628,0,0,1-5.615-5.61v-3.841a1.771,1.771,0,0,1,1.768-1.768h.466a2.346,2.346,0,0,0,1.36-.416l.794-.527A2.4,2.4,0,0,1,62.034,194.308Z" transform="translate(-48.397 -168.239)" fill="#fbbd80" fill-rule="evenodd"/>
        <path id="Trazado_1048384" data-name="Trazado 1048384" d="M76.927,334.29l-1.467,1.985-1.68,9.952h6.293l-1.684-9.952Z" transform="translate(-64.634 -289.117)" fill="#2f5274" fill-rule="evenodd"/>
        <path id="Trazado_1048385" data-name="Trazado 1048385" d="M78.9,314.54l-1.91,4.731H74.065L72.16,314.54H78.9Z" transform="translate(-63.24 -272.113)" fill="#223c55" fill-rule="evenodd"/>
        <path id="Trazado_1048386" data-name="Trazado 1048386" d="M61.2,293.855a3.032,3.032,0,0,0,1.417-1.5l2.99,3.086L61.83,298.98Z" transform="translate(-53.804 -253.01)" fill="#2f5274" fill-rule="evenodd"/>
        <path id="Trazado_1048387" data-name="Trazado 1048387" d="M104.327,293.855a3.014,3.014,0,0,1-1.417-1.5l-2.99,3.086,3.773,3.544Z" transform="translate(-87.139 -253.01)" fill="#2f5274" fill-rule="evenodd"/>
        <path id="Trazado_1048388" data-name="Trazado 1048388" d="M204.378,10.089l1.588,4.923,5.171-.007a.875.875,0,0,1,.515,1.585l-4.188,3.03,1.608,4.915a.878.878,0,0,1-1.352.982l-4.178-3.047-4.178,3.047a.876.876,0,0,1-1.348-.982l1.608-4.915-4.193-3.032A.877.877,0,0,1,195.948,15l5.175.007,1.588-4.923a.875.875,0,0,1,1.668,0Z" transform="translate(-169.055 -9.48)" fill="#ffd400" fill-rule="evenodd"/>
        <path id="Trazado_1048389" data-name="Trazado 1048389" d="M208.9,25.4a.922.922,0,0,1-.145.129.864.864,0,0,1-1.035,0l-3.5-2.555.68-.492Zm-9.357,0-.179.129a.876.876,0,0,1-1.348-.982l1.608-4.915L195.432,16.6a.877.877,0,0,1,.516-1.585h1.291a.877.877,0,0,0-.446,1.585l4.189,3.032-1.608,4.915A.864.864,0,0,0,199.544,25.4Zm1.577-10.379L202.71,10.1a.865.865,0,0,1,.833-.608.855.855,0,0,1,.68.321.856.856,0,0,0-.157.286l-1.588,4.923Z" transform="translate(-169.055 -9.489)" fill="#e6bf00" fill-rule="evenodd"/>
        <path id="Trazado_1048390" data-name="Trazado 1048390" d="M187.21,164.2H206.3c0-4.637.733-8.073-4.368-8.513a.671.671,0,0,1-.488-1.057l.848-1.2a.669.669,0,0,0-.547-1.054H195.6c-4.338,0-8.39,2.769-8.39,7.432V164.2Z" transform="translate(-162.289 -132.497)" fill="#231915" fill-rule="evenodd"/>
        <path id="Trazado_1048391" data-name="Trazado 1048391" d="M188.646,225.35h15.81a1.683,1.683,0,0,1,1.676,1.676v2.135a1.683,1.683,0,0,1-1.676,1.676h-15.81a1.68,1.68,0,0,1-1.676-1.676v-2.135A1.681,1.681,0,0,1,188.646,225.35Z" transform="translate(-162.082 -195.328)" fill="#cb9968" fill-rule="evenodd"/>
        <path id="Trazado_1048392" data-name="Trazado 1048392" d="M163.2,284.53h7.55v2.944a3.562,3.562,0,0,0,2.1,3.292c3.539,1.649,8.513,2.036,8.513,6.619v12.347H152.59V297.385c0-4.583,4.972-4.968,8.509-6.619a3.565,3.565,0,0,0,2.1-3.292Z" transform="translate(-132.484 -246.277)" fill="#e2e7f0" fill-rule="evenodd"/>
        <path id="Trazado_1048393" data-name="Trazado 1048393" d="M222.034,284.53h7.55v2.944a3.551,3.551,0,0,0,1.168,2.677v2.395H220.93v-2.452a3.573,3.573,0,0,0,1.1-2.62Z" transform="translate(-191.319 -246.277)" fill="#cb9968" fill-rule="evenodd"/>
        <path id="Trazado_1048394" data-name="Trazado 1048394" d="M228.069,284.53h7.55v2.944a3.779,3.779,0,0,0,.122.962,8.211,8.211,0,0,1-3.762.91h-.317a8.2,8.2,0,0,1-3.723-.89,3.8,3.8,0,0,0,.129-.982Z" transform="translate(-197.354 -246.277)" fill="#b78a5e" fill-rule="evenodd"/>
        <path id="Trazado_1048395" data-name="Trazado 1048395" d="M215.818,201.462l.928.619a2.726,2.726,0,0,0,1.592.485h.542a2.071,2.071,0,0,1,2.069,2.069v4.495a6.587,6.587,0,0,1-6.569,6.569h-.317a6.584,6.584,0,0,1-6.564-6.569v-4.495a2.071,2.071,0,0,1,2.069-2.069h.542a2.726,2.726,0,0,0,1.592-.485l.928-.619A2.824,2.824,0,0,1,215.818,201.462Z" transform="translate(-179.757 -174.338)" fill="#fbbd80" fill-rule="evenodd"/>
        <path id="Trazado_1048396" data-name="Trazado 1048396" d="M233.211,365.26l-1.711,2.325-1.971,9.189.267,2.158h6.833l.267-2.158-1.971-9.189Z" transform="translate(-198.723 -315.779)" fill="#2f5274" fill-rule="evenodd"/>
        <path id="Trazado_1048397" data-name="Trazado 1048397" d="M235.521,342.17l-2.231,5.537h-3.425l-2.235-5.537h7.891Z" transform="translate(-197.087 -295.901)" fill="#223c55" fill-rule="evenodd"/>
        <path id="Trazado_1048398" data-name="Trazado 1048398" d="M214.81,317.977a3.564,3.564,0,0,0,1.658-1.757l3.5,3.609-4.418,4.143Z" transform="translate(-186.05 -273.56)" fill="#2f5274" fill-rule="evenodd"/>
        <path id="Trazado_1048399" data-name="Trazado 1048399" d="M265.288,317.977a3.545,3.545,0,0,1-1.661-1.757l-3.5,3.609,4.418,4.143Z" transform="translate(-225.068 -273.56)" fill="#2f5274" fill-rule="evenodd"/>
        <g id="Grupo_1208438" data-name="Grupo 1208438" transform="translate(20.106 55.064)">
          <path id="Trazado_1048400" data-name="Trazado 1048400" d="M206.264,407.781v8.467a2.656,2.656,0,0,1-3.585,2.491q-9.538-3.557-19.076-7.118a3.208,3.208,0,0,1,2.245-6.011l14,5.228v-3.056h6.416Z" transform="translate(-177.496 -405.41)" fill="#fbbd80" fill-rule="evenodd"/>
          <path id="Trazado_1048401" data-name="Trazado 1048401" d="M152.59,407.781v8.467a2.651,2.651,0,0,0,3.581,2.491q9.538-3.557,19.076-7.118A3.208,3.208,0,0,0,173,405.61l-14,5.228v-3.056H152.59Z" transform="translate(-152.59 -405.41)" fill="#fbbd80" fill-rule="evenodd"/>
        </g>
      </g>
      <path id="Trazado_1048402" data-name="Trazado 1048402" d="M65.392,43.3c-.751-.264-1.459-.513-2.1-.811a1.931,1.931,0,0,1-1.15-1.808v-.241a6.736,6.736,0,0,0,2.278-3.5h.75A2.545,2.545,0,0,0,67.713,34.4V32.572c0-.445.008-.882.017-1.3.063-3.069.125-6.236-4.149-6.968l.2-.26a1.637,1.637,0,0,0,.124-1.821,1.718,1.718,0,0,0-1.513-.868H56.718a10.037,10.037,0,0,0-6.051,1.907,6.857,6.857,0,0,0-2.812,5.556V34.4A2.545,2.545,0,0,0,50.4,36.938h.752a6.735,6.735,0,0,0,2.314,3.533v.213a1.929,1.929,0,0,1-1.152,1.807c-.643.3-1.352.548-2.1.812-2.049.72-4.521,1.591-5.445,3.848l-.338-.12c-.885-.312-1.72-.6-2.483-.961a2.46,2.46,0,0,1-1.234-1.216c-.01-.025-.019-.049-.031-.074a2.6,2.6,0,0,1-.192-1v-.375a7.694,7.694,0,0,0,2.708-4.2h.293a2.788,2.788,0,0,0,2.783-2.787V34.287a2.8,2.8,0,0,0-.031-.392c0-.388.01-.766.017-1.135a12.584,12.584,0,0,0-.572-5.25A4.9,4.9,0,0,0,41.6,24.756l.423-.6a1.78,1.78,0,0,0-1.456-2.808H34.43c-4.608,0-9.5,2.994-9.5,8.543v4a2.857,2.857,0,0,0-.032.4v2.136a2.79,2.79,0,0,0,2.787,2.787h.289a7.694,7.694,0,0,0,2.751,4.232v.341a2.6,2.6,0,0,1-.195,1c-.01.021-.018.042-.026.064a2.469,2.469,0,0,1-1.239,1.22c-.762.356-1.6.649-2.483.962l-.337.118C25.519,44.893,23.048,44.022,21,43.3c-.75-.264-1.459-.513-2.1-.811a1.932,1.932,0,0,1-1.153-1.808v-.241a6.734,6.734,0,0,0,2.278-3.5h.75A2.545,2.545,0,0,0,23.318,34.4V32.571c0-.445.008-.882.017-1.3.063-3.069.127-6.236-4.147-6.968l.2-.26a1.63,1.63,0,0,0,.132-1.805A1.729,1.729,0,0,0,18,21.35H12.321a10.032,10.032,0,0,0-6.048,1.907,6.858,6.858,0,0,0-2.814,5.556v5.581A2.545,2.545,0,0,0,6,36.936h.752a6.735,6.735,0,0,0,2.314,3.533v.213a1.929,1.929,0,0,1-1.152,1.807c-.643.3-1.352.548-2.1.812C3.225,44.213,0,45.346,0,49.155v9.2a2.463,2.463,0,0,0,2.46,2.46H20.106V68.5a3.8,3.8,0,0,0,3.745,3.779,3.814,3.814,0,0,0,1.342-.249l10.413-3.887,10.407,3.886a3.777,3.777,0,0,0,1.331.245A3.779,3.779,0,0,0,51.1,68.5V60.813H68.744a2.464,2.464,0,0,0,2.46-2.46v-9.2c0-3.809-3.222-4.943-5.812-5.854Zm.1-8.906a.328.328,0,0,1-.32.32h-.524V32.251h.524a.324.324,0,0,1,.32.32Zm-14.563.32H50.4a.324.324,0,0,1-.32-.32V32.571a.324.324,0,0,1,.32-.32h.528Zm.335-4.688H50.4a2.7,2.7,0,0,0-.32.022V28.813c0-3.439,3.339-5.239,6.639-5.239h4.62l-.11.143a1.648,1.648,0,0,0-.167,1.745,1.719,1.719,0,0,0,1.414.937c2.634.211,3.036,1.039,3.044,3.654a2.648,2.648,0,0,0-.35-.026h-.859a2.883,2.883,0,0,0-2.546-1.538H61.3a1.234,1.234,0,0,1-.744-.227l-.791-.527a3.5,3.5,0,0,0-3.958,0l-.8.534a1.22,1.22,0,0,1-.736.223H53.8a2.874,2.874,0,0,0-2.542,1.535Zm1.889,5.189V31.372a.657.657,0,0,1,.655-.658h.466a3.417,3.417,0,0,0,1.976-.6l.793-.528a1.29,1.29,0,0,1,1.49,0h0l.789.526a3.442,3.442,0,0,0,1.98.6h.465a.666.666,0,0,1,.658.658v3.844c0,.153-.008.3-.022.452l-.008.067a4.505,4.505,0,0,1-1.926,3.19,1.089,1.089,0,0,0-.093.063,4.476,4.476,0,0,1-2.452.729h-.273a4.471,4.471,0,0,1-2.409-.7,1.05,1.05,0,0,0-.124-.081,4.507,4.507,0,0,1-1.965-3.718Zm4.67,8.692h-.036l-2.2-2.275c0-.007,0-.014.006-.021a6.688,6.688,0,0,0,2.061.324h.273a6.712,6.712,0,0,0,2.1-.337.223.223,0,0,1,.007.029Zm1.248,3.364-.551,1.367H57.091l-.551-1.37,1.214-1.138h.1ZM40.6,54.115a1.113,1.113,0,0,0,1.1-.976l.56-4.531c.477.182.96.353,1.434.52,3.215,1.132,5.186,1.958,5.186,4.573v5.211H46.614A4.265,4.265,0,0,0,44.687,57V55.17a1.111,1.111,0,1,0-2.222,0v1.38a4.25,4.25,0,0,0-1.213.264l-2.138.8L38.476,54.5l.573-1.423.787.737a1.1,1.1,0,0,0,.759.3Zm-4.028-.832H34.643L33.9,51.445l1.572-1.473h.264l1.572,1.474ZM37,58.4l-1.4.523L34.2,58.4l.6-2.891h1.613Zm-1.3-10.65h-.2l-2.7-2.79c.026-.11.05-.221.068-.334a7.633,7.633,0,0,0,2.556.439h.316a7.667,7.667,0,0,0,2.6-.453c.019.115.045.231.072.344Zm-2.257,1.074-1.631,1.53-.021.019-.346.325-.384-3.124a4.67,4.67,0,0,0,.629-.562ZM39.523,47a4.644,4.644,0,0,0,.624.565L39.761,50.7l-.348-.327-.021-.019-1.63-1.528Zm4.53-10.578a.568.568,0,0,1-.56.563h-.071V33.725h.071a.57.57,0,0,1,.56.563Zm-16.305.563H27.68a.564.564,0,0,1-.563-.563V34.289a.571.571,0,0,1,.563-.563h.067Zm.318-5.488h-.387a2.8,2.8,0,0,0-.533.053V29.893c0-4.149,3.663-6.32,7.282-6.32h5.29l-.356.506a1.781,1.781,0,0,0,1.3,2.8c2.993.261,3.4,1.38,3.389,4.677a2.756,2.756,0,0,0-.56-.057H43.1a3.184,3.184,0,0,0-2.862-1.794H39.7a1.649,1.649,0,0,1-.979-.3l-.926-.619a3.916,3.916,0,0,0-4.42,0l-.923.617a1.652,1.652,0,0,1-.978.3h-.544A3.186,3.186,0,0,0,28.066,31.5Zm1.9,5.883V32.89a.959.959,0,0,1,.958-.958h.544a3.884,3.884,0,0,0,2.21-.672l.926-.619a1.708,1.708,0,0,1,1.95,0l.929.62a3.888,3.888,0,0,0,2.211.67h.54a.959.959,0,0,1,.958.958v4.494a5.455,5.455,0,0,1-2.37,4.5,1.277,1.277,0,0,0-.115.076,5.42,5.42,0,0,1-2.971.883h-.316a5.422,5.422,0,0,1-2.925-.854,1.124,1.124,0,0,0-.145-.095,5.456,5.456,0,0,1-2.385-4.507ZM28.952,48.607l.558,4.531a1.112,1.112,0,0,0,1.864.676l.787-.738.576,1.424-.641,3.111-2.133-.8a4.292,4.292,0,0,0-1.214-.261V55.17a1.111,1.111,0,0,0-2.222,0v3.741H22.33V53.7c0-2.613,1.971-3.439,5.185-4.571C27.991,48.962,28.473,48.791,28.952,48.607Zm3.473,11.5-3.676,1.371V58.788a2,2,0,0,1,.435.111ZM21.092,34.4a.324.324,0,0,1-.32.32h-.524V32.251h.524a.324.324,0,0,1,.32.32Zm-14.564.32H6a.324.324,0,0,1-.32-.32V32.571a.324.324,0,0,1,.32-.32h.528Zm.335-4.688H6a2.705,2.705,0,0,0-.32.022V28.813c0-3.439,3.339-5.239,6.639-5.239h4.624l-.107.142a1.636,1.636,0,0,0-.177,1.738l.013.025a1.738,1.738,0,0,0,1.406.922c2.634.211,3.036,1.039,3.044,3.654a2.648,2.648,0,0,0-.35-.026h-.859a2.883,2.883,0,0,0-2.546-1.538H16.9a1.234,1.234,0,0,1-.747-.227l-.79-.527a3.5,3.5,0,0,0-3.957,0l-.8.531a1.224,1.224,0,0,1-.744.224H9.409a2.884,2.884,0,0,0-2.545,1.537Zm1.919,5.708c0-.024-.006-.046-.008-.068a4.4,4.4,0,0,1-.022-.451V31.372a.666.666,0,0,1,.658-.658h.462a3.444,3.444,0,0,0,1.98-.6l.8-.53a1.291,1.291,0,0,1,1.481,0h0l.789.526a3.449,3.449,0,0,0,1.985.6h.462a.666.666,0,0,1,.658.658v3.844c0,.152-.008.3-.022.451l-.008.067a4.5,4.5,0,0,1-1.914,3.182,1.065,1.065,0,0,0-.117.078,4.471,4.471,0,0,1-2.437.72h-.275a4.471,4.471,0,0,1-2.409-.7,1.178,1.178,0,0,0-.124-.081,4.5,4.5,0,0,1-1.936-3.2Zm4.64,8.174H13.39l-2.206-2.275c0-.007,0-.014.006-.021a6.688,6.688,0,0,0,2.061.324h.275A6.679,6.679,0,0,0,15.62,41.6l.008.032Zm1.248,3.364-.551,1.367H12.692l-.551-1.367,1.217-1.14h.095ZM9.32,58.589H2.46a.24.24,0,0,1-.236-.236v-9.2c0-2.126,1.645-2.812,4.328-3.755.341-.12.687-.243,1.032-.371L8.039,48.7a1.112,1.112,0,0,0,1.864.675l.5-.467.391.971Zm.794-12.464c-.031.026-.061.054-.089.083l-.049.046L9.7,43.987a4.2,4.2,0,0,0,.363-.32l1.275,1.316Zm1.46,12.464,1.307-7.727h1.05l1.307,7.727Zm5.179-14.923a4.2,4.2,0,0,0,.363.32l-.281,2.268-.049-.045c-.029-.031-.06-.058-.092-.086l-1.217-1.142Zm.74,14.923-1.474-8.715.391-.971.5.467a1.112,1.112,0,0,0,1.864-.675l.455-3.669c.345.128.691.252,1.032.371,2.136.751,3.584,1.323,4.107,2.559C22.117,48.969,20.1,50.513,20.1,53.7v4.889H17.493Zm17.774,7.3a.919.919,0,0,0-.1.039L24.418,69.943A1.548,1.548,0,0,1,22.332,68.5v-7.36h4.195V63.08a1.11,1.11,0,0,0,1.5,1.042l14-5.224a2.094,2.094,0,0,1,1.46,3.925l-8.224,3.069Zm13.61,2.6a1.465,1.465,0,0,1-.662,1.267,1.483,1.483,0,0,1-1.421.179l-8.009-2.99,5.48-2.046a4.329,4.329,0,0,0,2.8-3.77h1.809V68.5Zm4.84-9.908H51.1V53.7c0-3.186-2.011-4.73-4.26-5.741.526-1.236,1.973-1.808,4.11-2.559.341-.12.687-.242,1.031-.371l.452,3.667a1.112,1.112,0,0,0,1.864.676l.5-.47.392.974Zm.656-12.336-.28-2.266a4.2,4.2,0,0,0,.363-.32l1.273,1.314Zm1.6,12.336,1.307-7.727h1.05l1.307,7.727Zm5.176-14.923a4.4,4.4,0,0,0,.362.32l-.28,2.267-.046-.043a1.116,1.116,0,0,0-.093-.088l-1.217-1.14Zm7.834,14.686a.236.236,0,0,1-.236.236H61.892l-1.474-8.715.391-.971.5.467a1.112,1.112,0,0,0,1.864-.676l.452-3.667c.345.128.69.252,1.032.371,2.684.943,4.328,1.629,4.328,3.755ZM26.842,10.6l3.534,2.56L29.021,17.3a1.985,1.985,0,0,0,3.057,2.228l3.526-2.57,3.526,2.572A1.988,1.988,0,0,0,42.19,17.3l-1.356-4.146L44.367,10.6A1.988,1.988,0,0,0,43.2,7l-4.361.007L37.5,2.86a1.988,1.988,0,0,0-3.784,0L32.373,7.006,28.01,7a1.988,1.988,0,0,0-1.168,3.6Zm6.339-1.366h0a1.113,1.113,0,0,0,1.058-.77L35.6,4.234,36.969,8.46a1.113,1.113,0,0,0,1.058.77h0l4.443-.007-3.6,2.608a1.113,1.113,0,0,0-.4,1.246L39.85,17.3l-3.592-2.62a1.115,1.115,0,0,0-1.31,0L31.362,17.3l1.38-4.218a1.111,1.111,0,0,0-.4-1.246l-3.6-2.608Z"/>
    </g>
  </g>
</svg>
