<svg xmlns="http://www.w3.org/2000/svg" xmlns:xlink="http://www.w3.org/1999/xlink" width="113" height="113" viewBox="0 0 113 113">
  <defs>
    <filter id="Trazado_982547" x="0" y="0" width="113" height="113" filterUnits="userSpaceOnUse">
      <feOffset dy="3" input="SourceAlpha"/>
      <feGaussianBlur stdDeviation="3" result="blur"/>
      <feFlood flood-opacity="0.161"/>
      <feComposite operator="in" in2="blur"/>
      <feComposite in="SourceGraphic"/>
    </filter>
  </defs>
  <g id="Grupo_1208461" data-name="Grupo 1208461" transform="translate(-4814 -1308.816)">
    <g id="Grupo_1208142" data-name="Grupo 1208142" transform="translate(3702 -4318.609)">
      <g id="Grupo_1202104" data-name="Grupo 1202104" transform="translate(0 -1149.226)">
        <g id="Grupo_1201923" data-name="Grupo 1201923" transform="translate(-4174.49 4856.378)">
          <g id="Grupo_1176928" data-name="Grupo 1176928" transform="translate(5295.49 1926.273)">
            <g id="Grupo_1172322" data-name="Grupo 1172322" transform="translate(0 0)">
              <g id="Grupo_1164700" data-name="Grupo 1164700">
                <g id="Grupo_1160931" data-name="Grupo 1160931">
                  <g id="Grupo_1160749" data-name="Grupo 1160749">
                    <g id="Grupo_1158891" data-name="Grupo 1158891">
                      <g id="Grupo_1157406" data-name="Grupo 1157406">
                        <g id="Grupo_1155793" data-name="Grupo 1155793">
                          <g id="Grupo_1154704" data-name="Grupo 1154704">
                            <g id="Grupo_1150790" data-name="Grupo 1150790">
                              <g id="Grupo_1154214" data-name="Grupo 1154214">
                                <g id="Grupo_1152583" data-name="Grupo 1152583">
                                  <g id="Grupo_1146973" data-name="Grupo 1146973">
                                    <g id="Grupo_1146954" data-name="Grupo 1146954">
                                      <g transform="matrix(1, 0, 0, 1, -9, -6)" filter="url(#Trazado_982547)">
                                        <g id="Trazado_982547-2" data-name="Trazado 982547" transform="translate(9 6)" fill="#f6ecfe">
                                          <path d="M 47.5000114440918 93.49987030029297 C 41.28938293457031 93.49987030029297 35.26534652709961 92.28384399414062 29.5951976776123 89.88558959960938 C 24.11773109436035 87.56881713867188 19.19814491271973 84.25183868408203 14.97310447692871 80.02680206298828 C 10.74805164337158 75.80176544189453 7.43107795715332 70.88218688964844 5.114304542541504 65.40472412109375 C 2.716038227081299 59.73458862304688 1.500011444091797 53.71054840087891 1.500011444091797 47.49993515014648 C 1.500011444091797 41.28932189941406 2.716038227081299 35.26528167724609 5.114304542541504 29.59514808654785 C 7.43107795715332 24.1176815032959 10.74805164337158 19.1981086730957 14.97310447692871 14.97306823730469 C 19.19814491271973 10.74802875518799 24.11773109436035 7.431055068969727 29.5951976776123 5.11428165435791 C 35.26534652709961 2.716028451919556 41.28938293457031 1.500001788139343 47.5000114440918 1.500001788139343 C 53.71063995361328 1.500001788139343 59.73467636108398 2.716028451919556 65.40482330322266 5.11428165435791 C 70.88229370117188 7.431055068969727 75.8018798828125 10.74802875518799 80.02691650390625 14.97306823730469 C 84.25196838378906 19.1981086730957 87.56894683837891 24.1176815032959 89.88571929931641 29.59514808654785 C 92.28398132324219 35.26528167724609 93.50001525878906 41.28932189941406 93.50001525878906 47.49993515014648 C 93.50001525878906 53.71054840087891 92.28398132324219 59.73458862304688 89.88571929931641 65.40472412109375 C 87.56894683837891 70.88218688964844 84.25196838378906 75.80176544189453 80.02691650390625 80.02680206298828 C 75.8018798828125 84.25183868408203 70.88229370117188 87.56881713867188 65.40482330322266 89.88558959960938 C 59.73467636108398 92.28384399414062 53.71063995361328 93.49987030029297 47.5000114440918 93.49987030029297 Z" stroke="none"/>
                                          <path d="M 47.5000114440918 3 C 41.49122619628906 3 35.66378021240234 4.1761474609375 30.17951965332031 6.495796203613281 C 24.880859375 8.7369384765625 20.12153625488281 11.94596862792969 16.03376770019531 16.03373718261719 C 11.94598388671875 20.12149047851562 8.736968994140625 24.88081359863281 6.495811462402344 30.17947387695312 C 4.176162719726562 35.66371917724609 3.000007629394531 41.49116516113281 3.000007629394531 47.49993515014648 C 3.000007629394531 53.50870513916016 4.176162719726562 59.33615112304688 6.495811462402344 64.82039642333984 C 8.736968994140625 70.11905670166016 11.94598388671875 74.87837982177734 16.03376770019531 78.96613311767578 C 20.12153625488281 83.05390167236328 24.880859375 86.26293182373047 30.17951965332031 88.50407409667969 C 35.66378021240234 90.82372283935547 41.49122619628906 91.99987030029297 47.5000114440918 91.99987030029297 C 53.50879669189453 91.99987030029297 59.33624267578125 90.82372283935547 64.82050323486328 88.50407409667969 C 70.11916351318359 86.26293182373047 74.87848663330078 83.05390167236328 78.96625518798828 78.96613311767578 C 83.05403900146484 74.87837982177734 86.2630615234375 70.11905670166016 88.50421142578125 64.82039642333984 C 90.82386016845703 59.33615112304688 92.00001525878906 53.50870513916016 92.00001525878906 47.49993515014648 C 92.00001525878906 41.49116516113281 90.82386016845703 35.66371917724609 88.50421142578125 30.17947387695312 C 86.2630615234375 24.88081359863281 83.05403900146484 20.12149047851562 78.96625518798828 16.03373718261719 C 74.87848663330078 11.94596862792969 70.11916351318359 8.7369384765625 64.82050323486328 6.495796203613281 C 59.33624267578125 4.1761474609375 53.50879669189453 3 47.5000114440918 3 M 47.5000114440918 0 C 73.73353576660156 0 95.00001525878906 21.26644134521484 95.00001525878906 47.49993515014648 C 95.00001525878906 73.73342895507812 73.73353576660156 94.99987030029297 47.5000114440918 94.99987030029297 C 21.26648712158203 94.99987030029297 7.62939453125e-06 73.73342895507812 7.62939453125e-06 47.49993515014648 C 7.62939453125e-06 21.26644134521484 21.26648712158203 0 47.5000114440918 0 Z" stroke="none" fill="#aa52f9"/>
                                        </g>
                                      </g>
                                    </g>
                                  </g>
                                </g>
                              </g>
                            </g>
                          </g>
                        </g>
                      </g>
                    </g>
                  </g>
                </g>
              </g>
            </g>
          </g>
        </g>
      </g>
    </g>
    <g id="quiz_18312550_1_" data-name="quiz_18312550 (1)" transform="translate(4820.858 1276.098)">
      <g id="Grupo_1208460" data-name="Grupo 1208460" transform="translate(28.189 56.121)">
        <path id="Trazado_1048432" data-name="Trazado 1048432" d="M152.713,124.8h-7.587a3.171,3.171,0,0,1-3.162-3.162v-3c0-5.522-3.032-4.826-5.867-9.221a19.759,19.759,0,1,1,33.231,0c-2.835,4.395-5.867,3.7-5.867,9.221v3A3.171,3.171,0,0,1,160.3,124.8Z" transform="translate(-131.863 -75.287)" fill="#ffc55a" fill-rule="evenodd"/>
        <path id="Trazado_1048433" data-name="Trazado 1048433" d="M224.922,364.423v8.813a5.073,5.073,0,0,1-5.295,4.781h-4.114a5.073,5.073,0,0,1-5.295-4.781v-8.813h14.7Z" transform="translate(-196.72 -314.915)" fill="#837683" fill-rule="evenodd"/>
        <path id="Trazado_1048434" data-name="Trazado 1048434" d="M224.922,410.444v1.423a5.073,5.073,0,0,1-5.295,4.781h-4.114a5.073,5.073,0,0,1-5.295-4.781v-1.423h14.7Z" transform="translate(-196.72 -353.546)" fill="#8f848f" fill-rule="evenodd"/>
        <path id="Trazado_1048435" data-name="Trazado 1048435" d="M168.516,82.752h7.9a.452.452,0,0,1,.331.137L187.155,93.3a.468.468,0,0,0,.8-.331V83.22a.469.469,0,0,1,.468-.468h7.4a.469.469,0,0,0,.468-.468V63.391a.469.469,0,0,0-.468-.468H168.516a.469.469,0,0,0-.468.468V82.284a.469.469,0,0,0,.468.468Z" transform="translate(-161.321 -61.831)" fill="#3cb54b" fill-rule="evenodd"/>
        <path id="Trazado_1048436" data-name="Trazado 1048436" d="M237.649,266.8a3.51,3.51,0,1,1-3.51,3.51A3.51,3.51,0,0,1,237.649,266.8Z" transform="translate(-216.799 -232.97)" fill="#ee2b39" fill-rule="evenodd"/>
        <path id="Trazado_1048437" data-name="Trazado 1048437" d="M192.312,99.211a.936.936,0,0,1,0-1.872h11.794a.936.936,0,1,1,0,1.872Zm0-8.831a.936.936,0,0,1,0-1.872h2.819a.936.936,0,0,1,0,1.872Zm7.885,0a.936.936,0,0,1,0-1.872h11a.936.936,0,0,1,0,1.872ZM192.312,94.8a.936.936,0,0,1,0-1.872h5.424a.936.936,0,0,1,0,1.872Zm11.432,0a.936.936,0,0,1,0-1.872h7.451a.936.936,0,0,1,0,1.872Zm5.067,4.415a.936.936,0,1,1,0-1.872h2.384a.936.936,0,0,1,0,1.872Z" transform="translate(-180.903 -83.307)" fill="#e6e6e6" fill-rule="evenodd"/>
        <path id="Trazado_1048438" data-name="Trazado 1048438" d="M152.713,124.8h-7.587a3.171,3.171,0,0,1-3.162-3.162v-3c0-5.522-3.032-4.826-5.867-9.221a19.762,19.762,0,0,1,16.616-30.455v45.841Z" transform="translate(-131.863 -75.287)" fill="#ffd07a" fill-rule="evenodd"/>
        <path id="Trazado_1048439" data-name="Trazado 1048439" d="M217.571,378.017h-2.057a5.073,5.073,0,0,1-5.295-4.781v-8.813h7.352v13.594Z" transform="translate(-196.72 -314.915)" fill="#9a909a" fill-rule="evenodd"/>
        <path id="Trazado_1048440" data-name="Trazado 1048440" d="M217.571,416.648h-2.057a5.073,5.073,0,0,1-5.295-4.781v-1.423h7.352v6.2Z" transform="translate(-196.72 -353.546)" fill="#a49ba4" fill-rule="evenodd"/>
        <path id="Trazado_1048441" data-name="Trazado 1048441" d="M168.516,82.751h7.9a.452.452,0,0,1,.331.137l5.423,5.423V62.922H168.516a.469.469,0,0,0-.468.468V82.283A.469.469,0,0,0,168.516,82.751Z" transform="translate(-161.321 -61.83)" fill="#62c36d" fill-rule="evenodd"/>
        <path id="Trazado_1048442" data-name="Trazado 1048442" d="M237.649,273.823a3.51,3.51,0,1,1,0-7.021Z" transform="translate(-216.799 -232.97)" fill="#f2535f" fill-rule="evenodd"/>
        <path id="Trazado_1048443" data-name="Trazado 1048443" d="M192.312,99.211a.936.936,0,0,1,0-1.872h9.441v1.872Zm9.441-8.831V88.508H200.2a.936.936,0,0,0,0,1.872Zm-9.441,0a.936.936,0,0,1,0-1.872h2.819a.936.936,0,0,1,0,1.872Zm0,4.415a.936.936,0,0,1,0-1.872h5.424a.936.936,0,0,1,0,1.872Z" transform="translate(-180.903 -83.307)" fill="#fff" fill-rule="evenodd"/>
        <path id="Trazado_1048444" data-name="Trazado 1048444" d="M136.776,206.874c-.226-.291-.453-.608-.678-.957a19.663,19.663,0,0,1-3.143-10.7c0-.436.016-.868.044-1.3a11.635,11.635,0,0,1,3.778,12.95Z" transform="translate(-131.863 -171.795)" fill="#ffb349" fill-rule="evenodd"/>
        <path id="Trazado_1048445" data-name="Trazado 1048445" d="M355.653,193.923c.028.429.044.861.044,1.3a19.664,19.664,0,0,1-3.143,10.7c-.225.35-.452.667-.678.957a11.634,11.634,0,0,1,3.778-12.951Z" transform="translate(-315.087 -171.795)" fill="#ffb349" fill-rule="evenodd"/>
        <path id="Trazado_1048446" data-name="Trazado 1048446" d="M154.6,175.529H139.42a4.258,4.258,0,0,1-4.253-4.253v-3c0-2.957-.85-3.685-2.393-5.008a15.692,15.692,0,0,1-3.3-3.621,20.878,20.878,0,0,1-.941-20.966,1.093,1.093,0,0,1,1.935,1.015,18.693,18.693,0,0,0,.841,18.766,13.472,13.472,0,0,0,2.885,3.147c1.624,1.391,3.157,2.705,3.157,6.666v3a2.072,2.072,0,0,0,2.069,2.069H154.6a2.072,2.072,0,0,0,2.069-2.069v-3c0-3.961,1.534-5.275,3.157-6.666a13.467,13.467,0,0,0,2.885-3.147,18.69,18.69,0,0,0,.975-18.508,1.092,1.092,0,1,1,1.949-.985,20.869,20.869,0,0,1-1.089,20.677,15.684,15.684,0,0,1-3.3,3.621c-1.543,1.323-2.394,2.051-2.394,5.008v3a4.258,4.258,0,0,1-4.253,4.253Z" transform="translate(-126.157 -124.93)" fill-rule="evenodd"/>
        <path id="Trazado_1048447" data-name="Trazado 1048447" d="M213.915,373.4H209.8a6.154,6.154,0,0,1-6.388-5.873v-8.813a1.092,1.092,0,0,1,2.184,0v8.813a3.977,3.977,0,0,0,4.2,3.689h4.113a3.975,3.975,0,0,0,4.2-3.689v-8.813a1.092,1.092,0,1,1,2.184,0v8.813a6.154,6.154,0,0,1-6.388,5.874Z" transform="translate(-191.008 -309.207)" fill-rule="evenodd"/>
        <path id="Trazado_1048448" data-name="Trazado 1048448" d="M219.211,405.828h-14.7a1.092,1.092,0,1,1,0-2.184h14.7a1.092,1.092,0,0,1,0,2.184Z" transform="translate(-191.008 -347.838)" fill-rule="evenodd"/>
        <path id="Trazado_1048449" data-name="Trazado 1048449" d="M163.429,75.95H170.9a1.1,1.1,0,0,1,.772.32l9.478,9.478V77.042a1.093,1.093,0,0,1,1.092-1.092h7.249V58.305H163.429V75.95Zm18.816,13.527a1.094,1.094,0,0,1-.774-.32L170.448,78.134h-8.112a1.093,1.093,0,0,1-1.092-1.092V57.213a1.093,1.093,0,0,1,1.092-1.092h28.248a1.093,1.093,0,0,1,1.092,1.092V77.042a1.093,1.093,0,0,1-1.092,1.092h-7.249V88.385a1.092,1.092,0,0,1-.674,1.009,1.08,1.08,0,0,1-.417.083Z" transform="translate(-155.61 -56.121)" fill-rule="evenodd"/>
        <path id="Trazado_1048450" data-name="Trazado 1048450" d="M250.291,314.561a1.093,1.093,0,0,1-1.092-1.092v-8.655a1.092,1.092,0,1,1,2.184,0v8.655a1.091,1.091,0,0,1-1.092,1.092Z" transform="translate(-229.441 -263.962)" fill-rule="evenodd"/>
        <path id="Trazado_1048451" data-name="Trazado 1048451" d="M231.939,262.185a2.418,2.418,0,1,0,2.418,2.418A2.422,2.422,0,0,0,231.939,262.185Zm0,7.021a4.6,4.6,0,1,1,4.6-4.6A4.609,4.609,0,0,1,231.939,269.206Z" transform="translate(-211.088 -227.261)" fill-rule="evenodd"/>
        <path id="Trazado_1048452" data-name="Trazado 1048452" d="M194.316,89.72H191.5a1.092,1.092,0,1,1,0-2.184h2.819a1.092,1.092,0,0,1,0,2.185Zm16.063,0h-11a1.092,1.092,0,1,1,0-2.184h11a1.092,1.092,0,0,1,0,2.185Z" transform="translate(-180.087 -82.49)" fill-rule="evenodd"/>
        <path id="Trazado_1048453" data-name="Trazado 1048453" d="M196.921,117.217H191.5a1.092,1.092,0,1,1,0-2.184h5.425a1.092,1.092,0,0,1,0,2.185Zm13.458,0h-7.451a1.092,1.092,0,0,1,0-2.184h7.451a1.092,1.092,0,0,1,0,2.185Z" transform="translate(-180.086 -105.572)" fill-rule="evenodd"/>
        <path id="Trazado_1048454" data-name="Trazado 1048454" d="M203.291,144.713H191.5a1.092,1.092,0,1,1,0-2.184h11.794a1.092,1.092,0,0,1,0,2.185Zm7.089,0H208a1.092,1.092,0,1,1,0-2.184h2.384a1.092,1.092,0,0,1,0,2.185Z" transform="translate(-180.087 -128.653)" fill-rule="evenodd"/>
        <path id="Trazado_1048455" data-name="Trazado 1048455" d="M361.4,202.642a19.662,19.662,0,0,1-3.028,10.412,10.545,10.545,0,0,1,3.028-10.413Z" transform="translate(-320.795 -179.113)" fill="#ffc55a" fill-rule="evenodd"/>
      </g>
      <circle id="Elipse_12558" data-name="Elipse 12558" cx="10.532" cy="10.532" r="10.532" transform="translate(61.052 87.378) rotate(-45)" fill="#ee2b39"/>
      <path id="Trazado_1048456" data-name="Trazado 1048456" d="M423.614,185.165a10.532,10.532,0,1,1,0,21.063Z" transform="translate(-347.658 -108.322)" fill="#f2535f" fill-rule="evenodd"/>
      <path id="Trazado_1048457" data-name="Trazado 1048457" d="M378.179,201.612a11.522,11.522,0,0,1-8.387-3.577,1.092,1.092,0,1,1,1.576-1.512,9.435,9.435,0,1,0,4.107-15.581,1.092,1.092,0,1,1-.624-2.093,11.625,11.625,0,1,1,3.328,22.764Z" transform="translate(-302.224 -102.614)" fill-rule="evenodd"/>
      <path id="Trazado_1048458" data-name="Trazado 1048458" d="M400.769,228.995a1.09,1.09,0,0,1-.773-.32l-3.281-3.281-3.281,3.281a1.092,1.092,0,1,1-1.544-1.544l3.28-3.281-3.28-3.281a1.092,1.092,0,0,1,1.543-1.544l3.281,3.281L400,219.024a1.092,1.092,0,0,1,1.544,1.544l-3.281,3.281,3.282,3.281a1.092,1.092,0,0,1-.772,1.864Z" transform="translate(-320.76 -136.475)" fill-rule="evenodd"/>
      <circle id="Elipse_12559" data-name="Elipse 12559" cx="10.532" cy="10.532" r="10.532" transform="translate(9.448 95.213) rotate(-76.7)" fill="#00ade6"/>
      <path id="Trazado_1048459" data-name="Trazado 1048459" d="M33.334,206.228a10.532,10.532,0,0,1,0-21.063Z" transform="translate(-11.21 -108.322)" fill="#31bceb" fill-rule="evenodd"/>
      <path id="Trazado_1048460" data-name="Trazado 1048460" d="M27.624,201.611a11.624,11.624,0,1,1,3.626-22.67,1.092,1.092,0,0,1-.68,2.076,9.441,9.441,0,1,0,4.447,14.841,1.092,1.092,0,0,1,1.71,1.359,11.574,11.574,0,0,1-9.1,4.394Z" transform="translate(-5.5 -102.612)" fill-rule="evenodd"/>
      <path id="Trazado_1048461" data-name="Trazado 1048461" d="M59.034,238.767a1.1,1.1,0,0,1-.772-.32l-2.723-2.723a1.092,1.092,0,1,1,1.545-1.544l1.95,1.95,4.651-4.651a1.092,1.092,0,0,1,1.545,1.545l-5.423,5.423a1.09,1.09,0,0,1-.772.32Z" transform="translate(-38.421 -146.93)" fill-rule="evenodd"/>
    </g>
  </g>
</svg>
