<svg xmlns="http://www.w3.org/2000/svg" xmlns:xlink="http://www.w3.org/1999/xlink" width="113" height="113" viewBox="0 0 113 113">
  <defs>
    <filter id="Trazado_982547" x="0" y="0" width="113" height="113" filterUnits="userSpaceOnUse">
      <feOffset dy="3" input="SourceAlpha"/>
      <feGaussianBlur stdDeviation="3" result="blur"/>
      <feFlood flood-opacity="0.161"/>
      <feComposite operator="in" in2="blur"/>
      <feComposite in="SourceGraphic"/>
    </filter>
  </defs>
  <g id="Grupo_1208462" data-name="Grupo 1208462" transform="translate(-272 -1977.629)">
    <g id="Grupo_1208147" data-name="Grupo 1208147" transform="translate(0 -3923.371)">
      <g id="Grupo_1202432" data-name="Grupo 1202432" transform="translate(0 1255.486)">
        <g id="Grupo_1202055" data-name="Grupo 1202055" transform="translate(0 3240.511)">
          <g id="Grupo_1177900" data-name="Grupo 1177900" transform="translate(281 1411.003)">
            <g id="Grupo_1172010" data-name="Grupo 1172010" transform="translate(0)">
              <g id="Grupo_1171046" data-name="Grupo 1171046">
                <g id="Grupo_1148525" data-name="Grupo 1148525">
                  <g transform="matrix(1, 0, 0, 1, -9, -6)" filter="url(#Trazado_982547)">
                    <g id="Trazado_982547-2" data-name="Trazado 982547" transform="translate(9 6)" fill="#e5fdfa">
                      <path d="M 47.5 93.5 C 41.28937149047852 93.5 35.26533508300781 92.28397369384766 29.59518623352051 89.88570404052734 C 24.11771965026855 87.56893157958984 19.19813346862793 84.25196075439453 14.97309303283691 80.02691650390625 C 10.74804019927979 75.80186462402344 7.431066513061523 70.88229370117188 5.114293098449707 65.40481567382812 C 2.716026782989502 59.73468017578125 1.5 53.71062850952148 1.5 47.5 C 1.5 41.28937149047852 2.716026782989502 35.26533508300781 5.114293098449707 29.59518623352051 C 7.431066513061523 24.11771965026855 10.74804019927979 19.19813346862793 14.97309303283691 14.97309303283691 C 19.19813346862793 10.74804019927979 24.11771965026855 7.431066513061523 29.59518623352051 5.114293098449707 C 35.26533508300781 2.716026782989502 41.28937149047852 1.5 47.5 1.5 C 53.71062850952148 1.5 59.73468017578125 2.716026782989502 65.40481567382812 5.114293098449707 C 70.88229370117188 7.431066513061523 75.80186462402344 10.74804019927979 80.02691650390625 14.97309303283691 C 84.25196075439453 19.19813346862793 87.56893157958984 24.11771965026855 89.88570404052734 29.59518623352051 C 92.28397369384766 35.26533508300781 93.5 41.28937149047852 93.5 47.5 C 93.5 53.71062850952148 92.28397369384766 59.73468017578125 89.88570404052734 65.40481567382812 C 87.56893157958984 70.88229370117188 84.25196075439453 75.80186462402344 80.02691650390625 80.02691650390625 C 75.80186462402344 84.25196075439453 70.88229370117188 87.56893157958984 65.40481567382812 89.88570404052734 C 59.73468017578125 92.28397369384766 53.71062850952148 93.5 47.5 93.5 Z" stroke="none"/>
                      <path d="M 47.5 3 C 41.49121475219727 3 35.66376876831055 4.176155090332031 30.17950439453125 6.495796203613281 C 24.88084411621094 8.736953735351562 20.12152099609375 11.94598388671875 16.03375244140625 16.03375244140625 C 11.94598388671875 20.12152099609375 8.736953735351562 24.88084411621094 6.495796203613281 30.17950439453125 C 4.176155090332031 35.66376876831055 3 41.49121475219727 3 47.5 C 3 53.50878524780273 4.176155090332031 59.33623123168945 6.495796203613281 64.82049560546875 C 8.736953735351562 70.11915588378906 11.94598388671875 74.87847900390625 16.03375244140625 78.96624755859375 C 20.12152099609375 83.05401611328125 24.88084411621094 86.26304626464844 30.17950439453125 88.50419616699219 C 35.66376876831055 90.82384490966797 41.49121475219727 92 47.5 92 C 53.50878524780273 92 59.33623123168945 90.82384490966797 64.82049560546875 88.50419616699219 C 70.11915588378906 86.26304626464844 74.87847900390625 83.05401611328125 78.96624755859375 78.96624755859375 C 83.05401611328125 74.87847900390625 86.26304626464844 70.11915588378906 88.50419616699219 64.82049560546875 C 90.82384490966797 59.33623123168945 92 53.50878524780273 92 47.5 C 92 41.49121475219727 90.82384490966797 35.66376876831055 88.50419616699219 30.17950439453125 C 86.26304626464844 24.88084411621094 83.05401611328125 20.12152099609375 78.96624755859375 16.03375244140625 C 74.87847900390625 11.94598388671875 70.11915588378906 8.736953735351562 64.82049560546875 6.495796203613281 C 59.33623123168945 4.176155090332031 53.50878524780273 3 47.5 3 M 47.5 0 C 73.7335205078125 0 95 21.2664794921875 95 47.5 C 95 73.7335205078125 73.7335205078125 95 47.5 95 C 21.2664794921875 95 0 73.7335205078125 0 47.5 C 0 21.2664794921875 21.2664794921875 0 47.5 0 Z" stroke="none" fill="#098576"/>
                    </g>
                  </g>
                </g>
              </g>
            </g>
          </g>
        </g>
      </g>
    </g>
    <g id="presentation_1681277" transform="translate(298.322 2001.379)">
      <path id="Trazado_1048462" data-name="Trazado 1048462" d="M257.585,310.766l6.942,2.39h15.867v16.858H264.527V317.758l-.625-.892-4.482-1.855-2.082-.863-3.084-1.279a1.523,1.523,0,0,1-.972-1.408,1.491,1.491,0,0,1,.139-.6,1.6,1.6,0,0,1,2.083-.8Zm0,0" transform="translate(-221.882 -271.506)" fill="#ff7956"/>
      <path id="Trazado_1048463" data-name="Trazado 1048463" d="M383.937,244.962c0-2.738-1.776-4.958-3.967-4.958S376,242.224,376,244.962s1.776,4.958,3.967,4.958S383.937,247.7,383.937,244.962Zm0,0" transform="translate(-329.392 -210.254)" fill="#d9ccbc"/>
      <path id="Trazado_1048464" data-name="Trazado 1048464" d="M131.684,25.842a17.851,17.851,0,0,1-11.9,16.829V46.26l-2.083-.714a1.6,1.6,0,0,0-2.083.8,1.491,1.491,0,0,0-.139.6,1.523,1.523,0,0,0,.972,1.408l3.084,1.279h-11.4l3.084-1.279a1.533,1.533,0,0,0,.972-1.408,1.491,1.491,0,0,0-.139-.6,1.6,1.6,0,0,0-2.083-.8l-2.082.714V42.671a17.85,17.85,0,1,1,23.8-16.829Zm0,0" transform="translate(-84.08 -7)" fill="#ffeb99"/>
      <path id="Trazado_1048465" data-name="Trazado 1048465" d="M191.721,344.867a1.322,1.322,0,0,1,.149.625,1.488,1.488,0,0,1-1.488,1.487H177.491A1.487,1.487,0,0,1,176,345.492a1.316,1.316,0,0,1,.149-.625l2.083-.863h11.4Zm0,0" transform="translate(-154.183 -301.362)" fill="#c6c5ca"/>
      <path id="Trazado_1048466" data-name="Trazado 1048466" d="M190.383,368a1.487,1.487,0,1,1,0,2.975H177.492a1.487,1.487,0,1,1,0-2.975Zm0,0" transform="translate(-154.184 -322.387)" fill="#2d2d30"/>
      <path id="Trazado_1048467" data-name="Trazado 1048467" d="M190.383,392a1.488,1.488,0,0,1,0,2.975H177.492a1.488,1.488,0,1,1,0-2.975Zm0,0" transform="translate(-154.184 -343.412)" fill="#c6c5ca"/>
      <path id="Trazado_1048468" data-name="Trazado 1048468" d="M203.9,416V417a5.95,5.95,0,1,1-11.9,0V416Zm0,0" transform="translate(-168.2 -364.437)" fill="#2d2d30"/>
      <path id="Trazado_1048469" data-name="Trazado 1048469" d="M215.937,115.971A3.967,3.967,0,1,1,211.971,112,3.967,3.967,0,0,1,215.937,115.971Zm0,0" transform="translate(-182.217 -98.12)" fill="#c6c5ca"/>
      <path id="Trazado_1048470" data-name="Trazado 1048470" d="M30.812,310.766l2.082-.714a1.6,1.6,0,0,1,2.083.8,1.491,1.491,0,0,1,.139.6,1.533,1.533,0,0,1-.972,1.408l-3.084,1.279-2.083.863L24.5,316.865l-.625.892v12.257H8V313.156H23.871Zm0,0" transform="translate(-7.009 -271.506)" fill="#ff7956"/>
      <path id="Trazado_1048471" data-name="Trazado 1048471" d="M47.937,244.962c0-2.738-1.776-4.958-3.967-4.958S40,242.224,40,244.962s1.776,4.958,3.967,4.958S47.937,247.7,47.937,244.962Zm0,0" transform="translate(-35.042 -210.254)" fill="#d9ccbc"/>
      <path id="Trazado_1048472" data-name="Trazado 1048472" d="M41.921,237.954c0-3.282-2.224-5.95-4.958-5.95S32,234.672,32,237.954s2.224,5.95,4.958,5.95S41.921,241.236,41.921,237.954Zm-4.958,3.967c-1.641,0-2.975-1.779-2.975-3.967s1.334-3.967,2.975-3.967,2.975,1.779,2.975,3.967S38.6,241.921,36.962,241.921Zm0,0" transform="translate(-28.034 -203.245)"/>
      <path id="Trazado_1048473" data-name="Trazado 1048473" d="M73.987,5.954h1.983V3.971h1.983V1.987H75.971V0H73.987V1.987H72V3.971h1.983Zm0,0" transform="translate(-63.075 -0.004)"/>
      <path id="Trazado_1048474" data-name="Trazado 1048474" d="M25.987,69.954h1.983V67.971h1.983V65.987H27.971V64H25.987v1.983H24v1.983h1.983Zm0,0" transform="translate(-21.025 -56.07)"/>
      <path id="Trazado_1048475" data-name="Trazado 1048475" d="M361.987,5.954h1.983V3.971h1.983V1.987h-1.983V0h-1.983V1.987H360V3.971h1.983Zm0,0" transform="translate(-315.375 -0.004)"/>
      <path id="Trazado_1048476" data-name="Trazado 1048476" d="M408,65.987v1.983h1.983v1.983h1.983V67.971h1.983V65.987h-1.983V64h-1.983v1.983Zm0,0" transform="translate(-357.425 -56.07)"/>
      <path id="Trazado_1048477" data-name="Trazado 1048477" d="M232,56h1.983v3.967H232Zm0,0" transform="translate(-203.242 -49.062)"/>
      <path id="Trazado_1048478" data-name="Trazado 1048478" d="M189.074,64.785l1.717-.992,1.983,3.435-1.718.992Zm0,0" transform="translate(-165.633 -55.886)"/>
      <path id="Trazado_1048479" data-name="Trazado 1048479" d="M159.793,94.8l.992-1.717,3.435,1.983-.992,1.718Zm0,0" transform="translate(-139.982 -81.541)"/>
      <path id="Trazado_1048480" data-name="Trazado 1048480" d="M152,136h3.967v1.983H152Zm0,0" transform="translate(-133.159 -119.145)"/>
      <path id="Trazado_1048481" data-name="Trazado 1048481" d="M159.793,167.057l3.435-1.983.992,1.717-3.435,1.983Zm0,0" transform="translate(-139.982 -144.612)"/>
      <path id="Trazado_1048482" data-name="Trazado 1048482" d="M189.07,191.936l1.983-3.435,1.718.992-1.983,3.435Zm0,0" transform="translate(-165.63 -165.134)"/>
      <path id="Trazado_1048483" data-name="Trazado 1048483" d="M261.07,189.492l1.718-.992,1.983,3.435-1.718.992Zm0,0" transform="translate(-228.705 -165.134)"/>
      <path id="Trazado_1048484" data-name="Trazado 1048484" d="M284.5,166.793l.992-1.718,3.435,1.983-.992,1.717Zm0,0" transform="translate(-249.227 -144.613)"/>
      <path id="Trazado_1048485" data-name="Trazado 1048485" d="M296,136h3.967v1.983H296Zm0,0" transform="translate(-259.309 -119.145)"/>
      <path id="Trazado_1048486" data-name="Trazado 1048486" d="M284.5,95.057l3.435-1.983.992,1.718-3.435,1.983Zm0,0" transform="translate(-249.227 -81.537)"/>
      <path id="Trazado_1048487" data-name="Trazado 1048487" d="M261.078,67.236l1.983-3.435,1.718.992L262.8,68.227Zm0,0" transform="translate(-228.712 -55.892)"/>
      <path id="Trazado_1048488" data-name="Trazado 1048488" d="M24,440h1.983v1.983H24Zm0,0" transform="translate(-21.025 -385.462)"/>
      <path id="Trazado_1048489" data-name="Trazado 1048489" d="M48,440h1.983v1.983H48Zm0,0" transform="translate(-42.05 -385.462)"/>
      <path id="Trazado_1048490" data-name="Trazado 1048490" d="M24,416h1.983v1.983H24Zm0,0" transform="translate(-21.025 -364.437)"/>
      <path id="Trazado_1048491" data-name="Trazado 1048491" d="M377.921,237.954c0-3.282-2.224-5.95-4.958-5.95S368,234.672,368,237.954s2.224,5.95,4.958,5.95S377.921,241.236,377.921,237.954Zm-4.958,3.967c-1.641,0-2.975-1.779-2.975-3.967s1.334-3.967,2.975-3.967,2.975,1.779,2.975,3.967S374.6,241.921,372.962,241.921Zm0,0" transform="translate(-322.384 -203.245)"/>
      <path id="Trazado_1048492" data-name="Trazado 1048492" d="M58.512,40.659h-15.7l-6.116-2.1v-2.2a18.842,18.842,0,1,0-13.883,0v2.2l-6.116,2.1H1A.991.991,0,0,0,0,41.65V58.508A.991.991,0,0,0,1,59.5H16.862a.992.992,0,0,0,.992-.992V46.562l.279-.4,2.856-1.182a2.45,2.45,0,0,0,.348.634,2.429,2.429,0,0,0,0,2.975,2.449,2.449,0,0,0-.508,1.487,2.479,2.479,0,0,0,1.983,2.429v.05a6.942,6.942,0,1,0,13.883,0v-.05a2.48,2.48,0,0,0,1.983-2.429,2.453,2.453,0,0,0-.509-1.487,2.429,2.429,0,0,0,0-2.975,2.45,2.45,0,0,0,.348-.634l2.856,1.182.28.4V58.508a.991.991,0,0,0,.992.992H58.512a.992.992,0,0,0,.992-.992V41.65a.992.992,0,0,0-.992-.992ZM24.134,34.735a16.869,16.869,0,1,1,11.24,0,1.031,1.031,0,0,0-.661.965v2.174l-.705-.242a2.606,2.606,0,0,0-3.261,1.12V22.709a4.959,4.959,0,1,0-1.983,0V38.752a2.586,2.586,0,0,0-3.2-1.143l-.765.263v-2.2a.992.992,0,0,0-.661-.935Zm5.62-13.91a2.975,2.975,0,1,1,2.975-2.975A2.975,2.975,0,0,1,29.754,20.825ZM28.762,41.65h-.339a2.529,2.529,0,0,0,.339-.469Zm1.983-.47a2.511,2.511,0,0,0,.339.47h-.339ZM17.11,44.443a1,1,0,0,0-.432.345l-.626.892a.992.992,0,0,0-.181.571V57.517H1.987V42.642H16.862a1.012,1.012,0,0,0,.322-.054l9.08-3.127a.614.614,0,0,1,.793.287.5.5,0,0,1-.3.7l-2.9,1.2H23.8v.022ZM36.7,47.1a.5.5,0,0,1-.5.5H23.308a.5.5,0,1,1,0-.992H36.2A.5.5,0,0,1,36.7,47.1ZM29.754,57.517A4.964,4.964,0,0,1,24.8,52.558h9.917A4.964,4.964,0,0,1,29.754,57.517ZM36.2,50.575H23.308a.5.5,0,1,1,0-.992H36.2a.5.5,0,0,1,0,.992Zm0-5.95H23.308a.489.489,0,0,1-.477-.4l1.42-.588H35.258l1.42.588a.489.489,0,0,1-.479.4ZM57.52,57.517H43.637V46.248a1,1,0,0,0-.182-.571l-.626-.892a1,1,0,0,0-.432-.345L35.7,41.672V41.65H35.65l-2.895-1.2a.548.548,0,0,1-.36-.5.532.532,0,0,1,.049-.2.638.638,0,0,1,.859-.271l9.024,3.1a1.015,1.015,0,0,0,.319.05H57.52Zm0,0"/>
      <path id="Trazado_1048493" data-name="Trazado 1048493" d="M440,440h1.983v1.983H440Zm0,0" transform="translate(-385.459 -385.462)"/>
      <path id="Trazado_1048494" data-name="Trazado 1048494" d="M416,440h1.983v1.983H416Zm0,0" transform="translate(-364.434 -385.462)"/>
      <path id="Trazado_1048495" data-name="Trazado 1048495" d="M440,416h1.983v1.983H440Zm0,0" transform="translate(-385.459 -364.437)"/>
    </g>
  </g>
</svg>
