<svg xmlns="http://www.w3.org/2000/svg" xmlns:xlink="http://www.w3.org/1999/xlink" width="113" height="113" viewBox="0 0 113 113">
  <defs>
    <filter id="Trazado_982547" x="0" y="0" width="113" height="113" filterUnits="userSpaceOnUse">
      <feOffset dy="3" input="SourceAlpha"/>
      <feGaussianBlur stdDeviation="3" result="blur"/>
      <feFlood flood-opacity="0.161"/>
      <feComposite operator="in" in2="blur"/>
      <feComposite in="SourceGraphic"/>
    </filter>
  </defs>
  <g id="Grupo_1208464" data-name="Grupo 1208464" transform="translate(-586 -1977.916)">
    <g id="Grupo_1208146" data-name="Grupo 1208146" transform="translate(0 -3923.371)">
      <g id="Grupo_1202433" data-name="Grupo 1202433" transform="translate(-0.56 1255.773)">
        <g id="Grupo_1202054" data-name="Grupo 1202054" transform="translate(0 3240.511)">
          <g id="Grupo_1177897" data-name="Grupo 1177897" transform="translate(595.561 1411.003)">
            <g id="Grupo_1172010" data-name="Grupo 1172010" transform="translate(0)">
              <g id="Grupo_1171046" data-name="Grupo 1171046">
                <g id="Grupo_1148525" data-name="Grupo 1148525">
                  <g transform="matrix(1, 0, 0, 1, -9, -6)" filter="url(#Trazado_982547)">
                    <g id="Trazado_982547-2" data-name="Trazado 982547" transform="translate(9 6)" fill="#e5fdfa">
                      <path d="M 47.5 93.5 C 41.28937149047852 93.5 35.26533508300781 92.28397369384766 29.59518623352051 89.88570404052734 C 24.11771965026855 87.56893157958984 19.19813346862793 84.25196075439453 14.97309303283691 80.02691650390625 C 10.74804019927979 75.80186462402344 7.431066513061523 70.88229370117188 5.114293098449707 65.40481567382812 C 2.716026782989502 59.73468017578125 1.5 53.71062850952148 1.5 47.5 C 1.5 41.28937149047852 2.716026782989502 35.26533508300781 5.114293098449707 29.59518623352051 C 7.431066513061523 24.11771965026855 10.74804019927979 19.19813346862793 14.97309303283691 14.97309303283691 C 19.19813346862793 10.74804019927979 24.11771965026855 7.431066513061523 29.59518623352051 5.114293098449707 C 35.26533508300781 2.716026782989502 41.28937149047852 1.5 47.5 1.5 C 53.71062850952148 1.5 59.73468017578125 2.716026782989502 65.40481567382812 5.114293098449707 C 70.88229370117188 7.431066513061523 75.80186462402344 10.74804019927979 80.02691650390625 14.97309303283691 C 84.25196075439453 19.19813346862793 87.56893157958984 24.11771965026855 89.88570404052734 29.59518623352051 C 92.28397369384766 35.26533508300781 93.5 41.28937149047852 93.5 47.5 C 93.5 53.71062850952148 92.28397369384766 59.73468017578125 89.88570404052734 65.40481567382812 C 87.56893157958984 70.88229370117188 84.25196075439453 75.80186462402344 80.02691650390625 80.02691650390625 C 75.80186462402344 84.25196075439453 70.88229370117188 87.56893157958984 65.40481567382812 89.88570404052734 C 59.73468017578125 92.28397369384766 53.71062850952148 93.5 47.5 93.5 Z" stroke="none"/>
                      <path d="M 47.5 3 C 41.49121475219727 3 35.66376876831055 4.176155090332031 30.17950439453125 6.495796203613281 C 24.88084411621094 8.736953735351562 20.12152099609375 11.94598388671875 16.03375244140625 16.03375244140625 C 11.94598388671875 20.12152099609375 8.736953735351562 24.88084411621094 6.495796203613281 30.17950439453125 C 4.176155090332031 35.66376876831055 3 41.49121475219727 3 47.5 C 3 53.50878524780273 4.176155090332031 59.33623123168945 6.495796203613281 64.82049560546875 C 8.736953735351562 70.11915588378906 11.94598388671875 74.87847900390625 16.03375244140625 78.96624755859375 C 20.12152099609375 83.05401611328125 24.88084411621094 86.26304626464844 30.17950439453125 88.50419616699219 C 35.66376876831055 90.82384490966797 41.49121475219727 92 47.5 92 C 53.50878524780273 92 59.33623123168945 90.82384490966797 64.82049560546875 88.50419616699219 C 70.11915588378906 86.26304626464844 74.87847900390625 83.05401611328125 78.96624755859375 78.96624755859375 C 83.05401611328125 74.87847900390625 86.26304626464844 70.11915588378906 88.50419616699219 64.82049560546875 C 90.82384490966797 59.33623123168945 92 53.50878524780273 92 47.5 C 92 41.49121475219727 90.82384490966797 35.66376876831055 88.50419616699219 30.17950439453125 C 86.26304626464844 24.88084411621094 83.05401611328125 20.12152099609375 78.96624755859375 16.03375244140625 C 74.87847900390625 11.94598388671875 70.11915588378906 8.736953735351562 64.82049560546875 6.495796203613281 C 59.33623123168945 4.176155090332031 53.50878524780273 3 47.5 3 M 47.5 0 C 73.7335205078125 0 95 21.2664794921875 95 47.5 C 95 73.7335205078125 73.7335205078125 95 47.5 95 C 21.2664794921875 95 0 73.7335205078125 0 47.5 C 0 21.2664794921875 21.2664794921875 0 47.5 0 Z" stroke="none" fill="#098576"/>
                    </g>
                  </g>
                </g>
              </g>
            </g>
          </g>
        </g>
      </g>
    </g>
    <g id="protocol_12058559" transform="translate(585.638 1993.588)">
      <rect id="Rectángulo_418101" data-name="Rectángulo 418101" width="33.695" height="40.189" rx="16.847" transform="translate(39.961 10.315)" fill="#b6dbff"/>
      <path id="Trazado_1048496" data-name="Trazado 1048496" d="M119.1,56.119h26.648a2.547,2.547,0,0,1,2.546,2.546v35.1a2.547,2.547,0,0,1-2.546,2.546H119.1a2.547,2.547,0,0,1-2.546-2.546v-35.1A2.547,2.547,0,0,1,119.1,56.119Z" transform="translate(-76.597 -45.804)" fill="#e3f1ff"/>
      <g id="Grupo_1208463" data-name="Grupo 1208463" transform="translate(48.795 4.856)">
        <path id="Trazado_1048497" data-name="Trazado 1048497" d="M197.459,11.08a3.116,3.116,0,0,0-3.116,3.116v.428l-3.089-.54a1.542,1.542,0,0,0-1.807,1.519v3.354h16.026V15.6a1.542,1.542,0,0,0-1.807-1.519l-3.089.54V14.2A3.116,3.116,0,0,0,197.459,11.08Z" transform="translate(-189.446 -11.08)" fill="#c86f5c" fill-rule="evenodd"/>
        <path id="Trazado_1048498" data-name="Trazado 1048498" d="M194.343,18.993v.428l-3.089-.54a1.542,1.542,0,0,0-1.807,1.519v3.354h14.627V20.645a1.542,1.542,0,0,0-1.807-1.519l-1.691.3-.754.132-.4.069c.049-4.3-5.084-3.71-5.084-.629Z" transform="translate(-189.446 -15.877)" fill="#f29988" fill-rule="evenodd"/>
        <path id="Trazado_1048499" data-name="Trazado 1048499" d="M324.784,125.58a22.555,22.555,0,0,0,6.224,2.471l2.115.54v9.064a7.3,7.3,0,0,1-1.033,3.789c-1.576,2.654-4.76,4.337-7.34,5.9l-1.454.879-1.454-.879c-2.58-1.56-5.764-3.243-7.34-5.9a7.3,7.3,0,0,1-1.033-3.789v-9.064l2.115-.54a22.555,22.555,0,0,0,6.224-2.471l1.488-.929,1.488.929Z" transform="translate(-298.437 -110.886)" fill="#f2671f" fill-rule="evenodd"/>
        <path id="Trazado_1048500" data-name="Trazado 1048500" d="M324.783,125.581a22.554,22.554,0,0,0,6.224,2.471l1.206.308v8.933a7.3,7.3,0,0,1-1.033,3.789c-1.576,2.654-4.76,4.337-7.34,5.9l-1.3.786-.7-.422c-2.58-1.56-5.764-3.243-7.34-5.9a7.3,7.3,0,0,1-1.033-3.789v-9.064l2.115-.54a22.554,22.554,0,0,0,6.224-2.471l1.488-.929,1.488.929Z" transform="translate(-298.436 -110.887)" fill="#ff8748" fill-rule="evenodd"/>
        <path id="Trazado_1048501" data-name="Trazado 1048501" d="M337.5,434.316a8.885,8.885,0,0,1,8.848,8.077h-17.7A8.885,8.885,0,0,1,337.5,434.316Z" transform="translate(-311.781 -383.018)" fill="#fdc72e" fill-rule="evenodd"/>
        <path id="Trazado_1048502" data-name="Trazado 1048502" d="M343.885,442.672H328.654a8.887,8.887,0,0,1,8.02-8.039,9.141,9.141,0,0,1,7.211,8.039Z" transform="translate(-311.781 -383.297)" fill="#fcdb35" fill-rule="evenodd"/>
      </g>
      <circle id="Elipse_12560" data-name="Elipse 12560" cx="4.231" cy="4.231" r="4.231" transform="translate(69.841 48.154) rotate(-6.258)" fill="#fdb0a0"/>
      <path id="Trazado_1048503" data-name="Trazado 1048503" d="M370.118,373.263a4.232,4.232,0,1,1,3.375-4.145A4.233,4.233,0,0,1,370.118,373.263Z" transform="translate(-296.459 -317.224)" fill="#ffcec0" fill-rule="evenodd"/>
      <path id="Trazado_1048504" data-name="Trazado 1048504" d="M191.406,434.316a8.885,8.885,0,0,1,8.848,8.077h-17.7A8.885,8.885,0,0,1,191.406,434.316Z" transform="translate(-134.598 -378.162)" fill="#2a92fa" fill-rule="evenodd"/>
      <path id="Trazado_1048505" data-name="Trazado 1048505" d="M197.789,442.672H182.558a8.887,8.887,0,0,1,8.02-8.039,9.141,9.141,0,0,1,7.211,8.039Z" transform="translate(-134.598 -378.44)" fill="#4eb1fc" fill-rule="evenodd"/>
      <circle id="Elipse_12561" data-name="Elipse 12561" cx="4.231" cy="4.231" r="4.231" transform="matrix(0.984, -0.179, 0.179, 0.984, 51.886, 48.501)" fill="#fdb0a0"/>
      <path id="Trazado_1048506" data-name="Trazado 1048506" d="M224.022,373.263a4.232,4.232,0,1,1,3.375-4.145A4.233,4.233,0,0,1,224.022,373.263Z" transform="translate(-168.07 -317.224)" fill="#ffcec0" fill-rule="evenodd"/>
      <path id="Trazado_1048507" data-name="Trazado 1048507" d="M45.31,434.316a8.885,8.885,0,0,1,8.848,8.077h-17.7A8.885,8.885,0,0,1,45.31,434.316Z" transform="translate(-6.209 -378.162)" fill="#a0d904" fill-rule="evenodd"/>
      <path id="Trazado_1048508" data-name="Trazado 1048508" d="M51.693,442.672H36.462a8.887,8.887,0,0,1,8.02-8.039,9.141,9.141,0,0,1,7.211,8.039Z" transform="translate(-6.209 -378.44)" fill="#baed2c" fill-rule="evenodd"/>
      <circle id="Elipse_12562" data-name="Elipse 12562" cx="4.231" cy="4.231" r="4.231" transform="matrix(0.984, -0.179, 0.179, 0.984, 34.175, 48.498)" fill="#fdb0a0"/>
      <path id="Trazado_1048509" data-name="Trazado 1048509" d="M77.927,373.263a4.232,4.232,0,0,1,0-8.289,4.232,4.232,0,0,1,0,8.289Z" transform="translate(-39.682 -317.224)" fill="#ffcec0" fill-rule="evenodd"/>
      <path id="Trazado_1048510" data-name="Trazado 1048510" d="M331.027,175.17c-.284.079-.544.148-.776.207v6.882a4.484,4.484,0,0,0,.639,2.355c1.192,2.007,4.294,3.763,6.511,5.1.208-.126.423-.254.643-.384l.387-.314-7.4-13.849Z" transform="translate(-264.39 -150.425)" fill="#f2671f" fill-rule="evenodd"/>
      <path id="Trazado_1048511" data-name="Trazado 1048511" d="M343.668,151.982a26.035,26.035,0,0,1-7.017,2.81v6.882a4.484,4.484,0,0,0,.639,2.355c1.192,2.007,4.161,3.586,6.378,4.927,2.217-1.34,5.186-2.92,6.378-4.927a4.484,4.484,0,0,0,.639-2.355v-6.882A26.034,26.034,0,0,1,343.668,151.982Z" transform="translate(-270.014 -130.048)" fill="#f3f3ff" fill-rule="evenodd"/>
      <path id="Trazado_1048512" data-name="Trazado 1048512" d="M71.122,29.618a.848.848,0,1,0-1.469.848l1.631,2.828a.847.847,0,0,0,.625.417.8.8,0,0,0,.112.008.848.848,0,0,0,.6-.249l4.9-4.9a.848.848,0,0,0-1.2-1.2L72.2,31.488l-1.08-1.869Zm2.531-6.694A26.746,26.746,0,0,0,79.82,25.4v6.229a3.611,3.611,0,0,1-.52,1.921c-.935,1.575-3.221,2.93-5.237,4.127l-.411.244-.411-.244c-2.017-1.2-4.3-2.552-5.237-4.127a3.612,3.612,0,0,1-.521-1.921V25.4a26.742,26.742,0,0,0,6.169-2.473Zm.449-1.71a25.083,25.083,0,0,0,6.777,2.708.848.848,0,0,1,.639.822v6.881a5.307,5.307,0,0,1-.758,2.788c-1.156,1.947-3.64,3.42-5.831,4.72-.287.171-.568.337-.838.5a.846.846,0,0,1-.878,0q-.406-.244-.837-.5c-2.191-1.3-4.675-2.773-5.832-4.72a5.313,5.313,0,0,1-.758-2.788V24.745a.848.848,0,0,1,.639-.822A25.094,25.094,0,0,0,73.2,21.214a.847.847,0,0,1,.9,0ZM72.8,47.105a5.113,5.113,0,0,0-2.858,2.56H61.375a5.081,5.081,0,0,0-9.136,0H43.667a5.11,5.11,0,0,0-2.858-2.56V12.873a1.7,1.7,0,0,1,1.7-1.7H47.9v1.591a.848.848,0,0,0,.848.849H64.864a.848.848,0,0,0,.848-.849V11.176h5.394a1.7,1.7,0,0,1,1.7,1.7V18.15l-1.09.68a18.692,18.692,0,0,1-4.145,1.841H53.787a.848.848,0,1,0,0,1.7H63a.85.85,0,0,0-.025.193v4.828h-9.19a.848.848,0,1,0,0,1.7h9.19V31.2h-9.19a.849.849,0,0,0,0,1.7h9.285a8.1,8.1,0,0,0,1.057,2.948,10.072,10.072,0,0,0,1.664,2.072H53.787a.849.849,0,0,0,0,1.7H67.875c.993.7,2.037,1.318,3.027,1.907q.438.26.858.513l1.045.631v4.436Zm1.711,1.4A3.386,3.386,0,1,0,77.9,51.892,3.39,3.39,0,0,0,74.515,48.505Zm0,8.5a7.991,7.991,0,0,0-7.872,6.386H82.387A8,8,0,0,0,74.515,57Zm-9.836,6.386a8.045,8.045,0,0,0-15.744,0Zm-17.707,0a8.046,8.046,0,0,0-15.745,0H46.972Zm13.221-11.5a3.386,3.386,0,1,0-3.386,3.385A3.391,3.391,0,0,0,60.193,51.892Zm1.7,0a5.128,5.128,0,0,0-.028-.53h7.6a5.13,5.13,0,0,0-.028.53,5.076,5.076,0,0,0,1.892,3.952,9.741,9.741,0,0,0-5.663,5.145A9.741,9.741,0,0,0,60,55.843,5.075,5.075,0,0,0,61.89,51.892Zm-17.708,0a5.129,5.129,0,0,0-.027-.53h7.6c-.017.174-.027.351-.027.53a5.075,5.075,0,0,0,1.891,3.952,9.737,9.737,0,0,0-5.663,5.145,9.744,9.744,0,0,0-5.662-5.145A5.078,5.078,0,0,0,44.181,51.892Zm-8.468,0A3.386,3.386,0,1,0,39.1,48.506,3.389,3.389,0,0,0,35.713,51.892ZM49.6,11.919H64.015V9.395a.7.7,0,0,0-.822-.692l-3.106.543a.848.848,0,0,1-.994-.836v-.43a2.285,2.285,0,1,0-4.57,0v.43a.85.85,0,0,1-.995.836L50.42,8.7a.7.7,0,0,0-.823.692ZM74.691,20.27a23.1,23.1,0,0,0,6.462,2.574l1.476.376v8.406a6.481,6.481,0,0,1-.914,3.356c-1.293,2.179-3.89,3.723-6.18,5.084q-.443.263-.869.519l-1.015.613-1.014-.613c-.284-.171-.575-.344-.869-.519-2.291-1.362-4.887-2.906-6.182-5.084a6.492,6.492,0,0,1-.914-3.356V23.22l1.476-.376a23.082,23.082,0,0,0,6.464-2.574l1.039-.648Zm-.19,22.4v4.14h.014a5.08,5.08,0,0,1,3.191,9.034,9.745,9.745,0,0,1,6.507,8.318.85.85,0,0,1-.846.924H30.246a.849.849,0,0,1-.846-.924,9.745,9.745,0,0,1,6.507-8.318A5.08,5.08,0,0,1,39.1,46.809h.013V12.873a3.4,3.4,0,0,1,3.4-3.394H47.9V9.395a2.4,2.4,0,0,1,2.812-2.363l2.153.376a3.983,3.983,0,0,1,7.883,0L62.9,7.032a2.4,2.4,0,0,1,2.812,2.363v.084h5.394A3.4,3.4,0,0,1,74.5,12.873V18.15l1.089.68A21.438,21.438,0,0,0,81.573,21.2l2.117.54a.847.847,0,0,1,.637.822v9.065a8.154,8.154,0,0,1-1.151,4.223c-1.515,2.55-4.308,4.211-6.773,5.676-.291.174-.578.344-.858.513l-1.044.631Zm-24.66-4.512-3.057,3.057-.727-1.258a.848.848,0,1,0-1.469.848l1.278,2.216a.851.851,0,0,0,.625.417.875.875,0,0,0,.112.007.852.852,0,0,0,.6-.248l3.838-3.839a.848.848,0,0,0-1.2-1.2Zm0-10.532-3.057,3.057-.727-1.258a.848.848,0,0,0-1.469.848l1.278,2.216a.851.851,0,0,0,.625.417.876.876,0,0,0,.112.007.852.852,0,0,0,.6-.248l3.838-3.839a.848.848,0,0,0-1.2-1.2Zm0-10.532L46.784,20.15l-.727-1.258a.848.848,0,1,0-1.469.849l1.278,2.215a.849.849,0,0,0,.625.417.8.8,0,0,0,.112.008.855.855,0,0,0,.6-.248l3.838-3.839a.848.848,0,0,0-1.2-1.2ZM68.195,41.736H53.787a.848.848,0,0,0,0,1.7H68.195a.848.848,0,0,0,0-1.7ZM52.939,17.706a.849.849,0,0,0,.848.848h14.5a.849.849,0,0,0,0-1.7h-14.5a.849.849,0,0,0-.848.849Z" transform="translate(0)" fill-rule="evenodd"/>
    </g>
  </g>
</svg>
