<svg xmlns="http://www.w3.org/2000/svg" xmlns:xlink="http://www.w3.org/1999/xlink" width="113" height="113" viewBox="0 0 113 113">
  <defs>
    <filter id="Trazado_982547" x="0" y="0" width="113" height="113" filterUnits="userSpaceOnUse">
      <feOffset dy="3" input="SourceAlpha"/>
      <feGaussianBlur stdDeviation="3" result="blur"/>
      <feFlood flood-opacity="0.161"/>
      <feComposite operator="in" in2="blur"/>
      <feComposite in="SourceGraphic"/>
    </filter>
  </defs>
  <g id="Grupo_1208466" data-name="Grupo 1208466" transform="translate(-901 -1977.916)">
    <g id="Grupo_1208144" data-name="Grupo 1208144" transform="translate(0 -3923.371)">
      <g id="Grupo_1202434" data-name="Grupo 1202434" transform="translate(-0.56 1255.773)">
        <g id="Grupo_1202053" data-name="Grupo 1202053" transform="translate(0 3240.511)">
          <g id="Grupo_1177898" data-name="Grupo 1177898" transform="translate(910.561 1411.003)">
            <g id="Grupo_1172010" data-name="Grupo 1172010" transform="translate(0)">
              <g id="Grupo_1171046" data-name="Grupo 1171046">
                <g id="Grupo_1148525" data-name="Grupo 1148525">
                  <g transform="matrix(1, 0, 0, 1, -9, -6)" filter="url(#Trazado_982547)">
                    <g id="Trazado_982547-2" data-name="Trazado 982547" transform="translate(9 6)" fill="#e5fdfa">
                      <path d="M 47.5 93.5 C 41.28937149047852 93.5 35.26533508300781 92.28397369384766 29.59518623352051 89.88570404052734 C 24.11771965026855 87.56893157958984 19.19813346862793 84.25196075439453 14.97309303283691 80.02691650390625 C 10.74804019927979 75.80186462402344 7.431066513061523 70.88229370117188 5.114293098449707 65.40481567382812 C 2.716026782989502 59.73468017578125 1.5 53.71062850952148 1.5 47.5 C 1.5 41.28937149047852 2.716026782989502 35.26533508300781 5.114293098449707 29.59518623352051 C 7.431066513061523 24.11771965026855 10.74804019927979 19.19813346862793 14.97309303283691 14.97309303283691 C 19.19813346862793 10.74804019927979 24.11771965026855 7.431066513061523 29.59518623352051 5.114293098449707 C 35.26533508300781 2.716026782989502 41.28937149047852 1.5 47.5 1.5 C 53.71062850952148 1.5 59.73468017578125 2.716026782989502 65.40481567382812 5.114293098449707 C 70.88229370117188 7.431066513061523 75.80186462402344 10.74804019927979 80.02691650390625 14.97309303283691 C 84.25196075439453 19.19813346862793 87.56893157958984 24.11771965026855 89.88570404052734 29.59518623352051 C 92.28397369384766 35.26533508300781 93.5 41.28937149047852 93.5 47.5 C 93.5 53.71062850952148 92.28397369384766 59.73468017578125 89.88570404052734 65.40481567382812 C 87.56893157958984 70.88229370117188 84.25196075439453 75.80186462402344 80.02691650390625 80.02691650390625 C 75.80186462402344 84.25196075439453 70.88229370117188 87.56893157958984 65.40481567382812 89.88570404052734 C 59.73468017578125 92.28397369384766 53.71062850952148 93.5 47.5 93.5 Z" stroke="none"/>
                      <path d="M 47.5 3 C 41.49121475219727 3 35.66376876831055 4.176155090332031 30.17950439453125 6.495796203613281 C 24.88084411621094 8.736953735351562 20.12152099609375 11.94598388671875 16.03375244140625 16.03375244140625 C 11.94598388671875 20.12152099609375 8.736953735351562 24.88084411621094 6.495796203613281 30.17950439453125 C 4.176155090332031 35.66376876831055 3 41.49121475219727 3 47.5 C 3 53.50878524780273 4.176155090332031 59.33623123168945 6.495796203613281 64.82049560546875 C 8.736953735351562 70.11915588378906 11.94598388671875 74.87847900390625 16.03375244140625 78.96624755859375 C 20.12152099609375 83.05401611328125 24.88084411621094 86.26304626464844 30.17950439453125 88.50419616699219 C 35.66376876831055 90.82384490966797 41.49121475219727 92 47.5 92 C 53.50878524780273 92 59.33623123168945 90.82384490966797 64.82049560546875 88.50419616699219 C 70.11915588378906 86.26304626464844 74.87847900390625 83.05401611328125 78.96624755859375 78.96624755859375 C 83.05401611328125 74.87847900390625 86.26304626464844 70.11915588378906 88.50419616699219 64.82049560546875 C 90.82384490966797 59.33623123168945 92 53.50878524780273 92 47.5 C 92 41.49121475219727 90.82384490966797 35.66376876831055 88.50419616699219 30.17950439453125 C 86.26304626464844 24.88084411621094 83.05401611328125 20.12152099609375 78.96624755859375 16.03375244140625 C 74.87847900390625 11.94598388671875 70.11915588378906 8.736953735351562 64.82049560546875 6.495796203613281 C 59.33623123168945 4.176155090332031 53.50878524780273 3 47.5 3 M 47.5 0 C 73.7335205078125 0 95 21.2664794921875 95 47.5 C 95 73.7335205078125 73.7335205078125 95 47.5 95 C 21.2664794921875 95 0 73.7335205078125 0 47.5 C 0 21.2664794921875 21.2664794921875 0 47.5 0 Z" stroke="none" fill="#098576"/>
                    </g>
                  </g>
                </g>
              </g>
            </g>
          </g>
        </g>
      </g>
    </g>
    <g id="reaction_12056973_2_" data-name="reaction_12056973 (2)" transform="translate(923.002 1996.629)">
      <g id="Grupo_1208465" data-name="Grupo 1208465" transform="translate(4.847 4.847)">
        <path id="Trazado_1048513" data-name="Trazado 1048513" d="M18.886,102.18a7.877,7.877,0,0,1,2.751,15.258v5.22l-3.561-4.767a7.877,7.877,0,0,1,.811-15.711Z" transform="translate(-11.01 -91.143)" fill="#f23353" fill-rule="evenodd"/>
        <path id="Trazado_1048514" data-name="Trazado 1048514" d="M27.062,102.18a7.878,7.878,0,0,1,6.9,11.679A7.877,7.877,0,0,1,21.289,104.7,7.854,7.854,0,0,1,27.062,102.18Z" transform="translate(-19.185 -91.143)" fill="#ff5471" fill-rule="evenodd"/>
        <path id="Trazado_1048515" data-name="Trazado 1048515" d="M378.733,102.18a7.877,7.877,0,0,0-2.751,15.258v5.22l3.561-4.767a7.877,7.877,0,0,0-.811-15.711Z" transform="translate(-327.304 -91.143)" fill="#99d100" fill-rule="evenodd"/>
        <path id="Trazado_1048516" data-name="Trazado 1048516" d="M378.733,102.18a7.878,7.878,0,0,0-6.9,11.679,7.877,7.877,0,0,0,12.671-9.161A7.854,7.854,0,0,0,378.733,102.18Z" transform="translate(-327.304 -91.143)" fill="#a8e304" fill-rule="evenodd"/>
        <path id="Trazado_1048517" data-name="Trazado 1048517" d="M168.7,10.992h17.592a2.021,2.021,0,0,1,2.015,2.015V30.6a2.021,2.021,0,0,1-2.015,2.015h-5.807L177.5,40.645l-2.989-8.031H168.7a2.021,2.021,0,0,1-2.015-2.015V13.007a2.021,2.021,0,0,1,2.015-2.015Z" transform="translate(-147.846 -10.992)" fill="#2a92fa" fill-rule="evenodd"/>
        <path id="Trazado_1048518" data-name="Trazado 1048518" d="M168.7,10.992h15.414a2.021,2.021,0,0,1,2.015,2.015V30.6a2.021,2.021,0,0,1-2.015,2.015h-5.807l-1.9,5.1-1.9-5.1H168.7a2.021,2.021,0,0,1-2.015-2.015V13.007a2.021,2.021,0,0,1,2.015-2.015Z" transform="translate(-147.846 -10.992)" fill="#4eb1fc" fill-rule="evenodd"/>
        <path id="Trazado_1048519" data-name="Trazado 1048519" d="M207.867,46.661h7.477v7.477l-2.123-2.123-7.634,7.634-3.231-3.231,7.634-7.634Z" transform="translate(-179.197 -42.344)" fill="#b6dbff" fill-rule="evenodd"/>
        <path id="Trazado_1048520" data-name="Trazado 1048520" d="M207.867,46.661h6.587v6.587l-1.233-1.233h0l-.89-.89L204.7,58.759l-2.341-2.341,7.634-7.634Z" transform="translate(-179.197 -42.344)" fill="#f3f3ff" fill-rule="evenodd"/>
        <path id="Trazado_1048521" data-name="Trazado 1048521" d="M170.75,380.033a11.789,11.789,0,0,1,11.74,10.718v3.9H159.01v-3.9A11.79,11.79,0,0,1,170.75,380.033Z" transform="translate(-141.097 -335.368)" fill="#2a92fa" fill-rule="evenodd"/>
        <path id="Trazado_1048522" data-name="Trazado 1048522" d="M179.61,394.721h-20.6v-3.9A11.789,11.789,0,0,1,170.3,380.111a12.2,12.2,0,0,1,9.314,10.708Z" transform="translate(-141.097 -335.436)" fill="#4eb1fc" fill-rule="evenodd"/>
      </g>
      <circle id="Elipse_12563" data-name="Elipse 12563" cx="5.614" cy="5.614" r="5.614" transform="translate(28.836 49.421) rotate(-89.542)" fill="#fdb0a0"/>
      <path id="Trazado_1048523" data-name="Trazado 1048523" d="M214.112,298.876a5.616,5.616,0,0,1,0-11,5.616,5.616,0,0,1,0,11Z" transform="translate(-180.737 -249.515)" fill="#ffcec0" fill-rule="evenodd"/>
      <path id="Trazado_1048524" data-name="Trazado 1048524" d="M239.861,380.086l-.946,9.461,2.077,2.973,2.077-2.973-.946-9.46q-.562-.054-1.138-.054t-1.123.053Z" transform="translate(-206.484 -330.521)" fill="#f23353" fill-rule="evenodd"/>
      <path id="Trazado_1048525" data-name="Trazado 1048525" d="M239.861,380.1l-.946,9.461,1.391,1.991,1.391-1.991-.807-8.064-.145-1.448q-.446.009-.884.05Z" transform="translate(-206.484 -330.538)" fill="#ff5471" fill-rule="evenodd"/>
      <path id="Trazado_1048526" data-name="Trazado 1048526" d="M361.152,377.763a9.055,9.055,0,0,1,9.017,8.232H352.135A9.055,9.055,0,0,1,361.152,377.763Z" transform="translate(-306.001 -328.525)" fill="#7cb5ef" fill-rule="evenodd"/>
      <path id="Trazado_1048527" data-name="Trazado 1048527" d="M367.657,386.279H352.135a9.056,9.056,0,0,1,8.173-8.193A9.316,9.316,0,0,1,367.657,386.279Z" transform="translate(-306.001 -328.809)" fill="#b6dbff" fill-rule="evenodd"/>
      <circle id="Elipse_12564" data-name="Elipse 12564" cx="4.312" cy="4.312" r="4.312" transform="matrix(0.987, -0.16, 0.16, 0.987, 50.192, 41.336)" fill="#fdb0a0"/>
      <path id="Trazado_1048528" data-name="Trazado 1048528" d="M394.445,315.443a4.313,4.313,0,1,1,3.439-4.224A4.314,4.314,0,0,1,394.445,315.443Z" transform="translate(-340.168 -266.323)" fill="#ffcec0" fill-rule="evenodd"/>
      <path id="Trazado_1048529" data-name="Trazado 1048529" d="M19.9,377.763a9.055,9.055,0,0,1,9.017,8.232H10.885A9.055,9.055,0,0,1,19.9,377.763Z" transform="translate(-6.053 -328.525)" fill="#7cb5ef" fill-rule="evenodd"/>
      <path id="Trazado_1048530" data-name="Trazado 1048530" d="M26.407,386.279H10.885a9.056,9.056,0,0,1,8.173-8.193A9.316,9.316,0,0,1,26.407,386.279Z" transform="translate(-6.053 -328.809)" fill="#b6dbff" fill-rule="evenodd"/>
      <circle id="Elipse_12565" data-name="Elipse 12565" cx="4.312" cy="4.312" r="4.312" transform="matrix(0.987, -0.161, 0.161, 0.987, 8.908, 41.333)" fill="#fdb0a0"/>
      <path id="Trazado_1048531" data-name="Trazado 1048531" d="M53.2,315.443a4.313,4.313,0,0,1,0-8.447,4.313,4.313,0,0,1,0,8.447Z" transform="translate(-40.22 -266.323)" fill="#ffcec0" fill-rule="evenodd"/>
      <path id="Trazado_1048532" data-name="Trazado 1048532" d="M36.238,11.887a.848.848,0,0,0,0-1.2l-.677-.676h4.584V14.6l-.677-.677a.848.848,0,0,0-1.2,0l-7.035,7.036L29.2,18.921l7.034-7.034ZM32.2,24.313a.847.847,0,1,0,1.2-1.2l-.962-.963,6.437-6.435,1.522,1.524a.848.848,0,0,0,1.448-.6V9.165a.847.847,0,0,0-.847-.847H33.516a.847.847,0,0,0-.6,1.446l1.524,1.524-6.435,6.435-.963-.962a.847.847,0,1,0-1.2,1.2L32.2,24.313Zm19.9-.549a.847.847,0,0,1,1.468-.847l1.168,2.024,4.38-4.38a.847.847,0,0,1,1.2,1.2l-5.161,5.161a.845.845,0,0,1-.6.248.858.858,0,0,1-.11-.007.844.844,0,0,1-.623-.416L52.1,23.764ZM24.535,6.862V24.455A1.169,1.169,0,0,0,25.7,25.622H31.51a.848.848,0,0,1,.794.552l2.194,5.9,2.2-5.9a.848.848,0,0,1,.794-.552h5.807a1.168,1.168,0,0,0,1.168-1.167V6.862a1.168,1.168,0,0,0-1.168-1.167H25.7A1.169,1.169,0,0,0,24.535,6.862ZM25.7,27.316h5.218L33.7,34.8a.847.847,0,0,0,1.588,0l2.784-7.48h5.219a2.865,2.865,0,0,0,2.862-2.861V6.862A2.864,2.864,0,0,0,43.295,4H25.7a2.864,2.864,0,0,0-2.862,2.861V24.455A2.865,2.865,0,0,0,25.7,27.316ZM9.134,26.13l2.39-2.39-2.39-2.39a.847.847,0,0,1,1.2-1.2l2.39,2.39,2.39-2.39a.847.847,0,0,1,1.2,1.2l-2.389,2.39,2.389,2.39a.847.847,0,1,1-1.2,1.2l-2.39-2.39-2.39,2.39a.847.847,0,0,1-1.2-1.2Zm3.589-9.4A7.029,7.029,0,0,0,12,30.752a.852.852,0,0,1,.593.336l2.034,2.725v-2.67a.847.847,0,0,1,.552-.794,7.031,7.031,0,0,0-2.455-13.618ZM11.448,32.392l3.346,4.477a.846.846,0,0,0,1.525-.507V31.71a8.724,8.724,0,1,0-4.871.682ZM56.275,16.731A7.031,7.031,0,0,0,53.82,30.349a.847.847,0,0,1,.552.794v2.67l2.035-2.725A.847.847,0,0,1,57,30.752a7.029,7.029,0,0,0-.725-14.021Zm-3.6,14.979v4.652a.848.848,0,0,0,.58.8.857.857,0,0,0,.267.042.847.847,0,0,0,.679-.34l3.345-4.477a8.722,8.722,0,1,0-4.872-.682Zm-5.55,24.9a8.195,8.195,0,0,1,16.045,0ZM55.15,41.446A3.457,3.457,0,1,1,51.692,44.9,3.461,3.461,0,0,1,55.15,41.446Zm-9.74,21.859H23.588V60.284a10.886,10.886,0,0,1,8.836-9.733l-.841,8.4a.852.852,0,0,0,.149.57l2.08,2.977a.847.847,0,0,0,1.389,0l2.08-2.977a.845.845,0,0,0,.148-.57l-.84-8.4a10.887,10.887,0,0,1,8.821,9.731v3.022ZM29.722,43.849A4.776,4.776,0,1,1,34.5,48.625,4.781,4.781,0,0,1,29.722,43.849Zm5.99,14.963-.845-8.446c-.124,0-.246-.008-.37-.008s-.236,0-.353.007L33.3,58.812l1.206,1.725Zm-29.887-2.2a8.195,8.195,0,0,1,16.045,0H5.825Zm8.023-15.162A3.457,3.457,0,1,1,10.39,44.9,3.461,3.461,0,0,1,13.848,41.446ZM61.835,51a9.861,9.861,0,0,0-3.472-2.07,5.152,5.152,0,1,0-6.428,0,9.9,9.9,0,0,0-6.246,6.484A12.66,12.66,0,0,0,38.138,49.2a6.471,6.471,0,1,0-7.278,0,12.656,12.656,0,0,0-7.551,6.214,9.9,9.9,0,0,0-6.248-6.484,5.152,5.152,0,1,0-6.428,0A9.9,9.9,0,0,0,4,57.38a.845.845,0,0,0,.843.922H22.209a12.616,12.616,0,0,0-.312,1.867c0,.025,0,.051,0,.076v3.908A.847.847,0,0,0,22.74,65H46.256a.847.847,0,0,0,.847-.847V60.245c0-.026,0-.051,0-.076a12.684,12.684,0,0,0-.313-1.867H64.151a.845.845,0,0,0,.843-.922A9.85,9.85,0,0,0,61.835,51Z" transform="translate(0)" fill-rule="evenodd"/>
    </g>
  </g>
</svg>
