<svg xmlns="http://www.w3.org/2000/svg" xmlns:xlink="http://www.w3.org/1999/xlink" width="113" height="113" viewBox="0 0 113 113">
  <defs>
    <filter id="Trazado_982547" x="0" y="0" width="113" height="113" filterUnits="userSpaceOnUse">
      <feOffset dy="3" input="SourceAlpha"/>
      <feGaussianBlur stdDeviation="3" result="blur"/>
      <feFlood flood-opacity="0.161"/>
      <feComposite operator="in" in2="blur"/>
      <feComposite in="SourceGraphic"/>
    </filter>
  </defs>
  <g id="Grupo_1208467" data-name="Grupo 1208467" transform="translate(-1216 -1977.629)">
    <g id="Grupo_1208145" data-name="Grupo 1208145" transform="translate(0 -3923.371)">
      <g id="Grupo_1202435" data-name="Grupo 1202435" transform="translate(-0.56 1255.486)">
        <g id="Grupo_1202052" data-name="Grupo 1202052" transform="translate(1225.561 4651.514)">
          <g id="Grupo_1172010" data-name="Grupo 1172010" transform="translate(0)">
            <g id="Grupo_1171046" data-name="Grupo 1171046">
              <g id="Grupo_1148525" data-name="Grupo 1148525">
                <g transform="matrix(1, 0, 0, 1, -9, -6)" filter="url(#Trazado_982547)">
                  <g id="Trazado_982547-2" data-name="Trazado 982547" transform="translate(9 6)" fill="#e5fdfa">
                    <path d="M 47.5 93.5 C 41.28937149047852 93.5 35.26533508300781 92.28397369384766 29.59518623352051 89.88570404052734 C 24.11771965026855 87.56893157958984 19.19813346862793 84.25196075439453 14.97309303283691 80.02691650390625 C 10.74804019927979 75.80186462402344 7.431066513061523 70.88229370117188 5.114293098449707 65.40481567382812 C 2.716026782989502 59.73468017578125 1.5 53.71062850952148 1.5 47.5 C 1.5 41.28937149047852 2.716026782989502 35.26533508300781 5.114293098449707 29.59518623352051 C 7.431066513061523 24.11771965026855 10.74804019927979 19.19813346862793 14.97309303283691 14.97309303283691 C 19.19813346862793 10.74804019927979 24.11771965026855 7.431066513061523 29.59518623352051 5.114293098449707 C 35.26533508300781 2.716026782989502 41.28937149047852 1.5 47.5 1.5 C 53.71062850952148 1.5 59.73468017578125 2.716026782989502 65.40481567382812 5.114293098449707 C 70.88229370117188 7.431066513061523 75.80186462402344 10.74804019927979 80.02691650390625 14.97309303283691 C 84.25196075439453 19.19813346862793 87.56893157958984 24.11771965026855 89.88570404052734 29.59518623352051 C 92.28397369384766 35.26533508300781 93.5 41.28937149047852 93.5 47.5 C 93.5 53.71062850952148 92.28397369384766 59.73468017578125 89.88570404052734 65.40481567382812 C 87.56893157958984 70.88229370117188 84.25196075439453 75.80186462402344 80.02691650390625 80.02691650390625 C 75.80186462402344 84.25196075439453 70.88229370117188 87.56893157958984 65.40481567382812 89.88570404052734 C 59.73468017578125 92.28397369384766 53.71062850952148 93.5 47.5 93.5 Z" stroke="none"/>
                    <path d="M 47.5 3 C 41.49121475219727 3 35.66376876831055 4.176155090332031 30.17950439453125 6.495796203613281 C 24.88084411621094 8.736953735351562 20.12152099609375 11.94598388671875 16.03375244140625 16.03375244140625 C 11.94598388671875 20.12152099609375 8.736953735351562 24.88084411621094 6.495796203613281 30.17950439453125 C 4.176155090332031 35.66376876831055 3 41.49121475219727 3 47.5 C 3 53.50878524780273 4.176155090332031 59.33623123168945 6.495796203613281 64.82049560546875 C 8.736953735351562 70.11915588378906 11.94598388671875 74.87847900390625 16.03375244140625 78.96624755859375 C 20.12152099609375 83.05401611328125 24.88084411621094 86.26304626464844 30.17950439453125 88.50419616699219 C 35.66376876831055 90.82384490966797 41.49121475219727 92 47.5 92 C 53.50878524780273 92 59.33623123168945 90.82384490966797 64.82049560546875 88.50419616699219 C 70.11915588378906 86.26304626464844 74.87847900390625 83.05401611328125 78.96624755859375 78.96624755859375 C 83.05401611328125 74.87847900390625 86.26304626464844 70.11915588378906 88.50419616699219 64.82049560546875 C 90.82384490966797 59.33623123168945 92 53.50878524780273 92 47.5 C 92 41.49121475219727 90.82384490966797 35.66376876831055 88.50419616699219 30.17950439453125 C 86.26304626464844 24.88084411621094 83.05401611328125 20.12152099609375 78.96624755859375 16.03375244140625 C 74.87847900390625 11.94598388671875 70.11915588378906 8.736953735351562 64.82049560546875 6.495796203613281 C 59.33623123168945 4.176155090332031 53.50878524780273 3 47.5 3 M 47.5 0 C 73.7335205078125 0 95 21.2664794921875 95 47.5 C 95 73.7335205078125 73.7335205078125 95 47.5 95 C 21.2664794921875 95 0 73.7335205078125 0 47.5 C 0 21.2664794921875 21.2664794921875 0 47.5 0 Z" stroke="none" fill="#098576"/>
                  </g>
                </g>
              </g>
            </g>
          </g>
        </g>
      </g>
    </g>
    <g id="mission_18166252" transform="translate(1238.002 1994.924)">
      <path id="Trazado_1048533" data-name="Trazado 1048533" d="M6,26.9h4.333v7.583H19V26.9h4.333L14.666,14.98Z" transform="translate(0.333 1.081)" fill="#fcdc7a"/>
      <path id="Trazado_1048534" data-name="Trazado 1048534" d="M14,14.98v19.5h4.333V26.9h4.333Z" transform="translate(0.999 1.081)" fill="#f4cf67"/>
      <path id="Trazado_1048535" data-name="Trazado 1048535" d="M42,26.9h4.333v7.583H55V26.9h4.333L50.666,14.98Z" transform="translate(3.33 1.081)" fill="#fcdc7a"/>
      <path id="Trazado_1048536" data-name="Trazado 1048536" d="M50,14.98v19.5h4.333V26.9h4.333Z" transform="translate(3.996 1.081)" fill="#f4cf67"/>
      <path id="Trazado_1048537" data-name="Trazado 1048537" d="M43.665,19.23,32.833,2.97,22,19.23h4.333L24.167,48.477H41.5L39.332,19.23Z" transform="translate(1.665 0.081)" fill="#fcdc7a"/>
      <path id="Trazado_1048538" data-name="Trazado 1048538" d="M38.5,19.23h4.333L32,2.97V48.477h8.666Z" transform="translate(2.498 0.081)" fill="#f4cf67"/>
      <path id="Trazado_1048539" data-name="Trazado 1048539" d="M62.832,52.418v5.243l-.867.325A31.591,31.591,0,0,1,39,57.661v-5.3a4.425,4.425,0,0,1,3.185-4.528,43.463,43.463,0,0,1,16.52-.119l.888.162a4.413,4.413,0,0,1,3.228,4.539Z" transform="translate(3.08 3.745)" fill="#91adce"/>
      <path id="Trazado_1048540" data-name="Trazado 1048540" d="M58.687,47.878l-.888-.162a43.875,43.875,0,0,0-7.789-.726V59.978a31.784,31.784,0,0,0,11.049-1.993l.867-.325V52.417A4.424,4.424,0,0,0,58.7,47.878Z" transform="translate(3.997 3.746)" fill="#7299ba"/>
      <path id="Trazado_1048541" data-name="Trazado 1048541" d="M26.832,52.418v5.243l-.867.325A31.591,31.591,0,0,1,3,57.661v-5.3a4.425,4.425,0,0,1,3.185-4.528,43.463,43.463,0,0,1,16.52-.119l.888.162a4.413,4.413,0,0,1,3.228,4.539Z" transform="translate(0.083 3.745)" fill="#91adce"/>
      <path id="Trazado_1048542" data-name="Trazado 1048542" d="M22.687,47.878l-.888-.162a43.875,43.875,0,0,0-7.789-.726V59.978a31.784,31.784,0,0,0,11.049-1.993l.867-.325V52.417A4.424,4.424,0,0,0,22.7,47.878Z" transform="translate(1 3.746)" fill="#7299ba"/>
      <circle id="Elipse_12566" data-name="Elipse 12566" cx="5.416" cy="5.416" r="5.416" transform="translate(9.583 37.726)" fill="#e8b485"/>
      <path id="Trazado_1048543" data-name="Trazado 1048543" d="M14,34.98V45.813A5.416,5.416,0,1,0,14,34.98Z" transform="translate(0.999 2.746)" fill="#e0a26e"/>
      <path id="Trazado_1048544" data-name="Trazado 1048544" d="M44.832,54.418v5.243l-.867.325A31.591,31.591,0,0,1,21,59.661v-5.3a4.425,4.425,0,0,1,3.185-4.528,43.463,43.463,0,0,1,16.52-.119l.888.162a4.413,4.413,0,0,1,3.228,4.539Z" transform="translate(1.582 3.911)" fill="#91adce"/>
      <path id="Trazado_1048545" data-name="Trazado 1048545" d="M40.687,49.878l-.888-.162a43.875,43.875,0,0,0-7.789-.726V61.978a31.784,31.784,0,0,0,11.049-1.993l.867-.325V54.417A4.424,4.424,0,0,0,40.7,49.878Z" transform="translate(2.498 3.912)" fill="#7299ba"/>
      <circle id="Elipse_12567" data-name="Elipse 12567" cx="5.416" cy="5.416" r="5.416" transform="translate(29.081 39.892)" fill="#e8b485"/>
      <circle id="Elipse_12568" data-name="Elipse 12568" cx="5.416" cy="5.416" r="5.416" transform="translate(48.58 37.726)" fill="#e8b485"/>
      <path id="Trazado_1048546" data-name="Trazado 1048546" d="M50,34.98V45.813A5.416,5.416,0,0,0,50,34.98Z" transform="translate(3.996 2.746)" fill="#e0a26e"/>
      <path id="Trazado_1048547" data-name="Trazado 1048547" d="M32,36.98V47.813A5.416,5.416,0,0,0,32,36.98Z" transform="translate(2.498 2.912)" fill="#e0a26e"/>
      <path id="Trazado_1048548" data-name="Trazado 1048548" d="M14.5,33.98a6.5,6.5,0,1,0,6.5,6.5A6.5,6.5,0,0,0,14.5,33.98Zm0,10.833a4.333,4.333,0,1,1,4.333-4.333A4.332,4.332,0,0,1,14.5,44.813Z" transform="translate(0.5 2.662)"/>
      <path id="Trazado_1048549" data-name="Trazado 1048549" d="M32.5,35.98a6.5,6.5,0,1,0,6.5,6.5A6.5,6.5,0,0,0,32.5,35.98Zm0,10.833a4.333,4.333,0,1,1,4.333-4.333A4.332,4.332,0,0,1,32.5,46.813Z" transform="translate(1.998 2.829)"/>
      <path id="Trazado_1048550" data-name="Trazado 1048550" d="M50.5,33.98a6.5,6.5,0,1,0,6.5,6.5A6.5,6.5,0,0,0,50.5,33.98Zm0,10.833a4.333,4.333,0,1,1,4.333-4.333A4.332,4.332,0,0,1,50.5,44.813Z" transform="translate(3.497 2.662)"/>
      <path id="Trazado_1048551" data-name="Trazado 1048551" d="M62.89,46.9l-.91-.173a44.959,44.959,0,0,0-16.931.13,4.788,4.788,0,0,0-2.925,1.982,44.292,44.292,0,0,0-15.306-.032A4.712,4.712,0,0,0,23.893,46.9l-.91-.173a44.959,44.959,0,0,0-16.931.13A5.477,5.477,0,0,0,2,52.447v5.286a1.083,1.083,0,0,0,.682,1.007,32.82,32.82,0,0,0,12.295,2.4,32.341,32.341,0,0,0,6.673-.715,1.084,1.084,0,0,0,.531.477,32.526,32.526,0,0,0,23.745.336l.867-.325a1.087,1.087,0,0,0,.552-.477,32.289,32.289,0,0,0,18.08-1.365l.867-.325a1.091,1.091,0,0,0,.7-1.018V52.49c0-2.806-1.733-5.167-4.106-5.59ZM21.5,54.613v3.629A30.382,30.382,0,0,1,4.167,57v-4.55A3.382,3.382,0,0,1,6.485,48.98a42.8,42.8,0,0,1,16.1-.13l.921.173a2.2,2.2,0,0,1,.921.412A5.736,5.736,0,0,0,21.5,54.613ZM45.33,59.152l-.162.065a30.379,30.379,0,0,1-21.5-.043v-4.55a3.382,3.382,0,0,1,2.318-3.466,42.192,42.192,0,0,1,16.108-.119l.888.162a3.368,3.368,0,0,1,2.351,3.477v4.485Zm19.5-2.167-.162.054A30.487,30.487,0,0,1,47.5,58.253V54.667a5.705,5.705,0,0,0-2.99-5.21,2.384,2.384,0,0,1,.975-.466,42.8,42.8,0,0,1,16.1-.13l.91.173a3.35,3.35,0,0,1,2.34,3.466V57Z" transform="translate(0 3.662)"/>
      <path id="Trazado_1048552" data-name="Trazado 1048552" d="M44.7,19.82a1.112,1.112,0,0,0-.054-1.116L33.814,2.455a1.116,1.116,0,0,0-1.8,0L21.184,18.7a1.112,1.112,0,0,0-.054,1.116,1.066,1.066,0,0,0,.953.574h3.163l-2.08,28.089,2.156.162,2.167-29.259a1.076,1.076,0,0,0-1.072-1.159H24.109L32.915,5.011l8.807,13.216H39.415a1.091,1.091,0,0,0-.791.347,1.073,1.073,0,0,0-.282.812l2.167,29.259,2.156-.162-2.08-28.089h3.163a1.066,1.066,0,0,0,.953-.574Z" transform="translate(1.582)"/>
      <path id="Trazado_1048553" data-name="Trazado 1048553" d="M60.379,27.465a1.082,1.082,0,0,0-.087-1.127L51.627,14.422a1.122,1.122,0,0,0-1.755,0L41.206,26.338a1.088,1.088,0,0,0,.877,1.722h3.25v4.333H47.5V26.977a1.086,1.086,0,0,0-1.083-1.083h-2.21L50.749,16.9l6.543,8.991h-2.21A1.086,1.086,0,0,0,54,26.977V34.56h2.167v-6.5h3.25a1.07,1.07,0,0,0,.964-.6Z" transform="translate(3.247 0.999)"/>
      <path id="Trazado_1048554" data-name="Trazado 1048554" d="M24.379,27.465a1.082,1.082,0,0,0-.087-1.127L15.627,14.422a1.122,1.122,0,0,0-1.755,0L5.206,26.338a1.088,1.088,0,0,0,.877,1.722h3.25v6.5H11.5V26.977a1.086,1.086,0,0,0-1.083-1.083H8.206L14.749,16.9l6.543,8.991h-2.21A1.086,1.086,0,0,0,18,26.977v5.416h2.167V28.061h3.25A1.07,1.07,0,0,0,24.379,27.465Z" transform="translate(0.25 0.999)"/>
    </g>
  </g>
</svg>
