<svg xmlns="http://www.w3.org/2000/svg" xmlns:xlink="http://www.w3.org/1999/xlink" width="113" height="113" viewBox="0 0 113 113">
  <defs>
    <filter id="Trazado_982547" x="0" y="0" width="113" height="113" filterUnits="userSpaceOnUse">
      <feOffset dy="3" input="SourceAlpha"/>
      <feGaussianBlur stdDeviation="3" result="blur"/>
      <feFlood flood-opacity="0.161"/>
      <feComposite operator="in" in2="blur"/>
      <feComposite in="SourceGraphic"/>
    </filter>
  </defs>
  <g id="Grupo_1208554" data-name="Grupo 1208554" transform="translate(-586 -3818.192)">
    <g id="Grupo_1208153" data-name="Grupo 1208153" transform="translate(0 -2083.095)">
      <g id="Grupo_1202433" data-name="Grupo 1202433" transform="translate(-0.56 1255.773)">
        <g id="Grupo_1202054" data-name="Grupo 1202054" transform="translate(0 3240.511)">
          <g id="Grupo_1177897" data-name="Grupo 1177897" transform="translate(595.561 1411.003)">
            <g id="Grupo_1172010" data-name="Grupo 1172010" transform="translate(0)">
              <g id="Grupo_1171046" data-name="Grupo 1171046">
                <g id="Grupo_1148525" data-name="Grupo 1148525">
                  <g transform="matrix(1, 0, 0, 1, -9, -6)" filter="url(#Trazado_982547)">
                    <g id="Trazado_982547-2" data-name="Trazado 982547" transform="translate(9 6)" fill="#e5fdfa">
                      <path d="M 47.5 93.5 C 41.28937149047852 93.5 35.26533508300781 92.28397369384766 29.59518623352051 89.88570404052734 C 24.11771965026855 87.56893157958984 19.19813346862793 84.25196075439453 14.97309303283691 80.02691650390625 C 10.74804019927979 75.80186462402344 7.431066513061523 70.88229370117188 5.114293098449707 65.40481567382812 C 2.716026782989502 59.73468017578125 1.5 53.71062850952148 1.5 47.5 C 1.5 41.28937149047852 2.716026782989502 35.26533508300781 5.114293098449707 29.59518623352051 C 7.431066513061523 24.11771965026855 10.74804019927979 19.19813346862793 14.97309303283691 14.97309303283691 C 19.19813346862793 10.74804019927979 24.11771965026855 7.431066513061523 29.59518623352051 5.114293098449707 C 35.26533508300781 2.716026782989502 41.28937149047852 1.5 47.5 1.5 C 53.71062850952148 1.5 59.73468017578125 2.716026782989502 65.40481567382812 5.114293098449707 C 70.88229370117188 7.431066513061523 75.80186462402344 10.74804019927979 80.02691650390625 14.97309303283691 C 84.25196075439453 19.19813346862793 87.56893157958984 24.11771965026855 89.88570404052734 29.59518623352051 C 92.28397369384766 35.26533508300781 93.5 41.28937149047852 93.5 47.5 C 93.5 53.71062850952148 92.28397369384766 59.73468017578125 89.88570404052734 65.40481567382812 C 87.56893157958984 70.88229370117188 84.25196075439453 75.80186462402344 80.02691650390625 80.02691650390625 C 75.80186462402344 84.25196075439453 70.88229370117188 87.56893157958984 65.40481567382812 89.88570404052734 C 59.73468017578125 92.28397369384766 53.71062850952148 93.5 47.5 93.5 Z" stroke="none"/>
                      <path d="M 47.5 3 C 41.49121475219727 3 35.66376876831055 4.176155090332031 30.17950439453125 6.495796203613281 C 24.88084411621094 8.736953735351562 20.12152099609375 11.94598388671875 16.03375244140625 16.03375244140625 C 11.94598388671875 20.12152099609375 8.736953735351562 24.88084411621094 6.495796203613281 30.17950439453125 C 4.176155090332031 35.66376876831055 3 41.49121475219727 3 47.5 C 3 53.50878524780273 4.176155090332031 59.33623123168945 6.495796203613281 64.82049560546875 C 8.736953735351562 70.11915588378906 11.94598388671875 74.87847900390625 16.03375244140625 78.96624755859375 C 20.12152099609375 83.05401611328125 24.88084411621094 86.26304626464844 30.17950439453125 88.50419616699219 C 35.66376876831055 90.82384490966797 41.49121475219727 92 47.5 92 C 53.50878524780273 92 59.33623123168945 90.82384490966797 64.82049560546875 88.50419616699219 C 70.11915588378906 86.26304626464844 74.87847900390625 83.05401611328125 78.96624755859375 78.96624755859375 C 83.05401611328125 74.87847900390625 86.26304626464844 70.11915588378906 88.50419616699219 64.82049560546875 C 90.82384490966797 59.33623123168945 92 53.50878524780273 92 47.5 C 92 41.49121475219727 90.82384490966797 35.66376876831055 88.50419616699219 30.17950439453125 C 86.26304626464844 24.88084411621094 83.05401611328125 20.12152099609375 78.96624755859375 16.03375244140625 C 74.87847900390625 11.94598388671875 70.11915588378906 8.736953735351562 64.82049560546875 6.495796203613281 C 59.33623123168945 4.176155090332031 53.50878524780273 3 47.5 3 M 47.5 0 C 73.7335205078125 0 95 21.2664794921875 95 47.5 C 95 73.7335205078125 73.7335205078125 95 47.5 95 C 21.2664794921875 95 0 73.7335205078125 0 47.5 C 0 21.2664794921875 21.2664794921875 0 47.5 0 Z" stroke="none" fill="#098576"/>
                    </g>
                  </g>
                </g>
              </g>
            </g>
          </g>
        </g>
      </g>
    </g>
    <g id="Artboard71" transform="translate(599 3801.752)">
      <g id="Grupo_1208553" data-name="Grupo 1208553" transform="translate(7 43.351)">
        <g id="Grupo_1208552" data-name="Grupo 1208552" transform="translate(1.081 1.074)">
          <g id="Grupo_1208544" data-name="Grupo 1208544" transform="translate(20.783)">
            <g id="Grupo_1208541" data-name="Grupo 1208541" transform="translate(2.755 1.584)">
              <path id="Trazado_1049016" data-name="Trazado 1049016" d="M189.247,63.03h36.468V90.836H189.247Z" transform="translate(-189.247 -63.03)" fill="#eceff1" fill-rule="evenodd"/>
              <path id="Trazado_1049017" data-name="Trazado 1049017" d="M224.364,90.836V66H189.247V63.03h36.468V90.836Z" transform="translate(-189.247 -63.03)" fill="#d1d1d6" fill-rule="evenodd"/>
            </g>
            <g id="Grupo_1208542" data-name="Grupo 1208542">
              <path id="Trazado_1049018" data-name="Trazado 1049018" d="M170.431,51.3H209.24a1.584,1.584,0,1,1,0,3.168H170.431a1.584,1.584,0,0,1,0-3.168Z" transform="translate(-168.855 -51.304)" fill="#ecba78" fill-rule="evenodd"/>
              <path id="Trazado_1049019" data-name="Trazado 1049019" d="M457.828,51.3h1.351a1.584,1.584,0,1,1,0,3.168h-1.351a1.584,1.584,0,1,0,0-3.168Z" transform="translate(-418.793 -51.304)" fill="#e3a76f" fill-rule="evenodd"/>
            </g>
            <g id="Grupo_1208543" data-name="Grupo 1208543" transform="translate(0 27.806)">
              <path id="Trazado_1049020" data-name="Trazado 1049020" d="M170.431,257.153H209.24a1.584,1.584,0,1,1,0,3.168H170.431a1.584,1.584,0,0,1,0-3.168Z" transform="translate(-168.855 -257.153)" fill="#ecba78" fill-rule="evenodd"/>
              <path id="Trazado_1049021" data-name="Trazado 1049021" d="M457.828,257.153h1.351a1.584,1.584,0,1,1,0,3.168h-1.351a1.584,1.584,0,1,0,0-3.168Z" transform="translate(-418.793 -257.153)" fill="#e3a76f" fill-rule="evenodd"/>
            </g>
          </g>
          <g id="Grupo_1208545" data-name="Grupo 1208545" transform="translate(28.012 11.469)">
            <path id="Trazado_1049022" data-name="Trazado 1049022" d="M239.029,137.879a3.346,3.346,0,0,0-5.8,0l-10.408,18.029a3.345,3.345,0,0,0,2.9,5.018h20.818a3.345,3.345,0,0,0,2.9-5.018Z" transform="translate(-222.373 -136.206)" fill="#ffe177" fill-rule="evenodd"/>
            <path id="Trazado_1049023" data-name="Trazado 1049023" d="M322.623,137.879a3.315,3.315,0,0,0-2.9-1.673,3.379,3.379,0,0,0-.7.073,3.308,3.308,0,0,1,2.193,1.6l10.41,18.029a3.345,3.345,0,0,1-2.9,5.018h1.408a3.345,3.345,0,0,0,2.9-5.018Z" transform="translate(-305.967 -136.206)" fill="#ffd064" fill-rule="evenodd"/>
            <path id="Trazado_1049024" data-name="Trazado 1049024" d="M314.178,194.131a1.594,1.594,0,1,1-1.594,1.594A1.594,1.594,0,0,1,314.178,194.131Zm-.021-1.375a1.244,1.244,0,0,1-1.243-1.2l-.315-7.447a1.243,1.243,0,0,1,1.243-1.29h.629a1.243,1.243,0,0,1,1.243,1.29l-.314,7.447A1.246,1.246,0,0,1,314.158,192.756Z" transform="translate(-300.398 -176.523)" fill="#fe646f" fill-rule="evenodd"/>
          </g>
          <g id="Grupo_1208546" data-name="Grupo 1208546" transform="translate(49.496 39.797)">
            <path id="Trazado_1049025" data-name="Trazado 1049025" d="M382.5,414.828H395.11a1.079,1.079,0,0,0,1.034-1.391,7.666,7.666,0,0,0-14.677,0,1.079,1.079,0,0,0,1.034,1.391Z" transform="translate(-381.418 -399.604)" fill="#8ac9fe" fill-rule="evenodd"/>
            <path id="Trazado_1049026" data-name="Trazado 1049026" d="M435.5,414.828a1.079,1.079,0,0,0,1.034-1.391,7.667,7.667,0,0,0-7.338-5.448,7.744,7.744,0,0,0-1.08.076,7.673,7.673,0,0,1,6.258,5.373,1.078,1.078,0,0,1-1.033,1.391Z" transform="translate(-421.807 -399.604)" fill="#60b7ff" fill-rule="evenodd"/>
            <path id="Trazado_1049027" data-name="Trazado 1049027" d="M411.3,353.669a3.875,3.875,0,1,0-3.875-3.875A3.882,3.882,0,0,0,411.3,353.669Z" transform="translate(-403.909 -345.919)" fill="#f6dccd" fill-rule="evenodd"/>
            <path id="Trazado_1049028" data-name="Trazado 1049028" d="M432.648,345.919a3.875,3.875,0,0,1,0,7.75,3.968,3.968,0,0,1-.54-.037,3.875,3.875,0,0,0,0-7.675A3.977,3.977,0,0,1,432.648,345.919Z" transform="translate(-425.261 -345.919)" fill="#f1cbbc" fill-rule="evenodd"/>
          </g>
          <g id="Grupo_1208547" data-name="Grupo 1208547" transform="translate(21.189 39.797)">
            <path id="Trazado_1049029" data-name="Trazado 1049029" d="M172.948,414.828h12.609a1.079,1.079,0,0,0,1.034-1.391,7.666,7.666,0,0,0-14.677,0,1.079,1.079,0,0,0,1.034,1.391Z" transform="translate(-171.865 -399.604)" fill="#8ac9fe" fill-rule="evenodd"/>
            <path id="Trazado_1049030" data-name="Trazado 1049030" d="M225.946,414.828a1.079,1.079,0,0,0,1.034-1.391,7.667,7.667,0,0,0-7.338-5.448,7.746,7.746,0,0,0-1.08.076,7.673,7.673,0,0,1,6.258,5.373,1.078,1.078,0,0,1-1.033,1.391Z" transform="translate(-212.254 -399.604)" fill="#60b7ff" fill-rule="evenodd"/>
            <path id="Trazado_1049031" data-name="Trazado 1049031" d="M201.744,353.669a3.875,3.875,0,1,0-3.875-3.875A3.882,3.882,0,0,0,201.744,353.669Z" transform="translate(-194.356 -345.919)" fill="#f6dccd" fill-rule="evenodd"/>
            <path id="Trazado_1049032" data-name="Trazado 1049032" d="M223.1,345.919a3.875,3.875,0,0,1,0,7.75,3.968,3.968,0,0,1-.54-.037,3.875,3.875,0,0,0,0-7.675A3.978,3.978,0,0,1,223.1,345.919Z" transform="translate(-215.708 -345.919)" fill="#f1cbbc" fill-rule="evenodd"/>
          </g>
          <g id="Grupo_1208548" data-name="Grupo 1208548" transform="translate(35.343 39.797)">
            <path id="Trazado_1049033" data-name="Trazado 1049033" d="M277.724,414.828h12.609a1.079,1.079,0,0,0,1.034-1.391,7.666,7.666,0,0,0-14.677,0,1.079,1.079,0,0,0,1.034,1.391Z" transform="translate(-276.641 -399.604)" fill="#8ac9fe" fill-rule="evenodd"/>
            <path id="Trazado_1049034" data-name="Trazado 1049034" d="M330.722,414.828a1.079,1.079,0,0,0,1.034-1.391,7.667,7.667,0,0,0-7.338-5.448,7.747,7.747,0,0,0-1.08.076,7.673,7.673,0,0,1,6.258,5.373,1.078,1.078,0,0,1-1.033,1.391Z" transform="translate(-317.03 -399.604)" fill="#60b7ff" fill-rule="evenodd"/>
            <path id="Trazado_1049035" data-name="Trazado 1049035" d="M306.521,353.669a3.875,3.875,0,1,0-3.875-3.875A3.882,3.882,0,0,0,306.521,353.669Z" transform="translate(-299.133 -345.919)" fill="#f6dccd" fill-rule="evenodd"/>
            <path id="Trazado_1049036" data-name="Trazado 1049036" d="M327.871,345.919a3.875,3.875,0,0,1,0,7.75,3.97,3.97,0,0,1-.54-.037,3.875,3.875,0,0,0,0-7.675A3.98,3.98,0,0,1,327.871,345.919Z" transform="translate(-320.484 -345.919)" fill="#f1cbbc" fill-rule="evenodd"/>
          </g>
          <g id="Grupo_1208549" data-name="Grupo 1208549" transform="translate(49.496 39.797)">
            <path id="Trazado_1049037" data-name="Trazado 1049037" d="M382.5,414.828H395.11a1.079,1.079,0,0,0,1.034-1.391,7.666,7.666,0,0,0-14.677,0,1.079,1.079,0,0,0,1.034,1.391Z" transform="translate(-381.418 -399.604)" fill="#8ac9fe" fill-rule="evenodd"/>
            <path id="Trazado_1049038" data-name="Trazado 1049038" d="M435.5,414.828a1.079,1.079,0,0,0,1.034-1.391,7.667,7.667,0,0,0-7.338-5.448,7.744,7.744,0,0,0-1.08.076,7.673,7.673,0,0,1,6.258,5.373,1.078,1.078,0,0,1-1.033,1.391Z" transform="translate(-421.807 -399.604)" fill="#60b7ff" fill-rule="evenodd"/>
            <path id="Trazado_1049039" data-name="Trazado 1049039" d="M411.3,353.669a3.875,3.875,0,1,0-3.875-3.875A3.882,3.882,0,0,0,411.3,353.669Z" transform="translate(-403.909 -345.919)" fill="#f6dccd" fill-rule="evenodd"/>
            <path id="Trazado_1049040" data-name="Trazado 1049040" d="M432.648,345.919a3.875,3.875,0,0,1,0,7.75,3.968,3.968,0,0,1-.54-.037,3.875,3.875,0,0,0,0-7.675A3.977,3.977,0,0,1,432.648,345.919Z" transform="translate(-425.261 -345.919)" fill="#f1cbbc" fill-rule="evenodd"/>
          </g>
          <g id="Grupo_1208550" data-name="Grupo 1208550" transform="translate(1.53 6.153)">
            <path id="Trazado_1049041" data-name="Trazado 1049041" d="M27.541,174.266H41.7a1.212,1.212,0,0,0,1.161-1.562,8.612,8.612,0,0,0-16.487,0,1.212,1.212,0,0,0,1.161,1.562Z" transform="translate(-26.325 -157.164)" fill="#ffe177" fill-rule="evenodd"/>
            <path id="Trazado_1049042" data-name="Trazado 1049042" d="M87.075,174.266a1.212,1.212,0,0,0,1.161-1.562,8.612,8.612,0,0,0-8.243-6.12,8.733,8.733,0,0,0-1.213.085,8.62,8.62,0,0,1,7.03,6.035,1.211,1.211,0,0,1-1.16,1.562Z" transform="translate(-71.694 -157.164)" fill="#ffd064" fill-rule="evenodd"/>
            <path id="Trazado_1049043" data-name="Trazado 1049043" d="M59.889,105.563a4.353,4.353,0,1,0-4.353-4.353A4.361,4.361,0,0,0,59.889,105.563Z" transform="translate(-51.59 -96.857)" fill="#f6dccd" fill-rule="evenodd"/>
            <path id="Trazado_1049044" data-name="Trazado 1049044" d="M83.873,96.857a4.353,4.353,0,1,1,0,8.706,4.449,4.449,0,0,1-.607-.041,4.353,4.353,0,0,0,0-8.622,4.448,4.448,0,0,1,.607-.042Z" transform="translate(-75.574 -96.857)" fill="#f1cbbc" fill-rule="evenodd"/>
          </g>
          <g id="Grupo_1208551" data-name="Grupo 1208551" transform="translate(0 22.055)">
            <path id="Trazado_1049045" data-name="Trazado 1049045" d="M15,216.665v-1.415a.675.675,0,0,1,.675-.675H33.981a.675.675,0,0,1,.675.675v1.415a.675.675,0,0,1-.675.675H15.675A.675.675,0,0,1,15,216.665Z" transform="translate(-15 -214.574)" fill="#ecba78" fill-rule="evenodd"/>
            <path id="Trazado_1049046" data-name="Trazado 1049046" d="M34.656,224.812v.708a.675.675,0,0,1-.675.675H15.675A.675.675,0,0,1,15,225.52v-.708Z" transform="translate(-15 -223.429)" fill="#e3a76f" fill-rule="evenodd"/>
          </g>
        </g>
        <path id="Trazado_1049047" data-name="Trazado 1049047" d="M73.994,99.332s.006.078.006.117a1.081,1.081,0,0,1-1.081,1.081H28.7a1.08,1.08,0,0,1-1.074-1.2,9.111,9.111,0,0,1,5.481-7.373,5.126,5.126,0,1,1,7.11,0,9.106,9.106,0,0,1,3.517,2.66,9.129,9.129,0,0,1,3.518-2.661,5.126,5.126,0,1,1,7.11,0,9.128,9.128,0,0,1,3.521,2.66,9.1,9.1,0,0,1,3.517-2.66,5.125,5.125,0,1,1,7.11,0,9.111,9.111,0,0,1,5.481,7.37ZM36.657,93.4a6.934,6.934,0,0,0-6.641,4.97H41.931a9.023,9.023,0,0,1,.58-1.755A6.92,6.92,0,0,0,36.657,93.4Zm7.5,4.97H56.089a8.971,8.971,0,0,1,.574-1.752,6.932,6.932,0,0,0-12.5,1.752Zm14.156,0H71.605a6.926,6.926,0,0,0-13.288,0Zm-21.66-7.131A2.964,2.964,0,1,0,33.7,88.265,2.974,2.974,0,0,0,36.657,91.238Zm14.145,0a2.964,2.964,0,1,0-2.956-2.973A2.974,2.974,0,0,0,50.8,91.238Zm14.162,0a2.964,2.964,0,1,0-2.973-2.973A2.97,2.97,0,0,0,64.964,91.238ZM27.437,65.406h.3a1.081,1.081,0,0,1,1.081,1.081v2.766a1.081,1.081,0,0,1-1.081,1.081H8.081A1.081,1.081,0,0,1,7,69.252V66.486a1.081,1.081,0,0,1,1.081-1.081h.3a10.087,10.087,0,0,1,5.776-6.093,5.624,5.624,0,1,1,7.5,0,10.086,10.086,0,0,1,5.776,6.093Zm-16.735,0H25.116a7.908,7.908,0,0,0-14.415,0Zm7.207-6.815a3.463,3.463,0,1,0-3.463-3.463A3.468,3.468,0,0,0,17.909,58.591ZM9.161,68.172H26.656v-.6H9.161ZM30.537,48.68h-.1a2.665,2.665,0,0,1,0-5.329H69.249a2.665,2.665,0,1,1,0,5.329h-.082V71.157h.082a2.665,2.665,0,1,1,0,5.329h-4.83a3.521,3.521,0,0,1-.079,3.429v0A3.527,3.527,0,0,1,61.245,81.7H38.456a3.525,3.525,0,0,1-3.093-1.787h0a3.521,3.521,0,0,1-.078-3.427H30.44a2.665,2.665,0,0,1,0-5.329h.1Zm36.468,0H32.7V71.157h5.658l2-3.471h-3.39a1.081,1.081,0,0,1,0-2.161h4.638l1.326-2.3H36.971a1.081,1.081,0,1,1,0-2.161h7.211l1.326-2.3H36.971a1.081,1.081,0,1,1,0-2.161h9.785v0a3.57,3.57,0,0,1,6.186,0l0,0h9.787a1.081,1.081,0,0,1,0,2.161H54.193l1.326,2.3h7.213a1.081,1.081,0,1,1,0,2.161H56.767l1.326,2.3h4.639a1.081,1.081,0,1,1,0,2.161H59.342l2,3.471h5.659Zm-3.83,25.645h6.073a.514.514,0,0,0,.511-.511.5.5,0,0,0-.511-.5H62.594Zm-26.647,0,.581-1.006H30.44a.5.5,0,0,0-.5.5.5.5,0,0,0,.5.511ZM51.071,57.685a1.409,1.409,0,0,0-2.441,0L37.236,77.422a1.411,1.411,0,0,0,1.22,2.118H61.245a1.411,1.411,0,0,0,1.223-2.118l-11.4-19.736Zm-.015,15.171a2.5,2.5,0,1,1-2.411,0A2.188,2.188,0,0,1,47.66,71.1l-.283-7.788v0a2.135,2.135,0,0,1,.613-1.6l0,0a2.119,2.119,0,0,1,1.578-.669h.561a2.194,2.194,0,0,1,2.193,2.273L52.044,71.1a2.19,2.19,0,0,1-.987,1.754Zm-1.206-1.8a.032.032,0,0,0,.033-.031l.281-7.786h0a.029.029,0,0,0-.01-.023l0,0a.027.027,0,0,0-.021-.007H49.57a.033.033,0,0,0-.024.01.043.043,0,0,0-.009.029l.283,7.78h0A.031.031,0,0,0,49.851,71.055Zm0,4.339a.344.344,0,1,0-.344-.344A.344.344,0,0,0,49.851,75.395ZM30.44,45.512a.5.5,0,0,0-.5.511.5.5,0,0,0,.5.5H69.249a.5.5,0,0,0,.511-.5.514.514,0,0,0-.511-.511Zm6.532,8.8a1.081,1.081,0,0,1,0-2.161H62.732a1.081,1.081,0,0,1,0,2.161Z" transform="translate(-7 -43.351)" fill-rule="evenodd"/>
      </g>
    </g>
  </g>
</svg>
