<svg xmlns="http://www.w3.org/2000/svg" xmlns:xlink="http://www.w3.org/1999/xlink" width="108" height="108" viewBox="0 0 108 108">
  <defs>
    <filter id="Trazado_904820" x="0" y="0" width="108" height="108" filterUnits="userSpaceOnUse">
      <feOffset dy="3" input="SourceAlpha"/>
      <feGaussianBlur stdDeviation="3" result="blur"/>
      <feFlood flood-opacity="0.161"/>
      <feComposite operator="in" in2="blur"/>
      <feComposite in="SourceGraphic"/>
    </filter>
    <clipPath id="clip-path">
      <path id="path1941" d="M0-682.665H65.539v65.539H0Z" transform="translate(0 682.665)"/>
    </clipPath>
  </defs>
  <g id="Grupo_1208158" data-name="Grupo 1208158" transform="translate(9 6)">
    <g id="Grupo_1173585" data-name="Grupo 1173585" transform="translate(0 0)">
      <g id="Grupo_1173428" data-name="Grupo 1173428">
        <g id="Grupo_1171958" data-name="Grupo 1171958">
          <g id="Grupo_1167341" data-name="Grupo 1167341">
            <g id="Grupo_1166792" data-name="Grupo 1166792">
              <g transform="matrix(1, 0, 0, 1, -9, -6)" filter="url(#Trazado_904820)">
                <g id="Trazado_904820-2" data-name="Trazado 904820" transform="translate(9 6)" fill="#f6ecfe">
                  <path d="M 44.99999618530273 88.50003051757812 C 39.12687301635742 88.50003051757812 33.43022155761719 87.35010528564453 28.06829643249512 85.08219146728516 C 22.88852119445801 82.89134216308594 18.23629570007324 79.75461578369141 14.24084663391113 75.75916290283203 C 10.24540901184082 71.76371765136719 7.108683586120605 67.11148834228516 4.917821407318115 61.93171691894531 C 2.649921178817749 56.56978988647461 1.499996185302734 50.87313842773438 1.499996185302734 45.00001525878906 C 1.499996185302734 39.12689208984375 2.649921178817749 33.43024063110352 4.917821407318115 28.06830215454102 C 7.108683586120605 22.88852691650391 10.24540901184082 18.23631477355957 14.24084663391113 14.24086570739746 C 18.23629570007324 10.24541568756104 22.88852119445801 7.10869026184082 28.06829643249512 4.917827606201172 C 33.43022155761719 2.649927854537964 39.12687301635742 1.50000274181366 44.99999618530273 1.50000274181366 C 50.87311935424805 1.50000274181366 56.56977081298828 2.649927854537964 61.93169784545898 4.917827606201172 C 67.11147308349609 7.10869026184082 71.76369476318359 10.24541568756104 75.75914764404297 14.24086570739746 C 79.75458526611328 18.23631477355957 82.89131164550781 22.88852691650391 85.08216857910156 28.06830215454102 C 87.35007476806641 33.43024063110352 88.5 39.12689208984375 88.5 45.00001525878906 C 88.5 50.87313842773438 87.35007476806641 56.56978988647461 85.08216857910156 61.93171691894531 C 82.89131164550781 67.11148834228516 79.75458526611328 71.76371765136719 75.75914764404297 75.75916290283203 C 71.76369476318359 79.75461578369141 67.11147308349609 82.89134216308594 61.93169784545898 85.08219146728516 C 56.56977081298828 87.35010528564453 50.87311935424805 88.50003051757812 44.99999618530273 88.50003051757812 Z" stroke="none"/>
                  <path d="M 44.99999618530273 3 C 39.32870864868164 3 33.82865142822266 4.110061645507812 28.65262603759766 6.299346923828125 C 23.65165710449219 8.414573669433594 19.15968322753906 11.44334411621094 15.301513671875 15.301513671875 C 11.44333648681641 19.15968322753906 8.414566040039062 23.65165710449219 6.299339294433594 28.65262985229492 C 4.110054016113281 33.82867050170898 2.999992370605469 39.32872772216797 2.999992370605469 45.00001525878906 C 2.999992370605469 50.67130279541016 4.110054016113281 56.17136001586914 6.299339294433594 61.34738922119141 C 8.414566040039062 66.34837341308594 11.44333648681641 70.84033203125 15.301513671875 74.69850158691406 C 19.15968322753906 78.55668640136719 23.65165710449219 81.58545684814453 28.65262603759766 83.70068359375 C 33.82865142822266 85.88996887207031 39.32870864868164 87.00003051757812 44.99999618530273 87.00003051757812 C 50.67128372192383 87.00003051757812 56.17134094238281 85.88996887207031 61.34736633300781 83.70068359375 C 66.34834289550781 81.58545684814453 70.84030914306641 78.55668640136719 74.69847869873047 74.69850158691406 C 78.55665588378906 70.84033203125 81.58542633056641 66.34837341308594 83.70065307617188 61.34738922119141 C 85.88993835449219 56.17136001586914 87 50.67130279541016 87 45.00001525878906 C 87 39.32872772216797 85.88993835449219 33.82867050170898 83.70065307617188 28.65262985229492 C 81.58542633056641 23.65165710449219 78.55665588378906 19.15968322753906 74.69847869873047 15.301513671875 C 70.84030914306641 11.44334411621094 66.34834289550781 8.414573669433594 61.34736633300781 6.299346923828125 C 56.17134094238281 4.110061645507812 50.67128372192383 3 44.99999618530273 3 M 44.99999618530273 0 C 69.85281372070312 0 90 20.14718627929688 90 45.00001525878906 C 90 69.85282897949219 69.85281372070312 90.00003051757812 44.99999618530273 90.00003051757812 C 20.14717864990234 90.00003051757812 -7.62939453125e-06 69.85282897949219 -7.62939453125e-06 45.00001525878906 C -7.62939453125e-06 20.14718627929688 20.14717864990234 0 44.99999618530273 0 Z" stroke="none" fill="#5c2c88"/>
                </g>
              </g>
            </g>
          </g>
        </g>
      </g>
    </g>
    <g id="g1935" transform="translate(15.415 696.748)">
      <g id="g1937" transform="translate(0 -682.665)">
        <g id="g1939" clip-path="url(#clip-path)">
          <g id="g1945" transform="translate(3.523 0.96)">
            <path id="path1947" d="M-422.858-488.619v-46.635a5.257,5.257,0,0,0-5.257-5.257h-34.394a5.257,5.257,0,0,0-5.257,5.257v46.635a5.257,5.257,0,0,0,5.257,5.257h34.394a5.257,5.257,0,0,0,5.257-5.257" transform="translate(467.766 540.511)" fill="#fff1cf"/>
          </g>
          <g id="g1949" transform="translate(31.22 38.82)">
            <path id="path1951" d="M-112.56-181.617a5.257,5.257,0,0,0,5.257-5.257V-200.9l-14.454,14.454a10.521,10.521,0,0,0-2.652,4.477l-.1.356Z" transform="translate(124.514 200.905)" fill="#ffe1bd"/>
          </g>
          <g id="g1953" transform="translate(34.117 36.68)">
            <path id="path1955" d="M-253.614-65.707l-18.345,18.345A6.653,6.653,0,0,1-274.8-45.68l-2.726.8a2.36,2.36,0,0,1-2.926-2.926l.8-2.726a6.652,6.652,0,0,1,1.681-2.839l18.345-18.345a3.3,3.3,0,0,1,4.66,0l1.353,1.353a3.3,3.3,0,0,1,0,4.66" transform="translate(280.547 72.685)" fill="#b3afe5"/>
          </g>
          <g id="g1957" transform="translate(34.116 48.256)">
            <path id="path1959" d="M-97.078,0l-7.734,7.734a6.651,6.651,0,0,0-1.682,2.839l-.8,2.726a2.359,2.359,0,0,0,2.926,2.926l2.726-.8A6.653,6.653,0,0,0-98.8,13.747l4.1-4.1C-97.254,7.317-97.628,3.263-97.078,0" transform="translate(107.388)" fill="#a39ddf"/>
          </g>
          <g id="g1961" transform="translate(34.116 57.541)">
            <path id="path1963" d="M-66.268-52.849l-5.613-5.613a6.653,6.653,0,0,0-.531,1.288l-.8,2.726a2.36,2.36,0,0,0,2.926,2.927l2.726-.8a6.651,6.651,0,0,0,1.288-.531" transform="translate(73.305 58.461)" fill="#546370"/>
          </g>
          <g id="g1965" transform="translate(52.021 36.68)">
            <path id="path1967" d="M-56.62-94.11l3.016-3.016a3.3,3.3,0,0,0,0-4.66l-1.353-1.353a3.3,3.3,0,0,0-4.66,0l-3.016,3.016Z" transform="translate(62.633 104.105)" fill="#ff899f"/>
          </g>
          <g id="g1969" transform="translate(48.359 40.661)">
            <path id="path1971" d="M-91.1-56.619l-3.661,3.661-6.013-6.013,3.661-3.661Z" transform="translate(100.77 62.632)" fill="#546370"/>
          </g>
          <g id="g1973" transform="translate(13.679 5.415)">
            <path id="path1975" d="M-207.612-68.878h-19.5a2.548,2.548,0,0,1-2.548-2.548v-2.218a2.548,2.548,0,0,1,2.548-2.548h19.5a2.548,2.548,0,0,1,2.548,2.548v2.218a2.548,2.548,0,0,1-2.548,2.548" transform="translate(229.661 76.193)" fill="#82defe"/>
          </g>
          <g id="g1977" transform="translate(34.117 36.68)">
            <path id="path1979" d="M-253.614-65.707l-18.345,18.345A6.653,6.653,0,0,1-274.8-45.68l-2.726.8a2.36,2.36,0,0,1-2.926-2.926l.8-2.726a6.652,6.652,0,0,1,1.681-2.839l18.345-18.345a3.3,3.3,0,0,1,4.66,0l1.353,1.353A3.3,3.3,0,0,1-253.614-65.707Z" transform="translate(280.547 72.685)" fill="none" stroke="#000" stroke-linecap="round" stroke-linejoin="round" stroke-miterlimit="10" stroke-width="1"/>
          </g>
          <g id="g1981" transform="translate(11.696 58.108)">
            <path id="path1983" d="M0,0H23.572" fill="none" stroke="#000" stroke-linecap="round" stroke-linejoin="round" stroke-miterlimit="10" stroke-width="1"/>
          </g>
          <g id="g1985" transform="translate(3.524 0.96)">
            <path id="path1987" d="M-421.271-37.014a5.259,5.259,0,0,0-5.088-3.931h-34.394a5.257,5.257,0,0,0-5.257,5.257V10.946a5.259,5.259,0,0,0,3.686,5.018" transform="translate(466.01 40.945)" fill="none" stroke="#000" stroke-linecap="round" stroke-linejoin="round" stroke-miterlimit="10" stroke-width="1"/>
          </g>
          <g id="g1989" transform="translate(48.431 9.429)">
            <path id="path1991" d="M0-327.9v-34.822" transform="translate(0 362.718)" fill="none" stroke="#000" stroke-linecap="round" stroke-linejoin="round" stroke-miterlimit="10" stroke-width="1"/>
          </g>
          <g id="g1993" transform="translate(44.313 51.38)">
            <path id="path1995" d="M0-28.266l3-3" transform="translate(0 31.268)" fill="none" stroke="#000" stroke-linecap="round" stroke-linejoin="round" stroke-miterlimit="10" stroke-width="1"/>
          </g>
          <g id="g1997" transform="translate(10.961 42.517)">
            <path id="path1999" d="M-61.138-30.568a3.246,3.246,0,0,1-3.246,3.246,3.246,3.246,0,0,1-3.246-3.246,3.246,3.246,0,0,1,3.246-3.246A3.246,3.246,0,0,1-61.138-30.568Z" transform="translate(67.631 33.815)" fill="none" stroke="#000" stroke-linecap="round" stroke-linejoin="round" stroke-miterlimit="10" stroke-width="1"/>
          </g>
          <g id="g2001" transform="translate(24.499 45.763)">
            <path id="path2003" d="M0,0H15.6" fill="none" stroke="#000" stroke-linecap="round" stroke-linejoin="round" stroke-miterlimit="10" stroke-width="1"/>
          </g>
          <g id="g2005" transform="translate(10.961 30.382)">
            <path id="path2007" d="M-61.138-30.569a3.246,3.246,0,0,1-3.246,3.246,3.246,3.246,0,0,1-3.246-3.246,3.246,3.246,0,0,1,3.246-3.246A3.246,3.246,0,0,1-61.138-30.569Z" transform="translate(67.631 33.816)" fill="none" stroke="#000" stroke-linecap="round" stroke-linejoin="round" stroke-miterlimit="10" stroke-width="1"/>
          </g>
          <g id="g2009" transform="translate(24.499 33.629)">
            <path id="path2011" d="M0,0H15.6" fill="none" stroke="#000" stroke-linecap="round" stroke-linejoin="round" stroke-miterlimit="10" stroke-width="1"/>
          </g>
          <g id="g2013" transform="translate(24.499 21.494)">
            <path id="path2015" d="M0,0H15.6" fill="none" stroke="#000" stroke-linecap="round" stroke-linejoin="round" stroke-miterlimit="10" stroke-width="1"/>
          </g>
          <g id="g2017" transform="translate(10.255 17.839)">
            <path id="path2019" d="M0-31.968l2.255,2.255,5.65-5.65" transform="translate(0 35.363)" fill="none" stroke="#000" stroke-linecap="round" stroke-linejoin="round" stroke-miterlimit="10" stroke-width="1"/>
          </g>
          <g id="g2021" transform="translate(13.679 5.415)">
            <path id="path2023" d="M-207.612-68.878h-19.5a2.548,2.548,0,0,1-2.548-2.548v-2.218a2.548,2.548,0,0,1,2.548-2.548h19.5a2.548,2.548,0,0,1,2.548,2.548v2.218A2.548,2.548,0,0,1-207.612-68.878Z" transform="translate(229.661 76.193)" fill="none" stroke="#000" stroke-linecap="round" stroke-linejoin="round" stroke-miterlimit="10" stroke-width="1"/>
          </g>
          <g id="g2025" transform="translate(35.542 57.541)">
            <path id="path2027" d="M-52.849-52.849l-5.613-5.613" transform="translate(58.461 58.461)" fill="none" stroke="#000" stroke-linecap="round" stroke-linejoin="round" stroke-miterlimit="10" stroke-width="1"/>
          </g>
          <g id="g2029" transform="translate(52.021 40.661)">
            <path id="path2031" d="M0,0,6.013,6.013" fill="none" stroke="#000" stroke-linecap="round" stroke-linejoin="round" stroke-miterlimit="10" stroke-width="1"/>
          </g>
          <g id="g2033" transform="translate(48.359 44.323)">
            <path id="path2035" d="M-56.619-56.62l-6.013-6.013" transform="translate(62.632 62.633)" fill="none" stroke="#000" stroke-linecap="round" stroke-linejoin="round" stroke-miterlimit="10" stroke-width="1"/>
          </g>
        </g>
      </g>
    </g>
  </g>
</svg>
