<svg xmlns="http://www.w3.org/2000/svg" xmlns:xlink="http://www.w3.org/1999/xlink" width="108" height="108" viewBox="0 0 108 108">
  <defs>
    <filter id="Trazado_904820" x="0" y="0" width="108" height="108" filterUnits="userSpaceOnUse">
      <feOffset dy="3" input="SourceAlpha"/>
      <feGaussianBlur stdDeviation="3" result="blur"/>
      <feFlood flood-opacity="0.161"/>
      <feComposite operator="in" in2="blur"/>
      <feComposite in="SourceGraphic"/>
    </filter>
  </defs>
  <g id="Grupo_1208365" data-name="Grupo 1208365" transform="translate(-200 -2586)">
    <g id="Grupo_1208048" data-name="Grupo 1208048" transform="translate(209 2592)">
      <g id="Grupo_1173585" data-name="Grupo 1173585" transform="translate(0 0)">
        <g id="Grupo_1173428" data-name="Grupo 1173428">
          <g id="Grupo_1171958" data-name="Grupo 1171958">
            <g id="Grupo_1167341" data-name="Grupo 1167341">
              <g id="Grupo_1166792" data-name="Grupo 1166792">
                <g transform="matrix(1, 0, 0, 1, -9, -6)" filter="url(#Trazado_904820)">
                  <g id="Trazado_904820-2" data-name="Trazado 904820" transform="translate(9 6)" fill="#fef9e5">
                    <path d="M 44.99999618530273 88.50003051757812 C 39.12687301635742 88.50003051757812 33.43022155761719 87.35010528564453 28.06829643249512 85.08219146728516 C 22.88852119445801 82.89134216308594 18.23629570007324 79.75461578369141 14.24084663391113 75.75916290283203 C 10.24540901184082 71.76371765136719 7.108683586120605 67.11148834228516 4.917821407318115 61.93171691894531 C 2.649921178817749 56.56978988647461 1.499996185302734 50.87313842773438 1.499996185302734 45.00001525878906 C 1.499996185302734 39.12689208984375 2.649921178817749 33.43024063110352 4.917821407318115 28.06830215454102 C 7.108683586120605 22.88852691650391 10.24540901184082 18.23631477355957 14.24084663391113 14.24086570739746 C 18.23629570007324 10.24541568756104 22.88852119445801 7.10869026184082 28.06829643249512 4.917827606201172 C 33.43022155761719 2.649927854537964 39.12687301635742 1.50000274181366 44.99999618530273 1.50000274181366 C 50.87311935424805 1.50000274181366 56.56977081298828 2.649927854537964 61.93169784545898 4.917827606201172 C 67.11147308349609 7.10869026184082 71.76369476318359 10.24541568756104 75.75914764404297 14.24086570739746 C 79.75458526611328 18.23631477355957 82.89131164550781 22.88852691650391 85.08216857910156 28.06830215454102 C 87.35007476806641 33.43024063110352 88.5 39.12689208984375 88.5 45.00001525878906 C 88.5 50.87313842773438 87.35007476806641 56.56978988647461 85.08216857910156 61.93171691894531 C 82.89131164550781 67.11148834228516 79.75458526611328 71.76371765136719 75.75914764404297 75.75916290283203 C 71.76369476318359 79.75461578369141 67.11147308349609 82.89134216308594 61.93169784545898 85.08219146728516 C 56.56977081298828 87.35010528564453 50.87311935424805 88.50003051757812 44.99999618530273 88.50003051757812 Z" stroke="none"/>
                    <path d="M 44.99999618530273 3 C 39.32870864868164 3 33.82865142822266 4.110061645507812 28.65262603759766 6.299346923828125 C 23.65165710449219 8.414573669433594 19.15968322753906 11.44334411621094 15.301513671875 15.301513671875 C 11.44333648681641 19.15968322753906 8.414566040039062 23.65165710449219 6.299339294433594 28.65262985229492 C 4.110054016113281 33.82867050170898 2.999992370605469 39.32872772216797 2.999992370605469 45.00001525878906 C 2.999992370605469 50.67130279541016 4.110054016113281 56.17136001586914 6.299339294433594 61.34738922119141 C 8.414566040039062 66.34837341308594 11.44333648681641 70.84033203125 15.301513671875 74.69850158691406 C 19.15968322753906 78.55668640136719 23.65165710449219 81.58545684814453 28.65262603759766 83.70068359375 C 33.82865142822266 85.88996887207031 39.32870864868164 87.00003051757812 44.99999618530273 87.00003051757812 C 50.67128372192383 87.00003051757812 56.17134094238281 85.88996887207031 61.34736633300781 83.70068359375 C 66.34834289550781 81.58545684814453 70.84030914306641 78.55668640136719 74.69847869873047 74.69850158691406 C 78.55665588378906 70.84033203125 81.58542633056641 66.34837341308594 83.70065307617188 61.34738922119141 C 85.88993835449219 56.17136001586914 87 50.67130279541016 87 45.00001525878906 C 87 39.32872772216797 85.88993835449219 33.82867050170898 83.70065307617188 28.65262985229492 C 81.58542633056641 23.65165710449219 78.55665588378906 19.15968322753906 74.69847869873047 15.301513671875 C 70.84030914306641 11.44334411621094 66.34834289550781 8.414573669433594 61.34736633300781 6.299346923828125 C 56.17134094238281 4.110061645507812 50.67128372192383 3 44.99999618530273 3 M 44.99999618530273 0 C 69.85281372070312 0 90 20.14718627929688 90 45.00001525878906 C 90 69.85282897949219 69.85281372070312 90.00003051757812 44.99999618530273 90.00003051757812 C 20.14717864990234 90.00003051757812 -7.62939453125e-06 69.85282897949219 -7.62939453125e-06 45.00001525878906 C -7.62939453125e-06 20.14718627929688 20.14717864990234 0 44.99999618530273 0 Z" stroke="none" fill="#866d08"/>
                  </g>
                </g>
              </g>
            </g>
          </g>
        </g>
      </g>
    </g>
    <g id="Layer_x0020_1" transform="translate(164.64 2605.4)">
      <g id="Grupo_1208364" data-name="Grupo 1208364" transform="translate(60)">
        <path id="Trazado_1048073" data-name="Trazado 1048073" d="M103.318,38.393a2.33,2.33,0,0,1-1.222-.333,20.516,20.516,0,0,1-25.324-.037,2.353,2.353,0,0,1-2.962-.333A21.785,21.785,0,0,1,67.331,22.1a2.457,2.457,0,0,1,1.888-2.37,21.058,21.058,0,0,1,1.7-6.109H65a.319.319,0,0,0-.3.3V44.539h49.352V13.921a.319.319,0,0,0-.3-.3h-5.85a20.5,20.5,0,0,1,1.666,6.109,2.418,2.418,0,0,1,1.888,2.37,21.959,21.959,0,0,1-6.479,15.624A2.232,2.232,0,0,1,103.318,38.393Zm10.441,12.255H96.616l2.481,7h1.518a2.75,2.75,0,0,1,2.777,2.777V62.57a.713.713,0,0,1-.666.629H76.068a.6.6,0,0,1-.629-.629V60.422a2.75,2.75,0,0,1,2.777-2.777H79.7l2.481-7H65a5.025,5.025,0,0,1-5-5V13.921A4.993,4.993,0,0,1,65,8.96h8.886A20.155,20.155,0,0,1,87.027,1.888,2.384,2.384,0,0,1,89.36,0a21.707,21.707,0,0,1,15.624,6.479,2.475,2.475,0,0,1,.592,2.481H113.8a4.907,4.907,0,0,1,4.924,4.961v31.8A4.978,4.978,0,0,1,113.758,50.648Zm-18.438,0H91.729l2.777,7h3.3Zm-4.961,0H88.471l-2.777,7h7.479Zm-3.221,0H83.473l-2.481,7h3.332ZM74.772,9.848a22.274,22.274,0,0,0-2.221,3.3.757.757,0,0,1-.185.333,18.435,18.435,0,0,0-1.888,6.22H73.81A15.644,15.644,0,0,1,77.845,11.4l-2.37-2.37A7.4,7.4,0,0,0,74.772,9.848Zm-1.851.333H65a3.777,3.777,0,0,0-3.739,3.739V44.539h2.184V13.921A1.533,1.533,0,0,1,65,12.4h6.516A22.576,22.576,0,0,1,72.921,10.181ZM61.259,45.761A3.77,3.77,0,0,0,65,49.463h48.76a3.737,3.737,0,0,0,3.7-3.7Zm56.2-1.222V13.921a3.745,3.745,0,0,0-3.7-3.739h-7.886a17.3,17.3,0,0,1,1.407,2.221H113.8a1.583,1.583,0,0,1,1.555,1.518V44.539ZM106.428,13.477a.705.705,0,0,1-.185-.37,20.955,20.955,0,0,0-1.74-2.7l-2.37,2.37a16.11,16.11,0,0,1,2.851,6.923h3.332A18.959,18.959,0,0,0,106.428,13.477ZM76.661,61.94h25.472V60.422a1.541,1.541,0,0,0-1.555-1.555H78.216a1.564,1.564,0,0,0-1.555,1.555Zm32.766-13.7h-2.221a.63.63,0,0,1,0-1.259h2.221A.63.63,0,0,1,109.426,48.242Zm-5.7,0H101.5a.63.63,0,0,1,0-1.259h2.221A.63.63,0,0,1,103.725,48.242Zm-5.7,0H95.765a.629.629,0,1,1,0-1.259h2.258A.63.63,0,0,1,98.023,48.242Zm3.11-11.033-2.444-2.37a15.412,15.412,0,0,1-8.7,3v3.369A18.783,18.783,0,0,0,101.133,37.209Zm-12.366,4V37.838a16.192,16.192,0,0,1-8.7-3l-2.332,2.37A18.862,18.862,0,0,0,88.767,41.207ZM76.364,8.145l2.332,2.37a15.569,15.569,0,0,1,8.256-3.962V3.147A19.14,19.14,0,0,0,76.364,8.145ZM102.281,36.69l.3.3a1.228,1.228,0,0,0,1.555-.111A20.753,20.753,0,0,0,110.241,22.1a1.179,1.179,0,0,0-1.222-1.185h-4.48a1.17,1.17,0,0,0-1.185,1.185,13.833,13.833,0,0,1-4.11,9.885,1.282,1.282,0,0,0-.111,1.518Zm1.7-27.471c.037-.148,1.111-.963.185-1.851A20.747,20.747,0,0,0,89.36,1.222a1.218,1.218,0,0,0-1.185,1.185l.037,4.7a1.177,1.177,0,0,0,.963,1.037l.444.037a13.444,13.444,0,0,1,9.626,4.073,1.227,1.227,0,0,0,1.481.148l.37-.333ZM97.912,33.84a2.376,2.376,0,0,1,.444-2.74,11.952,11.952,0,0,0,1.74-2.147L97.69,27.546l-7.7,4.517v4.517A14.018,14.018,0,0,0,97.912,33.84Zm-9.145,2.74V31.988l-7.7-4.48L78.66,28.989a13.285,13.285,0,0,0,1.7,2.11,2.5,2.5,0,0,1,.481,2.777A14.26,14.26,0,0,0,88.767,36.579ZM74.995,19.808a2.436,2.436,0,0,1,1.666,2.3,12.591,12.591,0,0,0,1.407,5.813l2.407-1.444V17.66l-4-2.332A15.187,15.187,0,0,0,74.995,19.808Zm2.11-5.517,4,2.332,7.664-4.48V9.219a2.442,2.442,0,0,1-1.629-1.444,14.461,14.461,0,0,0-7.849,3.85l-.37.37A13.756,13.756,0,0,0,77.1,14.291Zm24.065-.74a2.577,2.577,0,0,1-2.814-.481A12.678,12.678,0,0,0,89.989,9.33v2.814l7.664,4.48,4-2.332C101.5,14.032,101.318,13.81,101.17,13.551Zm1.074,1.777L98.282,17.66v8.849l2.444,1.407a12.481,12.481,0,0,0,1.407-5.813,2.439,2.439,0,0,1,1.629-2.3A14.91,14.91,0,0,0,102.244,15.328ZM79.437,33.765c.037-.074.889-.963.074-1.777A13.887,13.887,0,0,1,75.439,22.1a1.17,1.17,0,0,0-1.185-1.185H69.663A1.186,1.186,0,0,0,68.515,22.1a20.753,20.753,0,0,0,6.109,14.772,1.254,1.254,0,0,0,1.7,0Zm2.258-7.22,7.664,4.443,7.664-4.443V17.7l-7.664-4.48L81.7,17.7Zm12.921-5.924H84.176a.6.6,0,0,1-.629-.629v-2.11a.594.594,0,0,1,.629-.592h10.4c.963,0,.518,1.407.592,2.7A.547.547,0,0,1,94.617,20.622ZM84.806,19.4h9.145v-.889H84.806Zm9.552,3.48H84.4a.611.611,0,1,1,0-1.222h9.959A.611.611,0,1,1,94.358,22.881Zm-3.184,2H84.4a.611.611,0,1,1,0-1.222h6.775A.611.611,0,0,1,91.174,24.88Zm3.184,2H84.4a.611.611,0,1,1,0-1.222h9.959A.611.611,0,1,1,94.358,26.879Z" transform="translate(-60)" fill-rule="evenodd"/>
      </g>
      <path id="Trazado_1048074" data-name="Trazado 1048074" d="M526,218.849l7.664-4.48v-2.925A2.442,2.442,0,0,1,532.033,210a14.461,14.461,0,0,0-7.849,3.85l-.37.37a13.757,13.757,0,0,0-1.814,2.3Z" transform="translate(-444.895 -202.225)" fill="#ff004b" fill-rule="evenodd"/>
      <path id="Trazado_1048075" data-name="Trazado 1048075" d="M470.479,425.144v-8.812l-4-2.332A15.186,15.186,0,0,0,465,418.48a2.436,2.436,0,0,1,1.666,2.3,12.591,12.591,0,0,0,1.407,5.813Z" transform="translate(-390.005 -398.672)" fill="#71c550" fill-rule="evenodd"/>
      <path id="Trazado_1048076" data-name="Trazado 1048076" d="M574.107,747.48l-7.7-4.48L564,744.481a13.29,13.29,0,0,0,1.7,2.11,2.5,2.5,0,0,1,.481,2.777,14.26,14.26,0,0,0,7.923,2.7Z" transform="translate(-485.34 -715.491)" fill="#fee265" fill-rule="evenodd"/>
      <path id="Trazado_1048077" data-name="Trazado 1048077" d="M877.7,744l-7.7,4.517v4.517a14.018,14.018,0,0,0,7.923-2.74,2.375,2.375,0,0,1,.444-2.74,11.954,11.954,0,0,0,1.74-2.147Z" transform="translate(-780.011 -716.454)" fill="#84fbff" fill-rule="evenodd"/>
      <path id="Trazado_1048078" data-name="Trazado 1048078" d="M1094,416.332v8.849l2.444,1.407a12.481,12.481,0,0,0,1.407-5.813,2.439,2.439,0,0,1,1.629-2.3,14.909,14.909,0,0,0-1.518-4.48Z" transform="translate(-995.718 -398.672)" fill="#26a9fb" fill-rule="evenodd"/>
      <path id="Trazado_1048079" data-name="Trazado 1048079" d="M870,254.814l7.664,4.48,4-2.333c-.148-.259-.333-.481-.481-.74a2.577,2.577,0,0,1-2.814-.481A12.678,12.678,0,0,0,870,252Z" transform="translate(-780.011 -242.67)" fill="#ff004b" fill-rule="evenodd"/>
      <path id="Trazado_1048080" data-name="Trazado 1048080" d="M658.884,361.073c.963,0,.518,1.407.592,2.7a.547.547,0,0,1-.555.629H648.481a.6.6,0,0,1-.629-.629v-2.11a.594.594,0,0,1,.629-.592Zm2.444.407L653.664,357,646,361.48v8.849l7.664,4.443,7.664-4.443Zm-2.666,5.183H648.7a.611.611,0,1,1,0-1.222h9.959A.611.611,0,0,1,658.662,366.663Zm-3.184.778a.611.611,0,1,1,0,1.222H648.7a.611.611,0,1,1,0-1.222Zm-6.775,2h9.959a.611.611,0,0,1,0,1.222H648.7A.612.612,0,1,1,648.7,369.44Z" transform="translate(-564.304 -343.783)" fill="#9f9" fill-rule="evenodd"/>
      <path id="Trazado_1048081" data-name="Trazado 1048081" d="M739.145,500H730v.889h9.145Z" transform="translate(-645.194 -481.488)" fill="#9f9" fill-rule="evenodd"/>
      <path id="Trazado_1048082" data-name="Trazado 1048082" d="M822.444,39.96a13.444,13.444,0,0,1,9.626,4.073,1.227,1.227,0,0,0,1.481.148l.37-.333L836.809,41c.037-.148,1.111-.963.185-1.851A20.747,20.747,0,0,0,822.185,33,1.218,1.218,0,0,0,821,34.185l.037,4.7A1.177,1.177,0,0,0,822,39.923Z" transform="translate(-732.825 -31.778)" fill="#9d66d6" fill-rule="evenodd"/>
      <path id="Trazado_1048083" data-name="Trazado 1048083" d="M1198,283.37a16.111,16.111,0,0,1,2.851,6.923h3.332a18.955,18.955,0,0,0-1.888-6.22.7.7,0,0,1-.185-.37,20.971,20.971,0,0,0-1.74-2.7Z" transform="translate(-1095.867 -270.596)" fill="#fee265" fill-rule="evenodd"/>
      <path id="Trazado_1048084" data-name="Trazado 1048084" d="M1121.75,565h-4.48a1.17,1.17,0,0,0-1.185,1.185,13.833,13.833,0,0,1-4.11,9.885,1.282,1.282,0,0,0-.111,1.518l3.147,3.184.3.3a1.228,1.228,0,0,0,1.555-.111,20.753,20.753,0,0,0,6.109-14.772A1.178,1.178,0,0,0,1121.75,565Z" transform="translate(-1012.73 -544.082)" fill="#9d66d6" fill-rule="evenodd"/>
      <path id="Trazado_1048085" data-name="Trazado 1048085" d="M881.144,943.37,878.7,941a15.412,15.412,0,0,1-8.7,3v3.369A18.783,18.783,0,0,0,881.144,943.37Z" transform="translate(-780.011 -906.161)" fill="#ff004b" fill-rule="evenodd"/>
      <path id="Trazado_1048086" data-name="Trazado 1048086" d="M550.033,947.368V944a16.192,16.192,0,0,1-8.7-3L539,943.37A18.862,18.862,0,0,0,550.033,947.368Z" transform="translate(-461.266 -906.161)" fill="#ff004b" fill-rule="evenodd"/>
      <path id="Trazado_1048087" data-name="Trazado 1048087" d="M297.812,580.957l3.11-3.11c.037-.074.889-.963.074-1.777a13.887,13.887,0,0,1-4.073-9.885A1.17,1.17,0,0,0,295.739,565h-4.591A1.186,1.186,0,0,0,290,566.185a20.753,20.753,0,0,0,6.109,14.772A1.254,1.254,0,0,0,297.812,580.957Z" transform="translate(-221.485 -544.082)" fill="#9d66d6" fill-rule="evenodd"/>
      <path id="Trazado_1048088" data-name="Trazado 1048088" d="M343,254.663h3.332a15.644,15.644,0,0,1,4.036-8.293L348,244a7.4,7.4,0,0,0-.7.815,22.274,22.274,0,0,0-2.221,3.3.757.757,0,0,1-.185.333A18.434,18.434,0,0,0,343,254.663Z" transform="translate(-272.522 -234.966)" fill="#fee265" fill-rule="evenodd"/>
      <path id="Trazado_1048089" data-name="Trazado 1048089" d="M502,90l2.332,2.37a15.569,15.569,0,0,1,8.256-3.962V85A19.14,19.14,0,0,0,502,90Z" transform="translate(-425.636 -81.853)" fill="#26a9fb" fill-rule="evenodd"/>
      <path id="Trazado_1048090" data-name="Trazado 1048090" d="M193.22,368H187.3a.318.318,0,0,0-.3.3v30.618h49.352V368.3a.318.318,0,0,0-.3-.3h-5.85a20.5,20.5,0,0,1,1.666,6.109,2.418,2.418,0,0,1,1.888,2.37,21.959,21.959,0,0,1-6.479,15.624,2.232,2.232,0,0,1-1.666.666,2.33,2.33,0,0,1-1.222-.333,20.516,20.516,0,0,1-25.324-.037,2.353,2.353,0,0,1-2.962-.333,21.785,21.785,0,0,1-6.479-15.587,2.457,2.457,0,0,1,1.888-2.37A21.058,21.058,0,0,1,193.22,368Z" transform="translate(-122.298 -354.375)" fill="#90fbff" fill-rule="evenodd"/>
      <path id="Trazado_1048091" data-name="Trazado 1048091" d="M97.739,277.221h6.516A22.568,22.568,0,0,1,105.662,275H97.739A3.777,3.777,0,0,0,94,278.739v30.618h2.184V278.739A1.533,1.533,0,0,1,97.739,277.221Z" transform="translate(-32.741 -264.819)" fill="#506480" fill-rule="evenodd"/>
      <path id="Trazado_1048092" data-name="Trazado 1048092" d="M1299,275a17.3,17.3,0,0,1,1.407,2.221h6.516a1.583,1.583,0,0,1,1.555,1.518v30.618h2.11V278.739a3.745,3.745,0,0,0-3.7-3.739Z" transform="translate(-1193.128 -264.819)" fill="#506480" fill-rule="evenodd"/>
      <path id="Trazado_1048093" data-name="Trazado 1048093" d="M150.2,1236H94a3.769,3.769,0,0,0,3.739,3.7H146.5A3.737,3.737,0,0,0,150.2,1236Zm-21.7,2.481a.629.629,0,1,1,0-1.259h2.258a.63.63,0,0,1,0,1.259Zm5.739,0a.63.63,0,0,1,0-1.259h2.221a.63.63,0,0,1,0,1.259Zm5.7,0a.63.63,0,0,1,0-1.259h2.221a.63.63,0,0,1,0,1.259Z" transform="translate(-32.741 -1190.239)" fill="#e3f5ff" fill-rule="evenodd"/>
      <path id="Trazado_1048094" data-name="Trazado 1048094" d="M630.332,1375l2.814-7h-3.665L627,1375Z" transform="translate(-546.008 -1317.352)" fill="#b0d0ff" fill-rule="evenodd"/>
      <path id="Trazado_1048095" data-name="Trazado 1048095" d="M917,1368l2.777,7h3.3l-2.481-7Z" transform="translate(-825.271 -1317.352)" fill="#b0d0ff" fill-rule="evenodd"/>
      <path id="Trazado_1048096" data-name="Trazado 1048096" d="M533.917,1590H511.555a1.564,1.564,0,0,0-1.555,1.555v1.518h25.472v-1.518A1.541,1.541,0,0,0,533.917,1590Z" transform="translate(-433.339 -1531.133)" fill="#e3f5ff" fill-rule="evenodd"/>
    </g>
  </g>
</svg>
