<svg xmlns="http://www.w3.org/2000/svg" xmlns:xlink="http://www.w3.org/1999/xlink" width="113" height="113" viewBox="0 0 113 113">
  <defs>
    <filter id="Trazado_982547" x="0" y="0" width="113" height="113" filterUnits="userSpaceOnUse">
      <feOffset dy="3" input="SourceAlpha"/>
      <feGaussianBlur stdDeviation="3" result="blur"/>
      <feFlood flood-opacity="0.161"/>
      <feComposite operator="in" in2="blur"/>
      <feComposite in="SourceGraphic"/>
    </filter>
  </defs>
  <g id="Grupo_1208366" data-name="Grupo 1208366" transform="translate(-272 -3978.623)">
    <g id="Grupo_1208121" data-name="Grupo 1208121" transform="translate(0 -1922.377)">
      <g id="Grupo_1202432" data-name="Grupo 1202432" transform="translate(0 1255.486)">
        <g id="Grupo_1202055" data-name="Grupo 1202055" transform="translate(0 3240.511)">
          <g id="Grupo_1177900" data-name="Grupo 1177900" transform="translate(281 1411.003)">
            <g id="Grupo_1172010" data-name="Grupo 1172010" transform="translate(0)">
              <g id="Grupo_1171046" data-name="Grupo 1171046">
                <g id="Grupo_1148525" data-name="Grupo 1148525">
                  <g transform="matrix(1, 0, 0, 1, -9, -6)" filter="url(#Trazado_982547)">
                    <g id="Trazado_982547-2" data-name="Trazado 982547" transform="translate(9 6)" fill="#e5fdfa">
                      <path d="M 47.5 93.5 C 41.28937149047852 93.5 35.26533508300781 92.28397369384766 29.59518623352051 89.88570404052734 C 24.11771965026855 87.56893157958984 19.19813346862793 84.25196075439453 14.97309303283691 80.02691650390625 C 10.74804019927979 75.80186462402344 7.431066513061523 70.88229370117188 5.114293098449707 65.40481567382812 C 2.716026782989502 59.73468017578125 1.5 53.71062850952148 1.5 47.5 C 1.5 41.28937149047852 2.716026782989502 35.26533508300781 5.114293098449707 29.59518623352051 C 7.431066513061523 24.11771965026855 10.74804019927979 19.19813346862793 14.97309303283691 14.97309303283691 C 19.19813346862793 10.74804019927979 24.11771965026855 7.431066513061523 29.59518623352051 5.114293098449707 C 35.26533508300781 2.716026782989502 41.28937149047852 1.5 47.5 1.5 C 53.71062850952148 1.5 59.73468017578125 2.716026782989502 65.40481567382812 5.114293098449707 C 70.88229370117188 7.431066513061523 75.80186462402344 10.74804019927979 80.02691650390625 14.97309303283691 C 84.25196075439453 19.19813346862793 87.56893157958984 24.11771965026855 89.88570404052734 29.59518623352051 C 92.28397369384766 35.26533508300781 93.5 41.28937149047852 93.5 47.5 C 93.5 53.71062850952148 92.28397369384766 59.73468017578125 89.88570404052734 65.40481567382812 C 87.56893157958984 70.88229370117188 84.25196075439453 75.80186462402344 80.02691650390625 80.02691650390625 C 75.80186462402344 84.25196075439453 70.88229370117188 87.56893157958984 65.40481567382812 89.88570404052734 C 59.73468017578125 92.28397369384766 53.71062850952148 93.5 47.5 93.5 Z" stroke="none"/>
                      <path d="M 47.5 3 C 41.49121475219727 3 35.66376876831055 4.176155090332031 30.17950439453125 6.495796203613281 C 24.88084411621094 8.736953735351562 20.12152099609375 11.94598388671875 16.03375244140625 16.03375244140625 C 11.94598388671875 20.12152099609375 8.736953735351562 24.88084411621094 6.495796203613281 30.17950439453125 C 4.176155090332031 35.66376876831055 3 41.49121475219727 3 47.5 C 3 53.50878524780273 4.176155090332031 59.33623123168945 6.495796203613281 64.82049560546875 C 8.736953735351562 70.11915588378906 11.94598388671875 74.87847900390625 16.03375244140625 78.96624755859375 C 20.12152099609375 83.05401611328125 24.88084411621094 86.26304626464844 30.17950439453125 88.50419616699219 C 35.66376876831055 90.82384490966797 41.49121475219727 92 47.5 92 C 53.50878524780273 92 59.33623123168945 90.82384490966797 64.82049560546875 88.50419616699219 C 70.11915588378906 86.26304626464844 74.87847900390625 83.05401611328125 78.96624755859375 78.96624755859375 C 83.05401611328125 74.87847900390625 86.26304626464844 70.11915588378906 88.50419616699219 64.82049560546875 C 90.82384490966797 59.33623123168945 92 53.50878524780273 92 47.5 C 92 41.49121475219727 90.82384490966797 35.66376876831055 88.50419616699219 30.17950439453125 C 86.26304626464844 24.88084411621094 83.05401611328125 20.12152099609375 78.96624755859375 16.03375244140625 C 74.87847900390625 11.94598388671875 70.11915588378906 8.736953735351562 64.82049560546875 6.495796203613281 C 59.33623123168945 4.176155090332031 53.50878524780273 3 47.5 3 M 47.5 0 C 73.7335205078125 0 95 21.2664794921875 95 47.5 C 95 73.7335205078125 73.7335205078125 95 47.5 95 C 21.2664794921875 95 0 73.7335205078125 0 47.5 C 0 21.2664794921875 21.2664794921875 0 47.5 0 Z" stroke="none" fill="#098576"/>
                    </g>
                  </g>
                </g>
              </g>
            </g>
          </g>
        </g>
      </g>
    </g>
    <g id="production_10608809" transform="translate(292.29 3995.863)">
      <g id="Icon" transform="translate(2.915 2.915)">
        <path id="Trazado_1048097" data-name="Trazado 1048097" d="M37.933,3.046a33.008,33.008,0,0,0-28.411,13.4,1.136,1.136,0,0,1-1.468.33l-3.582-1.99a1.141,1.141,0,0,0-1.655,1.3L5.808,27.029a1.141,1.141,0,0,0,1.421.794l10.08-2.952a1.141,1.141,0,0,0,.312-2.044l-3.783-2.52a1.138,1.138,0,0,1-.286-1.633A28.434,28.434,0,0,1,34.112,7.634a27.862,27.862,0,0,1,14.817,3.131c.881.221,2.022-3.2,1.819-4.351A32.594,32.594,0,0,0,37.933,3.046Z" transform="translate(-2.775 -2.743)" fill="#1e88e5"/>
        <path id="Trazado_1048098" data-name="Trazado 1048098" d="M64.026,37.933a33.008,33.008,0,0,0-13.4-28.411,1.136,1.136,0,0,1-.33-1.468l1.99-3.582a1.141,1.141,0,0,0-1.3-1.655L40.043,5.808a1.141,1.141,0,0,0-.794,1.421L42.2,17.31a1.141,1.141,0,0,0,2.044.312l2.52-3.783a1.138,1.138,0,0,1,1.633-.286,28.434,28.434,0,0,1,11.04,20.558,27.741,27.741,0,0,1-2.464,13.447c2.534,3.392,3.675,1.11,3.62,3.317a32.6,32.6,0,0,0,3.432-12.943Z" transform="translate(2.359 -2.775)" fill="#7cb342"/>
        <path id="Trazado_1048099" data-name="Trazado 1048099" d="M47.382,22.282A2.282,2.282,0,0,0,45.1,20H22.282A2.282,2.282,0,0,0,20,22.282v5.7H47.382Z" transform="translate(-0.347 -0.347)" fill="#ffa000"/>
        <path id="Trazado_1048100" data-name="Trazado 1048100" d="M20,27V44.114A2.282,2.282,0,0,0,22.282,46.4H45.1a2.282,2.282,0,0,0,2.282-2.282V27Z" transform="translate(-0.347 0.64)" fill="#ffb300"/>
        <path id="Trazado_1048101" data-name="Trazado 1048101" d="M35.291,33.323l-2.727-2.1-2.727,2.1a1.141,1.141,0,0,1-1.837-.9V20h9.127V32.419a1.141,1.141,0,0,1-1.837.9Z" transform="translate(0.78 -0.347)" fill="#e53935"/>
        <path id="Trazado_1048102" data-name="Trazado 1048102" d="M32.2,64.026a33.008,33.008,0,0,0,28.411-13.4,1.136,1.136,0,0,1,1.468-.33l3.582,1.99a1.141,1.141,0,0,0,1.655-1.3L64.32,40.043a1.141,1.141,0,0,0-1.421-.794L52.818,42.2a1.141,1.141,0,0,0-.312,2.044l3.783,2.52a1.138,1.138,0,0,1,.286,1.633,28.434,28.434,0,0,1-20.558,11.04,27.944,27.944,0,0,1-15.7-3.61c-2.279.258-3.42,3.68-1.833,4.367A32.628,32.628,0,0,0,32.2,64.026Z" transform="translate(-0.665 2.359)" fill="#1e88e5"/>
        <path id="Trazado_1048103" data-name="Trazado 1048103" d="M24.871,52.239a1.141,1.141,0,0,0-2.044-.312l-2.52,3.783A1.138,1.138,0,0,1,18.674,56,28.435,28.435,0,0,1,7.634,35.437,27.521,27.521,0,0,1,9.065,24.619L7.2,25.166a1.141,1.141,0,0,1-1.421-.794l-.688-2.519a32.5,32.5,0,0,0-2.042,9.764,33.008,33.008,0,0,0,13.4,28.411,1.136,1.136,0,0,1,.33,1.469l-1.99,3.582a1.141,1.141,0,0,0,1.3,1.655l10.949-2.991a1.141,1.141,0,0,0,.794-1.421l-2.952-10.08Z" transform="translate(-2.743 -0.086)" fill="#7cb342"/>
      </g>
      <g id="Line" transform="translate(1.776 1.776)">
        <path id="Trazado_1048104" data-name="Trazado 1048104" d="M70.662,55.966l-2.221-8.13a33.426,33.426,0,0,0,2-9.7A34.208,34.208,0,0,0,56.572,8.748l1.99-3.582a2.282,2.282,0,0,0-2.6-3.31L47.873,4.068a33.428,33.428,0,0,0-9.741-1.989A34.183,34.183,0,0,0,8.748,15.947l-3.582-1.99a2.282,2.282,0,0,0-3.31,2.6l2.212,8.1a33.763,33.763,0,0,0-1.991,9.736A34.208,34.208,0,0,0,15.947,63.771l-1.99,3.582a2.282,2.282,0,0,0,2.6,3.31l8.119-2.218a33.431,33.431,0,0,0,9.714,2A34.235,34.235,0,0,0,63.771,56.572l3.582,1.99a2.282,2.282,0,0,0,3.31-2.6ZM56.568,4.058,54.578,7.64a2.286,2.286,0,0,0,.65,2.94A31.961,31.961,0,0,1,68.162,38.014a31.121,31.121,0,0,1-.945,6.144,2.277,2.277,0,0,0-.633-.531,2.254,2.254,0,0,0-1.612-.225,28.677,28.677,0,0,0,.879-9.229A29.67,29.67,0,0,0,54.37,12.791a2.254,2.254,0,0,0-1.741-.436,2.3,2.3,0,0,0-1.538.993l-2.52,3.782L45.619,7.05,56.568,4.058ZM54.124,50.469l3.8,2.506a27.385,27.385,0,0,1-19.735,10.6,26.354,26.354,0,0,1-9.817-1.206l-2.232-7.62a2.281,2.281,0,0,0-4.089-.623l-2.506,3.8a27.385,27.385,0,0,1-10.6-19.735,26.267,26.267,0,0,1,1.2-9.817l7.622-2.232a2.281,2.281,0,0,0,.623-4.089l-3.8-2.506a27.385,27.385,0,0,1,19.735-10.6,26.418,26.418,0,0,1,9.813,1.192l2.236,7.634a2.281,2.281,0,0,0,4.089.623l2.506-3.8a27.385,27.385,0,0,1,10.6,19.735,26.445,26.445,0,0,1-1.2,9.817l-7.623,2.232a2.281,2.281,0,0,0-.623,4.089ZM7.64,17.941a2.284,2.284,0,0,0,2.94-.65A31.971,31.971,0,0,1,38.014,4.357a31.113,31.113,0,0,1,6.143.946,2.238,2.238,0,0,0-.749,2.28,28.442,28.442,0,0,0-9.236-.914A29.67,29.67,0,0,0,12.791,18.149a2.256,2.256,0,0,0-.436,1.741,2.3,2.3,0,0,0,.993,1.538l3.782,2.52L7.05,26.9,4.058,15.951Zm8.311,50.52,1.99-3.582a2.286,2.286,0,0,0-.65-2.94A31.961,31.961,0,0,1,4.357,34.5a30.957,30.957,0,0,1,.955-6.133,2.25,2.25,0,0,0,1.733.812,2.3,2.3,0,0,0,.531-.077,28.475,28.475,0,0,0-.908,9.24A29.67,29.67,0,0,0,18.149,59.728a2.257,2.257,0,0,0,1.741.436,2.3,2.3,0,0,0,1.538-.993l2.52-3.782L26.9,65.469,15.951,68.461ZM64.879,54.578a2.288,2.288,0,0,0-2.94.65A31.974,31.974,0,0,1,34.5,68.161a31.071,31.071,0,0,1-6.135-.953,2.231,2.231,0,0,0,.744-2.253,28.527,28.527,0,0,0,9.232.9A29.67,29.67,0,0,0,59.728,54.369a2.256,2.256,0,0,0,.436-1.741,2.3,2.3,0,0,0-.993-1.538L55.39,48.57l10.08-2.951,2.992,10.949-3.582-1.99ZM47.669,21.427H24.85a3.427,3.427,0,0,0-3.423,3.423V47.669a3.427,3.427,0,0,0,3.423,3.423H47.669a3.427,3.427,0,0,0,3.423-3.423V24.85a3.427,3.427,0,0,0-3.423-3.423Zm0,2.282A1.142,1.142,0,0,1,48.81,24.85v4.564H41.964v-5.7Zm-7.985,0,.007,11.283-.007,0h0l-2.728-2.1a1.139,1.139,0,0,0-1.391,0l-2.728,2.1V23.709h6.847Zm-14.833,0h5.7v5.7H23.709V24.85A1.142,1.142,0,0,1,24.85,23.709Zm22.819,25.1H24.85a1.142,1.142,0,0,1-1.141-1.141V31.7h6.846v3.15a2.427,2.427,0,0,0,.974,2.012,2.271,2.271,0,0,0,2.7-.062l2.032-1.563,1.935,1.489a2.4,2.4,0,0,0,2.2.435,2.274,2.274,0,0,0,1.574-2.17V31.7H48.81V47.669a1.142,1.142,0,0,1-1.141,1.141ZM33.978,46.528a1.141,1.141,0,0,1-1.141,1.141H25.991a1.141,1.141,0,1,1,0-2.282h6.846A1.141,1.141,0,0,1,33.978,46.528Zm0-3.423a1.141,1.141,0,0,1-1.141,1.141H25.991a1.141,1.141,0,1,1,0-2.282h6.846A1.141,1.141,0,0,1,33.978,43.1Z" transform="translate(-1.776 -1.776)"/>
      </g>
    </g>
  </g>
</svg>
