<svg xmlns="http://www.w3.org/2000/svg" xmlns:xlink="http://www.w3.org/1999/xlink" width="113" height="113" viewBox="0 0 113 113">
  <defs>
    <filter id="Trazado_982547" x="0" y="0" width="113" height="113" filterUnits="userSpaceOnUse">
      <feOffset dy="3" input="SourceAlpha"/>
      <feGaussianBlur stdDeviation="3" result="blur"/>
      <feFlood flood-opacity="0.161"/>
      <feComposite operator="in" in2="blur"/>
      <feComposite in="SourceGraphic"/>
    </filter>
  </defs>
  <g id="Grupo_1208436" data-name="Grupo 1208436" transform="translate(-792 -929.816)">
    <g id="Grupo_1208137" data-name="Grupo 1208137" transform="translate(-1.49 -4697.609)">
      <g id="Grupo_1177675" data-name="Grupo 1177675" transform="translate(-4493 3707.152)">
        <g id="Grupo_1176928" data-name="Grupo 1176928" transform="translate(5295.49 1926.273)">
          <g id="Grupo_1172322" data-name="Grupo 1172322" transform="translate(0 0)">
            <g id="Grupo_1164700" data-name="Grupo 1164700">
              <g id="Grupo_1160931" data-name="Grupo 1160931">
                <g id="Grupo_1160749" data-name="Grupo 1160749">
                  <g id="Grupo_1158891" data-name="Grupo 1158891">
                    <g id="Grupo_1157406" data-name="Grupo 1157406">
                      <g id="Grupo_1155793" data-name="Grupo 1155793">
                        <g id="Grupo_1154704" data-name="Grupo 1154704">
                          <g id="Grupo_1150790" data-name="Grupo 1150790">
                            <g id="Grupo_1154214" data-name="Grupo 1154214">
                              <g id="Grupo_1152583" data-name="Grupo 1152583">
                                <g id="Grupo_1146973" data-name="Grupo 1146973">
                                  <g id="Grupo_1146954" data-name="Grupo 1146954">
                                    <g transform="matrix(1, 0, 0, 1, -9, -6)" filter="url(#Trazado_982547)">
                                      <g id="Trazado_982547-2" data-name="Trazado 982547" transform="translate(9 6)" fill="#f6ecfe">
                                        <path d="M 47.5000114440918 93.49987030029297 C 41.28938293457031 93.49987030029297 35.26534652709961 92.28384399414062 29.5951976776123 89.88558959960938 C 24.11773109436035 87.56881713867188 19.19814491271973 84.25183868408203 14.97310447692871 80.02680206298828 C 10.74805164337158 75.80176544189453 7.43107795715332 70.88218688964844 5.114304542541504 65.40472412109375 C 2.716038227081299 59.73458862304688 1.500011444091797 53.71054840087891 1.500011444091797 47.49993515014648 C 1.500011444091797 41.28932189941406 2.716038227081299 35.26528167724609 5.114304542541504 29.59514808654785 C 7.43107795715332 24.1176815032959 10.74805164337158 19.1981086730957 14.97310447692871 14.97306823730469 C 19.19814491271973 10.74802875518799 24.11773109436035 7.431055068969727 29.5951976776123 5.11428165435791 C 35.26534652709961 2.716028451919556 41.28938293457031 1.500001788139343 47.5000114440918 1.500001788139343 C 53.71063995361328 1.500001788139343 59.73467636108398 2.716028451919556 65.40482330322266 5.11428165435791 C 70.88229370117188 7.431055068969727 75.8018798828125 10.74802875518799 80.02691650390625 14.97306823730469 C 84.25196838378906 19.1981086730957 87.56894683837891 24.1176815032959 89.88571929931641 29.59514808654785 C 92.28398132324219 35.26528167724609 93.50001525878906 41.28932189941406 93.50001525878906 47.49993515014648 C 93.50001525878906 53.71054840087891 92.28398132324219 59.73458862304688 89.88571929931641 65.40472412109375 C 87.56894683837891 70.88218688964844 84.25196838378906 75.80176544189453 80.02691650390625 80.02680206298828 C 75.8018798828125 84.25183868408203 70.88229370117188 87.56881713867188 65.40482330322266 89.88558959960938 C 59.73467636108398 92.28384399414062 53.71063995361328 93.49987030029297 47.5000114440918 93.49987030029297 Z" stroke="none"/>
                                        <path d="M 47.5000114440918 3 C 41.49122619628906 3 35.66378021240234 4.1761474609375 30.17951965332031 6.495796203613281 C 24.880859375 8.7369384765625 20.12153625488281 11.94596862792969 16.03376770019531 16.03373718261719 C 11.94598388671875 20.12149047851562 8.736968994140625 24.88081359863281 6.495811462402344 30.17947387695312 C 4.176162719726562 35.66371917724609 3.000007629394531 41.49116516113281 3.000007629394531 47.49993515014648 C 3.000007629394531 53.50870513916016 4.176162719726562 59.33615112304688 6.495811462402344 64.82039642333984 C 8.736968994140625 70.11905670166016 11.94598388671875 74.87837982177734 16.03376770019531 78.96613311767578 C 20.12153625488281 83.05390167236328 24.880859375 86.26293182373047 30.17951965332031 88.50407409667969 C 35.66378021240234 90.82372283935547 41.49122619628906 91.99987030029297 47.5000114440918 91.99987030029297 C 53.50879669189453 91.99987030029297 59.33624267578125 90.82372283935547 64.82050323486328 88.50407409667969 C 70.11916351318359 86.26293182373047 74.87848663330078 83.05390167236328 78.96625518798828 78.96613311767578 C 83.05403900146484 74.87837982177734 86.2630615234375 70.11905670166016 88.50421142578125 64.82039642333984 C 90.82386016845703 59.33615112304688 92.00001525878906 53.50870513916016 92.00001525878906 47.49993515014648 C 92.00001525878906 41.49116516113281 90.82386016845703 35.66371917724609 88.50421142578125 30.17947387695312 C 86.2630615234375 24.88081359863281 83.05403900146484 20.12149047851562 78.96625518798828 16.03373718261719 C 74.87848663330078 11.94596862792969 70.11916351318359 8.7369384765625 64.82050323486328 6.495796203613281 C 59.33624267578125 4.1761474609375 53.50879669189453 3 47.5000114440918 3 M 47.5000114440918 0 C 73.73353576660156 0 95.00001525878906 21.26644134521484 95.00001525878906 47.49993515014648 C 95.00001525878906 73.73342895507812 73.73353576660156 94.99987030029297 47.5000114440918 94.99987030029297 C 21.26648712158203 94.99987030029297 7.62939453125e-06 73.73342895507812 7.62939453125e-06 47.49993515014648 C 7.62939453125e-06 21.26644134521484 21.26648712158203 0 47.5000114440918 0 Z" stroke="none" fill="#aa52f9"/>
                                      </g>
                                    </g>
                                  </g>
                                </g>
                              </g>
                            </g>
                          </g>
                        </g>
                      </g>
                    </g>
                  </g>
                </g>
              </g>
            </g>
          </g>
        </g>
      </g>
    </g>
    <g id="compliance_2631401" transform="translate(818 957.284)">
      <g id="Grupo_1208434" data-name="Grupo 1208434" transform="translate(1.963 1.963)">
        <g id="Grupo_1208425" data-name="Grupo 1208425" transform="translate(1.926 3.853)">
          <path id="Trazado_1048352" data-name="Trazado 1048352" d="M4,6H57.937V44.527H4Z" transform="translate(-4 -6)" fill="#e6e9ed"/>
        </g>
        <g id="Grupo_1208426" data-name="Grupo 1208426" transform="translate(16.374 46.232)">
          <path id="Trazado_1048353" data-name="Trazado 1048353" d="M28.632,50,24.779,61.558H19L22.853,50Z" transform="translate(-19 -50)" fill="#cf9e76"/>
        </g>
        <g id="Grupo_1208427" data-name="Grupo 1208427" transform="translate(31.784 46.232)">
          <path id="Trazado_1048354" data-name="Trazado 1048354" d="M40.779,50l3.853,11.558H38.853L35,50Z" transform="translate(-35 -50)" fill="#cf9e76"/>
        </g>
        <g id="Grupo_1208428" data-name="Grupo 1208428">
          <path id="Trazado_1048355" data-name="Trazado 1048355" d="M59.79,2.963V4.889a.966.966,0,0,1-.963.963H2.963A.966.966,0,0,1,2,4.889V2.963A.966.966,0,0,1,2.963,2H58.827A.966.966,0,0,1,59.79,2.963Z" transform="translate(-2 -2)" fill="#ccd1d9"/>
        </g>
        <g id="Grupo_1208429" data-name="Grupo 1208429" transform="translate(0 42.379)">
          <path id="Trazado_1048356" data-name="Trazado 1048356" d="M59.79,46.963v1.926a.966.966,0,0,1-.963.963H2.963A.966.966,0,0,1,2,48.889V46.963A.966.966,0,0,1,2.963,46H58.827A.966.966,0,0,1,59.79,46.963Z" transform="translate(-2 -46)" fill="#ccd1d9"/>
        </g>
        <g id="Grupo_1208430" data-name="Grupo 1208430" transform="translate(20.275 7.705)">
          <path id="Trazado_1048357" data-name="Trazado 1048357" d="M31.516,30.978a9.631,9.631,0,1,0-1.724-6.53H24.928a1.922,1.922,0,0,1-1.878-1.522l3.361-1.185a13.994,13.994,0,0,1,1.194-2.909l-1.175-2.273,4.093-4.093L32.8,13.641a13.994,13.994,0,0,1,2.909-1.194L36.486,10h5.779l.78,2.446a13.994,13.994,0,0,1,2.909,1.194l2.273-1.175,4.093,4.093-1.175,2.273a13.994,13.994,0,0,1,1.194,2.909l2.446.78V28.3l-2.446.78a13.994,13.994,0,0,1-1.194,2.909l1.175,2.273-4.093,4.084-2.273-1.165a13.994,13.994,0,0,1-2.909,1.194l-.78,2.446H36.486l-.78-2.446A13.994,13.994,0,0,1,32.8,37.181l-1.137.588a1.937,1.937,0,0,0-1.917-1.763,1.94,1.94,0,0,0,1.926-1.926,1.932,1.932,0,0,0-1.926-1.926,1.883,1.883,0,0,0,1.358-.568,1.747,1.747,0,0,0,.414-.607Z" transform="translate(-23.05 -10)" fill="#ffc729"/>
        </g>
        <g id="Grupo_1208431" data-name="Grupo 1208431" transform="translate(26.969 13.484)">
          <path id="Trazado_1048358" data-name="Trazado 1048358" d="M31.926,26.595a1.935,1.935,0,0,0-1.878-1.926,9.632,9.632,0,1,1,1.724,6.53A1.923,1.923,0,0,0,30,28.521a1.94,1.94,0,0,0,1.926-1.926Zm1.926-.963a5.779,5.779,0,1,0,5.779-5.779A5.784,5.784,0,0,0,33.853,25.632Z" transform="translate(-30 -16)" fill="#fcd770"/>
        </g>
        <g id="Grupo_1208432" data-name="Grupo 1208432" transform="translate(1.926 23.116)">
          <path id="Trazado_1048359" data-name="Trazado 1048359" d="M9.779,39.484v1.926H4V26H9.779V39.484Z" transform="translate(-4 -26)" fill="#b4dd7f"/>
        </g>
        <g id="Grupo_1208433" data-name="Grupo 1208433" transform="translate(7.705 10.595)">
          <path id="Trazado_1048360" data-name="Trazado 1048360" d="M29.263,28.411a1.923,1.923,0,0,1,1.772,2.678,1.747,1.747,0,0,1-.414.607,1.883,1.883,0,0,1-1.358.568A1.932,1.932,0,0,1,31.19,34.19a1.94,1.94,0,0,1-1.926,1.926,1.937,1.937,0,0,1,1.917,1.763.881.881,0,0,1,.01.164,1.932,1.932,0,0,1-1.926,1.926H15.75a5.591,5.591,0,0,1-1.82-.3l-2-.665H10V27.447h.376a8.3,8.3,0,0,0,8.293-8.293V13.963A.966.966,0,0,1,19.632,13a2.894,2.894,0,0,1,2.889,2.889v6.742a1.86,1.86,0,0,0,.048.4,1.922,1.922,0,0,0,1.878,1.522h4.864a1.935,1.935,0,0,1,1.878,1.926,1.94,1.94,0,0,1-1.926,1.926Z" transform="translate(-10 -13)" fill="#f0d0b4"/>
        </g>
      </g>
      <g id="Grupo_1208435" data-name="Grupo 1208435" transform="translate(1 1)">
        <path id="Trazado_1048361" data-name="Trazado 1048361" d="M60.716,4.853V2.926A1.928,1.928,0,0,0,58.79,1H2.926A1.928,1.928,0,0,0,1,2.926V4.853A1.928,1.928,0,0,0,2.926,6.779v36.6A1.928,1.928,0,0,0,1,45.306v1.926a1.928,1.928,0,0,0,1.926,1.926H20.853L17,60.716h7.809l3.853-11.558h4.39L36.9,60.716h7.809L40.862,49.158H58.79a1.928,1.928,0,0,0,1.926-1.926V45.306a1.928,1.928,0,0,0-1.926-1.926V6.779A1.928,1.928,0,0,0,60.716,4.853ZM2.926,2.926H58.79V4.853H2.926ZM4.853,26.042H8.705V39.527H4.853ZM23.422,58.79H19.673l3.211-9.632h3.749Zm18.622,0H38.295l-3.21-9.632h3.749ZM58.791,47.232H2.926V45.306H58.79Zm-1.927-3.853H4.853V41.453h5.779V39.527h.807l1.851.617a6.732,6.732,0,0,0,2.132.346H28.932a2.886,2.886,0,0,0,2.845-2.451l.2-.1a14.463,14.463,0,0,0,2.147.885l.845,2.634h7.184L43,38.82a14.463,14.463,0,0,0,2.147-.885L47.6,39.2l5.08-5.079-1.264-2.455a14.361,14.361,0,0,0,.885-2.147l2.635-.846V21.487L52.3,20.643a14.385,14.385,0,0,0-.885-2.147l1.264-2.455-5.08-5.08-2.455,1.264A14.463,14.463,0,0,0,43,11.34l-.846-2.634H34.971l-.844,2.633a14.463,14.463,0,0,0-2.147.885L29.525,10.96l-5.08,5.08,1.264,2.455a14.509,14.509,0,0,0-.891,2.164l-1.665.588v-5.8A3.857,3.857,0,0,0,19.3,11.595a1.928,1.928,0,0,0-1.926,1.926v5.2A7.276,7.276,0,0,1,10.632,26V24.116H4.853V6.779H56.864ZM10.632,27.926A9.192,9.192,0,0,0,19.3,18.717v-5.2a1.928,1.928,0,0,1,1.926,1.926V22.19a2.893,2.893,0,0,0,2.889,2.889h4.816a.963.963,0,1,1,0,1.926H26.042v1.926h2.889a.963.963,0,1,1,0,1.926H26.042v1.926h2.889a.963.963,0,1,1,0,1.926H26.042v1.926h2.889a.963.963,0,0,1,0,1.926H15.422a4.8,4.8,0,0,1-1.523-.247L11.751,37.6H10.632ZM26.8,16.41l3.093-3.094L32.008,14.4l.451-.253a12.53,12.53,0,0,1,2.693-1.11l.5-.141.726-2.269H40.75l.727,2.269.5.141a12.53,12.53,0,0,1,2.693,1.11l.451.253,2.114-1.088,3.093,3.094-1.087,2.113.252.452A12.418,12.418,0,0,1,50.6,21.669l.141.5,2.269.725v4.374l-2.269.726-.141.5a12.368,12.368,0,0,1-1.111,2.693l-.253.452,1.088,2.114-3.093,3.093-2.114-1.087-.451.253a12.53,12.53,0,0,1-2.693,1.11l-.5.141-.726,2.269H36.377l-.727-2.269-.5-.141a12.53,12.53,0,0,1-2.693-1.11l-.451-.253-.631.325a2.93,2.93,0,0,0-.308-.4,2.866,2.866,0,0,0,.751-1.926,2.949,2.949,0,0,0-.056-.557,10.588,10.588,0,1,0-3.616-10.038H24.116a.94.94,0,0,1-.365-.074l2.639-.93.136-.48a12.466,12.466,0,0,1,1.111-2.694l.252-.452Zm3.259,6.973a8.7,8.7,0,1,1,1.706,7.052,2.813,2.813,0,0,0-.7-2.467,2.873,2.873,0,0,0-1.009-4.586Z" transform="translate(-1 -1)"/>
        <path id="Trazado_1048362" data-name="Trazado 1048362" d="M39.742,32.484A6.742,6.742,0,1,0,33,25.742,6.75,6.75,0,0,0,39.742,32.484Zm0-11.558a4.816,4.816,0,1,1-4.816,4.816A4.821,4.821,0,0,1,39.742,20.926Z" transform="translate(-2.179 -1.663)"/>
        <path id="Trazado_1048363" data-name="Trazado 1048363" d="M7,9h8.668v1.926H7Z" transform="translate(-1.221 -1.295)"/>
        <path id="Trazado_1048364" data-name="Trazado 1048364" d="M7,13h8.668v1.926H7Z" transform="translate(-1.221 -1.442)"/>
        <path id="Trazado_1048365" data-name="Trazado 1048365" d="M7,17h8.668v1.926H7Z" transform="translate(-1.221 -1.589)"/>
      </g>
    </g>
  </g>
</svg>
