<svg xmlns="http://www.w3.org/2000/svg" xmlns:xlink="http://www.w3.org/1999/xlink" width="118" height="118" viewBox="0 0 118 118">
  <defs>
    <filter id="Trazado_982547" x="0" y="0" width="118" height="118" filterUnits="userSpaceOnUse">
      <feOffset dy="3" input="SourceAlpha"/>
      <feGaussianBlur stdDeviation="3" result="blur"/>
      <feFlood flood-opacity="0.161"/>
      <feComposite operator="in" in2="blur"/>
      <feComposite in="SourceGraphic"/>
    </filter>
  </defs>
  <g id="Grupo_1202185" data-name="Grupo 1202185" transform="translate(9 6)">
    <g id="Grupo_1174813" data-name="Grupo 1174813">
      <g id="Grupo_1201680" data-name="Grupo 1201680">
        <g id="Grupo_1201330" data-name="Grupo 1201330">
          <g id="Grupo_1172010" data-name="Grupo 1172010">
            <g id="Grupo_1171046" data-name="Grupo 1171046">
              <g id="Grupo_1148525" data-name="Grupo 1148525">
                <g transform="matrix(1, 0, 0, 1, -9, -6)" filter="url(#Trazado_982547)">
                  <g id="Trazado_982547-2" data-name="Trazado 982547" transform="translate(9 6)" fill="#fdf4ce">
                    <path d="M 50 98.5 C 43.45188522338867 98.5 37.10042953491211 97.21787261962891 31.12207221984863 94.68923950195312 C 25.34691429138184 92.24655914306641 20.15997123718262 88.74931335449219 15.70532894134521 84.29468536376953 C 11.2506856918335 79.84004211425781 7.753442764282227 74.65309906005859 5.310757160186768 68.8779296875 C 2.782128572463989 62.89957046508789 1.5 56.54811477661133 1.5 50 C 1.5 43.45188522338867 2.782128572463989 37.10042953491211 5.310757160186768 31.12207221984863 C 7.753442764282227 25.34691429138184 11.2506856918335 20.15997123718262 15.70532894134521 15.70532894134521 C 20.15997123718262 11.2506856918335 25.34691429138184 7.753442764282227 31.12207221984863 5.310757160186768 C 37.10042953491211 2.782128572463989 43.45188522338867 1.5 50 1.5 C 56.54811477661133 1.5 62.89957046508789 2.782128572463989 68.8779296875 5.310757160186768 C 74.65309906005859 7.753442764282227 79.84004211425781 11.2506856918335 84.29468536376953 15.70532894134521 C 88.74931335449219 20.15997123718262 92.24655914306641 25.34691429138184 94.68923950195312 31.12207221984863 C 97.21787261962891 37.10042953491211 98.5 43.45188522338867 98.5 50 C 98.5 56.54811477661133 97.21787261962891 62.89957046508789 94.68923950195312 68.8779296875 C 92.24655914306641 74.65309906005859 88.74931335449219 79.84004211425781 84.29468536376953 84.29468536376953 C 79.84004211425781 88.74931335449219 74.65309906005859 92.24655914306641 68.8779296875 94.68923950195312 C 62.89957046508789 97.21787261962891 56.54811477661133 98.5 50 98.5 Z" stroke="none"/>
                    <path d="M 50 3 C 43.65372467041016 3 37.49886322021484 4.242263793945312 31.70639801025391 6.6922607421875 C 26.11003112792969 9.059326171875 21.08335113525391 12.44861602783203 16.76598358154297 16.76598358154297 C 12.44861602783203 21.08335113525391 9.059326171875 26.11003112792969 6.6922607421875 31.70639801025391 C 4.242263793945312 37.49886322021484 3 43.65372467041016 3 50 C 3 56.34627532958984 4.242263793945312 62.50113677978516 6.6922607421875 68.29360198974609 C 9.059326171875 73.88996887207031 12.44861602783203 78.91666412353516 16.76598358154297 83.23401641845703 C 21.08335113525391 87.55138397216797 26.11003112792969 90.940673828125 31.70639801025391 93.3077392578125 C 37.49886322021484 95.75773620605469 43.65372467041016 97 50 97 C 56.34627532958984 97 62.50113677978516 95.75773620605469 68.29360198974609 93.3077392578125 C 73.88996887207031 90.940673828125 78.91666412353516 87.55138397216797 83.23401641845703 83.23401641845703 C 87.55138397216797 78.91666412353516 90.940673828125 73.88996887207031 93.3077392578125 68.29360198974609 C 95.75773620605469 62.50113677978516 97 56.34627532958984 97 50 C 97 43.65372467041016 95.75773620605469 37.49886322021484 93.3077392578125 31.70639801025391 C 90.940673828125 26.11003112792969 87.55138397216797 21.08335113525391 83.23401641845703 16.76598358154297 C 78.91666412353516 12.44861602783203 73.88996887207031 9.059326171875 68.29360198974609 6.6922607421875 C 62.50113677978516 4.242263793945312 56.34627532958984 3 50 3 M 50 0 C 77.61424255371094 0 100 22.38577270507812 100 50 C 100 77.61424255371094 77.61424255371094 100 50 100 C 22.38577270507812 100 0 77.61424255371094 0 50 C 0 22.38577270507812 22.38577270507812 0 50 0 Z" stroke="none" fill="#866d08"/>
                  </g>
                </g>
              </g>
            </g>
          </g>
        </g>
      </g>
    </g>
    <g id="notes_17676734" transform="translate(23.161 16.838)">
      <g id="Grupo_1202186" data-name="Grupo 1202186" transform="translate(4.041 10.631)">
        <path id="Trazado_1040002" data-name="Trazado 1040002" d="M53.635,14.468l8.087,37.339A4.211,4.211,0,0,1,58.5,56.814L21.158,64.9a4.211,4.211,0,0,1-5.007-3.225L8.064,24.338a4.211,4.211,0,0,1,3.225-5.007l37.339-8.087a4.211,4.211,0,0,1,5.007,3.225Z" transform="translate(-7.045 -10.227)" fill="#53c496"/>
        <path id="Trazado_1040003" data-name="Trazado 1040003" d="M32.377,62.307,21.164,64.746a4.206,4.206,0,0,1-5.014-3.228l-1.563-7.178L8.062,24.185A4.228,4.228,0,0,1,11.29,19.17L28.668,15.41a41.672,41.672,0,0,0-5.341,20.864,42.658,42.658,0,0,0,3.881,18.065,32.32,32.32,0,0,0,5.169,7.968Z" transform="translate(-7.046 -10.072)" opacity="0.15"/>
        <path id="Trazado_1040004" data-name="Trazado 1040004" d="M20.3,65.951A5.142,5.142,0,0,1,15.282,61.9L7.2,24.565a5.134,5.134,0,0,1,3.931-6.1l37.34-8.087a5.145,5.145,0,0,1,6.1,3.93l8.086,37.34a5.129,5.129,0,0,1-3.93,6.1L21.386,65.834a5.109,5.109,0,0,1-1.086.117ZM49.552,12.1a3.314,3.314,0,0,0-.7.075L11.517,20.263A3.29,3.29,0,0,0,9,24.174l8.087,37.341A3.29,3.29,0,0,0,21,64.035l37.339-8.088a3.291,3.291,0,0,0,2.519-3.914L52.768,14.7A3.3,3.3,0,0,0,49.552,12.1Z" transform="translate(-7.078 -10.259)" fill="#101016"/>
      </g>
      <g id="Grupo_1202190" data-name="Grupo 1202190" transform="translate(0 7.354)">
        <g id="Grupo_1202188" data-name="Grupo 1202188">
          <path id="Trazado_1040005" data-name="Trazado 1040005" d="M50.7,12.2V36.443a4.211,4.211,0,0,1-1.233,2.978L35.5,53.38a4.211,4.211,0,0,1-2.978,1.233H8.279A4.211,4.211,0,0,1,4.067,50.4V12.2A4.211,4.211,0,0,1,8.279,7.986h38.2A4.211,4.211,0,0,1,50.7,12.2Z" transform="translate(-3.146 -7.064)" fill="#ffdc6e"/>
          <path id="Trazado_1040006" data-name="Trazado 1040006" d="M35.06,7.986a29.279,29.279,0,0,0-6.251,7.693,41.672,41.672,0,0,0-5.341,20.864A42.658,42.658,0,0,0,27.35,54.609H8.272A4.214,4.214,0,0,1,4.064,50.4V12.193A4.214,4.214,0,0,1,8.272,7.986Z" transform="translate(-3.147 -7.064)" opacity="0.15"/>
          <g id="Grupo_1202187" data-name="Grupo 1202187">
            <path id="Trazado_1040007" data-name="Trazado 1040007" d="M32.557,55.567H8.311a5.137,5.137,0,0,1-5.133-5.132V12.229A5.138,5.138,0,0,1,8.311,7.1h38.2a5.137,5.137,0,0,1,5.132,5.133V36.476a5.167,5.167,0,0,1-1.5,3.629L36.186,54.064a5.1,5.1,0,0,1-3.629,1.5ZM8.311,8.939a3.294,3.294,0,0,0-3.29,3.29V50.435a3.294,3.294,0,0,0,3.29,3.289H32.557a3.268,3.268,0,0,0,2.327-.963L48.843,38.8a3.312,3.312,0,0,0,.963-2.327V12.229a3.294,3.294,0,0,0-3.289-3.29H8.311Z" transform="translate(-3.179 -7.096)" fill="#101016"/>
            <path id="Trazado_1040008" data-name="Trazado 1040008" d="M42.815,21.666H11.476a.921.921,0,0,1,0-1.843h31.34a.921.921,0,1,1,0,1.843Z" transform="translate(-2.911 -6.634)" fill="#101016"/>
            <path id="Trazado_1040009" data-name="Trazado 1040009" d="M42.815,31.436H11.476a.921.921,0,0,1,0-1.843h31.34a.921.921,0,1,1,0,1.843Z" transform="translate(-2.911 -6.28)" fill="#101016"/>
            <path id="Trazado_1040010" data-name="Trazado 1040010" d="M25.32,41.206H11.476a.921.921,0,0,1,0-1.843H25.32a.921.921,0,0,1,0,1.843Z" transform="translate(-2.911 -5.925)" fill="#101016"/>
          </g>
        </g>
        <g id="Grupo_1202189" data-name="Grupo 1202189" transform="translate(30.202 30.202)">
          <path id="Trazado_1040011" data-name="Trazado 1040011" d="M49.247,37.129a3.985,3.985,0,0,1-.846,1.236L34.447,52.319a3.985,3.985,0,0,1-1.236.846V40.3a3.165,3.165,0,0,1,3.171-3.171Z" transform="translate(-32.29 -36.208)" fill="#ffedad"/>
          <path id="Trazado_1040012" data-name="Trazado 1040012" d="M33.244,54.118a.923.923,0,0,1-.921-.921V40.334a4.1,4.1,0,0,1,4.093-4.093H49.28a.921.921,0,0,1,.846,1.287,4.937,4.937,0,0,1-1.042,1.522L35.13,53a4.918,4.918,0,0,1-1.525,1.042.939.939,0,0,1-.362.074Zm3.171-16.036a2.252,2.252,0,0,0-2.249,2.251V51.362L47.445,38.083Z" transform="translate(-32.322 -36.24)" fill="#101016"/>
        </g>
      </g>
      <g id="Grupo_1202193" data-name="Grupo 1202193" transform="translate(12.568)">
        <g id="Grupo_1202191" data-name="Grupo 1202191" transform="translate(4.89 4.915)">
          <path id="Trazado_1040013" data-name="Trazado 1040013" d="M27.954,12.649a1.626,1.626,0,0,1-2.3,0L21.389,8.385a1.626,1.626,0,1,1,2.3-2.3l4.264,4.264A1.626,1.626,0,0,1,27.954,12.649Z" transform="translate(-19.993 -4.711)" fill="#f0f0fc"/>
          <path id="Trazado_1040014" data-name="Trazado 1040014" d="M26.836,14.077a2.539,2.539,0,0,1-1.8-.745L20.77,9.068a2.551,2.551,0,0,1,0-3.6,2.609,2.609,0,0,1,3.6,0l4.264,4.264a2.546,2.546,0,0,1-1.8,4.348ZM22.572,6.561a.7.7,0,0,0-.5,1.2l4.264,4.264a.705.705,0,1,0,1-1L23.07,6.767a.7.7,0,0,0-.5-.206Z" transform="translate(-20.025 -4.742)" fill="#101016"/>
        </g>
        <g id="Grupo_1202192" data-name="Grupo 1202192">
          <circle id="Elipse_12297" data-name="Elipse 12297" cx="5.251" cy="5.251" r="5.251" transform="translate(0.917 0.918)" fill="#f7524b"/>
          <path id="Trazado_1040015" data-name="Trazado 1040015" d="M21.475,12.338a6.168,6.168,0,1,1,4.363-1.8A6.15,6.15,0,0,1,21.475,12.338Zm0-10.5a4.326,4.326,0,1,0,3.061,1.266,4.315,4.315,0,0,0-3.061-1.266Z" transform="translate(-15.306 0)" fill="#101016"/>
        </g>
      </g>
    </g>
  </g>
</svg>
