<svg xmlns="http://www.w3.org/2000/svg" xmlns:xlink="http://www.w3.org/1999/xlink" width="113" height="113" viewBox="0 0 113 113">
  <defs>
    <filter id="Trazado_982547" x="0" y="0" width="113" height="113" filterUnits="userSpaceOnUse">
      <feOffset dy="3" input="SourceAlpha"/>
      <feGaussianBlur stdDeviation="3" result="blur"/>
      <feFlood flood-opacity="0.161"/>
      <feComposite operator="in" in2="blur"/>
      <feComposite in="SourceGraphic"/>
    </filter>
  </defs>
  <g id="Grupo_1208459" data-name="Grupo 1208459" transform="translate(-5148 -929.816)">
    <g id="Grupo_1208141" data-name="Grupo 1208141" transform="translate(4036 -4697.609)">
      <g id="Grupo_1202104" data-name="Grupo 1202104" transform="translate(0 -1149.226)">
        <g id="Grupo_1201923" data-name="Grupo 1201923" transform="translate(-4174.49 4856.378)">
          <g id="Grupo_1176928" data-name="Grupo 1176928" transform="translate(5295.49 1926.273)">
            <g id="Grupo_1172322" data-name="Grupo 1172322" transform="translate(0 0)">
              <g id="Grupo_1164700" data-name="Grupo 1164700">
                <g id="Grupo_1160931" data-name="Grupo 1160931">
                  <g id="Grupo_1160749" data-name="Grupo 1160749">
                    <g id="Grupo_1158891" data-name="Grupo 1158891">
                      <g id="Grupo_1157406" data-name="Grupo 1157406">
                        <g id="Grupo_1155793" data-name="Grupo 1155793">
                          <g id="Grupo_1154704" data-name="Grupo 1154704">
                            <g id="Grupo_1150790" data-name="Grupo 1150790">
                              <g id="Grupo_1154214" data-name="Grupo 1154214">
                                <g id="Grupo_1152583" data-name="Grupo 1152583">
                                  <g id="Grupo_1146973" data-name="Grupo 1146973">
                                    <g id="Grupo_1146954" data-name="Grupo 1146954">
                                      <g transform="matrix(1, 0, 0, 1, -9, -6)" filter="url(#Trazado_982547)">
                                        <g id="Trazado_982547-2" data-name="Trazado 982547" transform="translate(9 6)" fill="#f6ecfe">
                                          <path d="M 47.5000114440918 93.49987030029297 C 41.28938293457031 93.49987030029297 35.26534652709961 92.28384399414062 29.5951976776123 89.88558959960938 C 24.11773109436035 87.56881713867188 19.19814491271973 84.25183868408203 14.97310447692871 80.02680206298828 C 10.74805164337158 75.80176544189453 7.43107795715332 70.88218688964844 5.114304542541504 65.40472412109375 C 2.716038227081299 59.73458862304688 1.500011444091797 53.71054840087891 1.500011444091797 47.49993515014648 C 1.500011444091797 41.28932189941406 2.716038227081299 35.26528167724609 5.114304542541504 29.59514808654785 C 7.43107795715332 24.1176815032959 10.74805164337158 19.1981086730957 14.97310447692871 14.97306823730469 C 19.19814491271973 10.74802875518799 24.11773109436035 7.431055068969727 29.5951976776123 5.11428165435791 C 35.26534652709961 2.716028451919556 41.28938293457031 1.500001788139343 47.5000114440918 1.500001788139343 C 53.71063995361328 1.500001788139343 59.73467636108398 2.716028451919556 65.40482330322266 5.11428165435791 C 70.88229370117188 7.431055068969727 75.8018798828125 10.74802875518799 80.02691650390625 14.97306823730469 C 84.25196838378906 19.1981086730957 87.56894683837891 24.1176815032959 89.88571929931641 29.59514808654785 C 92.28398132324219 35.26528167724609 93.50001525878906 41.28932189941406 93.50001525878906 47.49993515014648 C 93.50001525878906 53.71054840087891 92.28398132324219 59.73458862304688 89.88571929931641 65.40472412109375 C 87.56894683837891 70.88218688964844 84.25196838378906 75.80176544189453 80.02691650390625 80.02680206298828 C 75.8018798828125 84.25183868408203 70.88229370117188 87.56881713867188 65.40482330322266 89.88558959960938 C 59.73467636108398 92.28384399414062 53.71063995361328 93.49987030029297 47.5000114440918 93.49987030029297 Z" stroke="none"/>
                                          <path d="M 47.5000114440918 3 C 41.49122619628906 3 35.66378021240234 4.1761474609375 30.17951965332031 6.495796203613281 C 24.880859375 8.7369384765625 20.12153625488281 11.94596862792969 16.03376770019531 16.03373718261719 C 11.94598388671875 20.12149047851562 8.736968994140625 24.88081359863281 6.495811462402344 30.17947387695312 C 4.176162719726562 35.66371917724609 3.000007629394531 41.49116516113281 3.000007629394531 47.49993515014648 C 3.000007629394531 53.50870513916016 4.176162719726562 59.33615112304688 6.495811462402344 64.82039642333984 C 8.736968994140625 70.11905670166016 11.94598388671875 74.87837982177734 16.03376770019531 78.96613311767578 C 20.12153625488281 83.05390167236328 24.880859375 86.26293182373047 30.17951965332031 88.50407409667969 C 35.66378021240234 90.82372283935547 41.49122619628906 91.99987030029297 47.5000114440918 91.99987030029297 C 53.50879669189453 91.99987030029297 59.33624267578125 90.82372283935547 64.82050323486328 88.50407409667969 C 70.11916351318359 86.26293182373047 74.87848663330078 83.05390167236328 78.96625518798828 78.96613311767578 C 83.05403900146484 74.87837982177734 86.2630615234375 70.11905670166016 88.50421142578125 64.82039642333984 C 90.82386016845703 59.33615112304688 92.00001525878906 53.50870513916016 92.00001525878906 47.49993515014648 C 92.00001525878906 41.49116516113281 90.82386016845703 35.66371917724609 88.50421142578125 30.17947387695312 C 86.2630615234375 24.88081359863281 83.05403900146484 20.12149047851562 78.96625518798828 16.03373718261719 C 74.87848663330078 11.94596862792969 70.11916351318359 8.7369384765625 64.82050323486328 6.495796203613281 C 59.33624267578125 4.1761474609375 53.50879669189453 3 47.5000114440918 3 M 47.5000114440918 0 C 73.73353576660156 0 95.00001525878906 21.26644134521484 95.00001525878906 47.49993515014648 C 95.00001525878906 73.73342895507812 73.73353576660156 94.99987030029297 47.5000114440918 94.99987030029297 C 21.26648712158203 94.99987030029297 7.62939453125e-06 73.73342895507812 7.62939453125e-06 47.49993515014648 C 7.62939453125e-06 21.26644134521484 21.26648712158203 0 47.5000114440918 0 Z" stroke="none" fill="#aa52f9"/>
                                        </g>
                                      </g>
                                    </g>
                                  </g>
                                </g>
                              </g>
                            </g>
                          </g>
                        </g>
                      </g>
                    </g>
                  </g>
                </g>
              </g>
            </g>
          </g>
        </g>
      </g>
    </g>
    <g id="learning_4964043" transform="translate(5174 952)">
      <g id="Grupo_1208457" data-name="Grupo 1208457">
        <g id="Grupo_1208441" data-name="Grupo 1208441">
          <path id="Trazado_1048403" data-name="Trazado 1048403" d="M35.24,16.07l2.83-2.83-1.66-1.66c.12-.28.12-.3.24-.58H39V7H60a1,1,0,0,1,1,1V26a1,1,0,0,1-1,1H50l-1.55,3.11a1.626,1.626,0,0,1-2.9,0L44,27H34a1,1,0,0,1-1-1V14.65c.28-.12.3-.12.58-.24Z" fill="#e6e9ed"/>
        </g>
        <g id="Grupo_1208442" data-name="Grupo 1208442">
          <path id="Trazado_1048404" data-name="Trazado 1048404" d="M1,26V8A1,1,0,0,1,2,7H23v4h2.35c.12.28.13.3.24.58l-1.66,1.66,2.83,2.83,1.66-1.66c.28.11.3.12.58.24V26a1,1,0,0,1-1,1H18l-1.55,3.11a1.626,1.626,0,0,1-2.9,0L12,27H2a1,1,0,0,1-1-1Z" fill="#e6e9ed"/>
        </g>
        <g id="Grupo_1208443" data-name="Grupo 1208443">
          <path id="Trazado_1048405" data-name="Trazado 1048405" d="M39,7v4H36.65c-.12.28-.12.3-.24.58l1.66,1.66-2.83,2.83-1.66-1.66c-.28.12-.3.12-.58.24V17H29V14.65c-.28-.12-.3-.13-.58-.24l-1.66,1.66-2.83-2.83,1.66-1.66c-.11-.28-.12-.3-.24-.58H23V7h2.35c.12-.28.12-.3.24-.58L23.93,4.76l2.83-2.83,1.66,1.66c.28-.12.3-.12.58-.24V1h4V3.35c.28.12.3.12.58.24l1.66-1.66,2.83,2.83L36.41,6.42c.12.28.12.3.24.58ZM33,9a2,2,0,1,0-2,2A2.006,2.006,0,0,0,33,9Z" fill="#fcd770"/>
        </g>
        <g id="Grupo_1208444" data-name="Grupo 1208444">
          <path id="Trazado_1048406" data-name="Trazado 1048406" d="M39.06,39.5A3.989,3.989,0,0,0,37,43v2H36a3,3,0,0,0-1.94.71,3.965,3.965,0,0,1-.5-4.73A3.9,3.9,0,0,1,33,39a3.98,3.98,0,0,1,3.01-3.86c0-.05-.01-.09-.01-.14a3.981,3.981,0,0,1,6-3.45,3.936,3.936,0,0,1,5,.83,3.936,3.936,0,0,1,5-.83A3.981,3.981,0,0,1,58,35c0,.05-.01.09-.01.14A3.98,3.98,0,0,1,61,39a3.9,3.9,0,0,1-.56,1.98,3.965,3.965,0,0,1-.5,4.73A3,3,0,0,0,58,45H57V43a3.989,3.989,0,0,0-2.06-3.5,8.921,8.921,0,0,1-.53.91A1.955,1.955,0,0,1,53,41H41A2.016,2.016,0,0,1,39.06,39.5Z" fill="#656d78"/>
        </g>
        <g id="Grupo_1208445" data-name="Grupo 1208445">
          <path id="Trazado_1048407" data-name="Trazado 1048407" d="M59.94,45.71A3,3,0,0,1,58,51H57V45h1A3,3,0,0,1,59.94,45.71Z" fill="#f0d0b4"/>
        </g>
        <g id="Grupo_1208446" data-name="Grupo 1208446">
          <path id="Trazado_1048408" data-name="Trazado 1048408" d="M39.06,39.5A2.016,2.016,0,0,0,41,41H53a1.955,1.955,0,0,0,1.41-.59,8.919,8.919,0,0,0,.53-.91A3.989,3.989,0,0,1,57,43V53a8,8,0,0,1-8,8H45a8,8,0,0,1-8-8V43A3.989,3.989,0,0,1,39.06,39.5Z" fill="#f0d0b4"/>
        </g>
        <g id="Grupo_1208447" data-name="Grupo 1208447">
          <path id="Trazado_1048409" data-name="Trazado 1048409" d="M37,45v6H36a3,3,0,1,1,0-6Z" fill="#f0d0b4"/>
        </g>
        <g id="Grupo_1208450" data-name="Grupo 1208450">
          <path id="Trazado_1048410" data-name="Trazado 1048410" d="M9.18,39H9a4,4,0,0,0-4,4v2H4a3.006,3.006,0,0,0-2.04.8l-.78-3.92A8.811,8.811,0,0,1,1,40.1,9.082,9.082,0,0,1,10.1,31h9.8A9.1,9.1,0,0,1,29,40.1a8.811,8.811,0,0,1-.18,1.78l-.78,3.92A3.006,3.006,0,0,0,26,45H25a4,4,0,0,0-4-4H12a2.993,2.993,0,0,1-2.12-.88A2.838,2.838,0,0,1,9.18,39Z" fill="#b27946"/>
        </g>
        <g id="Grupo_1208451" data-name="Grupo 1208451">
          <path id="Trazado_1048411" data-name="Trazado 1048411" d="M28.04,45.8A3,3,0,0,1,26,51H25V45h1A3.006,3.006,0,0,1,28.04,45.8Z" fill="#f0d0b4"/>
        </g>
        <g id="Grupo_1208452" data-name="Grupo 1208452">
          <path id="Trazado_1048412" data-name="Trazado 1048412" d="M25,51v2a8,8,0,0,1-8,8H13a8,8,0,0,1-8-8V43a4,4,0,0,1,4-4h.18a2.838,2.838,0,0,0,.7,1.12A2.993,2.993,0,0,0,12,41h9a4,4,0,0,1,4,4Z" fill="#f0d0b4"/>
        </g>
        <g id="Grupo_1208453" data-name="Grupo 1208453">
          <path id="Trazado_1048413" data-name="Trazado 1048413" d="M5,45v6H4a3,3,0,1,1,0-6Z" fill="#f0d0b4"/>
        </g>
      </g>
      <g id="Grupo_1208458" data-name="Grupo 1208458">
        <path id="Trazado_1048421" data-name="Trazado 1048421" d="M4,22H6v2H4Z"/>
        <path id="Trazado_1048422" data-name="Trazado 1048422" d="M8,22h2v2H8Z"/>
        <path id="Trazado_1048423" data-name="Trazado 1048423" d="M12,22h2v2H12Z"/>
        <path id="Trazado_1048424" data-name="Trazado 1048424" d="M4,18H20v2H4Z"/>
        <path id="Trazado_1048425" data-name="Trazado 1048425" d="M4,14H20v2H4Z"/>
        <path id="Trazado_1048426" data-name="Trazado 1048426" d="M4,10H8v2H4Z"/>
        <path id="Trazado_1048427" data-name="Trazado 1048427" d="M10,10H20v2H10Z"/>
        <path id="Trazado_1048428" data-name="Trazado 1048428" d="M31,6a3,3,0,1,0,3,3A3,3,0,0,0,31,6Zm0,4a1,1,0,1,1,1-1A1,1,0,0,1,31,10Z"/>
        <path id="Trazado_1048429" data-name="Trazado 1048429" d="M60,28a2,2,0,0,0,2-2V8a2,2,0,0,0-2-2H38.243l1.242-1.242L35.242.515,34,1.758V0H28V1.758L26.757.515,22.515,4.758,23.757,6H2A2,2,0,0,0,0,8V26a2,2,0,0,0,2,2h9.382l1,2H10.1A10.1,10.1,0,0,0,.2,42.08l.688,3.442A3.978,3.978,0,0,0,4,52v1a9.01,9.01,0,0,0,9,9h4a9.01,9.01,0,0,0,9-9V52a4,4,0,0,0,4-4,3.962,3.962,0,0,0-.885-2.478L29.8,42.08A10.1,10.1,0,0,0,19.9,30H17.618l1-2H28a2,2,0,0,0,2-2V18h2v8a2,2,0,0,0,2,2h9.382L44.4,30.036a4.866,4.866,0,0,0-2.4.4A4.845,4.845,0,0,0,40,30a5.007,5.007,0,0,0-4.966,4.416A4.984,4.984,0,0,0,32,39a4.75,4.75,0,0,0,.438,1.986A4.924,4.924,0,0,0,32,43a4.986,4.986,0,0,0,.769,2.662A3.985,3.985,0,0,0,36,52v1a9.01,9.01,0,0,0,9,9h4a9.01,9.01,0,0,0,9-9V52a4,4,0,0,0,4-4,3.961,3.961,0,0,0-.769-2.338A4.984,4.984,0,0,0,62,43a4.924,4.924,0,0,0-.438-2.014A4.75,4.75,0,0,0,62,39a4.984,4.984,0,0,0-3.034-4.584A5.007,5.007,0,0,0,54,30a4.845,4.845,0,0,0-2,.432,4.864,4.864,0,0,0-2.4-.4L50.618,28ZM2,48a2,2,0,0,1,2-2v4A2,2,0,0,1,2,48Zm22,5a7.008,7.008,0,0,1-7,7H13a7.008,7.008,0,0,1-7-7V43a3.005,3.005,0,0,1,2.556-2.967A4,4,0,0,0,12,42h9a3,3,0,0,1,3,3Zm2-3V46a2,2,0,0,1,0,4Zm2-9.9a8.146,8.146,0,0,1-.157,1.589l-.511,2.558A3.934,3.934,0,0,0,26,44h-.1A5.009,5.009,0,0,0,21,40H12a2,2,0,0,1,0-4V34a4,4,0,0,0-4,4c0,.033,0,.066,0,.1A5.007,5.007,0,0,0,4,43v1a3.948,3.948,0,0,0-1.331.245l-.511-2.558A8.1,8.1,0,0,1,10.1,32h9.8A8.108,8.108,0,0,1,28,40.1ZM28,26H17.382l-1.829,3.658a.64.64,0,0,1-1.1,0L12.618,26H2V8H22v4h1.757l-1.242,1.242,4.242,4.243L28,16.243Zm5.815-12.771L32,13.982V16H30V13.982l-1.815-.753-1.428,1.428-1.414-1.415,1.428-1.429L26.019,10H24V8h2.018l.752-1.815L25.343,4.758l1.414-1.415,1.427,1.428L30,4.018V2h2V4.018l1.815.753,1.427-1.428,1.415,1.415L35.23,6.185,35.982,8H38v2H35.982l-.752,1.815,1.427,1.427-1.415,1.415ZM34,26V16.242l1.243,1.243,4.243-4.243L38.243,12H40V8H60V26H49.382l-1.829,3.658a.64.64,0,0,1-1.1,0L44.618,26Zm0,22a2,2,0,0,1,2-2v4A2,2,0,0,1,34,48Zm22,5a7.008,7.008,0,0,1-7,7H45a7.008,7.008,0,0,1-7-7V43a2.989,2.989,0,0,1,.785-1.995A2.978,2.978,0,0,0,41,42H53a2.978,2.978,0,0,0,2.215-.995A2.989,2.989,0,0,1,56,43Zm2-3V46a2,2,0,0,1,0,4ZM51.5,32.419l.5.293.5-.293A2.947,2.947,0,0,1,54,32a3,3,0,0,1,3,2.931l-.042.977.778.2A2.991,2.991,0,0,1,60,39a2.886,2.886,0,0,1-.425,1.477l-.3.507.3.508A2.945,2.945,0,0,1,60,43a2.983,2.983,0,0,1-.344,1.369A3.959,3.959,0,0,0,58,44V43a5.006,5.006,0,0,0-2-4h0a3,3,0,0,0-3-3H52v2h1a1,1,0,0,1,0,2H41a1,1,0,0,1,0-2h1V36H41a3,3,0,0,0-3,3h0a5.007,5.007,0,0,0-2,4v1a3.959,3.959,0,0,0-1.656.369A2.987,2.987,0,0,1,34,43a2.952,2.952,0,0,1,.425-1.509l.3-.508-.3-.507A2.88,2.88,0,0,1,34,39a2.993,2.993,0,0,1,2.261-2.9l.778-.2-.025-.8c0-.058-.005-.113-.014-.1a3,3,0,0,1,3-3,2.947,2.947,0,0,1,1.5.419l.5.293.5-.293a2.951,2.951,0,0,1,3.744.619L47,33.9l.753-.861a2.951,2.951,0,0,1,3.744-.619Z"/>
        <path id="Trazado_1048430" data-name="Trazado 1048430" d="M47,12a3,3,0,0,1,0,6H46v4h2V19.9A5,5,0,1,0,42,15v1h2V15A3,3,0,0,1,47,12Z"/>
        <path id="Trazado_1048431" data-name="Trazado 1048431" d="M46,24h2v2H46Z"/>
      </g>
    </g>
  </g>
</svg>
