<svg xmlns="http://www.w3.org/2000/svg" xmlns:xlink="http://www.w3.org/1999/xlink" width="113" height="113" viewBox="0 0 113 113">
  <defs>
    <filter id="Trazado_982547" x="0" y="0" width="113" height="113" filterUnits="userSpaceOnUse">
      <feOffset dy="3" input="SourceAlpha"/>
      <feGaussianBlur stdDeviation="3" result="blur"/>
      <feFlood flood-opacity="0.161"/>
      <feComposite operator="in" in2="blur"/>
      <feComposite in="SourceGraphic"/>
    </filter>
  </defs>
  <g id="Grupo_1208540" data-name="Grupo 1208540" transform="translate(-272 -3817.905)">
    <g id="Grupo_1208154" data-name="Grupo 1208154" transform="translate(0 -2083.095)">
      <g id="Grupo_1202432" data-name="Grupo 1202432" transform="translate(0 1255.486)">
        <g id="Grupo_1202055" data-name="Grupo 1202055" transform="translate(0 3240.511)">
          <g id="Grupo_1177900" data-name="Grupo 1177900" transform="translate(281 1411.003)">
            <g id="Grupo_1172010" data-name="Grupo 1172010" transform="translate(0)">
              <g id="Grupo_1171046" data-name="Grupo 1171046">
                <g id="Grupo_1148525" data-name="Grupo 1148525">
                  <g transform="matrix(1, 0, 0, 1, -9, -6)" filter="url(#Trazado_982547)">
                    <g id="Trazado_982547-2" data-name="Trazado 982547" transform="translate(9 6)" fill="#e5fdfa">
                      <path d="M 47.5 93.5 C 41.28937149047852 93.5 35.26533508300781 92.28397369384766 29.59518623352051 89.88570404052734 C 24.11771965026855 87.56893157958984 19.19813346862793 84.25196075439453 14.97309303283691 80.02691650390625 C 10.74804019927979 75.80186462402344 7.431066513061523 70.88229370117188 5.114293098449707 65.40481567382812 C 2.716026782989502 59.73468017578125 1.5 53.71062850952148 1.5 47.5 C 1.5 41.28937149047852 2.716026782989502 35.26533508300781 5.114293098449707 29.59518623352051 C 7.431066513061523 24.11771965026855 10.74804019927979 19.19813346862793 14.97309303283691 14.97309303283691 C 19.19813346862793 10.74804019927979 24.11771965026855 7.431066513061523 29.59518623352051 5.114293098449707 C 35.26533508300781 2.716026782989502 41.28937149047852 1.5 47.5 1.5 C 53.71062850952148 1.5 59.73468017578125 2.716026782989502 65.40481567382812 5.114293098449707 C 70.88229370117188 7.431066513061523 75.80186462402344 10.74804019927979 80.02691650390625 14.97309303283691 C 84.25196075439453 19.19813346862793 87.56893157958984 24.11771965026855 89.88570404052734 29.59518623352051 C 92.28397369384766 35.26533508300781 93.5 41.28937149047852 93.5 47.5 C 93.5 53.71062850952148 92.28397369384766 59.73468017578125 89.88570404052734 65.40481567382812 C 87.56893157958984 70.88229370117188 84.25196075439453 75.80186462402344 80.02691650390625 80.02691650390625 C 75.80186462402344 84.25196075439453 70.88229370117188 87.56893157958984 65.40481567382812 89.88570404052734 C 59.73468017578125 92.28397369384766 53.71062850952148 93.5 47.5 93.5 Z" stroke="none"/>
                      <path d="M 47.5 3 C 41.49121475219727 3 35.66376876831055 4.176155090332031 30.17950439453125 6.495796203613281 C 24.88084411621094 8.736953735351562 20.12152099609375 11.94598388671875 16.03375244140625 16.03375244140625 C 11.94598388671875 20.12152099609375 8.736953735351562 24.88084411621094 6.495796203613281 30.17950439453125 C 4.176155090332031 35.66376876831055 3 41.49121475219727 3 47.5 C 3 53.50878524780273 4.176155090332031 59.33623123168945 6.495796203613281 64.82049560546875 C 8.736953735351562 70.11915588378906 11.94598388671875 74.87847900390625 16.03375244140625 78.96624755859375 C 20.12152099609375 83.05401611328125 24.88084411621094 86.26304626464844 30.17950439453125 88.50419616699219 C 35.66376876831055 90.82384490966797 41.49121475219727 92 47.5 92 C 53.50878524780273 92 59.33623123168945 90.82384490966797 64.82049560546875 88.50419616699219 C 70.11915588378906 86.26304626464844 74.87847900390625 83.05401611328125 78.96624755859375 78.96624755859375 C 83.05401611328125 74.87847900390625 86.26304626464844 70.11915588378906 88.50419616699219 64.82049560546875 C 90.82384490966797 59.33623123168945 92 53.50878524780273 92 47.5 C 92 41.49121475219727 90.82384490966797 35.66376876831055 88.50419616699219 30.17950439453125 C 86.26304626464844 24.88084411621094 83.05401611328125 20.12152099609375 78.96624755859375 16.03375244140625 C 74.87847900390625 11.94598388671875 70.11915588378906 8.736953735351562 64.82049560546875 6.495796203613281 C 59.33623123168945 4.176155090332031 53.50878524780273 3 47.5 3 M 47.5 0 C 73.7335205078125 0 95 21.2664794921875 95 47.5 C 95 73.7335205078125 73.7335205078125 95 47.5 95 C 21.2664794921875 95 0 73.7335205078125 0 47.5 C 0 21.2664794921875 21.2664794921875 0 47.5 0 Z" stroke="none" fill="#098576"/>
                    </g>
                  </g>
                </g>
              </g>
            </g>
          </g>
        </g>
      </g>
    </g>
    <g id="benchmark_5143377" transform="translate(272.902 3840.926)">
      <g id="Grupo_1208538" data-name="Grupo 1208538" transform="translate(26.401 0.976)">
        <path id="Trazado_1048997" data-name="Trazado 1048997" d="M55.54,22.321a10.81,10.81,0,0,0,0-2.531,1.516,1.516,0,0,1,.464-1.292l1.5-1.4a1.475,1.475,0,0,0,.27-1.816L56.61,13.265a1.475,1.475,0,0,0-1.708-.674l-1.962.6a1.506,1.506,0,0,1-1.349-.244,10.158,10.158,0,0,0-2.176-1.26,1.519,1.519,0,0,1-.895-1.051L48.058,8.64A1.475,1.475,0,0,0,46.621,7.5h-2.33A1.475,1.475,0,0,0,42.854,8.64l-.462,1.994a1.519,1.519,0,0,1-.895,1.051,10.147,10.147,0,0,0-2.176,1.26,1.506,1.506,0,0,1-1.349.244l-1.962-.6a1.475,1.475,0,0,0-1.708.674l-1.165,2.018a1.475,1.475,0,0,0,.27,1.816l1.5,1.4a1.5,1.5,0,0,1,.465,1.279,10.81,10.81,0,0,0,0,2.531,1.516,1.516,0,0,1-.464,1.292l-1.5,1.4a1.475,1.475,0,0,0-.27,1.816L34.3,28.834a1.475,1.475,0,0,0,1.708.674l1.962-.6a1.506,1.506,0,0,1,1.349.244,10.158,10.158,0,0,0,2.176,1.26,1.519,1.519,0,0,1,.895,1.051l.462,1.994A1.475,1.475,0,0,0,44.291,34.6h2.33a1.475,1.475,0,0,0,1.437-1.142l.462-1.994a1.519,1.519,0,0,1,.895-1.051,10.147,10.147,0,0,0,2.176-1.26,1.506,1.506,0,0,1,1.349-.244l1.962.6a1.475,1.475,0,0,0,1.708-.674l1.165-2.017A1.475,1.475,0,0,0,57.5,25l-1.5-1.4a1.5,1.5,0,0,1-.465-1.279Z" transform="translate(-32.94 -7.498)" fill="#eaf6ff"/>
        <path id="Trazado_1048998" data-name="Trazado 1048998" d="M124.954,11.685a10.131,10.131,0,0,1,2.091,1.2l-1.01.307a1.5,1.5,0,0,1-1.348-.245,10.188,10.188,0,0,0-2.176-1.26,1.521,1.521,0,0,1-.9-1.05l-.462-1.994A1.476,1.476,0,0,0,119.781,7.5h2.379A1.475,1.475,0,0,1,123.6,8.641l.462,1.994A1.521,1.521,0,0,0,124.954,11.685Z" transform="translate(-108.479 -7.498)" fill="#c8effe"/>
        <path id="Trazado_1048999" data-name="Trazado 1048999" d="M192.155,58.618a1.477,1.477,0,0,1,.271,1.816l-1.165,2.017a1.474,1.474,0,0,1-1.708.673l-1.028-.314a1.439,1.439,0,0,0,.293-.359l1.165-2.017a1.477,1.477,0,0,0-.271-1.816l-1.5-1.4a1.5,1.5,0,0,1-.465-1.279,10.827,10.827,0,0,0,0-2.531,1.519,1.519,0,0,1,.463-1.292l1.5-1.4a1.479,1.479,0,0,0,.271-1.817l-1.165-2.017a1.443,1.443,0,0,0-.294-.359l1.029-.314a1.476,1.476,0,0,1,1.708.673l1.165,2.017a1.479,1.479,0,0,1-.271,1.817l-1.5,1.4a1.519,1.519,0,0,0-.463,1.292,10.825,10.825,0,0,1,0,2.531,1.5,1.5,0,0,0,.465,1.279Z" transform="translate(-167.591 -41.114)" fill="#c8effe"/>
        <circle id="Elipse_12572" data-name="Elipse 12572" cx="5.602" cy="5.602" r="5.602" transform="translate(6.915 7.95)" fill="#99e6fc"/>
        <path id="Trazado_1049000" data-name="Trazado 1049000" d="M121.726,74.181a5.605,5.605,0,0,1-7.545,5.255,5.6,5.6,0,0,0,0-10.512,5.605,5.605,0,0,1,7.545,5.257Z" transform="translate(-103.608 -60.629)" fill="#62dbfb"/>
        <path id="Trazado_1049001" data-name="Trazado 1049001" d="M93.811,244.362v12.459H81.39V244.362a2.322,2.322,0,0,1,2.322-2.322H91.49A2.322,2.322,0,0,1,93.811,244.362Z" transform="translate(-75.084 -211.515)" fill="#cb97e7"/>
        <path id="Trazado_1049002" data-name="Trazado 1049002" d="M134.373,244.362v12.459h-4.031V244.362a2.322,2.322,0,0,0-2.322-2.322h4.031A2.322,2.322,0,0,1,134.373,244.362Z" transform="translate(-115.645 -211.515)" fill="#b289c9"/>
        <path id="Trazado_1049003" data-name="Trazado 1049003" d="M93.811,271.262V282.2H81.39v-5.928a15.13,15.13,0,0,1,11.3-5.055C93.071,271.22,93.443,271.233,93.811,271.262Z" transform="translate(-75.084 -236.897)" fill="#b289c9"/>
        <path id="Trazado_1049004" data-name="Trazado 1049004" d="M231.5,215.832H219.079V197.24a2.322,2.322,0,0,1,2.322-2.322h7.778a2.322,2.322,0,0,1,2.322,2.322v18.591Z" transform="translate(-194.853 -170.526)" fill="#ffe177"/>
        <path id="Trazado_1049005" data-name="Trazado 1049005" d="M272.063,197.242v18.592h-4.031V197.242a2.322,2.322,0,0,0-2.322-2.322h4.031A2.322,2.322,0,0,1,272.063,197.242Z" transform="translate(-235.415 -170.527)" fill="#ffd15b"/>
        <path id="Trazado_1049006" data-name="Trazado 1049006" d="M369.191,111.331H356.769V77.1a2.322,2.322,0,0,1,2.322-2.322h7.778a2.322,2.322,0,0,1,2.322,2.322v34.227Z" transform="translate(-314.623 -66.025)" fill="#fb5f7a"/>
        <path id="Trazado_1049007" data-name="Trazado 1049007" d="M409.753,77.1V111.33h-4.031V77.1A2.322,2.322,0,0,0,403.4,74.78h4.031A2.322,2.322,0,0,1,409.753,77.1Z" transform="translate(-355.185 -66.023)" fill="#f74455"/>
        <circle id="Elipse_12573" data-name="Elipse 12573" cx="15.171" cy="15.171" r="15.171" transform="translate(6.306 34.324)" fill="#eaf6ff"/>
        <path id="Trazado_1049008" data-name="Trazado 1049008" d="M200.213,286.4a15.18,15.18,0,0,1-17.1,15.049,15.172,15.172,0,0,0,0-30.1,15.18,15.18,0,0,1,17.1,15.048Z" transform="translate(-163.566 -236.906)" fill="#c8effe"/>
        <circle id="Elipse_12574" data-name="Elipse 12574" cx="2.596" cy="2.596" r="2.596" transform="translate(18.881 49.771)" fill="#8ebac5"/>
      </g>
      <g id="Grupo_1208539" data-name="Grupo 1208539" transform="translate(25.422 0)">
        <path id="Trazado_1049009" data-name="Trazado 1049009" d="M29.756,23.919l1.961-.6a.533.533,0,0,1,.475.088,11.129,11.129,0,0,0,2.385,1.381.547.547,0,0,1,.325.373l.462,1.993a2.441,2.441,0,0,0,2.388,1.9h2.33a2.441,2.441,0,0,0,2.388-1.9l.462-1.994a.546.546,0,0,1,.324-.373,11.129,11.129,0,0,0,2.385-1.381.533.533,0,0,1,.475-.088l1.962.6A2.441,2.441,0,0,0,50.916,22.8l1.165-2.018a2.441,2.441,0,0,0-.449-3.017l-1.5-1.4a.53.53,0,0,1-.162-.45h0a11.771,11.771,0,0,0,0-2.764.544.544,0,0,1,.161-.463l1.5-1.4a2.441,2.441,0,0,0,.449-3.017L50.916,6.255a2.442,2.442,0,0,0-2.837-1.119l-1.962.6a.532.532,0,0,1-.475-.088,11.145,11.145,0,0,0-2.385-1.382.539.539,0,0,1-.324-.372L42.47,1.9A2.441,2.441,0,0,0,40.082,0h-2.33a2.441,2.441,0,0,0-2.388,1.9L34.9,3.891a.547.547,0,0,1-.325.373,11.142,11.142,0,0,0-2.385,1.381.533.533,0,0,1-.475.088l-1.962-.6a2.441,2.441,0,0,0-2.837,1.119L25.754,8.273A2.441,2.441,0,0,0,26.2,11.29l1.5,1.4a.53.53,0,0,1,.162.45,11.755,11.755,0,0,0,0,2.764.537.537,0,0,1-.161.463l-1.5,1.4a2.441,2.441,0,0,0-.449,3.017L26.919,22.8A2.441,2.441,0,0,0,29.756,23.919Zm-1.147-2.1-1.165-2.018a.5.5,0,0,1,.091-.614l1.5-1.4a2.5,2.5,0,0,0,.767-2.122,9.791,9.791,0,0,1,0-2.3,2.489,2.489,0,0,0-.768-2.109l-1.5-1.4a.5.5,0,0,1-.091-.614l1.165-2.018A.5.5,0,0,1,29.187,7l1.961.6a2.49,2.49,0,0,0,2.224-.4,9.2,9.2,0,0,1,1.967-1.139A2.5,2.5,0,0,0,36.8,4.332l.462-1.994a.5.5,0,0,1,.486-.386h2.33a.5.5,0,0,1,.486.386l.462,1.993A2.5,2.5,0,0,0,42.5,6.062,9.189,9.189,0,0,1,44.463,7.2a2.49,2.49,0,0,0,2.223.4L48.648,7a.5.5,0,0,1,.578.228L50.39,9.249a.5.5,0,0,1-.091.614l-1.5,1.4a2.5,2.5,0,0,0-.766,2.122,9.806,9.806,0,0,1,0,2.3,2.489,2.489,0,0,0,.768,2.109l1.5,1.4a.5.5,0,0,1,.091.614l-1.165,2.018a.5.5,0,0,1-.578.228l-1.962-.6a2.489,2.489,0,0,0-2.223.4A9.186,9.186,0,0,1,42.5,22.993a2.5,2.5,0,0,0-1.465,1.73l-.462,1.993a.5.5,0,0,1-.486.387h-2.33a.5.5,0,0,1-.486-.387L36.8,24.723a2.5,2.5,0,0,0-1.465-1.729,9.182,9.182,0,0,1-1.967-1.139,2.5,2.5,0,0,0-1.507-.506,2.466,2.466,0,0,0-.717.106l-1.961.6A.5.5,0,0,1,28.609,21.824Z" transform="translate(-25.422 0)"/>
        <path id="Trazado_1049010" data-name="Trazado 1049010" d="M85.148,74.237a6.631,6.631,0,0,0,.98-.073.976.976,0,1,0-.289-1.931,4.68,4.68,0,0,1-.691.051,4.624,4.624,0,1,1,3.836-2.04A.976.976,0,1,0,90.6,71.337a6.578,6.578,0,1,0-5.454,2.9Z" transform="translate(-71.653 -53.131)"/>
        <path id="Trazado_1049011" data-name="Trazado 1049011" d="M103.358,105.783a.976.976,0,0,0,0-1.952h-2.5V70.58a3.3,3.3,0,0,0-3.3-3.3H89.78a3.3,3.3,0,0,0-3.3,3.3v5.344a.976.976,0,1,0,1.952,0V70.58a1.348,1.348,0,0,1,1.346-1.346h7.778A1.348,1.348,0,0,1,98.9,70.58v33.251H88.434V80.42a.976.976,0,1,0-1.952,0v23.412H82.935V86.216a3.3,3.3,0,0,0-3.3-3.3H71.86a3.3,3.3,0,0,0-3.3,3.3v6.731a16.629,16.629,0,0,0-3.546,0v-.6a3.3,3.3,0,0,0-3.3-3.3H53.94a3.3,3.3,0,0,0-3.3,3.3v11.483h-2.5a.976.976,0,0,0,0,1.952h2.824A16.169,16.169,0,0,0,53.6,118.312a.976.976,0,0,0,1.594-1.128,14.1,14.1,0,0,1-2.071-4.34h2.361a.976.976,0,0,0,0-1.952H52.721a14.376,14.376,0,0,1-.128-1.9,14.111,14.111,0,0,1,2.262-7.68l1.517,1.517a.976.976,0,0,0,1.381-1.38l-1.716-1.716a14.174,14.174,0,0,1,9.774-4.9V97.1a.976.976,0,0,0,1.952,0V94.836a14.174,14.174,0,0,1,9.774,4.9l-1.716,1.716a.976.976,0,0,0,1.381,1.38l1.517-1.517a14.176,14.176,0,0,1,2.135,9.576H78.094a.976.976,0,0,0,0,1.952h2.359a14.22,14.22,0,0,1-13.664,10.346,14.073,14.073,0,0,1-8.516-2.837.976.976,0,1,0-1.172,1.561,16.009,16.009,0,0,0,9.688,3.228,16.153,16.153,0,0,0,15.825-19.36ZM54.024,99.119a17.067,17.067,0,0,0-1.43,2.186V92.348A1.348,1.348,0,0,1,53.94,91h7.778a1.348,1.348,0,0,1,1.346,1.346v.936A16.181,16.181,0,0,0,54.024,99.119Zm16.49-5.835V86.216A1.347,1.347,0,0,1,71.86,84.87h7.778a1.347,1.347,0,0,1,1.346,1.346V101.3A16.32,16.32,0,0,0,70.514,93.284Z" transform="translate(-44.333 -58.525)"/>
        <path id="Trazado_1049012" data-name="Trazado 1049012" d="M147.587,355.921a3.549,3.549,0,0,0-1.738.453l-4.132-4.132a.976.976,0,1,0-1.38,1.38l4.132,4.132a3.571,3.571,0,1,0,3.119-1.834Zm0,5.192a1.62,1.62,0,1,1,1.62-1.62A1.622,1.622,0,0,1,147.587,361.113Z" transform="translate(-125.132 -306.15)"/>
        <path id="Trazado_1049013" data-name="Trazado 1049013" d="M157.57,455.955a.976.976,0,0,0,.976.976h8.56a.976.976,0,1,0,0-1.952h-8.56A.976.976,0,0,0,157.57,455.955Z" transform="translate(-140.371 -395.764)"/>
        <path id="Trazado_1049014" data-name="Trazado 1049014" d="M394.553,391.259H382.9a.976.976,0,1,0,0,1.952h11.65a.976.976,0,0,0,0-1.952Z" transform="translate(-335.528 -340.337)"/>
        <path id="Trazado_1049015" data-name="Trazado 1049015" d="M423.943,431.512H416.69a.976.976,0,1,0,0,1.952h7.252a.976.976,0,1,0,0-1.952Z" transform="translate(-364.918 -375.351)"/>
      </g>
    </g>
  </g>
</svg>
