<svg xmlns="http://www.w3.org/2000/svg" xmlns:xlink="http://www.w3.org/1999/xlink" width="113" height="113" viewBox="0 0 113 113">
  <defs>
    <filter id="Trazado_982547" x="0" y="0" width="113" height="113" filterUnits="userSpaceOnUse">
      <feOffset dy="3" input="SourceAlpha"/>
      <feGaussianBlur stdDeviation="3" result="blur"/>
      <feFlood flood-opacity="0.161"/>
      <feComposite operator="in" in2="blur"/>
      <feComposite in="SourceGraphic"/>
    </filter>
  </defs>
  <g id="Grupo_1208571" data-name="Grupo 1208571" transform="translate(-901 -3818.192)">
    <g id="Grupo_1208151" data-name="Grupo 1208151" transform="translate(0 -2083.095)">
      <g id="Grupo_1202434" data-name="Grupo 1202434" transform="translate(-0.56 1255.773)">
        <g id="Grupo_1202053" data-name="Grupo 1202053" transform="translate(0 3240.511)">
          <g id="Grupo_1177898" data-name="Grupo 1177898" transform="translate(910.561 1411.003)">
            <g id="Grupo_1172010" data-name="Grupo 1172010" transform="translate(0)">
              <g id="Grupo_1171046" data-name="Grupo 1171046">
                <g id="Grupo_1148525" data-name="Grupo 1148525">
                  <g transform="matrix(1, 0, 0, 1, -9, -6)" filter="url(#Trazado_982547)">
                    <g id="Trazado_982547-2" data-name="Trazado 982547" transform="translate(9 6)" fill="#e5fdfa">
                      <path d="M 47.5 93.5 C 41.28937149047852 93.5 35.26533508300781 92.28397369384766 29.59518623352051 89.88570404052734 C 24.11771965026855 87.56893157958984 19.19813346862793 84.25196075439453 14.97309303283691 80.02691650390625 C 10.74804019927979 75.80186462402344 7.431066513061523 70.88229370117188 5.114293098449707 65.40481567382812 C 2.716026782989502 59.73468017578125 1.5 53.71062850952148 1.5 47.5 C 1.5 41.28937149047852 2.716026782989502 35.26533508300781 5.114293098449707 29.59518623352051 C 7.431066513061523 24.11771965026855 10.74804019927979 19.19813346862793 14.97309303283691 14.97309303283691 C 19.19813346862793 10.74804019927979 24.11771965026855 7.431066513061523 29.59518623352051 5.114293098449707 C 35.26533508300781 2.716026782989502 41.28937149047852 1.5 47.5 1.5 C 53.71062850952148 1.5 59.73468017578125 2.716026782989502 65.40481567382812 5.114293098449707 C 70.88229370117188 7.431066513061523 75.80186462402344 10.74804019927979 80.02691650390625 14.97309303283691 C 84.25196075439453 19.19813346862793 87.56893157958984 24.11771965026855 89.88570404052734 29.59518623352051 C 92.28397369384766 35.26533508300781 93.5 41.28937149047852 93.5 47.5 C 93.5 53.71062850952148 92.28397369384766 59.73468017578125 89.88570404052734 65.40481567382812 C 87.56893157958984 70.88229370117188 84.25196075439453 75.80186462402344 80.02691650390625 80.02691650390625 C 75.80186462402344 84.25196075439453 70.88229370117188 87.56893157958984 65.40481567382812 89.88570404052734 C 59.73468017578125 92.28397369384766 53.71062850952148 93.5 47.5 93.5 Z" stroke="none"/>
                      <path d="M 47.5 3 C 41.49121475219727 3 35.66376876831055 4.176155090332031 30.17950439453125 6.495796203613281 C 24.88084411621094 8.736953735351562 20.12152099609375 11.94598388671875 16.03375244140625 16.03375244140625 C 11.94598388671875 20.12152099609375 8.736953735351562 24.88084411621094 6.495796203613281 30.17950439453125 C 4.176155090332031 35.66376876831055 3 41.49121475219727 3 47.5 C 3 53.50878524780273 4.176155090332031 59.33623123168945 6.495796203613281 64.82049560546875 C 8.736953735351562 70.11915588378906 11.94598388671875 74.87847900390625 16.03375244140625 78.96624755859375 C 20.12152099609375 83.05401611328125 24.88084411621094 86.26304626464844 30.17950439453125 88.50419616699219 C 35.66376876831055 90.82384490966797 41.49121475219727 92 47.5 92 C 53.50878524780273 92 59.33623123168945 90.82384490966797 64.82049560546875 88.50419616699219 C 70.11915588378906 86.26304626464844 74.87847900390625 83.05401611328125 78.96624755859375 78.96624755859375 C 83.05401611328125 74.87847900390625 86.26304626464844 70.11915588378906 88.50419616699219 64.82049560546875 C 90.82384490966797 59.33623123168945 92 53.50878524780273 92 47.5 C 92 41.49121475219727 90.82384490966797 35.66376876831055 88.50419616699219 30.17950439453125 C 86.26304626464844 24.88084411621094 83.05401611328125 20.12152099609375 78.96624755859375 16.03375244140625 C 74.87847900390625 11.94598388671875 70.11915588378906 8.736953735351562 64.82049560546875 6.495796203613281 C 59.33623123168945 4.176155090332031 53.50878524780273 3 47.5 3 M 47.5 0 C 73.7335205078125 0 95 21.2664794921875 95 47.5 C 95 73.7335205078125 73.7335205078125 95 47.5 95 C 21.2664794921875 95 0 73.7335205078125 0 47.5 C 0 21.2664794921875 21.2664794921875 0 47.5 0 Z" stroke="none" fill="#098576"/>
                    </g>
                  </g>
                </g>
              </g>
            </g>
          </g>
        </g>
      </g>
    </g>
    <g id="time-management_5985933" transform="translate(913.096 3825.741)">
      <path id="Trazado_1049048" data-name="Trazado 1049048" d="M31.987,24,24,31.987v49.92H63.936V24Z" transform="translate(-7.002 -7.002)" fill="#fbc87a"/>
      <path id="Trazado_1049049" data-name="Trazado 1049049" d="M31.987,31.987V24L24,31.987Z" transform="translate(-7.002 -7.002)" fill="#cfa565"/>
      <g id="Grupo_1208555" data-name="Grupo 1208555" transform="translate(30.976 29.978)">
        <path id="Trazado_1049050" data-name="Trazado 1049050" d="M148.979,130H137a1,1,0,0,1,0-2h11.981a1,1,0,1,1,0,2Z" transform="translate(-136 -128)" fill="#356e99"/>
      </g>
      <g id="Grupo_1208556" data-name="Grupo 1208556" transform="translate(30.976 33.971)">
        <path id="Trazado_1049051" data-name="Trazado 1049051" d="M153.971,162H137a1,1,0,0,1,0-2h16.973a1,1,0,0,1,0,2Z" transform="translate(-136 -160)" fill="#356e99"/>
      </g>
      <g id="Grupo_1208557" data-name="Grupo 1208557" transform="translate(30.976 38.963)">
        <path id="Trazado_1049052" data-name="Trazado 1049052" d="M148.979,202H137a1,1,0,0,1,0-2h11.981a1,1,0,0,1,0,2Z" transform="translate(-136 -200)" fill="#356e99"/>
      </g>
      <g id="Grupo_1208558" data-name="Grupo 1208558" transform="translate(30.976 42.957)">
        <path id="Trazado_1049053" data-name="Trazado 1049053" d="M153.971,234H137a1,1,0,0,1,0-2h16.973a1,1,0,1,1,0,2Z" transform="translate(-136 -232)" fill="#356e99"/>
      </g>
      <g id="Grupo_1208559" data-name="Grupo 1208559" transform="translate(30.976 47.949)">
        <path id="Trazado_1049054" data-name="Trazado 1049054" d="M148.979,274H137a1,1,0,1,1,0-2h11.981a1,1,0,1,1,0,2Z" transform="translate(-136 -272)" fill="#356e99"/>
      </g>
      <g id="Grupo_1208560" data-name="Grupo 1208560" transform="translate(30.976 51.942)">
        <path id="Trazado_1049055" data-name="Trazado 1049055" d="M153.971,306H137a1,1,0,0,1,0-2h16.973a1,1,0,0,1,0,2Z" transform="translate(-136 -304)" fill="#356e99"/>
      </g>
      <g id="Grupo_1208561" data-name="Grupo 1208561" transform="translate(30.976 56.934)">
        <path id="Trazado_1049056" data-name="Trazado 1049056" d="M148.979,346H137a1,1,0,0,1,0-2h11.981a1,1,0,0,1,0,2Z" transform="translate(-136 -344)" fill="#356e99"/>
      </g>
      <g id="Grupo_1208562" data-name="Grupo 1208562" transform="translate(30.976 60.928)">
        <path id="Trazado_1049057" data-name="Trazado 1049057" d="M153.971,378H137a1,1,0,0,1,0-2h16.973a1,1,0,0,1,0,2Z" transform="translate(-136 -376)" fill="#356e99"/>
      </g>
      <g id="Grupo_1208563" data-name="Grupo 1208563" transform="translate(30.976 65.92)">
        <path id="Trazado_1049058" data-name="Trazado 1049058" d="M148.979,418H137a1,1,0,0,1,0-2h11.981a1,1,0,1,1,0,2Z" transform="translate(-136 -416)" fill="#356e99"/>
      </g>
      <g id="Grupo_1208564" data-name="Grupo 1208564" transform="translate(30.976 69.913)">
        <path id="Trazado_1049059" data-name="Trazado 1049059" d="M153.971,450H137a1,1,0,0,1,0-2h16.973a1,1,0,0,1,0,2Z" transform="translate(-136 -448)" fill="#356e99"/>
      </g>
      <path id="Trazado_1049060" data-name="Trazado 1049060" d="M263.949,147.968v-7.987h-3.622a12.9,12.9,0,0,0-.794-1.917l2.561-2.561-5.648-5.648-2.561,2.561a12.9,12.9,0,0,0-1.917-.794V128h-7.987v3.622a12.905,12.905,0,0,0-1.917.794l-2.561-2.561-5.648,5.648,2.561,2.561a12.9,12.9,0,0,0-.794,1.917H232v7.987h3.622a12.9,12.9,0,0,0,.794,1.917l-2.561,2.561,5.648,5.648,2.561-2.561a12.892,12.892,0,0,0,1.917.794v3.622h7.987v-3.622a12.907,12.907,0,0,0,1.917-.794l2.561,2.561,5.648-5.648-2.561-2.561a12.9,12.9,0,0,0,.794-1.917h3.622Z" transform="translate(-189.043 -98.022)" fill="#58b7ff"/>
      <circle id="Elipse_12575" data-name="Elipse 12575" cx="9" cy="9" r="9" transform="translate(50.241 37.241)" fill="#356e99"/>
      <g id="Grupo_1208565" data-name="Grupo 1208565" transform="translate(53.939 38.963)">
        <path id="Trazado_1049061" data-name="Trazado 1049061" d="M324.992,207.987H321a1,1,0,0,1,0-2h3V201a1,1,0,1,1,2,0v5.99A1,1,0,0,1,324.992,207.987Z" transform="translate(-320 -200)" fill="#ff7f77"/>
      </g>
      <g id="Grupo_1208566" data-name="Grupo 1208566" transform="translate(21.99 20.992)">
        <path id="Trazado_1049062" data-name="Trazado 1049062" d="M64,352h5.99v3.994H64Z" transform="translate(-64 -315.059)" fill="#cd6660"/>
        <path id="Trazado_1049063" data-name="Trazado 1049063" d="M64,424h5.99v3.994H64Z" transform="translate(-64 -378.074)" fill="#cd6660"/>
        <path id="Trazado_1049064" data-name="Trazado 1049064" d="M136,56h21.965v3.994H136Z" transform="translate(-127.014 -56)" fill="#cd6660"/>
      </g>
      <g id="Grupo_1208567" data-name="Grupo 1208567" transform="translate(20.992 29.978)">
        <path id="Trazado_1049065" data-name="Trazado 1049065" d="M58.995,133.991a1,1,0,0,1-.706-.292l-2-2A1,1,0,0,1,57.7,130.29l1.291,1.291,3.288-3.288a1,1,0,0,1,1.412,1.412L59.7,133.7A1,1,0,0,1,58.995,133.991Z" transform="translate(-55.999 -128.001)" fill="#cd6660"/>
      </g>
      <g id="Grupo_1208568" data-name="Grupo 1208568" transform="translate(20.992 38.963)">
        <path id="Trazado_1049066" data-name="Trazado 1049066" d="M58.995,205.991a1,1,0,0,1-.706-.292l-2-2A1,1,0,0,1,57.7,202.29l1.291,1.291,3.288-3.288a1,1,0,1,1,1.412,1.412L59.7,205.7A1,1,0,0,1,58.995,205.991Z" transform="translate(-55.999 -200.001)" fill="#cd6660"/>
      </g>
      <g id="Grupo_1208569" data-name="Grupo 1208569" transform="translate(20.992 47.949)">
        <path id="Trazado_1049067" data-name="Trazado 1049067" d="M58.995,277.991a1,1,0,0,1-.706-.292l-2-2A1,1,0,1,1,57.7,274.29l1.291,1.291,3.288-3.288a1,1,0,0,1,1.412,1.412L59.7,277.7A1,1,0,0,1,58.995,277.991Z" transform="translate(-55.999 -272.001)" fill="#cd6660"/>
      </g>
      <g id="Grupo_1208570" data-name="Grupo 1208570" transform="translate(16 16)">
        <path id="Trazado_1049068" data-name="Trazado 1049068" d="M148.979,128H137a1,1,0,0,0,0,2h11.981a1,1,0,1,0,0-2Z" transform="translate(-121.024 -114.023)"/>
        <path id="Trazado_1049069" data-name="Trazado 1049069" d="M137,346h11.981a1,1,0,0,0,0-2H137a1,1,0,0,0,0,2Z" transform="translate(-121.024 -303.066)"/>
        <path id="Trazado_1049070" data-name="Trazado 1049070" d="M153.971,376H137a1,1,0,0,0,0,2h16.973a1,1,0,0,0,0-2Z" transform="translate(-121.024 -331.072)"/>
        <path id="Trazado_1049071" data-name="Trazado 1049071" d="M137,418h11.981a1,1,0,1,0,0-2H137a1,1,0,0,0,0,2Z" transform="translate(-121.024 -366.08)"/>
        <path id="Trazado_1049072" data-name="Trazado 1049072" d="M153.971,448H137a1,1,0,0,0,0,2h16.973a1,1,0,0,0,0-2Z" transform="translate(-121.024 -394.087)"/>
        <path id="Trazado_1049073" data-name="Trazado 1049073" d="M74.905,40.96H71.989q-.138-.361-.295-.712l2.062-2.062a1,1,0,0,0,0-1.412l-5.648-5.648a1,1,0,0,0-1.412,0l-2.062,2.062q-.351-.157-.712-.295V29.978a1,1,0,0,0-1-1H57.933V17a1,1,0,0,0-1-1H24.986a1,1,0,0,0-.706.292L16.292,24.28a1,1,0,0,0-.292.706v49.92a1,1,0,0,0,1,1H56.934a1,1,0,0,0,1-1V62.924h4.992a1,1,0,0,0,1-1V59.01q.36-.138.712-.295L66.7,60.777a1,1,0,0,0,1.412,0l5.648-5.648a1,1,0,0,0,0-1.412l-2.062-2.062q.157-.351.295-.712h2.916a1,1,0,0,0,1-1V41.958A1,1,0,0,0,74.905,40.96ZM23.987,19.409v4.579H19.409Zm31.949,54.5H18V25.984h6.989a1,1,0,0,0,1-1V18H55.936V28.979h-1a1,1,0,0,0-1,1v2.916q-.36.138-.712.295l-2.062-2.062a1,1,0,0,0-1.412,0l-2.845,2.845H31.974a1,1,0,1,0,0,2H44.912l-.806.806a1,1,0,0,0,0,1.412l2.062,2.062q-.157.351-.295.712H43.955a1,1,0,0,0,0-2H31.974a1,1,0,1,0,0,2H42.957a1,1,0,0,0-1,1v1H31.974a1,1,0,1,0,0,2h9.984v3H31.974a1,1,0,1,0,0,2h9.984a1,1,0,0,0,1,1h2.916q.138.361.295.712l-.286.286H31.974a1,1,0,1,0,0,2H43.939a1,1,0,0,0,.166,1.191l5.648,5.648a1,1,0,0,0,1.412,0l2.062-2.062q.351.157.712.295v2.916a1,1,0,0,0,1,1h1Zm17.971-24.96H71.283a1,1,0,0,0-.95.691,11.947,11.947,0,0,1-.732,1.769,1,1,0,0,0,.183,1.161l1.855,1.855L67.4,58.659,65.547,56.8a1,1,0,0,0-1.161-.183,11.924,11.924,0,0,1-1.769.732,1,1,0,0,0-.692.95v2.624h-5.99V58.3a1,1,0,0,0-.692-.95,11.923,11.923,0,0,1-1.769-.732,1,1,0,0,0-1.161.183l-1.855,1.855-4.236-4.236,1.855-1.855a1,1,0,0,0,.183-1.161,11.937,11.937,0,0,1-.732-1.769,1,1,0,0,0-.95-.692H43.955v-5.99h2.624a1,1,0,0,0,.95-.692,11.929,11.929,0,0,1,.732-1.769,1,1,0,0,0-.183-1.161L46.223,37.48l4.236-4.236L52.314,35.1a1,1,0,0,0,1.161.183,11.922,11.922,0,0,1,1.769-.732,1,1,0,0,0,.692-.95V30.976h5.99V33.6a1,1,0,0,0,.692.95,11.921,11.921,0,0,1,1.769.732,1,1,0,0,0,1.161-.183L67.4,33.244l4.236,4.236-1.855,1.855A1,1,0,0,0,69.6,40.5a11.946,11.946,0,0,1,.732,1.769,1,1,0,0,0,.95.691h2.624Z" transform="translate(-16 -16)"/>
        <path id="Trazado_1049074" data-name="Trazado 1049074" d="M289.984,176a9.984,9.984,0,1,0,9.984,9.984A10,10,0,0,0,289.984,176Zm0,17.971a7.987,7.987,0,1,1,7.987-7.987A8,8,0,0,1,289.984,193.971Z" transform="translate(-247.053 -156.032)"/>
        <path id="Trazado_1049075" data-name="Trazado 1049075" d="M324.992,200a1,1,0,0,0-1,1v4.992h-3a1,1,0,0,0,0,2h3.994a1,1,0,0,0,1-1V201A1,1,0,0,0,324.992,200Z" transform="translate(-282.061 -177.037)"/>
        <path id="Trazado_1049076" data-name="Trazado 1049076" d="M62.989,344H57a1,1,0,0,0-1,1v3.994a1,1,0,0,0,1,1h5.99a1,1,0,0,0,1-1V345A1,1,0,0,0,62.989,344Zm-1,3.994H58v-2H61.99Z" transform="translate(-51.008 -303.066)"/>
        <path id="Trazado_1049077" data-name="Trazado 1049077" d="M62.989,416H57a1,1,0,0,0-1,1v3.994a1,1,0,0,0,1,1h5.99a1,1,0,0,0,1-1V417A1,1,0,0,0,62.989,416Zm-1,3.993H58v-2H61.99Z" transform="translate(-51.008 -366.08)"/>
        <path id="Trazado_1049078" data-name="Trazado 1049078" d="M150.963,53.99a1,1,0,0,0,1-1V49a1,1,0,0,0-1-1H129a1,1,0,0,0-1,1v3.994a1,1,0,0,0,1,1ZM130,50h19.968v2H130Z" transform="translate(-114.022 -44.006)"/>
        <path id="Trazado_1049079" data-name="Trazado 1049079" d="M62.283,128.293,59,131.581,57.7,130.29a1,1,0,0,0-1.412,1.412l2,2a1,1,0,0,0,1.412,0l3.994-3.994a1,1,0,0,0-1.412-1.412Z" transform="translate(-51.008 -114.023)"/>
        <path id="Trazado_1049080" data-name="Trazado 1049080" d="M62.283,200.293,59,203.581,57.7,202.29a1,1,0,0,0-1.412,1.412l2,2a1,1,0,0,0,1.412,0l3.994-3.994a1,1,0,1,0-1.412-1.412Z" transform="translate(-51.008 -177.038)"/>
        <path id="Trazado_1049081" data-name="Trazado 1049081" d="M62.283,272.293,59,275.581,57.7,274.29a1,1,0,0,0-1.412,1.412l2,2a1,1,0,0,0,1.412,0l3.994-3.994a1,1,0,0,0-1.412-1.412Z" transform="translate(-51.008 -240.052)"/>
      </g>
    </g>
  </g>
</svg>
