<svg xmlns="http://www.w3.org/2000/svg" xmlns:xlink="http://www.w3.org/1999/xlink" width="113" height="113" viewBox="0 0 113 113">
  <defs>
    <filter id="Trazado_982547" x="0" y="0" width="113" height="113" filterUnits="userSpaceOnUse">
      <feOffset dy="3" input="SourceAlpha"/>
      <feGaussianBlur stdDeviation="3" result="blur"/>
      <feFlood flood-opacity="0.161"/>
      <feComposite operator="in" in2="blur"/>
      <feComposite in="SourceGraphic"/>
    </filter>
  </defs>
  <g id="Grupo_1208593" data-name="Grupo 1208593" transform="translate(-1216 -3817.905)">
    <g id="Grupo_1208152" data-name="Grupo 1208152" transform="translate(0 -2083.095)">
      <g id="Grupo_1202435" data-name="Grupo 1202435" transform="translate(-0.56 1255.486)">
        <g id="Grupo_1202052" data-name="Grupo 1202052" transform="translate(1225.561 4651.514)">
          <g id="Grupo_1172010" data-name="Grupo 1172010" transform="translate(0)">
            <g id="Grupo_1171046" data-name="Grupo 1171046">
              <g id="Grupo_1148525" data-name="Grupo 1148525">
                <g transform="matrix(1, 0, 0, 1, -9, -6)" filter="url(#Trazado_982547)">
                  <g id="Trazado_982547-2" data-name="Trazado 982547" transform="translate(9 6)" fill="#e5fdfa">
                    <path d="M 47.5 93.5 C 41.28937149047852 93.5 35.26533508300781 92.28397369384766 29.59518623352051 89.88570404052734 C 24.11771965026855 87.56893157958984 19.19813346862793 84.25196075439453 14.97309303283691 80.02691650390625 C 10.74804019927979 75.80186462402344 7.431066513061523 70.88229370117188 5.114293098449707 65.40481567382812 C 2.716026782989502 59.73468017578125 1.5 53.71062850952148 1.5 47.5 C 1.5 41.28937149047852 2.716026782989502 35.26533508300781 5.114293098449707 29.59518623352051 C 7.431066513061523 24.11771965026855 10.74804019927979 19.19813346862793 14.97309303283691 14.97309303283691 C 19.19813346862793 10.74804019927979 24.11771965026855 7.431066513061523 29.59518623352051 5.114293098449707 C 35.26533508300781 2.716026782989502 41.28937149047852 1.5 47.5 1.5 C 53.71062850952148 1.5 59.73468017578125 2.716026782989502 65.40481567382812 5.114293098449707 C 70.88229370117188 7.431066513061523 75.80186462402344 10.74804019927979 80.02691650390625 14.97309303283691 C 84.25196075439453 19.19813346862793 87.56893157958984 24.11771965026855 89.88570404052734 29.59518623352051 C 92.28397369384766 35.26533508300781 93.5 41.28937149047852 93.5 47.5 C 93.5 53.71062850952148 92.28397369384766 59.73468017578125 89.88570404052734 65.40481567382812 C 87.56893157958984 70.88229370117188 84.25196075439453 75.80186462402344 80.02691650390625 80.02691650390625 C 75.80186462402344 84.25196075439453 70.88229370117188 87.56893157958984 65.40481567382812 89.88570404052734 C 59.73468017578125 92.28397369384766 53.71062850952148 93.5 47.5 93.5 Z" stroke="none"/>
                    <path d="M 47.5 3 C 41.49121475219727 3 35.66376876831055 4.176155090332031 30.17950439453125 6.495796203613281 C 24.88084411621094 8.736953735351562 20.12152099609375 11.94598388671875 16.03375244140625 16.03375244140625 C 11.94598388671875 20.12152099609375 8.736953735351562 24.88084411621094 6.495796203613281 30.17950439453125 C 4.176155090332031 35.66376876831055 3 41.49121475219727 3 47.5 C 3 53.50878524780273 4.176155090332031 59.33623123168945 6.495796203613281 64.82049560546875 C 8.736953735351562 70.11915588378906 11.94598388671875 74.87847900390625 16.03375244140625 78.96624755859375 C 20.12152099609375 83.05401611328125 24.88084411621094 86.26304626464844 30.17950439453125 88.50419616699219 C 35.66376876831055 90.82384490966797 41.49121475219727 92 47.5 92 C 53.50878524780273 92 59.33623123168945 90.82384490966797 64.82049560546875 88.50419616699219 C 70.11915588378906 86.26304626464844 74.87847900390625 83.05401611328125 78.96624755859375 78.96624755859375 C 83.05401611328125 74.87847900390625 86.26304626464844 70.11915588378906 88.50419616699219 64.82049560546875 C 90.82384490966797 59.33623123168945 92 53.50878524780273 92 47.5 C 92 41.49121475219727 90.82384490966797 35.66376876831055 88.50419616699219 30.17950439453125 C 86.26304626464844 24.88084411621094 83.05401611328125 20.12152099609375 78.96624755859375 16.03375244140625 C 74.87847900390625 11.94598388671875 70.11915588378906 8.736953735351562 64.82049560546875 6.495796203613281 C 59.33623123168945 4.176155090332031 53.50878524780273 3 47.5 3 M 47.5 0 C 73.7335205078125 0 95 21.2664794921875 95 47.5 C 95 73.7335205078125 73.7335205078125 95 47.5 95 C 21.2664794921875 95 0 73.7335205078125 0 47.5 C 0 21.2664794921875 21.2664794921875 0 47.5 0 Z" stroke="none" fill="#098576"/>
                  </g>
                </g>
              </g>
            </g>
          </g>
        </g>
      </g>
    </g>
    <g id="curriculum_3212125" transform="translate(1238.684 3837.876)">
      <g id="Grupo_1208591" data-name="Grupo 1208591" transform="translate(2.059 6.293)">
        <g id="Grupo_1208572" data-name="Grupo 1208572" transform="translate(15.244 29.037)">
          <path id="Trazado_1049082" data-name="Trazado 1049082" d="M41.552,33.441l2.668,7.1a31.6,31.6,0,0,1-15.54,4.076h-3.44A15.949,15.949,0,0,0,16.4,36.151H28.616a31.769,31.769,0,0,0,8.246-1.08,32.276,32.276,0,0,0,4.679-1.641Z" transform="translate(-16.4 -33.43)" fill="#b4dd7f"/>
        </g>
        <g id="Grupo_1208573" data-name="Grupo 1208573" transform="translate(6.351 50.23)">
          <path id="Trazado_1049083" data-name="Trazado 1049083" d="M27.054,56.149V62.5H8V53.45a11.712,11.712,0,0,0,7.484,2.7Z" transform="translate(-8 -53.45)" fill="#b4dd7f"/>
        </g>
        <g id="Grupo_1208574" data-name="Grupo 1208574" transform="translate(2.117 30.699)">
          <path id="Trazado_1049084" data-name="Trazado 1049084" d="M29.406,50.879V57.23H15.718a11.725,11.725,0,0,1-6.5-21.479L10.351,35H11.41a15.923,15.923,0,0,1,2.149.148l1.027,5.145H18.82l1.059,4.234,6.457.921a15.917,15.917,0,0,1,.953,5.431Z" transform="translate(-4 -35)" fill="#b4dd7f"/>
        </g>
        <g id="Grupo_1208575" data-name="Grupo 1208575" transform="translate(11.676 30.847)">
          <path id="Trazado_1049085" data-name="Trazado 1049085" d="M25.807,45.44l-6.457-.921-1.059-4.234H14.057L13.03,35.14a15.5,15.5,0,0,1,3.144.762c.138.042.286.1.423.148a15.949,15.949,0,0,1,8.839,8.469C25.574,44.826,25.691,45.133,25.807,45.44Z" transform="translate(-13.03 -35.14)" fill="#a0d468"/>
        </g>
        <g id="Grupo_1208576" data-name="Grupo 1208576">
          <path id="Trazado_1049086" data-name="Trazado 1049086" d="M13.433,16.162l-.127.064a5.119,5.119,0,0,0-2.837,4.594,2.117,2.117,0,0,0,0,4.234v6.351L8.087,29.913A12.938,12.938,0,0,1,14.936,6H20a5.293,5.293,0,0,1,3.176,9.527A5.231,5.231,0,0,1,20,16.586H14.7A2.13,2.13,0,0,1,13.433,16.162Z" transform="translate(-2 -6)" fill="#b27946"/>
        </g>
        <g id="Grupo_1208577" data-name="Grupo 1208577" transform="translate(33.874 14.82)">
          <path id="Trazado_1049087" data-name="Trazado 1049087" d="M36.117,20h2.117v2.117a2.133,2.133,0,0,1-2.117,2.117A2.123,2.123,0,0,1,34,22.117V20Z" transform="translate(-34 -20)" fill="#aab2bd"/>
        </g>
        <g id="Grupo_1208578" data-name="Grupo 1208578" transform="translate(29.64 2.117)">
          <path id="Trazado_1049088" data-name="Trazado 1049088" d="M36.351,20.7H34.234l-1.694-1.27a6.181,6.181,0,0,1-1.874-2.244,6.358,6.358,0,0,1,.6-6.648,6.181,6.181,0,0,1,2.244-1.874,6.368,6.368,0,0,1,5.674,0,6.181,6.181,0,0,1,2.244,1.874,6.351,6.351,0,0,1-1.27,8.892L38.469,20.7Z" transform="translate(-30 -8)" fill="#ffeaa7"/>
        </g>
        <g id="Grupo_1208579" data-name="Grupo 1208579" transform="translate(33.874 6.351)">
          <ellipse id="Elipse_12576" data-name="Elipse 12576" cx="2.5" cy="2" rx="2.5" ry="2" transform="translate(-0.301 0.356)" fill="#fcd770"/>
        </g>
        <g id="Grupo_1208580" data-name="Grupo 1208580" transform="translate(33.874 46.577)">
          <path id="Trazado_1049089" data-name="Trazado 1049089" d="M36.445,57.495l3.906.974V54.584a1.016,1.016,0,0,0-.064-.349.918.918,0,0,0-.148-.286l-.783-1.037L37.176,50H53.054a1.062,1.062,0,0,1,1.059,1.059v7.41H49.879V62.7H35.059A1.062,1.062,0,0,1,34,61.644v-6.7l1.143,1.334.752.879a1.076,1.076,0,0,0,.55.339Z" transform="translate(-34 -50)" fill="#e6e9ed"/>
        </g>
        <g id="Grupo_1208581" data-name="Grupo 1208581" transform="translate(46.577 10.586)">
          <path id="Trazado_1049090" data-name="Trazado 1049090" d="M46,39.289V28.7a2.11,2.11,0,0,0,2.117-2.117v-.1A2.029,2.029,0,0,0,46.1,24.469H46v-7.41A1.062,1.062,0,0,1,47.059,16H58.7v4.234h4.234V40.347a1.062,1.062,0,0,1-1.059,1.059H47.059A1.062,1.062,0,0,1,46,40.347Z" transform="translate(-46 -16)" fill="#e6e9ed"/>
        </g>
        <g id="Grupo_1208582" data-name="Grupo 1208582" transform="translate(59.28 10.586)">
          <path id="Trazado_1049091" data-name="Trazado 1049091" d="M59.366,16.307l2.562,2.562a1.068,1.068,0,0,1,.307.741v.625H58V16h.625a1.068,1.068,0,0,1,.741.307Z" transform="translate(-58 -16)" fill="#b4dd7f"/>
        </g>
        <g id="Grupo_1208583" data-name="Grupo 1208583" transform="translate(49.753 55.046)">
          <path id="Trazado_1049092" data-name="Trazado 1049092" d="M49,58h4.234v.625a1.068,1.068,0,0,1-.307.741l-2.562,2.562a1.068,1.068,0,0,1-.741.307H49Z" transform="translate(-49 -58)" fill="#b4dd7f"/>
        </g>
        <g id="Grupo_1208584" data-name="Grupo 1208584" transform="translate(27.523 46.577)">
          <path id="Trazado_1049093" data-name="Trazado 1049093" d="M34.351,53.176l-.318,1.387-.614.857a3.168,3.168,0,0,1-2.244.932H28V50h3.176a3.176,3.176,0,0,1,1.874.614,3.138,3.138,0,0,1,1.3,2.562Z" transform="translate(-28 -50)" fill="#f0d0b4"/>
        </g>
        <g id="Grupo_1208585" data-name="Grupo 1208585" transform="translate(40.385 19.054)">
          <path id="Trazado_1049094" data-name="Trazado 1049094" d="M46.438,24a2.029,2.029,0,0,1,2.022,2.022v.1a2.11,2.11,0,0,1-2.117,2.117V38.82A31.611,31.611,0,0,1,42.828,41.1l-2.668-7.1-.011-.011a30.881,30.881,0,0,0,3.017-1.514l-.826-2.477a4.457,4.457,0,0,1-.233-1.44v-.318A4.233,4.233,0,0,1,46.343,24h.011Z" transform="translate(-40.15 -24)" fill="#f0d0b4"/>
        </g>
        <g id="Grupo_1208586" data-name="Grupo 1208586" transform="translate(6.351 9.527)">
          <path id="Trazado_1049095" data-name="Trazado 1049095" d="M14.351,16.059h5.293A5.231,5.231,0,0,0,22.82,15v2.953a4.227,4.227,0,0,0,.709,2.35L24.662,22a1.625,1.625,0,0,1-1.355,2.53H22.82v2.117H18.586a4.2,4.2,0,0,0,.879,2.583,4.133,4.133,0,0,0,2.212,1.493A5.659,5.659,0,0,1,17.136,33a4.7,4.7,0,0,1-.667-.042v4.128a15.5,15.5,0,0,0-3.144-.762,15.923,15.923,0,0,0-2.149-.148H10.117V24.527a2.117,2.117,0,0,1,0-4.234A5.119,5.119,0,0,1,12.954,15.7l.127-.064a2.13,2.13,0,0,0,1.27.423Z" transform="translate(-8 -15)" fill="#f0d0b4"/>
        </g>
        <g id="Grupo_1208587" data-name="Grupo 1208587" transform="translate(35.018 49.489)">
          <path id="Trazado_1049096" data-name="Trazado 1049096" d="M36.382,57.334a1.076,1.076,0,0,1-.55-.339l-.752-.879,4.213-3.366.783,1.037a.918.918,0,0,1,.148.286,1.016,1.016,0,0,1,.064.349v3.885Z" transform="translate(-35.08 -52.75)" fill="#aab2bd"/>
        </g>
        <g id="Grupo_1208588" data-name="Grupo 1208588" transform="translate(29.64 42.343)">
          <path id="Trazado_1049097" data-name="Trazado 1049097" d="M36.023,48.382l-3.091,2.466a3.176,3.176,0,0,0-1.874-.614H30.2a2.928,2.928,0,0,1-.2-1.048v-.36a2.821,2.821,0,0,1,5.081-1.694Z" transform="translate(-30 -46)" fill="#aab2bd"/>
        </g>
        <g id="Grupo_1208589" data-name="Grupo 1208589" transform="translate(32.572 44.725)">
          <path id="Trazado_1049098" data-name="Trazado 1049098" d="M35.861,48.25,37.248,50.1l2.181,2.911L35.215,56.38l-1.143-1.334-.318-.381.318-1.387a3.138,3.138,0,0,0-1.3-2.562Z" transform="translate(-32.77 -48.25)" fill="#ff826e"/>
        </g>
        <g id="Grupo_1208590" data-name="Grupo 1208590" transform="translate(16.937 21.172)">
          <path id="Trazado_1049099" data-name="Trazado 1049099" d="M22.234,26v.667a5.6,5.6,0,0,1-1.143,3.409,4.133,4.133,0,0,1-2.212-1.493A4.2,4.2,0,0,1,18,26Z" transform="translate(-18 -26)" fill="#ff826e"/>
        </g>
      </g>
      <g id="Grupo_1208592" data-name="Grupo 1208592" transform="translate(1 1)">
        <path id="Trazado_1049100" data-name="Trazado 1049100" d="M17.234,20.059a1.059,1.059,0,0,1-2.117,0V19H13v1.059a3.176,3.176,0,0,0,6.351,0V19H17.234Z" transform="translate(-0.297 0.054)"/>
        <path id="Trazado_1049101" data-name="Trazado 1049101" d="M66.012,18.762l-2.555-2.555a2.129,2.129,0,0,0-1.5-.62H49.695A2.119,2.119,0,0,0,47.577,17.7v6.461a5.306,5.306,0,0,0-4.234,5.187v.317a5.608,5.608,0,0,0,.288,1.775l.546,1.64a31.133,31.133,0,0,1-14.661,3.675H17.937V34.62a6.749,6.749,0,0,0,6.351-6.726V26.111A2.684,2.684,0,0,0,25.955,22l-1.133-1.7a3.153,3.153,0,0,1-.534-1.76V16.072A6.343,6.343,0,0,0,20.054,5H15A14,14,0,0,0,7.579,30.871l1.89,1.181v4.139l-.661.439A12.754,12.754,0,0,0,7.351,56.741V66.4H28.523V60.046h4.234a4.191,4.191,0,0,0,2.117-.589V64.28A2.119,2.119,0,0,0,36.992,66.4h15.44a2.129,2.129,0,0,0,1.5-.62l2.555-2.555a2.1,2.1,0,0,0,.62-1.5v-8.03a2.119,2.119,0,0,0-2.117-2.117H39.638l-2.01-2.68a3.881,3.881,0,0,0-6.988,2.328v.353H28.469a16.783,16.783,0,0,0-.806-4.234h1.918A33.025,33.025,0,0,0,47.75,41.826a2.12,2.12,0,0,0,1.945,1.283h14.82a2.119,2.119,0,0,0,2.117-2.117V20.258a2.1,2.1,0,0,0-.62-1.5Zm-3.614-.62,1.679,1.679H62.4ZM45.985,34.5l.754-.431-1.1-3.3a3.486,3.486,0,0,1-.179-1.1v-.317a3.205,3.205,0,0,1,3.268-3.179A.992.992,0,0,1,49.7,27.23a1.06,1.06,0,0,1-1.059,1.059h-1.06V39.377c-.62.449-1.254.878-1.906,1.278L43.79,35.638c.744-.354,1.479-.728,2.2-1.138ZM24.764,45.889l-3.856-.552-1.085-4.345H15.63l-.548-2.742A14.856,14.856,0,0,1,24.764,45.889Zm-4.526-17.6h1.894a4.561,4.561,0,0,1-.482,1.695A3.192,3.192,0,0,1,20.238,28.289Zm2.823-6.814,1.133,1.7a.566.566,0,0,1-.471.881H22.172v2.117H17.937V27.23a5.312,5.312,0,0,0,2.332,4.385,4.588,4.588,0,0,1-5.3.131l-1.742-1.162-1.174,1.761L13.8,33.508a6.741,6.741,0,0,0,2.02.9v1.853a16.837,16.837,0,0,0-4.234-.558V24.054H10.527a1.059,1.059,0,1,1,0-2.117h1.059V20.879a4.049,4.049,0,0,1,1.908-3.444,3.15,3.15,0,0,0,1.268.268h5.293a6.326,6.326,0,0,0,2.117-.371v1.206a5.271,5.271,0,0,0,.889,2.936ZM8.7,29.075A11.882,11.882,0,0,1,15,7.117h5.055a4.234,4.234,0,1,1,0,8.469H14.762a1.059,1.059,0,0,1,0-2.117H15.82V11.352H14.762a3.18,3.18,0,0,0-3.176,3.176,3.126,3.126,0,0,0,.348,1.415,6.133,6.133,0,0,0-2.4,4.036,3.177,3.177,0,0,0-.065,6.012v3.564Zm17.7,35.205H9.469V58.293A12.683,12.683,0,0,0,15.9,60.046H26.406Zm6.351-6.351H30.64V53.695h2.117a2.117,2.117,0,1,1,0,4.234Zm8.469-.706v2.526L38.635,59.1l-.036-.042,2.5-2Zm-4.007.228-.41-.477a4.052,4.052,0,0,0-.614-3.614l1.333-1.066,2.3,3.069ZM52.87,63.842V62.163h1.679Zm2.117-10.148v6.351H50.753V64.28H36.992V60.437l.035.041a2.1,2.1,0,0,0,1.095.677l3.906.977a1.124,1.124,0,0,0,.257.031h6.351V60.046H43.343V57.929H52.87V55.812H42.814l-1.588-2.117Zm-22.23-2.47a1.764,1.764,0,0,1,3.176-1.059l.324.432L34.53,51.98a4.183,4.183,0,0,0-1.773-.4ZM9.469,44.606a9.1,9.1,0,0,0,9.089,9.089h9.965v4.234H15.9A10.665,10.665,0,0,1,9.982,38.392l.865-.576h.739c.427,0,.845.029,1.262.064l1.046,5.229h4.276L19.2,47.232l6.511.93a14.749,14.749,0,0,1,.64,3.415H18.559a6.98,6.98,0,0,1-6.973-6.972,4.642,4.642,0,0,0-1.369-3.3l-1.5,1.5a2.538,2.538,0,0,1,.748,1.807Zm17.324.62a17.028,17.028,0,0,0-5.37-6.351h8.094A33.247,33.247,0,0,0,41.847,36.49l1.963,5.234a30.92,30.92,0,0,1-14.228,3.5Zm22.9-4.234V30.21a3.223,3.223,0,0,0,2.118-3.07,3.065,3.065,0,0,0-2.118-2.9V17.7H60.28v4.234h4.234V40.992Z" transform="translate(-1 -0.766)"/>
        <path id="Trazado_1049102" data-name="Trazado 1049102" d="M49,19h2.117v2.117H49Z" transform="translate(1.812 0.054)"/>
        <path id="Trazado_1049103" data-name="Trazado 1049103" d="M53,19h2.117v2.117H53Z" transform="translate(2.046 0.054)"/>
        <path id="Trazado_1049104" data-name="Trazado 1049104" d="M51,23h8.469v2.117H51Z" transform="translate(1.929 0.289)"/>
        <path id="Trazado_1049105" data-name="Trazado 1049105" d="M51,27h6.351v2.117H51Z" transform="translate(1.929 0.523)"/>
        <path id="Trazado_1049106" data-name="Trazado 1049106" d="M49,31H59.586v2.117H49Z" transform="translate(1.812 0.757)"/>
        <path id="Trazado_1049107" data-name="Trazado 1049107" d="M49,35H59.586v2.117H49Z" transform="translate(1.812 0.992)"/>
        <path id="Trazado_1049108" data-name="Trazado 1049108" d="M29,14.41a7.447,7.447,0,0,0,2.964,5.928l1.27.953v1.588a3.176,3.176,0,1,0,6.351,0V21.291l1.269-.953A7.41,7.41,0,1,0,29,14.41Zm7.41,9.527a1.06,1.06,0,0,1-1.059-1.059V21.82h2.117v1.059A1.06,1.06,0,0,1,36.41,23.937ZM35.351,14.41a1.059,1.059,0,1,1,1.059,1.059A1.06,1.06,0,0,1,35.351,14.41Zm-3.176-3.176a5.293,5.293,0,1,1,7.409,7.41L38.174,19.7h-.705V17.391a3.176,3.176,0,1,0-2.117,0V19.7h-.705l-1.412-1.059a5.293,5.293,0,0,1-1.059-7.41Z" transform="translate(0.64 -0.649)"/>
        <path id="Trazado_1049109" data-name="Trazado 1049109" d="M0,0H2.117V3.817H0Z" transform="matrix(0.832, -0.555, 0.555, 0.832, 27.701, 3.754)"/>
        <path id="Trazado_1049110" data-name="Trazado 1049110" d="M0,0H3.817V2.117H0Z" transform="matrix(0.555, -0.832, 0.832, 0.555, 42.534, 5.768)"/>
        <path id="Trazado_1049111" data-name="Trazado 1049111" d="M35,1h2.117V5.234H35Z" transform="translate(0.992 -1)"/>
      </g>
    </g>
  </g>
</svg>
