<svg xmlns="http://www.w3.org/2000/svg" xmlns:xlink="http://www.w3.org/1999/xlink" width="108" height="108" viewBox="0 0 108 108">
  <defs>
    <filter id="Trazado_904820" x="0" y="0" width="108" height="108" filterUnits="userSpaceOnUse">
      <feOffset dy="3" input="SourceAlpha"/>
      <feGaussianBlur stdDeviation="3" result="blur"/>
      <feFlood flood-opacity="0.161"/>
      <feComposite operator="in" in2="blur"/>
      <feComposite in="SourceGraphic"/>
    </filter>
  </defs>
  <g id="Grupo_1208607" data-name="Grupo 1208607" transform="translate(-200 -960)">
    <g id="Grupo_1208602" data-name="Grupo 1208602">
      <g id="Grupo_1208157" data-name="Grupo 1208157" transform="translate(209 966)">
        <g id="Grupo_1173585" data-name="Grupo 1173585" transform="translate(0 0)">
          <g id="Grupo_1173428" data-name="Grupo 1173428">
            <g id="Grupo_1171958" data-name="Grupo 1171958">
              <g id="Grupo_1167341" data-name="Grupo 1167341">
                <g id="Grupo_1166792" data-name="Grupo 1166792">
                  <g transform="matrix(1, 0, 0, 1, -9, -6)" filter="url(#Trazado_904820)">
                    <g id="Trazado_904820-2" data-name="Trazado 904820" transform="translate(9 6)" fill="#f6ecfe">
                      <path d="M 44.99999618530273 88.50003051757812 C 39.12687301635742 88.50003051757812 33.43022155761719 87.35010528564453 28.06829643249512 85.08219146728516 C 22.88852119445801 82.89134216308594 18.23629570007324 79.75461578369141 14.24084663391113 75.75916290283203 C 10.24540901184082 71.76371765136719 7.108683586120605 67.11148834228516 4.917821407318115 61.93171691894531 C 2.649921178817749 56.56978988647461 1.499996185302734 50.87313842773438 1.499996185302734 45.00001525878906 C 1.499996185302734 39.12689208984375 2.649921178817749 33.43024063110352 4.917821407318115 28.06830215454102 C 7.108683586120605 22.88852691650391 10.24540901184082 18.23631477355957 14.24084663391113 14.24086570739746 C 18.23629570007324 10.24541568756104 22.88852119445801 7.10869026184082 28.06829643249512 4.917827606201172 C 33.43022155761719 2.649927854537964 39.12687301635742 1.50000274181366 44.99999618530273 1.50000274181366 C 50.87311935424805 1.50000274181366 56.56977081298828 2.649927854537964 61.93169784545898 4.917827606201172 C 67.11147308349609 7.10869026184082 71.76369476318359 10.24541568756104 75.75914764404297 14.24086570739746 C 79.75458526611328 18.23631477355957 82.89131164550781 22.88852691650391 85.08216857910156 28.06830215454102 C 87.35007476806641 33.43024063110352 88.5 39.12689208984375 88.5 45.00001525878906 C 88.5 50.87313842773438 87.35007476806641 56.56978988647461 85.08216857910156 61.93171691894531 C 82.89131164550781 67.11148834228516 79.75458526611328 71.76371765136719 75.75914764404297 75.75916290283203 C 71.76369476318359 79.75461578369141 67.11147308349609 82.89134216308594 61.93169784545898 85.08219146728516 C 56.56977081298828 87.35010528564453 50.87311935424805 88.50003051757812 44.99999618530273 88.50003051757812 Z" stroke="none"/>
                      <path d="M 44.99999618530273 3 C 39.32870864868164 3 33.82865142822266 4.110061645507812 28.65262603759766 6.299346923828125 C 23.65165710449219 8.414573669433594 19.15968322753906 11.44334411621094 15.301513671875 15.301513671875 C 11.44333648681641 19.15968322753906 8.414566040039062 23.65165710449219 6.299339294433594 28.65262985229492 C 4.110054016113281 33.82867050170898 2.999992370605469 39.32872772216797 2.999992370605469 45.00001525878906 C 2.999992370605469 50.67130279541016 4.110054016113281 56.17136001586914 6.299339294433594 61.34738922119141 C 8.414566040039062 66.34837341308594 11.44333648681641 70.84033203125 15.301513671875 74.69850158691406 C 19.15968322753906 78.55668640136719 23.65165710449219 81.58545684814453 28.65262603759766 83.70068359375 C 33.82865142822266 85.88996887207031 39.32870864868164 87.00003051757812 44.99999618530273 87.00003051757812 C 50.67128372192383 87.00003051757812 56.17134094238281 85.88996887207031 61.34736633300781 83.70068359375 C 66.34834289550781 81.58545684814453 70.84030914306641 78.55668640136719 74.69847869873047 74.69850158691406 C 78.55665588378906 70.84033203125 81.58542633056641 66.34837341308594 83.70065307617188 61.34738922119141 C 85.88993835449219 56.17136001586914 87 50.67130279541016 87 45.00001525878906 C 87 39.32872772216797 85.88993835449219 33.82867050170898 83.70065307617188 28.65262985229492 C 81.58542633056641 23.65165710449219 78.55665588378906 19.15968322753906 74.69847869873047 15.301513671875 C 70.84030914306641 11.44334411621094 66.34834289550781 8.414573669433594 61.34736633300781 6.299346923828125 C 56.17134094238281 4.110061645507812 50.67128372192383 3 44.99999618530273 3 M 44.99999618530273 0 C 69.85281372070312 0 90 20.14718627929688 90 45.00001525878906 C 90 69.85282897949219 69.85281372070312 90.00003051757812 44.99999618530273 90.00003051757812 C 20.14717864990234 90.00003051757812 -7.62939453125e-06 69.85282897949219 -7.62939453125e-06 45.00001525878906 C -7.62939453125e-06 20.14718627929688 20.14717864990234 0 44.99999618530273 0 Z" stroke="none" fill="#5c2c88"/>
                    </g>
                  </g>
                </g>
              </g>
            </g>
          </g>
        </g>
      </g>
    </g>
    <g id="creativity_5500936" transform="translate(222 979)">
      <g id="Grupo_1208606" data-name="Grupo 1208606">
        <path id="Trazado_1049112" data-name="Trazado 1049112" d="M48,21V15H45.67a13.935,13.935,0,0,0-1.886-4.541l1.652-1.652L41.193,4.564,39.541,6.216A13.935,13.935,0,0,0,35,4.33V2H29V4.33a13.935,13.935,0,0,0-4.541,1.886L22.807,4.564,18.564,8.807l1.652,1.652A13.883,13.883,0,0,0,18.33,15H16v6h2.33a13.935,13.935,0,0,0,1.886,4.541l-1.652,1.652,4.243,4.243,1.652-1.652A13.883,13.883,0,0,0,29,31.67V34h6V31.67a13.935,13.935,0,0,0,4.541-1.886l1.652,1.652,4.243-4.243-1.652-1.652A13.883,13.883,0,0,0,45.67,21Z" fill="#777"/>
        <path id="Trazado_1049113" data-name="Trazado 1049113" d="M43.783,10.459l1.652-1.652L41.192,4.564,39.54,6.216A13.921,13.921,0,0,0,35,4.33V2H29V4.33a13.935,13.935,0,0,0-4.541,1.886L22.807,4.564l-.15.15A16.97,16.97,0,0,0,45.285,27.342l.15-.15L43.783,25.54A13.883,13.883,0,0,0,45.669,21H48V15H45.67a13.919,13.919,0,0,0-1.887-4.54Z" fill="#959595"/>
        <circle id="Elipse_12577" data-name="Elipse 12577" cx="9" cy="9" r="9" transform="translate(23 9)" fill="#dcdcdc"/>
        <path id="Trazado_1049114" data-name="Trazado 1049114" d="M31,10a8.955,8.955,0,0,0-5.84,2.16A8.993,8.993,0,0,0,37.84,24.84,8.993,8.993,0,0,0,31,10Z" fill="#fff"/>
        <path id="Trazado_1049115" data-name="Trazado 1049115" d="M52,36,32,30,12,36l20,6Z" fill="#893b1b"/>
        <path id="Trazado_1049116" data-name="Trazado 1049116" d="M42.492,38.852,48,26,47,14,37,21,31.681,33.411l-2.136,7.061L32,43.547,42.5,42Z" fill="#e7b532"/>
        <path id="Trazado_1049117" data-name="Trazado 1049117" d="M42.984,37.705,48,26,47,14,37,21,31.872,32.965,34.4,40.279Z" fill="#f9cb66"/>
        <path id="Trazado_1049118" data-name="Trazado 1049118" d="M48,26,37,21l10-7Z" fill="#ffe1d3"/>
        <path id="Trazado_1049119" data-name="Trazado 1049119" d="M52,36V56L32,62,12,56V36l20,6Z" fill="#a44b2f"/>
        <path id="Trazado_1049120" data-name="Trazado 1049120" d="M32,42V62l20-6V36Z" fill="#893b1b"/>
        <path id="Trazado_1049121" data-name="Trazado 1049121" d="M32,42l7,7,20-6-7-7Z" fill="#a44b2f"/>
        <path id="Trazado_1049122" data-name="Trazado 1049122" d="M32,42l-7,7L5,43l7-7Z" fill="#c7644a"/>
        <path id="Trazado_1049123" data-name="Trazado 1049123" d="M34.4,41.279,26,17,16,20l6.644,19.193L32,42Z" fill="#2769b3"/>
        <path id="Trazado_1049124" data-name="Trazado 1049124" d="M32,41l2.091-.627L26,17,16,20l6.258,18.077Z" fill="#3c82c2"/>
        <g id="Grupo_1208605" data-name="Grupo 1208605">
          <path id="Trazado_1049125" data-name="Trazado 1049125" d="M17.382,23.993l.656,1.894,3.237-.925-.55-1.924Z" fill="#b4b4b4"/>
          <path id="Trazado_1049126" data-name="Trazado 1049126" d="M22.726,28.038l-3.589,1.025.656,1.894,3.482-1Z" fill="#b4b4b4"/>
          <path id="Trazado_1049127" data-name="Trazado 1049127" d="M24.725,33.038l-3.833,1.1.656,1.894,3.727-1.065Z" fill="#b4b4b4"/>
        </g>
        <path id="Trazado_1049128" data-name="Trazado 1049128" d="M47.488,19.858l-5.37-2.441L47,14Z" fill="#3f4042"/>
      </g>
      <path id="Trazado_1049129" data-name="Trazado 1049129" d="M59.707,42.293l-7-7a1,1,0,0,0-.42-.251l-6.269-1.88,2.9-6.768A1.01,1.01,0,0,0,49,25.917l-1-12a1,1,0,0,0-1.57-.736l-.192.134a14.9,14.9,0,0,0-1.191-2.7l1.1-1.1a1,1,0,0,0,0-1.414L41.9,3.858a1.029,1.029,0,0,0-1.414,0l-1.1,1.1A14.853,14.853,0,0,0,36,3.548V2a1,1,0,0,0-1-1H29a1,1,0,0,0-1,1V3.548a14.9,14.9,0,0,0-3.387,1.408l-1.1-1.1a1,1,0,0,0-1.414,0L17.858,8.1a1,1,0,0,0,0,1.414l1.1,1.1A14.813,14.813,0,0,0,17.548,14H16a1,1,0,0,0-1,1v6a1,1,0,0,0,.606.918l3.749,10.831-7.642,2.293a1,1,0,0,0-.419.251l-7,7a1,1,0,0,0,.42,1.665L11,45.844V56a1,1,0,0,0,.713.958l20,6a1,1,0,0,0,.574,0l20-6A1,1,0,0,0,53,56V45.844l6.287-1.886a1,1,0,0,0,.42-1.665ZM48.519,36l-4.266,1.28.972-2.268ZM42.1,27.572l-5.717,12.07-1.343.4-.518-1.5,5.4-12.143-1.828-.812L33.559,35.78l-.807-2.331,4.765-11.116L46.7,26.5,41.758,38.028l-2.8.84,4.946-10.441Zm4.052-11.755.2,2.425-2.223-1.011Zm-3.923,2.747,4.316,1.962.322,3.859-7.853-3.57Zm-5.8,1.617a1,1,0,0,0-.346.426l-2.208,5.152a8.08,8.08,0,0,1-3.787-.011l-3.141-9.074a1,1,0,0,0-1.232-.631l-1.566.47A7.99,7.99,0,0,1,39.984,17.69ZM32,28c.317,0,.628-.039.941-.068L31.78,30.641l-.945-2.728A10.063,10.063,0,0,0,32,28ZM18.331,16a1,1,0,0,0,.977-.786A12.882,12.882,0,0,1,21.059,11a1,1,0,0,0-.135-1.247l-.945-.944,2.829-2.829.945.945A1,1,0,0,0,25,7.059a12.9,12.9,0,0,1,4.214-1.752A1,1,0,0,0,30,4.33V3h4V4.33a1,1,0,0,0,.786.977A12.9,12.9,0,0,1,39,7.059a1,1,0,0,0,1.247-.135l.945-.945,2.829,2.829-.945.944A1,1,0,0,0,42.941,11a12.912,12.912,0,0,1,1.568,3.524L41.856,16.38a9.988,9.988,0,0,0-19.809.762L17,18.656V16Zm7.038,2.233,7.75,22.387L32,40.956l-8.579-2.574-.91-2.63,2.764-.79-.55-1.924-2.87.82-1.1-3.177,2.519-.72-.549-1.924-2.625.75L19,25.611l2.274-.65-.55-1.924-2.38.68-1.059-3.06ZM21.06,37.674,15.481,36l4.529-1.359Zm-8.775-.544,17.824,5.347L24.715,47.87,6.891,42.523ZM13,46.444l11.713,3.514a1,1,0,0,0,.994-.251L31,44.414V60.656l-18-5.4Zm38,8.812-18,5.4V44.414l5.293,5.293a1,1,0,0,0,.994.251L51,46.444ZM39.285,47.87l-5.394-5.393L51.715,37.13l5.394,5.394Z"/>
    </g>
  </g>
</svg>
